<svg width="29" height="28" viewBox="0 0 29 28" fill="none" xmlns="http://www.w3.org/2000/svg">
<path d="M14.5 0C8.90957 0 4.35 4.00213 4.35 8.90909C4.35 11.9766 6.13418 14.701 8.83593 16.3069C3.66465 18.2557 0 22.7599 0 28H2.9C2.9 22.3622 8.07694 17.8182 14.5 17.8182C20.9231 17.8182 26.1 22.3622 26.1 28H29C29 22.7599 25.3354 18.2557 20.1641 16.3069C22.8657 14.701 24.65 11.9766 24.65 8.90909C24.65 4.00213 20.0904 0 14.5 0ZM14.5 2.54545C18.5215 2.54545 21.75 5.37926 21.75 8.90909C21.75 12.4389 18.5215 15.2727 14.5 15.2727C10.4785 15.2727 7.25 12.4389 7.25 8.90909C7.25 5.37926 10.4785 2.54545 14.5 2.54545Z" fill="#FEFEFE"/>
</svg>
