<svg width="33" height="30" viewBox="0 0 33 30" fill="none" xmlns="http://www.w3.org/2000/svg">
<path d="M1.375 0.484375C0.617676 0.484375 0 1.13715 0 1.9375C0 2.73786 0.617676 3.39062 1.375 3.39062H4.42578L8.03515 18.6484C8.3413 19.9427 9.43701 20.8281 10.6992 20.8281H26.4688C27.7096 20.8281 28.7623 19.9597 29.0899 18.6939L32.6562 4.84375H9.625L10.3125 7.75H29.0899L26.4688 17.9219H10.6992L7.08985 2.66406C6.7837 1.36987 5.68799 0.484375 4.42578 0.484375H1.375ZM24.75 20.8281C22.4888 20.8281 20.625 22.7978 20.625 25.1875C20.625 27.5772 22.4888 29.5469 24.75 29.5469C27.0112 29.5469 28.875 27.5772 28.875 25.1875C28.875 22.7978 27.0112 20.8281 24.75 20.8281ZM12.375 20.8281C10.1138 20.8281 8.25 22.7978 8.25 25.1875C8.25 27.5772 10.1138 29.5469 12.375 29.5469C14.6362 29.5469 16.5 27.5772 16.5 25.1875C16.5 22.7978 14.6362 20.8281 12.375 20.8281ZM12.375 23.7344C13.1484 23.7344 13.75 24.3701 13.75 25.1875C13.75 26.0049 13.1484 26.6406 12.375 26.6406C11.6016 26.6406 11 26.0049 11 25.1875C11 24.3701 11.6016 23.7344 12.375 23.7344ZM24.75 23.7344C25.5235 23.7344 26.125 24.3701 26.125 25.1875C26.125 26.0049 25.5235 26.6406 24.75 26.6406C23.9765 26.6406 23.375 26.0049 23.375 25.1875C23.375 24.3701 23.9765 23.7344 24.75 23.7344Z" fill="#FEFEFE"/>
</svg>
