<svg width="31" height="31" viewBox="0 0 31 31" fill="none" xmlns="http://www.w3.org/2000/svg">
<path d="M15.8305 3.29257C19.8209 3.29257 20.2795 3.31551 21.8619 3.38431C23.3067 3.45311 24.1094 3.68244 24.6369 3.88884C25.3249 4.16404 25.8294 4.4851 26.3569 5.01257C26.8843 5.54004 27.2054 6.02164 27.4806 6.73257C27.687 7.26003 27.9393 8.03977 27.9851 9.5075C28.0539 11.0899 28.0769 11.5486 28.0769 15.539C28.0769 19.5294 28.0539 19.988 27.9851 21.5704C27.9163 23.0152 27.687 23.8179 27.4806 24.3453C27.2054 25.0333 26.8843 25.5379 26.3569 26.0653C25.8294 26.5928 25.3478 26.9139 24.6369 27.1891C24.1094 27.3955 23.3297 27.6477 21.8619 27.6936C20.2795 27.7624 19.8209 27.7853 15.8305 27.7853C11.8401 27.7853 11.3814 27.7624 9.79903 27.6936C8.35424 27.6248 7.55155 27.3955 7.02408 27.1891C6.33608 26.9139 5.83155 26.5928 5.30408 26.0653C4.77662 25.5379 4.45557 25.0563 4.18037 24.3453C3.97397 23.8179 3.72169 23.0381 3.67582 21.5704C3.60702 19.988 3.58409 19.5294 3.58409 15.539C3.58409 11.5486 3.60702 11.0899 3.67582 9.5075C3.74462 8.0627 3.97397 7.26003 4.18037 6.73257C4.45557 6.04457 4.77662 5.54004 5.30408 5.01257C5.83155 4.4851 6.31315 4.16404 7.02408 3.88884C7.55155 3.68244 8.3313 3.43017 9.79903 3.38431C11.3814 3.31551 11.8401 3.29257 15.8305 3.29257ZM15.8305 0.609375C11.7713 0.609375 11.2668 0.632309 9.68437 0.701109C8.10197 0.769908 7.00116 1.02217 6.06089 1.38911C5.07476 1.77897 4.24916 2.28351 3.42356 3.1091C2.59796 3.9347 2.09343 4.7603 1.70357 5.74643C1.33663 6.6867 1.08437 7.7875 1.01557 9.3699C0.946767 10.9523 0.923828 11.4798 0.923828 15.516C0.923828 19.5752 0.946767 20.0798 1.01557 21.6621C1.08437 23.2445 1.33663 24.3453 1.70357 25.2856C2.09343 26.2717 2.59796 27.0973 3.42356 27.9229C4.24916 28.7485 5.07476 29.2531 6.06089 29.6429C7.00116 30.0099 8.10197 30.2621 9.68437 30.3309C11.2668 30.3997 11.7942 30.4227 15.8305 30.4227C19.8897 30.4227 20.3942 30.3997 21.9766 30.3309C23.559 30.2621 24.6598 30.0099 25.6001 29.6429C26.5862 29.2531 27.4118 28.7485 28.2374 27.9229C29.063 27.0973 29.5675 26.2717 29.9574 25.2856C30.3243 24.3453 30.5766 23.2445 30.6454 21.6621C30.7142 20.0798 30.7371 19.5523 30.7371 15.516C30.7371 11.4798 30.7142 10.9523 30.6454 9.3699C30.5766 7.7875 30.3243 6.6867 29.9574 5.74643C29.5675 4.7603 29.063 3.9347 28.2374 3.1091C27.4118 2.28351 26.5862 1.77897 25.6001 1.38911C24.6598 1.02217 23.559 0.769908 21.9766 0.701109C20.3942 0.632309 19.8897 0.609375 15.8305 0.609375Z" fill="#64B6FA"/>
<path d="M15.8316 7.87939C11.5889 7.87939 8.17188 11.3194 8.17188 15.5391C8.17188 19.7588 11.6119 23.1988 15.8316 23.1988C20.0743 23.1988 23.4913 19.7588 23.4913 15.5391C23.4913 11.3194 20.0743 7.87939 15.8316 7.87939ZM15.8316 20.5156C13.0796 20.5156 10.8551 18.2911 10.8551 15.5391C10.8551 12.7871 13.0796 10.5626 15.8316 10.5626C18.5836 10.5626 20.8081 12.7871 20.8081 15.5391C20.8081 18.2911 18.5836 20.5156 15.8316 20.5156Z" fill="#64B6FA"/>
<path d="M23.7888 9.34713C24.7767 9.34713 25.5776 8.54625 25.5776 7.55833C25.5776 6.5704 24.7767 5.76953 23.7888 5.76953C22.8009 5.76953 22 6.5704 22 7.55833C22 8.54625 22.8009 9.34713 23.7888 9.34713Z" fill="#64B6FA"/>
</svg>
