<svg width="476" height="86" viewBox="0 0 476 86" fill="none" xmlns="http://www.w3.org/2000/svg">
<path d="M184.524 35.6314L196.811 57H181.022L173.068 41.9826H169.151V57H155.142V15.4499H169.151V30.9421H173.424L182.269 15.4499H196.871L184.524 35.6314ZM220.51 57.9497C216.038 57.9497 212.022 57.0198 208.461 55.1599C204.899 53.3001 202.109 50.7279 200.091 47.4435C198.073 44.1195 197.064 40.38 197.064 36.2249C197.064 32.0699 198.073 28.3502 200.091 25.0658C202.109 21.7418 204.899 19.1498 208.461 17.29C212.022 15.4301 216.038 14.5002 220.51 14.5002C224.982 14.5002 228.998 15.4301 232.56 17.29C236.121 19.1498 238.911 21.7418 240.929 25.0658C242.947 28.3502 243.956 32.0699 243.956 36.2249C243.956 40.38 242.947 44.1195 240.929 47.4435C238.911 50.7279 236.121 53.3001 232.56 55.1599C228.998 57.0198 224.982 57.9497 220.51 57.9497ZM220.51 46.6125C222.251 46.6125 223.814 46.197 225.199 45.366C226.624 44.4954 227.752 43.2885 228.583 41.7452C229.414 40.1623 229.829 38.3222 229.829 36.2249C229.829 34.1276 229.414 32.3074 228.583 30.7641C227.752 29.1812 226.624 27.9743 225.199 27.1433C223.814 26.2727 222.251 25.8374 220.51 25.8374C218.769 25.8374 217.186 26.2727 215.761 27.1433C214.376 27.9743 213.268 29.1812 212.437 30.7641C211.606 32.3074 211.191 34.1276 211.191 36.2249C211.191 38.3222 211.606 40.1623 212.437 41.7452C213.268 43.2885 214.376 44.4954 215.761 45.366C217.186 46.197 218.769 46.6125 220.51 46.6125ZM288.38 15.4499V57H274.609V26.3123H265.112L264.993 31.1202C264.835 37.0559 264.36 41.9232 263.568 45.7221C262.777 49.521 261.392 52.4888 259.413 54.6257C257.435 56.723 254.605 57.7716 250.925 57.7716C249.065 57.7716 247.087 57.5144 244.989 57L245.702 45.7815C246.216 45.9002 246.731 45.9595 247.245 45.9595C248.709 45.9595 249.817 45.366 250.569 44.1788C251.36 42.9917 251.895 41.4088 252.172 39.4302C252.449 37.4517 252.646 34.8597 252.765 31.6544L253.299 15.4499H288.38ZM316.85 57.9497C312.378 57.9497 308.362 57.0198 304.8 55.1599C301.239 53.3001 298.449 50.7279 296.431 47.4435C294.413 44.1195 293.404 40.38 293.404 36.2249C293.404 32.0699 294.413 28.3502 296.431 25.0658C298.449 21.7418 301.239 19.1498 304.8 17.29C308.362 15.4301 312.378 14.5002 316.85 14.5002C321.321 14.5002 325.338 15.4301 328.899 17.29C332.461 19.1498 335.251 21.7418 337.269 25.0658C339.287 28.3502 340.296 32.0699 340.296 36.2249C340.296 40.38 339.287 44.1195 337.269 47.4435C335.251 50.7279 332.461 53.3001 328.899 55.1599C325.338 57.0198 321.321 57.9497 316.85 57.9497ZM316.85 46.6125C318.591 46.6125 320.154 46.197 321.539 45.366C322.964 44.4954 324.091 43.2885 324.922 41.7452C325.753 40.1623 326.169 38.3222 326.169 36.2249C326.169 34.1276 325.753 32.3074 324.922 30.7641C324.091 29.1812 322.964 27.9743 321.539 27.1433C320.154 26.2727 318.591 25.8374 316.85 25.8374C315.109 25.8374 313.526 26.2727 312.101 27.1433C310.716 27.9743 309.608 29.1812 308.777 30.7641C307.946 32.3074 307.531 34.1276 307.531 36.2249C307.531 38.3222 307.946 40.1623 308.777 41.7452C309.608 43.2885 310.716 44.4954 312.101 45.366C313.526 46.197 315.109 46.6125 316.85 46.6125ZM380.135 26.3123H367.967V57H354.196V26.3123H342.027V15.4499H380.135V26.3123ZM405.306 57.9497C400.834 57.9497 396.818 57.0198 393.257 55.1599C389.695 53.3001 386.905 50.7279 384.887 47.4435C382.869 44.1195 381.86 40.38 381.86 36.2249C381.86 32.0699 382.869 28.3502 384.887 25.0658C386.905 21.7418 389.695 19.1498 393.257 17.29C396.818 15.4301 400.834 14.5002 405.306 14.5002C409.778 14.5002 413.794 15.4301 417.356 17.29C420.917 19.1498 423.707 21.7418 425.725 25.0658C427.743 28.3502 428.752 32.0699 428.752 36.2249C428.752 40.38 427.743 44.1195 425.725 47.4435C423.707 50.7279 420.917 53.3001 417.356 55.1599C413.794 57.0198 409.778 57.9497 405.306 57.9497ZM405.306 46.6125C407.047 46.6125 408.61 46.197 409.995 45.366C411.42 44.4954 412.548 43.2885 413.379 41.7452C414.21 40.1623 414.625 38.3222 414.625 36.2249C414.625 34.1276 414.21 32.3074 413.379 30.7641C412.548 29.1812 411.42 27.9743 409.995 27.1433C408.61 26.2727 407.047 25.8374 405.306 25.8374C403.565 25.8374 401.982 26.2727 400.557 27.1433C399.172 27.9743 398.064 29.1812 397.233 30.7641C396.402 32.3074 395.987 34.1276 395.987 36.2249C395.987 38.3222 396.402 40.1623 397.233 41.7452C398.064 43.2885 399.172 44.4954 400.557 45.366C401.982 46.197 403.565 46.6125 405.306 46.6125ZM462.82 35.6314L475.107 57H459.318L451.364 41.9826H447.446V57H433.438V15.4499H447.446V30.9421H451.72L460.564 15.4499H475.166L462.82 35.6314Z" fill="#FEFEFE"/>
<path d="M165.672 81.2065L165.656 74.5105L162.364 80.0239H161.213L157.921 74.6383V81.2065H155.492V70.0199H157.633L161.82 76.9715L165.943 70.0199H168.085L168.101 81.2065H165.672ZM178.455 78.8093H173.261L172.27 81.2065H169.617L174.603 70.0199H177.16L182.162 81.2065H179.445L178.455 78.8093ZM177.64 76.8437L175.866 72.5608L174.092 76.8437H177.64ZM191.524 72.1293H186.203L186.219 81.2065H183.646V70.0199H191.54L191.524 72.1293ZM198.524 78.8093H193.33L192.34 81.2065H189.687L194.673 70.0199H197.23L202.232 81.2065H199.515L198.524 78.8093ZM197.709 76.8437L195.935 72.5608L194.161 76.8437H197.709ZM210.076 75.3735C210.725 75.5972 211.232 75.9488 211.594 76.4282C211.967 76.897 212.153 77.4456 212.153 78.0742C212.153 78.7561 211.929 79.3474 211.482 79.8481C211.034 80.3488 210.427 80.7324 209.66 80.9987C208.904 81.265 208.073 81.3982 207.167 81.3982C206.4 81.3982 205.633 81.3023 204.866 81.1106C204.109 80.9188 203.39 80.6258 202.708 80.2316L203.507 78.3778C203.998 78.6762 204.536 78.9052 205.122 79.065C205.718 79.2142 206.299 79.2888 206.863 79.2888C207.631 79.2888 208.264 79.1503 208.765 78.8733C209.277 78.5963 209.532 78.2074 209.532 77.7067C209.532 77.2912 209.356 76.9769 209.005 76.7638C208.664 76.5507 208.195 76.4442 207.599 76.4442H204.866V74.4945H207.407C207.929 74.4945 208.334 74.388 208.621 74.1749C208.92 73.9618 209.069 73.6688 209.069 73.2959C209.069 72.8591 208.856 72.5182 208.43 72.2732C208.014 72.0281 207.476 71.9056 206.816 71.9056C206.325 71.9056 205.819 71.9749 205.297 72.1134C204.775 72.2412 204.28 72.4383 203.811 72.7047L203.028 70.6911C204.211 70.0838 205.489 69.7802 206.863 69.7802C207.737 69.7802 208.541 69.908 209.277 70.1637C210.012 70.4194 210.598 70.7923 211.034 71.2824C211.471 71.7724 211.69 72.3424 211.69 72.9923C211.69 73.525 211.546 73.9991 211.258 74.4146C210.971 74.8301 210.576 75.1497 210.076 75.3735ZM214.203 70.0199H216.776V77.3071L222.113 70.0199H224.542V81.2065H221.985V73.9352L216.648 81.2065H214.203V70.0199ZM237.587 70.0199V81.2065H234.998V76.62H229.916V81.2065H227.328V70.0199H229.916V74.4306H234.998V70.0199H237.587ZM256.454 79.097V83.5237H254.057V81.2065H246.162V83.5237H243.765L243.781 79.097H244.229C244.9 79.0757 245.374 78.5856 245.651 77.6267C245.928 76.6679 246.098 75.2989 246.162 73.5197L246.29 70.0199H254.888V79.097H256.454ZM248.448 73.7594C248.394 75.0911 248.282 76.2098 248.112 77.1154C247.941 78.0103 247.68 78.6708 247.329 79.097H252.331V72.1293H248.495L248.448 73.7594ZM268.169 70.0199V81.2065H265.612V72.1293H261.776L261.697 74.4625C261.643 76.05 261.515 77.3391 261.313 78.3299C261.111 79.3101 260.77 80.0665 260.29 80.5992C259.821 81.1212 259.161 81.3822 258.309 81.3822C257.957 81.3822 257.531 81.3236 257.03 81.2065L257.19 79.0171C257.328 79.0597 257.483 79.081 257.653 79.081C258.271 79.081 258.703 78.7188 258.948 77.9943C259.193 77.2592 259.347 76.1139 259.411 74.5584L259.571 70.0199H268.169ZM279.896 70.0199V81.2065H277.339V78.234H274.974L272.992 81.2065H270.259L272.593 77.8345C271.836 77.5255 271.256 77.0621 270.851 76.4442C270.446 75.8156 270.244 75.0645 270.244 74.1909C270.244 73.3279 270.441 72.5875 270.835 71.9695C271.229 71.341 271.788 70.8615 272.513 70.5313C273.237 70.1903 274.09 70.0199 275.07 70.0199H279.896ZM275.134 72.1293C274.399 72.1293 273.834 72.2998 273.44 72.6407C273.056 72.9817 272.864 73.4877 272.864 74.1589C272.864 74.8088 273.051 75.3095 273.424 75.6611C273.797 76.0127 274.345 76.1885 275.07 76.1885H277.339V72.1293H275.134ZM295.774 72.1293H292.194V81.2065H289.637V72.1293H286.074V70.0199H295.774V72.1293ZM306.061 79.1289V81.2065H297.4V70.0199H305.854V72.0974H299.973V74.5265H305.166V76.5401H299.973V79.1289H306.061ZM310.057 70.0199L312.374 73.4078L314.691 70.0199H317.727L314.004 75.3735L318.031 81.2065H314.979L312.374 77.4989L309.801 81.2065H306.813L310.808 75.4853L307.068 70.0199H310.057ZM320.295 78.234C320.743 78.234 321.11 78.3778 321.398 78.6655C321.686 78.9425 321.829 79.3101 321.829 79.7682C321.829 79.9813 321.803 80.1943 321.75 80.4074C321.696 80.6205 321.579 80.9401 321.398 81.3663L320.487 83.6675H318.905L319.608 81.1265C319.342 81.02 319.129 80.8495 318.969 80.6152C318.82 80.3701 318.745 80.0878 318.745 79.7682C318.745 79.3101 318.889 78.9425 319.177 78.6655C319.475 78.3778 319.848 78.234 320.295 78.234ZM332.615 76.6999H330.825V81.2065H328.252V70.0199H330.825V74.5425H332.679L335.62 70.0199H338.352L334.693 75.4214L338.464 81.2065H335.524L332.615 76.6999ZM348.102 72.1293H344.522V81.2065H341.965V72.1293H338.402V70.0199H348.102V72.1293ZM354.909 81.3982C353.748 81.3982 352.698 81.1479 351.761 80.6471C350.834 80.1464 350.104 79.4592 349.571 78.5856C349.049 77.7013 348.788 76.7105 348.788 75.6132C348.788 74.5158 349.049 73.5303 349.571 72.6567C350.104 71.7724 350.834 71.0799 351.761 70.5792C352.698 70.0785 353.748 69.8281 354.909 69.8281C356.07 69.8281 357.114 70.0785 358.041 70.5792C358.968 71.0799 359.698 71.7724 360.231 72.6567C360.763 73.5303 361.03 74.5158 361.03 75.6132C361.03 76.7105 360.763 77.7013 360.231 78.5856C359.698 79.4592 358.968 80.1464 358.041 80.6471C357.114 81.1479 356.07 81.3982 354.909 81.3982ZM354.909 79.1929C355.57 79.1929 356.166 79.0437 356.699 78.7454C357.232 78.4364 357.647 78.0103 357.945 77.4669C358.254 76.9236 358.409 76.3057 358.409 75.6132C358.409 74.9207 358.254 74.3027 357.945 73.7594C357.647 73.216 357.232 72.7952 356.699 72.4969C356.166 72.1879 355.57 72.0335 354.909 72.0335C354.248 72.0335 353.652 72.1879 353.119 72.4969C352.586 72.7952 352.166 73.216 351.857 73.7594C351.558 74.3027 351.409 74.9207 351.409 75.6132C351.409 76.3057 351.558 76.9236 351.857 77.4669C352.166 78.0103 352.586 78.4364 353.119 78.7454C353.652 79.0437 354.248 79.1929 354.909 79.1929ZM372.839 81.3982C371.699 81.3982 370.666 81.1532 369.739 80.6631C368.823 80.1624 368.098 79.4752 367.566 78.6016C367.044 77.7173 366.783 76.7212 366.783 75.6132C366.783 74.5052 367.044 73.5144 367.566 72.6407C368.098 71.7565 368.823 71.0693 369.739 70.5792C370.666 70.0785 371.705 69.8281 372.855 69.8281C373.825 69.8281 374.699 69.9986 375.476 70.3395C376.265 70.6804 376.925 71.1705 377.458 71.8097L375.796 73.3439C375.039 72.4703 374.102 72.0335 372.983 72.0335C372.291 72.0335 371.673 72.1879 371.13 72.4969C370.586 72.7952 370.16 73.216 369.851 73.7594C369.553 74.3027 369.404 74.9207 369.404 75.6132C369.404 76.3057 369.553 76.9236 369.851 77.4669C370.16 78.0103 370.586 78.4364 371.13 78.7454C371.673 79.0437 372.291 79.1929 372.983 79.1929C374.102 79.1929 375.039 78.7507 375.796 77.8665L377.458 79.4006C376.925 80.0505 376.265 80.5459 375.476 80.8868C374.688 81.2278 373.809 81.3982 372.839 81.3982ZM387.586 72.1293H384.006V81.2065H381.449V72.1293H377.885V70.0199H387.586V72.1293ZM394.053 70.0199C395.044 70.0199 395.902 70.185 396.626 70.5153C397.362 70.8456 397.926 71.3143 398.32 71.9216C398.715 72.5289 398.912 73.248 398.912 74.079C398.912 74.8994 398.715 75.6185 398.32 76.2364C397.926 76.8437 397.362 77.3125 396.626 77.6427C395.902 77.9623 395.044 78.1222 394.053 78.1222H391.8V81.2065H389.211V70.0199H394.053ZM393.91 76.0127C394.687 76.0127 395.279 75.8476 395.684 75.5173C396.088 75.1764 396.291 74.6969 396.291 74.079C396.291 73.4504 396.088 72.971 395.684 72.6407C395.279 72.2998 394.687 72.1293 393.91 72.1293H391.8V76.0127H393.91ZM406.113 81.3982C404.952 81.3982 403.902 81.1479 402.965 80.6471C402.038 80.1464 401.308 79.4592 400.776 78.5856C400.253 77.7013 399.992 76.7105 399.992 75.6132C399.992 74.5158 400.253 73.5303 400.776 72.6567C401.308 71.7724 402.038 71.0799 402.965 70.5792C403.902 70.0785 404.952 69.8281 406.113 69.8281C407.274 69.8281 408.318 70.0785 409.245 70.5792C410.172 71.0799 410.902 71.7724 411.435 72.6567C411.967 73.5303 412.234 74.5158 412.234 75.6132C412.234 76.7105 411.967 77.7013 411.435 78.5856C410.902 79.4592 410.172 80.1464 409.245 80.6471C408.318 81.1479 407.274 81.3982 406.113 81.3982ZM406.113 79.1929C406.774 79.1929 407.37 79.0437 407.903 78.7454C408.436 78.4364 408.851 78.0103 409.149 77.4669C409.458 76.9236 409.613 76.3057 409.613 75.6132C409.613 74.9207 409.458 74.3027 409.149 73.7594C408.851 73.216 408.436 72.7952 407.903 72.4969C407.37 72.1879 406.774 72.0335 406.113 72.0335C405.453 72.0335 404.856 72.1879 404.323 72.4969C403.791 72.7952 403.37 73.216 403.061 73.7594C402.762 74.3027 402.613 74.9207 402.613 75.6132C402.613 76.3057 402.762 76.9236 403.061 77.4669C403.37 78.0103 403.791 78.4364 404.323 78.7454C404.856 79.0437 405.453 79.1929 406.113 79.1929ZM414.228 70.0199H416.801V77.3071L422.139 70.0199H424.568V81.2065H422.011V73.9352L416.673 81.2065H414.228V70.0199ZM435.903 72.1293H432.323V81.2065H429.766V72.1293H426.202V70.0199H435.903V72.1293Z" fill="#FEFEFE"/>
<ellipse cx="13.106" cy="37.0984" rx="13.106" ry="13.1984" fill="#EFBA1C"/>
<ellipse cx="52.4243" cy="37.0984" rx="13.106" ry="13.1984" fill="#EFBA1C"/>
<ellipse cx="91.7427" cy="37.0984" rx="13.106" ry="13.1984" fill="#EFBA1C"/>
<path d="M73.3927 37.0984C73.3927 47.3035 81.6075 55.5763 91.741 55.5763V58.2159C80.1599 58.2159 70.7715 48.7613 70.7715 37.0984C70.7715 25.4356 80.1599 15.9809 91.741 15.9809C102.882 15.9809 111.994 24.7305 112.67 35.7786H141.544V38.4183H110.089V37.0984C110.089 26.8934 101.875 18.6206 91.741 18.6206C81.6075 18.6206 73.3927 26.8934 73.3927 37.0984Z" fill="#FEFEFE"/>
</svg>
