<svg width="85" height="61" viewBox="0 0 85 61" fill="none" xmlns="http://www.w3.org/2000/svg">
<path d="M9.10714 0C4.11481 0 0 4.13417 0 9.15V51.85C0 56.8658 4.11481 61 9.10714 61H75.8929C80.8852 61 85 56.8658 85 51.85V9.15C85 4.13417 80.8852 0 75.8929 0H9.10714ZM9.10714 6.1H75.8929C77.6123 6.1 78.9286 7.42248 78.9286 9.15V15.25H5.76761V21.35H78.9286V51.85C78.9286 53.5775 77.6123 54.9 75.8929 54.9H9.10714C7.38771 54.9 6.07143 53.5775 6.07143 51.85V9.15C6.07143 7.42248 7.38771 6.1 9.10714 6.1Z" fill="#EFBA1C"/>
</svg>
