<svg width="28" height="24" viewBox="0 0 28 24" fill="none" xmlns="http://www.w3.org/2000/svg">
<path d="M26.136 0.195049L1.05653 9.82201C-0.317121 10.2231 -0.275495 11.5954 0.744336 11.9332L7.02981 13.9177L9.44412 21.3912C9.7355 22.2146 9.98525 22.5101 10.4848 22.5312C11.0051 22.5312 11.2132 22.3412 11.7543 21.8557C12.3995 21.2434 13.3569 20.2934 14.8971 18.7733L21.4323 23.6713C22.6395 24.3469 23.5136 23.9879 23.805 22.5312L27.9051 1.96844C28.3214 0.195054 27.3016 -0.332744 26.136 0.195049ZM8.02884 13.4532L22.3065 4.37518C23.0141 3.88961 23.2222 4.43851 22.91 4.79741L11.0467 15.6066L10.4431 21.0112L8.02884 13.4532Z" fill="#64B6FA"/>
</svg>
