<svg width="30" height="31" viewBox="0 0 30 31" fill="none" xmlns="http://www.w3.org/2000/svg">
<path fill-rule="evenodd" clip-rule="evenodd" d="M15.1888 0.609619C7.18505 0.609619 0.671994 7.09976 0.671994 15.1264C0.671994 17.8784 1.42879 20.424 2.75893 22.6256L0.144531 30.4L8.17119 27.8315C10.2581 28.9781 12.6432 29.6432 15.1888 29.6432C23.1925 29.6432 29.7056 23.1531 29.7056 15.1264C29.7056 7.09976 23.2154 0.609619 15.1888 0.609619ZM15.1888 27.1893C12.7349 27.1893 10.4416 26.4555 8.53812 25.1941L3.90559 26.6848L5.41919 22.1899C3.97439 20.1947 3.12586 17.7408 3.12586 15.1035C3.12586 8.45283 8.53812 3.01762 15.2117 3.01762C21.8624 3.01762 27.2976 8.42989 27.2976 15.1035C27.2746 21.7771 21.8624 27.1893 15.1888 27.1893ZM22 18.4059C21.633 18.1995 19.8442 17.2363 19.5232 17.0987C19.1792 16.9611 18.9498 16.8923 18.6746 17.2592C18.4224 17.6262 17.6656 18.4288 17.4592 18.6581C17.2298 18.8875 17.0234 18.9104 16.6565 18.7269C16.2896 18.5205 15.12 18.0848 13.744 16.7776C12.689 15.7456 11.9781 14.5072 11.7717 14.1403C11.5653 13.7504 11.7717 13.567 11.9552 13.3835C12.1386 13.223 12.345 12.9707 12.5285 12.7643C12.712 12.5579 12.7808 12.3973 12.9184 12.168C13.056 11.9157 12.9872 11.7094 12.9184 11.5259C12.8266 11.3424 12.1616 9.48481 11.8864 8.72801C11.6112 7.97122 11.2901 8.0859 11.0837 8.0859C10.8773 8.0859 10.625 8.04002 10.3728 8.04002C10.1205 8.04002 9.73065 8.10882 9.36372 8.47575C9.01972 8.84269 8.01065 9.69123 7.94185 11.5259C7.87305 13.3376 9.13439 15.1493 9.31785 15.4016C9.50132 15.6539 11.7258 19.5984 15.441 21.2267C19.1562 22.8549 19.1792 22.3504 19.8442 22.3275C20.5322 22.2816 22.0688 21.5019 22.4128 20.6533C22.7568 19.8048 22.7797 19.048 22.688 18.9104C22.5962 18.704 22.3669 18.6123 22 18.4059Z" fill="#64B6FA"/>
</svg>
