<svg version="1.0" xmlns="http://www.w3.org/2000/svg"
 width="512pt" height="512pt" viewBox="0 0 512 512"
 preserveAspectRatio="xMidYMid meet">
<g transform="translate(0,512) scale(0.1,-0.1)"
fill="#000" stroke="none">
<path d="M4605 4386 c-105 -33 -109 -36 -1445 -1372 l-1315 -1314 -595 595
c-553 551 -600 596 -662 625 -159 74 -328 51 -454 -63 -100 -90 -149 -234
-125 -364 25 -134 9 -117 839 -944 726 -724 771 -767 832 -794 78 -34 185 -44
257 -25 122 33 70 -16 1629 1543 1614 1616 1522 1517 1547 1660 34 199 -91
392 -292 453 -56 17 -162 17 -216 0z"/>
</g>
</svg>
