<svg width="84" height="67" viewBox="0 0 84 67" fill="none" xmlns="http://www.w3.org/2000/svg">
<path d="M0 0V58.625H8.83751C10.0844 63.4233 14.4156 67 19.6 67C24.7844 67 29.1156 63.4233 30.3625 58.625H53.6375C54.8845 63.4233 59.2155 67 64.4 67C69.5845 67 73.9155 63.4233 75.1625 58.625H84V29.5742L83.2126 28.7018L66.4126 11.9518L65.5376 11.1667H50.4V0H0ZM5.6 5.58333H44.8V53.0417H30.3625C29.1156 48.2434 24.7844 44.6667 19.6 44.6667C14.4156 44.6667 10.0844 48.2434 8.83751 53.0417H5.6V5.58333ZM50.4 16.75H63.1751L78.4 31.9297V53.0417H75.1625C73.9155 48.2434 69.5845 44.6667 64.4 44.6667C59.2155 44.6667 54.8845 48.2434 53.6375 53.0417H50.4V16.75ZM19.6 50.25C22.7281 50.25 25.2 52.7145 25.2 55.8333C25.2 58.9522 22.7281 61.4167 19.6 61.4167C16.4719 61.4167 14 58.9522 14 55.8333C14 52.7145 16.4719 50.25 19.6 50.25ZM64.4 50.25C67.5282 50.25 70 52.7145 70 55.8333C70 58.9522 67.5282 61.4167 64.4 61.4167C61.2718 61.4167 58.8 58.9522 58.8 55.8333C58.8 52.7145 61.2718 50.25 64.4 50.25Z" fill="#EFBA1C"/>
</svg>
