<svg width="139" height="139" viewBox="0 0 139 139" fill="none" xmlns="http://www.w3.org/2000/svg">
<path d="M0 0H139V139H0V0Z" fill="#C4C4C4"/>
<path d="M61.2204 47.664C61.2204 49.332 60.6504 50.646 59.5104 51.606C58.3824 52.554 56.7564 53.082 54.6324 53.19V54.558H51.9504V53.172C49.8144 53.052 48.1764 52.518 47.0364 51.57C45.9084 50.61 45.3444 49.308 45.3444 47.664C45.3444 46.008 45.9084 44.712 47.0364 43.776C48.1764 42.828 49.8144 42.288 51.9504 42.156V40.86H54.6324V42.138C56.7564 42.258 58.3824 42.798 59.5104 43.758C60.6504 44.718 61.2204 46.02 61.2204 47.664ZM54.6324 50.904C55.9044 50.784 56.8524 50.46 57.4764 49.932C58.1004 49.392 58.4124 48.63 58.4124 47.646C58.4124 45.726 57.1524 44.658 54.6324 44.442V50.904ZM48.1704 47.664C48.1704 49.56 49.4304 50.64 51.9504 50.904V44.442C50.6664 44.562 49.7124 44.886 49.0884 45.414C48.4764 45.93 48.1704 46.68 48.1704 47.664Z" fill="#F3F3F3"/>
<path d="M67.7219 54.144C66.7019 54.144 65.7839 53.934 64.9679 53.514C64.1639 53.082 63.5339 52.488 63.0779 51.732C62.6219 50.976 62.3939 50.118 62.3939 49.158C62.3939 48.198 62.6219 47.34 63.0779 46.584C63.5339 45.828 64.1639 45.24 64.9679 44.82C65.7839 44.388 66.7019 44.172 67.7219 44.172C68.7419 44.172 69.6539 44.388 70.4579 44.82C71.2619 45.24 71.8919 45.828 72.3479 46.584C72.8039 47.34 73.0319 48.198 73.0319 49.158C73.0319 50.118 72.8039 50.976 72.3479 51.732C71.8919 52.488 71.2619 53.082 70.4579 53.514C69.6539 53.934 68.7419 54.144 67.7219 54.144ZM67.7219 51.84C68.4419 51.84 69.0299 51.6 69.4859 51.12C69.9539 50.628 70.1879 49.974 70.1879 49.158C70.1879 48.342 69.9539 47.694 69.4859 47.214C69.0299 46.722 68.4419 46.476 67.7219 46.476C67.0019 46.476 66.4079 46.722 65.9399 47.214C65.4719 47.694 65.2379 48.342 65.2379 49.158C65.2379 49.974 65.4719 50.628 65.9399 51.12C66.4079 51.6 67.0019 51.84 67.7219 51.84Z" fill="#F3F3F3"/>
<path d="M82.7477 46.62H79.4717V54H76.6817V46.62H73.4057V44.316H82.7477V46.62Z" fill="#F3F3F3"/>
<path d="M88.3762 54.144C87.3562 54.144 86.4382 53.934 85.6222 53.514C84.8182 53.082 84.1882 52.488 83.7322 51.732C83.2762 50.976 83.0482 50.118 83.0482 49.158C83.0482 48.198 83.2762 47.34 83.7322 46.584C84.1882 45.828 84.8182 45.24 85.6222 44.82C86.4382 44.388 87.3562 44.172 88.3762 44.172C89.3962 44.172 90.3082 44.388 91.1122 44.82C91.9162 45.24 92.5462 45.828 93.0022 46.584C93.4582 47.34 93.6862 48.198 93.6862 49.158C93.6862 50.118 93.4582 50.976 93.0022 51.732C92.5462 52.488 91.9162 53.082 91.1122 53.514C90.3082 53.934 89.3962 54.144 88.3762 54.144ZM88.3762 51.84C89.0962 51.84 89.6842 51.6 90.1402 51.12C90.6082 50.628 90.8422 49.974 90.8422 49.158C90.8422 48.342 90.6082 47.694 90.1402 47.214C89.6842 46.722 89.0962 46.476 88.3762 46.476C87.6562 46.476 87.0622 46.722 86.5942 47.214C86.1262 47.694 85.8922 48.342 85.8922 49.158C85.8922 49.974 86.1262 50.628 86.5942 51.12C87.0622 51.6 87.6562 51.84 88.3762 51.84Z" fill="#F3F3F3"/>
<path d="M30.9806 92.96C31.5566 93.14 32.0006 93.416 32.3126 93.788C32.6366 94.16 32.7986 94.604 32.7986 95.12C32.7986 95.732 32.5886 96.272 32.1686 96.74C31.7486 97.196 31.1726 97.55 30.4406 97.802C29.7086 98.054 28.8806 98.18 27.9566 98.18C27.2006 98.18 26.4566 98.102 25.7246 97.946C24.9926 97.79 24.3146 97.556 23.6906 97.244L24.4466 95.282C25.4666 95.774 26.5946 96.02 27.8306 96.02C28.4906 96.02 29.0066 95.924 29.3786 95.732C29.7626 95.528 29.9546 95.246 29.9546 94.886C29.9546 94.574 29.8226 94.34 29.5586 94.184C29.2946 94.016 28.9106 93.932 28.4066 93.932H26.4266V92.186H28.1546C28.6466 92.186 29.0246 92.108 29.2886 91.952C29.5526 91.796 29.6846 91.568 29.6846 91.268C29.6846 90.956 29.5166 90.716 29.1806 90.548C28.8566 90.38 28.3886 90.296 27.7766 90.296C26.8406 90.296 25.8206 90.518 24.7166 90.962L24.0326 89.018C25.3766 88.43 26.6846 88.136 27.9566 88.136C28.8326 88.136 29.6126 88.244 30.2966 88.46C30.9926 88.676 31.5386 88.994 31.9346 89.414C32.3306 89.822 32.5286 90.302 32.5286 90.854C32.5286 91.31 32.3906 91.724 32.1146 92.096C31.8386 92.456 31.4606 92.744 30.9806 92.96Z" fill="#F3F3F3"/>
<path d="M38.6032 88.172C40.1032 88.172 41.2552 88.532 42.0592 89.252C42.8632 89.96 43.2652 91.034 43.2652 92.474V98H40.6372V96.794C40.1092 97.694 39.1252 98.144 37.6852 98.144C36.9412 98.144 36.2932 98.018 35.7412 97.766C35.2012 97.514 34.7872 97.166 34.4992 96.722C34.2112 96.278 34.0672 95.774 34.0672 95.21C34.0672 94.31 34.4032 93.602 35.0752 93.086C35.7592 92.57 36.8092 92.312 38.2252 92.312H40.4572C40.4572 91.7 40.2712 91.232 39.8992 90.908C39.5272 90.572 38.9692 90.404 38.2252 90.404C37.7092 90.404 37.1992 90.488 36.6952 90.656C36.2032 90.812 35.7832 91.028 35.4352 91.304L34.4272 89.342C34.9552 88.97 35.5852 88.682 36.3172 88.478C37.0612 88.274 37.8232 88.172 38.6032 88.172ZM38.3872 96.254C38.8672 96.254 39.2932 96.146 39.6652 95.93C40.0372 95.702 40.3012 95.372 40.4572 94.94V93.95H38.5312C37.3792 93.95 36.8032 94.328 36.8032 95.084C36.8032 95.444 36.9412 95.732 37.2172 95.948C37.5052 96.152 37.8952 96.254 38.3872 96.254Z" fill="#F3F3F3"/>
<path d="M53.4625 90.62H48.4945V98H45.7045V88.316H53.4625V90.62Z" fill="#F3F3F3"/>
<path d="M63.5355 88.316V98H60.7275V90.62H57.6675L57.5775 92.33C57.5295 93.602 57.4095 94.658 57.2175 95.498C57.0255 96.338 56.7135 96.998 56.2815 97.478C55.8495 97.958 55.2495 98.198 54.4815 98.198C54.0735 98.198 53.5875 98.126 53.0235 97.982L53.1675 95.678C53.3595 95.702 53.4975 95.714 53.5815 95.714C54.0015 95.714 54.3135 95.564 54.5175 95.264C54.7335 94.952 54.8775 94.562 54.9495 94.094C55.0215 93.614 55.0755 92.984 55.1115 92.204L55.2555 88.316H63.5355Z" fill="#F3F3F3"/>
<path d="M75.9377 88.316L71.5637 98.594C71.1197 99.71 70.5677 100.496 69.9077 100.952C69.2597 101.408 68.4737 101.636 67.5497 101.636C67.0457 101.636 66.5477 101.558 66.0557 101.402C65.5637 101.246 65.1617 101.03 64.8497 100.754L65.8757 98.756C66.0917 98.948 66.3377 99.098 66.6137 99.206C66.9017 99.314 67.1837 99.368 67.4597 99.368C67.8437 99.368 68.1557 99.272 68.3957 99.08C68.6357 98.9 68.8517 98.594 69.0437 98.162L69.0797 98.072L64.8857 88.316H67.7837L70.5017 94.886L73.2377 88.316H75.9377Z" fill="#F3F3F3"/>
<path d="M92.0704 88.316V98H77.2924V88.316H80.0824V95.696H83.3044V88.316H86.0944V95.696H89.2804V88.316H92.0704Z" fill="#F3F3F3"/>
<path d="M99.031 94.328H97.573V98H94.765V88.316H97.573V92.078H99.085L101.713 88.316H104.701L101.317 92.96L104.935 98H101.623L99.031 94.328Z" fill="#F3F3F3"/>
<path d="M109.9 88.172C111.4 88.172 112.552 88.532 113.356 89.252C114.16 89.96 114.562 91.034 114.562 92.474V98H111.934V96.794C111.406 97.694 110.422 98.144 108.982 98.144C108.238 98.144 107.59 98.018 107.038 97.766C106.498 97.514 106.084 97.166 105.796 96.722C105.508 96.278 105.364 95.774 105.364 95.21C105.364 94.31 105.7 93.602 106.372 93.086C107.056 92.57 108.106 92.312 109.522 92.312H111.754C111.754 91.7 111.568 91.232 111.196 90.908C110.824 90.572 110.266 90.404 109.522 90.404C109.006 90.404 108.496 90.488 107.992 90.656C107.5 90.812 107.08 91.028 106.732 91.304L105.724 89.342C106.252 88.97 106.882 88.682 107.614 88.478C108.358 88.274 109.12 88.172 109.9 88.172ZM109.684 96.254C110.164 96.254 110.59 96.146 110.962 95.93C111.334 95.702 111.598 95.372 111.754 94.94V93.95H109.828C108.676 93.95 108.1 94.328 108.1 95.084C108.1 95.444 108.238 95.732 108.514 95.948C108.802 96.152 109.192 96.254 109.684 96.254Z" fill="#F3F3F3"/>
</svg>
