<svg width="452" height="292" viewBox="0 0 452 292" fill="none" xmlns="http://www.w3.org/2000/svg">
<g clip-path="url(#clip0_147_8394)">
<path d="M28.0922 137.047C-2.57696 190.559 6.86244 185.21 34.5511 227.363C51.1776 246.87 39.9702 279.417 41.2803 292H398.391C395.749 290.521 416.655 261.836 416.655 261.836C416.655 261.836 433.087 222.74 403.197 167.65C383.491 131.33 422.423 116.556 417.388 86.3782C407.564 27.4881 356.616 -5.46432 248.903 9.34552C141.191 24.1554 117.953 -2.52337 62.6645 9.34445C7.37604 21.2123 62.664 76.727 28.0922 137.047Z" fill="#F5FAFF"/>
<path d="M214.377 269.2V290.798C214.377 291.636 214.961 292.315 215.68 292.315H218.561C219.162 292.315 219.686 291.835 219.825 291.152L224.303 269.448C224.502 268.485 223.872 267.561 223.022 267.575L215.664 267.681C214.951 267.692 214.377 268.368 214.377 269.2Z" fill="#F3A769"/>
<path d="M422.079 269.2V290.798C422.079 291.636 421.497 292.315 420.778 292.315H417.898C417.295 292.315 416.774 291.835 416.633 291.152L412.155 269.448C411.956 268.485 412.587 267.561 413.436 267.575L420.796 267.681C421.507 267.692 422.079 268.368 422.079 269.2Z" fill="#F3A769"/>
<path d="M426.249 223.64H207.721C206.111 223.64 222.249 211.482 223.859 211.482H406.982C408.59 211.482 427.857 223.64 426.249 223.64Z" fill="#C9E4FF"/>
<path d="M418.679 247.575H217.358C215.711 247.575 214.377 246.018 214.377 244.098V223.701C214.377 221.781 215.711 220.226 217.358 220.226H418.679C420.322 220.226 421.655 221.781 421.655 223.701V244.098C421.655 246.018 420.322 247.575 418.679 247.575Z" fill="#A3D1FF"/>
<path d="M423.366 269.525H215.274C213.629 269.525 212.296 267.97 212.296 266.05V249.601C212.296 247.681 213.629 246.126 215.274 246.126H423.366C425.01 246.126 426.344 247.681 426.344 249.601V266.05C426.344 267.97 425.01 269.525 423.366 269.525Z" fill="#A3D1FF"/>
<path d="M421.655 245.139V249.698C421.655 251.415 420.468 252.81 419.004 252.81H217.031C215.566 252.81 214.377 251.415 214.377 249.698V245.139C214.377 246.856 215.566 248.253 217.031 248.253H419.004C420.468 248.253 421.655 246.856 421.655 245.139Z" fill="#4FA5FF"/>
<path d="M402.388 161.342V215.128H233.387V161.342H402.388Z" fill="#4FA5FF"/>
<path d="M239.731 215.128L214.376 220.904C214.376 220.904 212.815 180.182 217.762 175.626C217.762 175.626 218.592 172.969 220.524 169.942C222.925 166.181 227.037 161.847 233.386 161.342C233.576 161.327 233.759 161.327 233.937 161.342C237.52 161.631 239.358 167.709 240.214 175.684C241.929 191.619 239.731 215.128 239.731 215.128Z" fill="#4FA5FF"/>
<path d="M422.135 220.904L396.78 215.128C396.78 215.128 394.998 196.051 395.899 180.617C396.486 170.496 398.23 161.941 402.389 161.364C402.557 161.34 402.729 161.326 402.907 161.331C402.978 161.333 403.052 161.335 403.125 161.342C414.582 162.252 418.749 175.625 418.749 175.625C419.155 175.999 419.516 176.614 419.841 177.435C420.164 178.253 420.446 179.274 420.697 180.455C423.225 192.457 422.135 220.904 422.135 220.904Z" fill="#4FA5FF"/>
<path d="M422.956 179.1C422.908 179.078 422.214 178.692 420.697 178.266C420.523 178.219 420.223 178.307 420.032 178.075C411.762 168.028 406.032 167.116 384.845 187.118C378.346 193.252 369.442 200.277 359.421 203.867C350.929 206.907 324.789 209.787 295.623 208.978C271.069 208.3 262.553 198.213 245.366 178.834C243.671 176.923 241.947 175.341 240.216 174.041C237.937 172.328 235.643 171.1 233.387 170.255C228.803 168.535 224.369 168.398 220.525 168.957C222.926 165.626 227.039 161.788 233.387 161.34C233.577 161.328 233.76 161.328 233.938 161.34H402.388V161.36C402.557 161.337 402.729 161.328 402.906 161.331C411.068 166.994 416.675 172.283 419.84 175.594C421.864 177.712 422.894 179.021 422.956 179.1Z" fill="#A3D1FF"/>
<path d="M229.229 168.813C228.158 168.741 227.499 170.149 228.129 171.163C231.936 177.3 240.939 193.834 240.939 213.003C240.939 213.003 240.483 217.736 252.819 215.063C265.159 212.395 294.487 216.041 295.446 215.128C296.407 214.218 292.499 210.876 287.553 198.722C282.603 186.564 281.303 167.116 279.48 165.599C277.694 164.11 271.361 171.614 229.229 168.813Z" fill="#F3A769"/>
<path d="M422.516 171.391C416.468 162.128 402.648 159.974 402.648 159.974C402.648 159.974 363.467 159.679 322.185 159.526V159.499C320.816 159.501 319.45 159.505 318.084 159.51C316.715 159.505 315.349 159.501 313.982 159.499V159.526C272.7 159.679 233.519 159.974 233.519 159.974C233.519 159.974 219.701 162.128 213.649 171.391C212.053 173.836 211.278 176.876 211.34 179.947C211.483 187.1 211.539 206.188 208.539 218.008C208.006 220.102 207.739 222.274 207.739 224.46V267.918C207.739 268.722 208.298 269.374 208.986 269.374H213.263C213.951 269.374 214.509 268.722 214.509 267.918V228.753C214.509 223.755 214.879 218.765 215.609 213.839C216.689 206.54 218.199 194.78 218.357 185.158C218.495 176.815 223.226 169.511 230.077 167.129C235.367 165.29 242.957 163.925 253.83 163.925C266.127 163.925 289.447 163.925 313.982 163.925C316.706 163.925 319.446 163.925 322.185 163.925C346.72 163.925 370.042 163.925 382.335 163.925C393.209 163.925 400.798 165.29 406.088 167.129C412.943 169.511 417.672 176.815 417.81 185.158C417.968 194.78 419.478 206.54 420.558 213.839C421.287 218.765 421.656 223.755 421.656 228.753V267.918C421.656 268.722 422.216 269.374 422.902 269.374H427.181C427.869 269.374 428.428 268.722 428.428 267.918V224.46C428.428 222.274 428.159 220.102 427.63 218.008C424.628 206.188 424.686 187.1 424.827 179.947C424.889 176.876 424.112 173.836 422.516 171.391Z" fill="#C9E4FF"/>
<path d="M232.249 171.974C232.249 171.974 244.489 181.394 246.05 195.677C247.612 209.958 246.05 213.302 246.05 213.302C246.05 213.302 250.476 205.705 249.954 208.135C249.434 210.569 248.132 214.821 249.954 213.302C251.777 211.781 277.818 205.097 291.36 212.392C291.36 212.392 281.724 206.92 284.066 206.312C286.41 205.705 293.963 213.246 291.36 208.867C288.755 204.488 276.515 186.863 279.64 171.063C279.64 171.063 276.256 178.052 276.776 174.71C277.298 171.365 277.559 168.328 275.736 169.846C273.912 171.365 259.591 176.835 239.019 173.797C239.019 173.797 239.28 174.101 240.322 175.62C241.362 177.139 233.289 174.71 232.249 171.974Z" fill="#FFDFBF"/>
<path d="M110.156 50.4927H184.531V201.592H110.156V50.4927Z" fill="#FFDFBF"/>
<path d="M36.6777 201.592H110.157V262.244H36.6777V201.592Z" fill="#FFDFBF"/>
<path d="M47.4307 214.361H99.4038V249.476H47.4307V214.361Z" fill="white"/>
<path d="M110.156 201.592H184.531V262.244H110.156V201.592Z" fill="#FFDFBF"/>
<path d="M121.806 214.361H173.779V249.476H121.806V214.361Z" fill="white"/>
<path d="M99.941 250.539H47.7897C47.104 250.539 46.5347 249.873 46.5347 249.076V214.76C46.5347 213.962 47.104 213.296 47.7897 213.296H99.941C100.627 213.296 101.196 213.962 101.196 214.76V249.076C101.196 249.873 100.627 250.539 99.941 250.539ZM49.0448 247.612H98.686V216.223H49.0448V247.612Z" fill="#F3A769"/>
<path d="M173.42 250.539H121.265C120.579 250.539 120.014 249.873 120.014 249.076V214.76C120.014 213.962 120.579 213.296 121.265 213.296H173.42C174.106 213.296 174.675 213.962 174.675 214.76V249.076C174.675 249.873 174.106 250.539 173.42 250.539ZM122.52 247.612H172.165V216.223H122.52V247.612Z" fill="#F3A769"/>
<path d="M36.6777 50.4927H110.157V201.592H36.6777V50.4927Z" fill="#FFDFBF"/>
<path d="M121.806 63.2615H173.779V120.722H121.806V63.2615Z" fill="#FFEFDE"/>
<path d="M128.078 107.953V69.6462H163.026V88.7068C163.026 99.3489 155.907 107.953 147.14 107.953H128.078Z" fill="white"/>
<path d="M47.4307 63.2615H99.4038V120.722H47.4307V63.2615Z" fill="#FFEFDE"/>
<path d="M53.7031 107.953V69.6462H88.6506V88.7068C88.6506 99.3489 81.5281 107.953 72.7654 107.953H53.7031Z" fill="white"/>
<path d="M121.806 130.299H173.779V188.823H121.806V130.299Z" fill="#FFEFDE"/>
<path d="M128.078 174.99V137.747H163.026V156.271C163.026 166.611 155.907 174.971 147.14 174.971H128.078V174.99Z" fill="white"/>
<path d="M47.4307 130.299H99.4038V188.823H47.4307V130.299Z" fill="#FFEFDE"/>
<path d="M53.7031 174.99V137.747H88.6506V156.271C88.6506 166.611 81.5281 174.971 72.7654 174.971H53.7031V174.99Z" fill="white"/>
<path d="M47.4307 120.722H99.4038V130.298H47.4307V120.722Z" fill="#FFDFBF"/>
<path d="M121.806 120.722H173.779V130.298H121.806V120.722Z" fill="#FFDFBF"/>
<path d="M99.941 132.427H47.7897C47.104 132.427 46.5347 131.76 46.5347 130.951V121.133C46.5347 120.325 47.104 119.658 47.7897 119.658H99.941C100.627 119.658 101.196 120.325 101.196 121.133V130.951C101.196 131.76 100.627 132.427 99.941 132.427ZM49.0448 129.476H98.686V122.609H49.0448V129.476Z" fill="#F3A769"/>
<path d="M173.42 132.427H121.265C120.579 132.427 120.014 131.76 120.014 130.951V121.133C120.014 120.325 120.579 119.658 121.265 119.658H173.42C174.106 119.658 174.675 120.325 174.675 121.133V130.951C174.675 131.76 174.106 132.427 173.42 132.427ZM122.52 129.476H172.165V122.609H122.52V129.476Z" fill="#F3A769"/>
<path d="M99.941 189.887H47.7897C47.104 189.887 46.5347 189.213 46.5347 188.397V62.6235C46.5347 61.8115 47.104 61.1333 47.7897 61.1333H99.941C100.627 61.1333 101.196 61.8115 101.196 62.6235V188.397C101.196 189.213 100.627 189.887 99.941 189.887ZM49.0448 186.906H98.686V64.1186H49.0448V186.906Z" fill="#F3A769"/>
<path d="M173.42 189.887H121.265C120.579 189.887 120.014 189.213 120.014 188.397V62.6235C120.014 61.8115 120.579 61.1333 121.265 61.1333H173.42C174.106 61.1333 174.675 61.8115 174.675 62.6235V188.397C174.675 189.213 174.106 189.887 173.42 189.887ZM122.52 186.906H172.165V64.1186H122.52V186.906Z" fill="#F3A769"/>
<path d="M110.686 202.656H36.1472C35.4575 202.656 34.8848 201.98 34.8848 201.171V49.8497C34.8848 49.0357 35.4575 48.3647 36.1472 48.3647H110.686C111.376 48.3647 111.948 49.0357 111.948 49.8497V201.171C111.948 201.98 111.376 202.656 110.686 202.656ZM37.4097 199.681H109.424V51.3347H37.4097V199.681Z" fill="#F3A769"/>
<path d="M185.062 202.656H110.523C109.833 202.656 109.261 201.98 109.261 201.171V49.8497C109.261 49.0357 109.833 48.3647 110.523 48.3647H185.062C185.752 48.3647 186.324 49.0357 186.324 49.8497V201.171C186.324 201.98 185.752 202.656 185.062 202.656ZM111.785 199.681H183.8V51.3347H111.785V199.681Z" fill="#F3A769"/>
<path d="M110.686 264.372H36.1472C35.4575 264.372 34.8848 263.696 34.8848 262.881V202.019C34.8848 201.204 35.4575 200.528 36.1472 200.528H110.686C111.376 200.528 111.948 201.204 111.948 202.019V262.881C111.948 263.696 111.376 264.372 110.686 264.372ZM37.4097 261.394H109.424V203.505H37.4097V261.394Z" fill="#F3A769"/>
<path d="M185.062 264.372H110.523C109.833 264.372 109.261 263.696 109.261 262.881V202.019C109.261 201.204 109.833 200.528 110.523 200.528H185.062C185.752 200.528 186.324 201.204 186.324 202.019V262.881C186.324 263.696 185.752 264.372 185.062 264.372ZM111.785 261.394H183.8V203.505H111.785V261.394Z" fill="#F3A769"/>
<path d="M26.8213 39.8518H194.39V50.4926H26.8213V39.8518Z" fill="#FFDFBF"/>
<path d="M194.046 51.3433H26.9067C26.2187 51.3433 25.6475 50.6782 25.6475 49.8821V39.2998C25.6475 38.4988 26.2187 37.8386 26.9067 37.8386H194.03C194.718 37.8386 195.289 38.4988 195.289 39.2998V49.8821C195.306 50.6782 194.734 51.3433 194.046 51.3433ZM28.166 48.421H192.77V40.7609H28.166V48.421Z" fill="#F3A769"/>
<path d="M26.8213 262.244H194.39V272.885H26.8213V262.244Z" fill="#FFDFBF"/>
<path d="M193.975 274.788H27.1805C26.4939 274.788 25.9238 274.116 25.9238 273.301V262.529C25.9238 261.719 26.4939 261.042 27.1805 261.042H193.958C194.644 261.042 195.215 261.719 195.215 262.529V273.301C195.231 274.136 194.661 274.788 193.975 274.788ZM28.4371 271.814H192.701V264.022H28.4371V271.814Z" fill="#F3A769"/>
<path d="M168.403 273.949L175.503 289.91H184.532V273.949H168.403Z" fill="#FFDFBF"/>
<path d="M184.109 291.751H175.245C174.759 291.751 174.326 291.435 174.122 290.916L167.156 274.235C166.952 273.78 166.986 273.222 167.223 272.787C167.456 272.352 167.859 272.09 168.292 272.09H184.125C184.812 272.09 185.382 272.767 185.382 273.583V290.264C185.365 291.074 184.795 291.751 184.109 291.751ZM176.032 288.777H182.852V275.07H170.302L176.032 288.777Z" fill="#F3A769"/>
<path d="M51.9112 273.949L45.2075 289.91H36.6777V273.949H51.9112Z" fill="#FFDFBF"/>
<path d="M45.2448 291.751H36.3817C35.6951 291.751 35.125 291.074 35.125 290.264V273.583C35.125 272.767 35.6951 272.09 36.3817 272.09H52.2105C52.6475 272.09 53.0511 272.352 53.2841 272.787C53.5171 273.222 53.5338 273.78 53.3507 274.235L46.3808 290.916C46.1644 291.435 45.7275 291.751 45.2448 291.751ZM37.6383 288.777H44.4542L50.1841 275.07H37.6383V288.777Z" fill="#F3A769"/>
<path d="M339.106 76.4806C348.658 66.4295 348.658 50.1335 339.106 40.0824C329.553 30.0313 314.066 30.0313 304.514 40.0824C294.961 50.1335 294.961 66.4295 304.514 76.4806C314.066 86.5317 329.553 86.5317 339.106 76.4806Z" fill="#C9E4FF"/>
<path d="M321.808 84.4569C308.09 84.4569 296.93 72.7142 296.93 58.2817C296.93 43.8492 308.09 32.105 321.808 32.105C335.525 32.105 346.685 43.8478 346.685 58.2817C346.685 72.7156 335.524 84.4569 321.808 84.4569ZM321.808 32.9835C308.551 32.9835 297.765 44.3309 297.765 58.2817C297.765 72.2325 308.551 83.5784 321.808 83.5784C335.065 83.5784 345.85 72.231 345.85 58.2817C345.85 44.3324 335.065 32.9835 321.808 32.9835Z" fill="#4FA5FF"/>
<path d="M339.284 48.8082L317.545 59.4199L317.896 60.2169L339.636 49.6052L339.284 48.8082Z" fill="#4FA5FF"/>
<path d="M323.954 60.5154L324.445 59.8054L311.403 49.8056L310.911 50.5156L323.954 60.5154Z" fill="#4FA5FF"/>
<path d="M322.226 35.6248H321.391V38.108H322.226V35.6248Z" fill="#4FA5FF"/>
<path d="M311.042 38.6597L312.223 40.8106L311.042 38.6597Z" fill="#C9E4FF"/>
<path d="M311.406 38.4448L310.683 38.884L311.863 41.0346L312.586 40.5953L311.406 38.4448Z" fill="#4FA5FF"/>
<path d="M303.161 46.9546L305.205 48.1962L303.161 46.9546Z" fill="#C9E4FF"/>
<path d="M303.366 46.5695L302.948 47.3303L304.992 48.5719L305.41 47.8111L303.366 46.5695Z" fill="#4FA5FF"/>
<path d="M302.638 57.8423H300.278V58.7208H302.638V57.8423Z" fill="#4FA5FF"/>
<path d="M303.161 69.6086L305.205 68.3669L303.161 69.6086Z" fill="#C9E4FF"/>
<path d="M305.005 68.006L302.961 69.2476L303.378 70.0084L305.422 68.7668L305.005 68.006Z" fill="#4FA5FF"/>
<path d="M311.042 77.9016L312.223 75.7507L311.042 77.9016Z" fill="#C9E4FF"/>
<path d="M311.819 75.4979L310.64 77.6487L311.363 78.0878L312.542 75.937L311.819 75.4979Z" fill="#4FA5FF"/>
<path d="M322.226 78.4536H321.391V80.9369H322.226V78.4536Z" fill="#4FA5FF"/>
<path d="M332.573 77.9016L331.394 75.7507L332.573 77.9016Z" fill="#C9E4FF"/>
<path d="M331.751 75.5202L331.028 75.9595L332.208 78.11L332.931 77.6708L331.751 75.5202Z" fill="#4FA5FF"/>
<path d="M340.454 69.6086L338.411 68.3669L340.454 69.6086Z" fill="#C9E4FF"/>
<path d="M338.943 65.0702L338.526 65.8345L340.579 67.0761L340.997 66.3118L338.943 65.0702Z" fill="#4FA5FF"/>
<path d="M343.341 57.8423H340.981V58.7208H343.341V57.8423Z" fill="#4FA5FF"/>
<path d="M340.454 46.9546L338.411 48.1962L340.454 46.9546Z" fill="#C9E4FF"/>
<path d="M343.026 46.8524L340.973 48.094L341.391 48.8583L343.444 47.6167L343.026 46.8524Z" fill="#4FA5FF"/>
<path d="M332.573 38.6597L331.394 40.8047L332.573 38.6597Z" fill="#C9E4FF"/>
<path d="M332.163 38.4037L330.983 40.5544L331.706 40.9935L332.886 38.8428L332.163 38.4037Z" fill="#4FA5FF"/>
<path d="M293.797 130.481C295.507 136.99 296.173 140.279 297.778 143.325C299.069 145.778 312.102 160.462 313.282 162.123C314.461 163.785 312.624 166.693 313.282 168.909C313.94 171.125 315.454 172.735 316.507 173.288C317.56 173.842 315.256 169.325 316.046 169.325C316.836 169.325 319.221 177.962 320.105 178.174C321.308 178.463 324.576 172.524 324.181 169.927C323.972 168.553 321.434 163.178 319.592 160.269C317.75 157.36 315.244 148.963 313.282 145.299C311.32 141.634 305.683 138.582 305.279 137.855C303.93 135.432 301.757 126.236 301.757 126.236L293.797 130.481Z" fill="#FD9783"/>
<path d="M269.849 127.551C269.247 132.468 266.144 140.683 263.929 141.035C262.4 141.278 259.984 143.592 253.504 141.035C247.416 138.636 240.844 127.248 240.844 127.248L242.737 124.657C242.737 124.657 257.358 131.991 259.188 131.047C260.833 130.198 261.722 121.392 261.722 121.392L269.849 127.551Z" fill="#FD9783"/>
<path d="M242.735 124.657C238.303 122.691 231.016 125.152 231.016 125.983C228.721 125.983 226.885 126.466 228.721 129.363C230.098 130.812 237.682 135.903 238.342 134.379C239.003 132.855 239.163 133.06 239.356 132.824C239.55 132.589 240.341 132.581 240.844 132.316C241.696 131.866 242.735 124.657 242.735 124.657Z" fill="#FD9783"/>
<path d="M264.195 247C266.859 258.217 269.237 276.914 268.649 280.03C268.06 283.146 256.499 288.125 255.018 289.996C253.538 291.868 271.419 291.216 273.397 291.216C275.899 291.216 279.541 288.751 278.286 286.308C277.596 284.963 277.369 283.645 277.369 282.444C277.369 279.675 281.503 254.525 279.398 242.616C277.878 234.039 264.195 247 264.195 247Z" fill="#FD9783"/>
<path d="M292.335 240.561C294.808 259.265 297.695 277.88 297.103 280.996C296.511 284.112 292.459 286.522 290.781 290.052C289.746 292.23 301.279 290.676 303.257 290.676C305.759 290.676 307.678 289.095 306.741 286.308C306.256 284.866 305.823 283.161 305.823 281.962C305.823 279.192 308.576 254.436 308.576 242.846C307.056 234.263 292.335 240.561 292.335 240.561Z" fill="#FD9783"/>
<path d="M271.473 139.586C265.896 162.2 265.422 172.179 264.294 182.965C264.294 191.689 261.719 231.38 264.294 250.86C264.839 254.981 309.808 251.506 311.107 249.637C311.89 248.517 309.607 233.438 305.823 205.662C304.1 186.114 300.946 178.745 299.857 172.342C296.663 153.501 290.648 139.586 290.648 139.586H271.473Z" fill="#005BBA"/>
<path d="M289.76 78.454C285.084 75.4866 276.31 75.3154 275.532 81.3515C272.968 80.8686 267.731 83.7661 269.107 96.8046C268.523 98.7487 263.692 94.5983 263.6 99.345C263.509 104.092 271.412 107.943 272.968 107.022C275.447 109.683 279.386 107.432 280.164 106C280.942 104.568 281.913 104.772 282.692 106.102C283.471 107.431 285.901 108.148 287.554 107.632C289.207 107.117 291.88 105.996 289.425 99.3449C290.956 97.4008 290.752 95.764 290.416 94.2296C290.081 92.6953 288.961 91.161 289.425 90.445C289.888 89.7291 292.054 91.4926 296.644 85.6977C298.479 82.8003 294.426 77.6356 289.76 78.454Z" fill="#172755"/>
<path d="M273.105 103.648C270.643 103.766 266.937 104.296 265.16 106.444C262.008 110.264 260.811 126.656 259.713 129.596C258.989 131.535 267.323 134.201 268.324 134.105C268.476 134.091 269.168 131.835 269.168 131.835C269.168 131.835 272.167 136.721 271.574 139.629C270.981 142.538 290.144 142.329 290.753 139.629C291.363 136.929 292.276 128.991 292.802 127.676C293.328 129.407 293.965 131.83 294.096 132.176C294.227 132.523 302.825 129.654 302.581 128.603C302.055 126.317 299.56 108.901 295.755 106.138C291.148 102.789 280.36 104.644 280.36 104.644L273.105 103.648Z" fill="#A3D1FF"/>
<path d="M277.398 91.7353C277.416 96.1593 277.979 99.6129 276.45 101.354C274.081 104.055 270.83 104.654 270.83 104.654C270.83 104.654 272.311 113.586 280.305 113.689C288.3 113.793 291.511 105.379 291.511 105.379C291.511 105.379 284.123 104.129 283.334 100.389C283.006 98.8379 283.643 95.2078 283.769 92.0826C283.947 87.668 277.388 89.3013 277.398 91.7353Z" fill="#FD9783"/>
<path d="M287.465 86.8672C288.383 91.6963 287.465 98.457 285.17 98.457C281.04 97.974 281.04 94.5937 278.286 91.2133C276.861 92.5793 273.967 88.0322 274.615 87.3504C275.263 86.6686 276.45 87.3504 276.45 87.3504C276.45 87.3504 280.122 86.8672 284.252 86.3843C286.547 86.3843 287.465 86.8672 287.465 86.8672Z" fill="#FD9783"/>
<path d="M313.389 290.635C313.575 291.395 313 292.128 312.218 292.128H285.912C285.113 292.128 284.523 291.405 284.735 290.635V290.635C284.769 290.527 284.8 290.412 284.83 290.289C285.808 286.933 288.49 280.161 294.297 280.161C297.985 280.161 300.281 281.951 301.674 283.822C303.299 286.005 305.597 288.026 308.318 288.026H310.32C311.709 288.026 312.927 288.951 313.3 290.289V290.289L313.389 290.635V290.635Z" fill="#4FA5FF"/>
<path d="M282.351 290.759C282.42 291.493 281.843 292.128 281.106 292.128H253.412C252.75 292.128 252.241 291.536 252.402 290.893V290.893C252.424 290.804 252.434 290.711 252.461 290.623C252.479 290.565 252.502 290.504 252.519 290.442C253.35 287.366 255.901 281.158 262.938 281.158C266.985 281.158 269.348 282.519 270.727 284.062C272.535 286.087 274.782 288.424 277.496 288.424H280.094C281.244 288.424 282.205 289.298 282.315 290.442V290.442L282.351 290.759V290.759Z" fill="#4FA5FF"/>
<path d="M258.893 284.144C258.863 284.138 258.836 284.121 258.816 284.096C258.797 284.071 258.786 284.041 258.786 284.009C258.786 283.977 258.797 283.947 258.816 283.922C258.836 283.898 258.863 283.881 258.893 283.874L262.223 283.718L259.246 282.596C259.215 282.584 259.189 282.562 259.173 282.532C259.157 282.502 259.151 282.468 259.157 282.435C259.166 282.403 259.184 282.376 259.21 282.358C259.236 282.339 259.267 282.33 259.298 282.333L262.64 282.608L260.878 281.409C260.853 281.39 260.835 281.363 260.827 281.333C260.818 281.303 260.82 281.27 260.831 281.241C260.843 281.211 260.865 281.187 260.893 281.172C260.921 281.158 260.954 281.155 260.984 281.163L265.289 282.159C265.309 282.159 265.328 282.164 265.346 282.173C265.364 282.183 265.38 282.196 265.392 282.212C265.404 282.228 265.413 282.247 265.417 282.267C265.421 282.287 265.421 282.307 265.417 282.327C265.412 282.347 265.404 282.366 265.391 282.382C265.379 282.398 265.363 282.411 265.346 282.42C265.328 282.429 265.308 282.434 265.288 282.434C265.268 282.435 265.248 282.431 265.23 282.423L261.607 281.583L263.18 282.674C263.205 282.692 263.223 282.717 263.233 282.747C263.242 282.776 263.243 282.807 263.233 282.836C263.222 282.863 263.203 282.886 263.179 282.902C263.155 282.918 263.127 282.926 263.098 282.926L260.22 282.686L262.91 283.706C262.938 283.718 262.961 283.74 262.975 283.766C262.989 283.793 262.995 283.824 262.99 283.854C262.985 283.885 262.971 283.912 262.949 283.933C262.927 283.954 262.899 283.967 262.869 283.97L258.881 284.15L258.893 284.144Z" fill="#08294A"/>
<path d="M289.254 284.15C289.219 284.15 289.185 284.138 289.159 284.115C289.133 284.092 289.117 284.061 289.114 284.028C289.112 283.993 289.124 283.958 289.148 283.931C289.172 283.904 289.205 283.887 289.242 283.882L293.457 283.51L290.32 282.689C290.285 282.685 290.252 282.667 290.231 282.639C290.209 282.612 290.199 282.578 290.204 282.544C290.209 282.51 290.228 282.479 290.256 282.458C290.285 282.438 290.321 282.428 290.357 282.433H293.804L291.404 281.409C291.377 281.394 291.356 281.371 291.344 281.343C291.332 281.316 291.33 281.285 291.338 281.256C291.347 281.228 291.365 281.202 291.39 281.185C291.416 281.167 291.446 281.158 291.477 281.159L295.62 281.595C295.656 281.599 295.69 281.617 295.714 281.644C295.737 281.671 295.749 281.705 295.748 281.741C295.745 281.758 295.739 281.775 295.73 281.791C295.721 281.806 295.709 281.82 295.694 281.83C295.679 281.841 295.662 281.849 295.644 281.854C295.626 281.858 295.608 281.859 295.589 281.857L292.33 281.514L294.511 282.445C294.54 282.456 294.564 282.477 294.578 282.504C294.593 282.53 294.597 282.561 294.59 282.59C294.584 282.62 294.568 282.647 294.543 282.666C294.519 282.685 294.488 282.696 294.456 282.695H291.41L294.286 283.446C294.317 283.454 294.345 283.472 294.364 283.498C294.383 283.523 294.392 283.554 294.389 283.586C294.386 283.617 294.372 283.647 294.349 283.669C294.325 283.691 294.294 283.705 294.261 283.708L289.291 284.15H289.254Z" fill="#08294A"/>
<path d="M283.563 89.3873C283.503 89.3686 283.45 89.3297 283.41 89.2752C283.37 89.2206 283.345 89.1527 283.337 89.0791L283.22 87.9733C283.21 87.8712 283.235 87.7657 283.29 87.6799C283.344 87.5941 283.424 87.5351 283.511 87.5159C283.598 87.4967 283.685 87.5189 283.754 87.5775C283.823 87.6361 283.868 87.7264 283.878 87.8285L283.994 88.9343C284 88.9849 283.997 89.037 283.985 89.0875C283.973 89.138 283.953 89.186 283.926 89.2286C283.899 89.2712 283.866 89.3075 283.828 89.3356C283.789 89.3636 283.747 89.3826 283.704 89.3917C283.657 89.4037 283.609 89.4022 283.563 89.3873V89.3873Z" fill="#080C53"/>
<path d="M286.022 89.1466C285.967 89.1308 285.918 89.0963 285.88 89.0473C285.843 88.9982 285.818 88.9366 285.81 88.8695L285.709 87.8491C285.703 87.8032 285.705 87.7558 285.715 87.7096C285.725 87.6634 285.743 87.6194 285.767 87.5802C285.791 87.5409 285.821 87.5072 285.856 87.4811C285.89 87.4549 285.928 87.4367 285.967 87.4277C286.047 87.4108 286.127 87.4313 286.19 87.4848C286.253 87.5382 286.294 87.6204 286.304 87.7135L286.415 88.7274C286.423 88.8209 286.4 88.9172 286.351 88.9956C286.301 89.0741 286.229 89.1284 286.149 89.1469C286.107 89.1603 286.063 89.1602 286.022 89.1466V89.1466Z" fill="#080C53"/>
<path d="M283.463 94.3471C283.31 94.0555 283.54 93.7485 283.865 93.752L285.729 93.772C285.982 93.7747 286.196 93.9674 286.207 94.222C286.235 94.8532 286.2 95.9418 285.63 96.0316C284.964 96.1366 283.96 95.2929 283.463 94.3471Z" fill="white"/>
<path d="M222.323 95.0063C224.591 97.3754 228.695 102.277 226.783 104.809C224.171 108.228 218.359 108.228 216.084 106.071C214.28 104.362 215.204 97.9783 215.663 95.4319C217.866 96.0942 220.202 95.9448 222.323 95.0063V95.0063Z" fill="#BC7551"/>
<path d="M221.361 126.555H213.847V97.1409H258.456V126.555H221.361Z" fill="#FBD5AF"/>
<path d="M255.83 97.1409V124.548H213.879V126.555H258.487V97.1409H255.83Z" fill="#F2C294"/>
<path d="M215.626 95.3821C215.747 94.6728 215.836 94.2969 215.836 94.2969L220.934 93.6372C220.934 93.6372 221.501 94.1621 222.285 94.992C220.165 95.9363 217.823 96.0735 215.626 95.3821Z" fill="#172755"/>
<path d="M223.673 88.0904C224.085 87.4259 224.37 86.6748 224.512 85.8832C224.653 85.0916 224.648 84.2762 224.496 83.4871C223.571 83.6328 222.693 84.0335 221.943 84.6529C221.193 85.2723 220.594 86.0907 220.2 87.0336C218.601 90.4098 223.673 88.0904 223.673 88.0904Z" fill="#8F563C"/>
<path d="M220.202 87.0336C220.596 86.0907 221.195 85.2723 221.945 84.6529C222.695 84.0335 223.572 83.6328 224.497 83.4871C224.529 83.6147 224.555 83.7424 224.574 83.863C223.775 84.1095 223.033 84.5416 222.396 85.131C221.759 85.7203 221.241 86.4534 220.878 87.2818C220.489 88.1117 220.495 88.6011 220.737 88.8565C219.992 88.7997 219.559 88.3812 220.202 87.0336Z" fill="#BC7551"/>
<path d="M216.575 86.366C216.575 86.366 216.072 84.7346 213.128 83.5288C213.128 83.5288 212.446 86.898 213.803 88.9053C215.16 90.9127 216.575 86.366 216.575 86.366Z" fill="#8F563C"/>
<path d="M216.263 86.6715C216.263 86.6715 215.785 85.1324 213.077 83.9053C213.115 83.6499 213.147 83.501 213.147 83.501C216.091 84.7422 216.594 86.3382 216.594 86.3382C216.594 86.3382 215.9 88.5441 215.014 89.1754C215.551 88.4228 215.973 87.5769 216.263 86.6715V86.6715Z" fill="#BC7551"/>
<path d="M218.392 95.4673C221.992 95.4673 224.917 93.3891 224.917 90.8214C224.917 88.2538 221.992 86.1826 218.392 86.1826C214.791 86.1826 211.86 88.2609 211.86 90.8214C211.86 93.382 214.785 95.4673 218.392 95.4673Z" fill="#BC7551"/>
<path d="M217.971 94.9562C221.578 94.9562 224.497 92.885 224.497 90.3174C224.491 89.5368 224.238 88.7836 223.783 88.1895C224.125 88.5128 224.402 88.9119 224.598 89.3614C224.793 89.8108 224.902 90.3007 224.917 90.7997C224.917 93.3673 221.999 95.4456 218.392 95.4456C215.843 95.4456 213.651 94.41 212.574 92.9134C214.089 94.3045 216.008 95.0311 217.971 94.9562V94.9562Z" fill="#8F563C"/>
<path d="M215.944 91.1477C215.944 91.4527 216.295 91.701 216.722 91.701C217.149 91.701 217.499 91.4527 217.499 91.1477C217.499 90.8427 217.155 90.5945 216.722 90.5945C216.288 90.5945 215.944 90.8427 215.944 91.1477Z" fill="#172755"/>
<path d="M218.519 89.9908C218.52 90.0599 218.534 90.128 218.561 90.1903C218.588 90.2526 218.627 90.3076 218.675 90.3515C218.723 90.3954 218.779 90.4272 218.839 90.4446C218.899 90.4619 218.962 90.4645 219.023 90.4521C219.104 90.4313 219.178 90.3872 219.239 90.3244C219.298 90.2586 219.338 90.1749 219.354 90.084C219.369 89.993 219.361 89.8988 219.329 89.8134C219.296 89.7301 219.243 89.6588 219.176 89.6075C219.107 89.5542 219.024 89.5269 218.94 89.5295C218.83 89.5301 218.725 89.5785 218.647 89.6643C218.607 89.7061 218.574 89.7567 218.553 89.8128C218.531 89.869 218.519 89.9296 218.519 89.9908V89.9908Z" fill="#172755"/>
<path d="M214.766 89.8495C214.767 89.9186 214.781 89.9867 214.808 90.049C214.835 90.1113 214.874 90.1663 214.921 90.2102C214.969 90.2542 215.025 90.2859 215.085 90.3033C215.145 90.3207 215.208 90.3232 215.269 90.3109C215.35 90.29 215.425 90.2459 215.486 90.1831C215.545 90.1173 215.584 90.0336 215.6 89.9427C215.616 89.8517 215.607 89.7576 215.575 89.6721C215.541 89.588 215.488 89.5148 215.422 89.4592C215.352 89.4091 215.27 89.382 215.186 89.3811C215.076 89.3847 214.971 89.4352 214.893 89.5223C214.814 89.6093 214.769 89.7264 214.766 89.8495V89.8495Z" fill="#172755"/>
<path d="M218.277 93.4098C218.516 93.4075 218.754 93.3838 218.99 93.3389V93.197C218.092 93.3602 217.454 93.197 217.078 92.8069C216.936 92.5997 216.836 92.3603 216.785 92.1054C216.734 91.8505 216.734 91.5864 216.785 91.3315V91.3315H216.658C216.606 91.6318 216.501 91.9173 216.347 92.1709C216.194 92.4244 215.996 92.6408 215.766 92.8069C215.541 92.9069 215.298 92.9468 215.057 92.9234C214.815 92.9 214.582 92.814 214.376 92.6721L214.319 92.7927C214.541 92.9466 214.793 93.0391 215.053 93.0625C215.314 93.086 215.576 93.0397 215.817 92.9275C216.185 92.6992 216.471 92.3357 216.626 91.899C216.633 92.2778 216.759 92.6418 216.983 92.9275C217.156 93.104 217.361 93.2381 217.584 93.3212C217.807 93.4042 218.043 93.4344 218.277 93.4098V93.4098Z" fill="#172755"/>
<path d="M223.661 95.4673C221.463 95.4673 219.838 99.645 222.731 100.432C225.624 101.22 226.306 95.4602 223.661 95.4673Z" fill="#BC7551"/>
<path d="M222.329 99.7084C224.355 100.276 225.298 97.616 224.776 95.9705C225.987 97.3465 225.113 101.099 222.73 100.446C222.395 100.389 222.081 100.231 221.82 99.9898C221.56 99.7486 221.363 99.4332 221.252 99.0772C221.549 99.3985 221.923 99.6176 222.329 99.7084V99.7084Z" fill="#8F563C"/>
<path d="M212.956 95.0483C210.942 94.8922 211.044 99.5452 213.803 100.113C216.563 100.68 215.358 95.2398 212.956 95.0483Z" fill="#BC7551"/>
<path d="M213.28 99.5738C215.326 99.9923 215.192 97.0629 213.975 95.4741C215.632 96.7934 216.11 100.588 213.796 100.113C213.189 99.9936 212.641 99.6332 212.254 99.0986C212.561 99.3373 212.911 99.4994 213.28 99.5738V99.5738Z" fill="#8F563C"/>
<path d="M219.143 91.4241C219.819 91.3166 220.5 91.255 221.182 91.2397C222.548 91.2043 223.913 91.3664 225.241 91.722L225.738 91.8638L226.229 92.027L226.713 92.2043L227.198 92.3887L226.726 92.1617L226.248 91.956L225.758 91.7645L225.267 91.6085C224.602 91.4101 223.925 91.2678 223.24 91.1829C222.557 91.1051 221.869 91.0837 221.182 91.1191C220.496 91.1565 219.814 91.2585 219.143 91.4241Z" fill="#172755"/>
<path d="M219.359 92.2395C219.85 92.2395 220.34 92.3034 220.825 92.3743C221.309 92.4452 221.8 92.5303 222.278 92.6509C222.756 92.7715 223.234 92.9134 223.699 93.0765L224.049 93.2042L224.387 93.346L224.737 93.4879C224.846 93.5375 224.96 93.5943 225.075 93.6368L224.737 93.4524L224.393 93.2822L224.062 93.1191L223.718 92.9772C223.254 92.7882 222.779 92.6341 222.297 92.5162C221.811 92.4012 221.319 92.3183 220.825 92.2679C220.337 92.2193 219.848 92.2098 219.359 92.2395Z" fill="#172755"/>
<path d="M219.188 93.0554C219.597 93.1292 220.001 93.2311 220.399 93.3604C221.19 93.6192 221.948 93.9886 222.655 94.4598L222.916 94.6513L223.171 94.8358L223.426 95.0415C223.505 95.1156 223.588 95.1843 223.674 95.2472L223.445 95.0131L223.209 94.7861L222.961 94.5733L222.706 94.3747C222.361 94.1009 221.994 93.8635 221.61 93.6654C221.227 93.4785 220.83 93.329 220.424 93.2186C220.018 93.1188 219.604 93.0642 219.188 93.0554V93.0554Z" fill="#172755"/>
<path d="M215.033 91.2611C214.476 90.9426 213.896 90.6768 213.299 90.4667C212.701 90.2545 212.09 90.0909 211.47 89.9773C210.848 89.8699 210.22 89.8154 209.591 89.8142H209.119H208.654L208.182 89.871L207.723 89.949L208.189 89.9064H208.654H209.591C210.836 89.9497 212.071 90.1665 213.268 90.5519C213.867 90.752 214.456 90.9888 215.033 91.2611V91.2611Z" fill="#172755"/>
<path d="M214.479 91.9411C213.923 91.7643 213.357 91.6292 212.784 91.5368C212.21 91.4505 211.631 91.4031 211.051 91.3949C210.47 91.3903 209.888 91.4282 209.311 91.5084L208.884 91.5722L208.457 91.6573L208.03 91.7566L207.61 91.8772L208.037 91.7921L208.464 91.7212L208.897 91.6644L209.324 91.6148C210.471 91.4918 211.625 91.4918 212.772 91.6148C213.345 91.7141 213.912 91.8134 214.479 91.9411Z" fill="#172755"/>
<path d="M213.759 92.346C213.333 92.3222 212.907 92.3412 212.484 92.4027C211.633 92.5259 210.807 92.8038 210.037 93.2255L209.757 93.3887L209.476 93.566L209.209 93.7575L208.947 93.9632L209.253 93.7646L209.534 93.6015L209.82 93.4454L210.107 93.2965C210.88 92.9182 211.691 92.6444 212.522 92.4808C212.944 92.403 213.37 92.3509 213.797 92.3247L213.759 92.346Z" fill="#172755"/>
<path d="M329.272 163.986C327.434 163.181 322.93 160.665 321.785 160.8C320.639 160.934 316.598 165.974 316.598 165.974L328.816 165.753L329.272 163.986Z" fill="#FD9783"/>
<path d="M384.758 218.554C385.112 222.601 385.442 234.721 385.673 247.552C385.727 250.622 388.921 255.608 388.963 258.659C389.168 273.296 386.071 284.685 385.843 285.47C386.01 286.447 386.65 291.905 385.275 291.905C382.913 291.905 375.868 291.321 371.607 291.321C370.325 291.321 370.51 290.336 371.902 289.677C375.018 288.201 380.921 284.762 381.347 283.023C381.577 282.095 374.268 254.116 373.4 249.921C372.768 246.873 369.522 225.759 368.943 221.764C367.323 221.803 383.863 218.927 384.758 218.554Z" fill="#FD9783"/>
<path d="M386.829 292.127H370.425C370.359 292.128 370.295 292.102 370.248 292.055C370.2 292.007 370.172 291.942 370.17 291.873V291.493C370.172 291.427 370.197 291.363 370.242 291.316C370.286 291.269 370.346 291.241 370.409 291.239L386.8 290.157C386.86 290.152 386.92 290.159 386.977 290.178C387.033 290.198 387.086 290.23 387.131 290.271C387.176 290.313 387.212 290.364 387.237 290.421C387.263 290.478 387.277 290.54 387.279 290.603V291.68C387.275 291.802 387.226 291.917 387.142 292.001C387.057 292.085 386.945 292.13 386.829 292.127Z" fill="#005BBA"/>
<path d="M372.288 289.489C371.864 288.604 376.532 286.497 376.965 286.385C380.811 285.409 385.937 291.254 383.767 291.254H377.722C376.994 289.479 372.744 289.35 372.288 289.489Z" fill="#005BBA"/>
<path d="M385.843 285.467C386.314 285.637 386.555 286.752 386.331 287.383C386.03 288.227 382.477 289.691 382.477 289.691L381.331 288.449C381.331 288.449 385.669 286.177 385.84 285.467H385.843Z" fill="#005BBA"/>
<path d="M353.296 284.259C354.61 282.64 353.488 255.231 353.488 249.148C353.488 243.822 355.181 225.523 356.47 220.296C357.701 220.368 369.494 225.801 370.528 225.533C369.531 228.765 367.478 238.354 365.343 248.957C364.926 251.022 366.669 256.554 366.254 258.656C363.25 273.813 358.268 285.489 358.288 285.762C358.441 287.774 360.121 291.512 358.766 291.512H342.635C341.687 291.512 342.451 290.188 343.829 289.838C347.098 287.877 351.69 286.237 353.296 284.259Z" fill="#FD9783"/>
<path d="M343.829 289.834C343.541 289.034 347.625 286.798 348.073 286.743C350.366 286.455 354.892 291.512 352.715 291.512H346.671C345.948 289.737 344.285 289.695 343.829 289.834Z" fill="#005BBA"/>
<path d="M359.548 292.127H341.746C341.677 292.13 341.61 292.106 341.559 292.058C341.507 292.011 341.475 291.944 341.469 291.873V291.493C341.475 291.423 341.505 291.359 341.554 291.312C341.603 291.265 341.668 291.239 341.734 291.239L359.523 290.158C359.585 290.149 359.649 290.155 359.709 290.173C359.769 290.191 359.825 290.222 359.874 290.263C359.923 290.305 359.963 290.356 359.992 290.415C360.021 290.473 360.039 290.537 360.044 290.603V291.68C360.04 291.744 360.023 291.806 359.996 291.862C359.968 291.919 359.93 291.97 359.884 292.011C359.838 292.053 359.785 292.084 359.727 292.104C359.67 292.124 359.609 292.132 359.548 292.127Z" fill="#005BBA"/>
<path d="M350.753 288.212C353.007 288.922 357.001 286.456 358.291 285.761C358.747 285.517 359.112 286.998 358.595 287.401C357.424 288.312 353.116 290.185 351.66 289.662C350.203 289.139 350.753 288.212 350.753 288.212Z" fill="#005BBA"/>
<path d="M354.06 233.317C356.647 218.061 360.265 199.173 360.463 194.821C360.463 194.821 371.271 191.079 376.568 203.725C377.894 206.884 370.84 225.41 368.528 236.267C367.11 236.513 357.885 234.781 354.06 233.317Z" fill="#005BBA"/>
<path d="M370.895 237.215C368.494 221.534 363.078 194.273 363.078 194.273C363.078 194.273 372.939 191.252 375.609 192.996C379.524 195.556 383.251 204.194 384.833 210.356C385.629 213.466 385.554 229.302 386.335 234.145C384.648 236.491 374.029 237.307 370.895 237.215Z" fill="#005BBA"/>
<path d="M361.287 160.191C361.128 160.162 348.377 167.801 345.288 168.667C342.331 169.505 330.248 164.316 327.907 163.33C326.329 162.664 324.81 164.464 325.304 164.94C326.127 165.733 337.108 177.429 345.37 177.134C350.491 176.953 365.969 168.761 366.551 167.148C366.941 166.061 363.462 160.596 361.287 160.191Z" fill="#FD9783"/>
<path d="M361.287 158.889C363.583 157.056 366.072 157.272 367.35 157.124C370.641 156.745 372.874 157 375.287 158.002C376.758 158.612 380.81 161.237 382.456 164.039C384.368 167.295 385.374 174.398 385.451 176.394C385.469 176.896 381.435 178.409 381.268 179.728C380.634 184.751 385.078 205.266 384.65 206.229C383.854 208.023 359.201 207.903 358.084 205.334C357.255 203.429 358.118 170.038 358.084 169.56C358.189 166.64 358.247 161.312 361.287 158.889Z" fill="#FBC331"/>
<path d="M364.097 142.56C362.596 141.723 359.208 137.397 359.578 135.27C360.617 129.289 373.864 135.822 376.304 137.56C378.109 138.844 380.159 144.486 379.621 146.535C378.799 149.647 374.934 153.165 374.139 153.017C369.653 152.173 365.302 143.231 364.097 142.56Z" fill="#172755"/>
<path d="M366.669 158.383C367.748 157.439 368.035 154.435 368.151 149.112C368.151 149.112 374.518 146.285 373.987 147.845C373.191 150.183 374.218 157.097 374.385 158.337C374.435 158.718 374.547 158.909 374.963 159.358C375.169 159.582 371.616 163.836 367.975 162.469C365.445 161.52 366.426 158.595 366.669 158.383Z" fill="#FD9783"/>
<path d="M374.313 148.715C374.831 148.441 374.992 147.747 375.298 147.583C375.849 147.292 376.586 148.136 376.194 149.299C375.847 150.32 374.818 151.659 373.783 151.239C371.548 155.473 368.754 155.834 365.951 155.339C363.363 154.882 363.037 151.012 363.036 148.809C363.036 143.975 364.282 142.129 364.458 142.048C364.502 142.026 370.494 140.727 373.195 143.293C373.716 143.788 373.426 148.019 373.651 148.446C373.931 148.984 374.224 148.761 374.313 148.715Z" fill="#FD9783"/>
<path d="M376.73 178.384C376.478 178.596 379.045 188.367 378.807 189.667C378.317 192.339 375.706 199.61 370.826 205.648C370.253 206.357 374.834 207.881 375.267 207.341C377.397 204.708 383.988 198.993 386.628 190.899C387.891 187.028 385.955 179.503 385.21 176.476C384.933 175.35 378.454 176.931 376.73 178.384Z" fill="#FD9783"/>
<path d="M361.94 158.423C361.94 158.423 351.677 165.088 351.462 165.448C351.248 165.808 352.789 173.666 354.124 174.853C354.827 175.474 361.279 170.712 361.279 170.712L361.94 158.423Z" fill="#FBC331"/>
<path d="M357.973 175.805H358.006C358.078 175.795 358.144 175.756 358.188 175.696C358.233 175.636 358.253 175.56 358.245 175.484C358.039 173.729 358.474 168.431 358.558 167.808C358.563 167.771 358.561 167.733 358.552 167.696C358.543 167.66 358.527 167.625 358.506 167.595C358.484 167.565 358.457 167.539 358.426 167.52C358.395 167.501 358.361 167.488 358.326 167.483C358.29 167.478 358.254 167.48 358.219 167.489C358.185 167.499 358.152 167.515 358.123 167.538C358.094 167.561 358.07 167.589 358.052 167.621C358.034 167.654 358.022 167.69 358.017 167.727C357.928 168.379 357.486 173.713 357.701 175.552C357.709 175.622 357.742 175.686 357.792 175.732C357.842 175.779 357.906 175.805 357.973 175.805V175.805Z" fill="#ED6412"/>
<path d="M376.17 178.724C376.206 178.724 376.242 178.716 376.275 178.702C376.342 178.672 376.395 178.616 376.422 178.545C376.45 178.475 376.45 178.395 376.422 178.325C375.664 176.416 375.067 174.44 374.638 172.42C374.523 171.91 374.431 171.505 374.334 171.182C374.313 171.11 374.264 171.049 374.2 171.014C374.136 170.979 374.061 170.972 373.992 170.995C373.923 171.018 373.865 171.069 373.831 171.136C373.798 171.204 373.791 171.283 373.813 171.356C373.903 171.658 373.994 172.053 374.106 172.554C374.541 174.604 375.147 176.609 375.917 178.547C375.938 178.599 375.973 178.644 376.018 178.675C376.063 178.707 376.116 178.724 376.17 178.724V178.724Z" fill="#ED6412"/>
<path d="M369.296 230.179C369.326 230.179 369.357 230.175 369.386 230.166C369.433 230.154 369.477 230.133 369.515 230.103C369.554 230.073 369.586 230.035 369.611 229.991C369.636 229.948 369.652 229.9 369.659 229.85C369.666 229.8 369.663 229.749 369.651 229.7C369.004 227.049 368.105 223.385 367.688 221.712C367.664 221.614 367.603 221.53 367.519 221.478C367.436 221.427 367.336 221.413 367.243 221.439C367.149 221.465 367.069 221.529 367.02 221.616C366.972 221.704 366.958 221.809 366.983 221.908C367.399 223.582 368.297 227.234 368.944 229.89C368.965 229.972 369.01 230.045 369.073 230.097C369.137 230.149 369.215 230.178 369.296 230.179Z" fill="#007AA9"/>
<path d="M375.277 207.18C375.288 207.19 375.296 207.202 375.3 207.216C375.304 207.231 375.303 207.246 375.298 207.26C375.098 207.831 373.096 213.321 370.489 214.016C369.911 214.169 365.367 212.673 365.198 211.53C365.136 211.162 365.124 210.786 365.162 210.414C365.165 210.396 365.175 210.38 365.189 210.369C365.204 210.359 365.221 210.355 365.239 210.358L365.432 210.389C365.497 210.399 365.563 210.384 365.618 210.348C366.207 209.946 366.725 209.439 367.149 208.849C367.212 208.762 367.253 208.659 367.267 208.55C367.28 208.441 367.267 208.33 367.228 208.228C367.189 208.126 367.125 208.037 367.043 207.969C366.961 207.901 366.863 207.857 366.76 207.84C366.349 207.776 365.975 207.719 365.841 207.701C365.613 207.67 367.983 205.453 368.521 205.179C369.662 204.599 370.164 205.458 372.985 205.308C373.002 205.307 373.018 205.311 373.031 205.322L375.277 207.18Z" fill="#FD9783"/>
<path d="M366.397 212.919C366.42 212.921 366.443 212.921 366.466 212.919C367.058 212.814 368.346 211.356 368.679 210.739C368.728 210.639 368.738 210.524 368.707 210.416C368.677 210.309 368.608 210.218 368.515 210.162C368.423 210.107 368.313 210.091 368.21 210.119C368.106 210.146 368.017 210.214 367.96 210.309C367.638 210.908 366.59 211.956 366.314 212.065C366.215 212.087 366.127 212.148 366.067 212.234C366.007 212.321 365.98 212.428 365.99 212.534C366 212.641 366.047 212.74 366.122 212.812C366.197 212.884 366.295 212.925 366.397 212.926V212.919Z" fill="#F6886A"/>
<path d="M367.939 213.579C368.012 213.579 368.083 213.558 368.145 213.52C368.99 213.005 369.579 212.38 370.206 211.674C370.246 211.633 370.278 211.584 370.3 211.529C370.321 211.475 370.332 211.417 370.332 211.358C370.331 211.299 370.319 211.241 370.297 211.187C370.274 211.133 370.241 211.084 370.201 211.044C370.16 211.004 370.111 210.972 370.059 210.952C370.006 210.932 369.95 210.924 369.894 210.927C369.838 210.93 369.784 210.946 369.734 210.972C369.683 210.998 369.639 211.035 369.603 211.079C368.897 211.872 368.409 212.352 367.731 212.767C367.652 212.815 367.591 212.889 367.556 212.977C367.521 213.066 367.515 213.164 367.539 213.257C367.563 213.349 367.615 213.431 367.687 213.489C367.76 213.548 367.848 213.579 367.939 213.579V213.579Z" fill="#F6886A"/>
<path d="M369.401 214.102C369.478 214.102 369.554 214.08 369.619 214.037L369.752 213.952C370.443 213.531 371.065 212.995 371.595 212.366C371.662 212.28 371.694 212.17 371.686 212.059C371.678 211.948 371.629 211.844 371.551 211.77C371.472 211.695 371.37 211.655 371.264 211.657C371.158 211.66 371.058 211.705 370.982 211.783C370.507 212.349 369.947 212.83 369.324 213.206L369.183 213.297C369.106 213.347 369.047 213.422 369.015 213.51C368.983 213.598 368.978 213.695 369.003 213.786C369.028 213.877 369.08 213.957 369.151 214.014C369.223 214.071 369.31 214.102 369.4 214.102H369.401Z" fill="#F6886A"/>
<path d="M367.15 145.58C367.21 145.561 367.263 145.523 367.303 145.468C367.343 145.414 367.369 145.346 367.376 145.272L367.493 144.166C367.503 144.064 367.478 143.959 367.424 143.873C367.369 143.787 367.29 143.728 367.203 143.709C367.116 143.69 367.028 143.712 366.959 143.77C366.89 143.829 366.846 143.919 366.836 144.021L366.719 145.127C366.714 145.178 366.717 145.23 366.728 145.28C366.74 145.331 366.76 145.379 366.787 145.421C366.814 145.464 366.848 145.5 366.886 145.528C366.924 145.556 366.966 145.576 367.009 145.585C367.057 145.597 367.105 145.595 367.15 145.58V145.58Z" fill="#080C53"/>
<path d="M364.69 145.339C364.745 145.324 364.795 145.289 364.832 145.24C364.87 145.191 364.894 145.129 364.902 145.062L365.004 144.042C365.009 143.996 365.007 143.949 364.997 143.902C364.987 143.856 364.969 143.812 364.945 143.773C364.921 143.734 364.891 143.7 364.857 143.674C364.822 143.648 364.784 143.63 364.745 143.621C364.665 143.604 364.585 143.624 364.522 143.678C364.459 143.731 364.419 143.813 364.408 143.906L364.298 144.92C364.289 145.014 364.312 145.11 364.362 145.188C364.411 145.267 364.484 145.321 364.563 145.34C364.606 145.353 364.649 145.353 364.69 145.339V145.339Z" fill="#080C53"/>
<path d="M367.25 150.54C367.404 150.248 367.173 149.941 366.849 149.945L364.984 149.965C364.731 149.968 364.518 150.16 364.506 150.415C364.478 151.046 364.514 152.135 365.083 152.225C365.75 152.33 366.753 151.486 367.25 150.54Z" fill="white"/>
</g>
<defs>
<clipPath id="clip0_147_8394">
<rect width="436" height="284" fill="white" transform="translate(8 8)"/>
</clipPath>
</defs>
</svg>
