<svg width="441" height="268" viewBox="0 0 441 268" fill="none" xmlns="http://www.w3.org/2000/svg">
<path d="M23.8992 103.456C-25.9125 119.298 16.9957 187.77 44.6763 220.025C61.298 234.952 68.0727 257.94 69.3824 267.568H409.074C406.433 266.436 406.091 261.341 425.856 250.016C450.562 235.86 442.637 165.899 409.074 163.648C375.511 161.396 396.222 107.424 401.15 61.5976C406.078 15.7712 344.79 -8.57303 237.109 2.75955C129.428 14.0921 134.51 -6.32162 79.2382 2.75972C23.9658 11.841 86.1639 83.6523 23.8992 103.456Z" fill="#F5FAFF"/>
<rect x="165.623" y="25.6157" width="9.5579" height="240.872" fill="#FFDFBF" stroke="#F3A769"/>
<rect x="274.082" y="25.6157" width="9.5579" height="240.872" fill="#FFDFBF" stroke="#005BBA"/>
<rect x="165.623" y="35.1738" width="9.5579" height="118.016" transform="rotate(-90 165.623 35.1738)" fill="#FFDFBF" stroke="#F3A769"/>
<rect x="176.682" y="35.7141" width="96.8604" height="231.234" fill="white" stroke="#F3A769" stroke-width="2"/>
<rect x="279.381" y="35.7141" width="96.8604" height="231.234" fill="#FFDFBF" stroke="#F3A769" stroke-width="2"/>
<rect x="355.666" y="119.677" width="12.4373" height="23.955" rx="6.21866" stroke="#005BBA"/>
<ellipse cx="361.884" cy="131.175" rx="3.83924" ry="3.35933" fill="#005BBA"/>
<path d="M117.484 138.648H94.7073C94.5227 138.648 94.373 138.798 94.373 138.983V150.268C94.373 150.452 94.5227 150.602 94.7073 150.602H117.484C117.668 150.602 117.818 150.452 117.818 150.268V138.983C117.818 138.798 117.668 138.648 117.484 138.648Z" fill="#C9E4FF"/>
<path d="M117.357 150.876H94.8333C94.6383 150.876 94.4514 150.799 94.3135 150.661C94.1755 150.523 94.0979 150.337 94.0977 150.142V139.108C94.0979 138.913 94.1755 138.726 94.3135 138.588C94.4514 138.451 94.6383 138.373 94.8333 138.373H117.357C117.552 138.373 117.739 138.451 117.877 138.588C118.015 138.726 118.093 138.913 118.093 139.108V150.143C118.092 150.337 118.015 150.524 117.877 150.662C117.739 150.799 117.552 150.876 117.357 150.876ZM94.8333 138.924C94.809 138.924 94.785 138.928 94.7625 138.937C94.74 138.947 94.7196 138.96 94.7024 138.977C94.6852 138.994 94.6715 139.015 94.6622 139.037C94.6529 139.06 94.6481 139.084 94.6481 139.108V150.143C94.6481 150.167 94.6529 150.191 94.6622 150.213C94.6715 150.236 94.6852 150.256 94.7024 150.273C94.7196 150.29 94.74 150.304 94.7625 150.313C94.785 150.322 94.809 150.327 94.8333 150.327H117.357C117.382 150.327 117.406 150.322 117.428 150.313C117.451 150.304 117.471 150.29 117.488 150.273C117.505 150.256 117.519 150.236 117.528 150.213C117.538 150.191 117.542 150.167 117.542 150.143V139.108C117.542 139.084 117.538 139.06 117.528 139.037C117.519 139.015 117.505 138.994 117.488 138.977C117.471 138.96 117.451 138.947 117.428 138.937C117.406 138.928 117.382 138.924 117.357 138.924H94.8333Z" fill="#4FA5FF"/>
<path d="M101.357 142.832H99.6219C99.4931 142.832 99.3887 142.936 99.3887 143.065V145.994C99.3887 146.122 99.4931 146.227 99.6219 146.227H101.357C101.486 146.227 101.59 146.122 101.59 145.994V143.065C101.59 142.936 101.486 142.832 101.357 142.832Z" fill="#4FA5FF"/>
<path d="M100.668 147.282H100.315C100.239 147.282 100.167 147.253 100.113 147.2C100.058 147.148 100.026 147.077 100.023 147.001L99.9083 144.006C99.9071 143.967 99.9138 143.928 99.9279 143.892C99.942 143.855 99.9632 143.822 99.9904 143.794C100.018 143.766 100.05 143.744 100.086 143.729C100.122 143.714 100.161 143.706 100.2 143.706H100.786C100.825 143.706 100.864 143.714 100.9 143.729C100.936 143.744 100.968 143.766 100.995 143.794C101.022 143.822 101.044 143.855 101.058 143.892C101.072 143.928 101.079 143.967 101.077 144.006L100.962 147.001C100.959 147.077 100.927 147.149 100.872 147.201C100.817 147.254 100.744 147.283 100.668 147.282Z" fill="#C9E4FF"/>
<path d="M100.668 147.557H100.315C100.168 147.557 100.027 147.5 99.9212 147.398C99.8155 147.297 99.7535 147.158 99.7483 147.011L99.6332 144.017C99.6303 143.94 99.6428 143.864 99.6699 143.793C99.697 143.722 99.7383 143.657 99.7912 143.602C99.8441 143.547 99.9075 143.503 99.9777 143.473C100.048 143.444 100.123 143.428 100.2 143.428H100.786C100.862 143.428 100.938 143.444 101.008 143.473C101.078 143.503 101.142 143.547 101.195 143.602C101.248 143.657 101.289 143.722 101.316 143.793C101.343 143.864 101.356 143.94 101.353 144.017L101.238 147.011C101.232 147.158 101.17 147.298 101.064 147.399C100.957 147.501 100.815 147.558 100.668 147.557ZM100.18 143.995L100.296 146.99C100.296 146.994 100.297 146.998 100.3 147.001C100.303 147.004 100.308 147.006 100.312 147.006H100.668C100.672 147.006 100.676 147.004 100.679 147.001C100.682 146.998 100.684 146.994 100.684 146.99L100.8 143.995L100.783 143.979H100.197L99.9055 144.006L100.18 143.995Z" fill="#4FA5FF"/>
<path d="M106.861 142.832H105.126C104.997 142.832 104.893 142.936 104.893 143.065V145.994C104.893 146.122 104.997 146.227 105.126 146.227H106.861C106.99 146.227 107.094 146.122 107.094 145.994V143.065C107.094 142.936 106.99 142.832 106.861 142.832Z" fill="#4FA5FF"/>
<path d="M106.172 147.282H105.819C105.743 147.282 105.671 147.253 105.616 147.2C105.562 147.148 105.53 147.077 105.527 147.001L105.412 144.006C105.411 143.967 105.418 143.928 105.432 143.892C105.446 143.855 105.467 143.822 105.494 143.794C105.521 143.766 105.554 143.744 105.59 143.729C105.626 143.714 105.664 143.706 105.703 143.706H106.29C106.329 143.706 106.368 143.714 106.404 143.729C106.439 143.744 106.472 143.766 106.499 143.794C106.526 143.822 106.548 143.855 106.562 143.892C106.576 143.928 106.582 143.967 106.581 144.006L106.466 147.001C106.463 147.077 106.431 147.149 106.376 147.201C106.321 147.254 106.248 147.283 106.172 147.282Z" fill="#C9E4FF"/>
<path d="M106.172 147.557H105.819C105.672 147.557 105.531 147.5 105.425 147.398C105.319 147.297 105.257 147.158 105.252 147.011L105.137 144.017C105.134 143.94 105.147 143.864 105.174 143.793C105.201 143.722 105.242 143.657 105.295 143.602C105.348 143.547 105.411 143.503 105.482 143.473C105.552 143.444 105.627 143.428 105.704 143.428H106.29C106.366 143.428 106.442 143.444 106.512 143.473C106.582 143.503 106.646 143.547 106.699 143.602C106.751 143.657 106.793 143.722 106.82 143.793C106.847 143.864 106.86 143.94 106.857 144.017L106.741 147.011C106.736 147.158 106.674 147.298 106.567 147.399C106.461 147.501 106.319 147.558 106.172 147.557ZM105.684 143.995L105.8 146.99C105.8 146.994 105.801 146.998 105.804 147.001C105.807 147.004 105.811 147.006 105.816 147.006H106.172C106.176 147.006 106.18 147.004 106.183 147.001C106.186 146.998 106.188 146.994 106.188 146.99L106.304 143.995L106.287 143.979H105.701L105.409 144.006L105.684 143.995Z" fill="#4FA5FF"/>
<path d="M112.367 142.832H110.632C110.503 142.832 110.398 142.936 110.398 143.065V145.994C110.398 146.122 110.503 146.227 110.632 146.227H112.367C112.496 146.227 112.6 146.122 112.6 145.994V143.065C112.6 142.936 112.496 142.832 112.367 142.832Z" fill="#4FA5FF"/>
<path d="M111.678 147.282H111.324C111.249 147.282 111.177 147.253 111.122 147.2C111.068 147.148 111.036 147.077 111.033 147.001L110.918 144.006C110.917 143.967 110.924 143.928 110.938 143.892C110.952 143.855 110.973 143.822 111 143.794C111.027 143.766 111.06 143.744 111.096 143.729C111.132 143.714 111.17 143.706 111.209 143.706H111.796C111.835 143.706 111.873 143.714 111.909 143.729C111.945 143.744 111.978 143.766 112.005 143.794C112.032 143.822 112.053 143.855 112.068 143.892C112.082 143.928 112.088 143.967 112.087 144.006L111.972 147.001C111.969 147.077 111.937 147.149 111.882 147.201C111.827 147.254 111.754 147.283 111.678 147.282Z" fill="#C9E4FF"/>
<path d="M111.676 147.557H111.323C111.176 147.557 111.035 147.5 110.929 147.398C110.823 147.297 110.761 147.158 110.756 147.011L110.641 144.017C110.638 143.94 110.651 143.864 110.678 143.793C110.705 143.722 110.746 143.657 110.799 143.602C110.852 143.547 110.915 143.503 110.986 143.473C111.056 143.444 111.131 143.428 111.208 143.428H111.794C111.87 143.428 111.946 143.444 112.016 143.473C112.086 143.503 112.15 143.547 112.203 143.602C112.255 143.657 112.297 143.722 112.324 143.793C112.351 143.864 112.363 143.94 112.36 144.017L112.245 147.011C112.24 147.158 112.178 147.298 112.071 147.399C111.965 147.501 111.823 147.558 111.676 147.557ZM111.187 143.995L111.304 146.99C111.304 146.994 111.305 146.998 111.308 147.001C111.311 147.004 111.315 147.006 111.32 147.006H111.676C111.68 147.006 111.684 147.004 111.687 147.001C111.69 146.998 111.692 146.994 111.692 146.99L111.808 143.995L111.791 143.979H111.204L110.913 144.006L111.187 143.995Z" fill="#4FA5FF"/>
<path d="M176.845 266.988C176.645 266.988 176.448 266.945 176.264 266.863C176.081 266.78 175.917 266.66 175.781 266.509C175.645 266.359 175.542 266.181 175.476 265.987C175.411 265.793 175.386 265.587 175.402 265.383C175.713 261.456 176.326 253.444 176.907 251.823C178.09 248.512 183.251 249.549 184.441 251.823C186.119 255.024 191.168 261.116 194.085 264.523C194.269 264.738 194.389 265.002 194.43 265.285C194.471 265.567 194.431 265.856 194.316 266.116C194.201 266.377 194.015 266.597 193.781 266.752C193.547 266.906 193.274 266.988 192.995 266.988H176.845Z" fill="#005BBA"/>
<path d="M176.052 267.948H194.702C194.874 267.948 195.04 267.897 195.161 267.807C195.283 267.717 195.352 267.595 195.352 267.468C195.352 267.34 195.283 267.218 195.161 267.128C195.04 267.038 194.874 266.988 194.702 266.988H176.046C175.961 266.988 175.876 267 175.797 267.024C175.719 267.048 175.647 267.084 175.587 267.128C175.526 267.173 175.478 267.226 175.446 267.284C175.413 267.342 175.396 267.405 175.396 267.468C175.396 267.531 175.413 267.593 175.446 267.651C175.478 267.71 175.526 267.762 175.587 267.807C175.647 267.852 175.719 267.887 175.797 267.911C175.876 267.935 175.961 267.948 176.046 267.948H176.052Z" fill="#003960"/>
<path d="M178.788 261.229C178.96 261.23 179.125 261.16 179.248 261.035C180.474 259.809 184.448 259.252 187.167 260.372C187.25 260.409 187.338 260.427 187.427 260.427C187.516 260.427 187.605 260.408 187.687 260.372C187.769 260.335 187.844 260.281 187.906 260.214C187.968 260.147 188.017 260.067 188.05 259.979C188.082 259.892 188.098 259.798 188.095 259.704C188.093 259.61 188.073 259.518 188.036 259.432C188 259.346 187.947 259.269 187.881 259.205C187.816 259.141 187.739 259.092 187.655 259.06C184.607 257.806 180.074 258.266 178.327 260.013C178.229 260.11 178.162 260.235 178.134 260.373C178.105 260.511 178.116 260.655 178.166 260.786C178.216 260.917 178.301 261.029 178.412 261.108C178.523 261.187 178.654 261.229 178.788 261.229Z" fill="#003960"/>
<path d="M178.77 258.349C178.919 258.35 179.063 258.28 179.178 258.152C180.188 257.025 183.661 257.04 185.419 257.87C185.5 257.908 185.585 257.924 185.671 257.917C185.756 257.909 185.84 257.878 185.917 257.826C185.994 257.774 186.062 257.701 186.119 257.612C186.175 257.523 186.219 257.42 186.246 257.308C186.274 257.196 186.285 257.077 186.28 256.959C186.274 256.841 186.252 256.725 186.214 256.619C186.177 256.512 186.124 256.417 186.06 256.339C185.996 256.261 185.921 256.201 185.84 256.163C183.873 255.232 179.866 255.068 178.361 256.745C178.256 256.863 178.179 257.022 178.143 257.201C178.106 257.381 178.11 257.572 178.155 257.748C178.2 257.924 178.283 258.076 178.393 258.184C178.504 258.292 178.635 258.35 178.77 258.349Z" fill="#003960"/>
<path d="M150.738 266.988C150.938 266.988 151.135 266.945 151.317 266.862C151.5 266.78 151.664 266.659 151.799 266.507C151.934 266.356 152.038 266.177 152.103 265.982C152.168 265.788 152.193 265.581 152.177 265.376C151.867 261.432 148.156 255.56 146.89 251.717C145.787 248.369 143.169 249.735 141.985 252.019C140.312 255.235 130.958 261.049 128.05 264.471C127.867 264.687 127.748 264.953 127.707 265.236C127.666 265.52 127.705 265.81 127.82 266.071C127.935 266.333 128.12 266.554 128.353 266.709C128.587 266.865 128.859 266.947 129.136 266.947L150.738 266.988Z" fill="#005BBA"/>
<path d="M128.311 267.948H151.561C151.642 267.948 151.723 267.935 151.798 267.911C151.874 267.887 151.942 267.852 152 267.807C152.057 267.762 152.103 267.71 152.134 267.651C152.166 267.593 152.182 267.531 152.182 267.468C152.182 267.405 152.166 267.342 152.134 267.284C152.103 267.226 152.057 267.173 152 267.128C151.942 267.084 151.874 267.048 151.798 267.024C151.723 267 151.642 266.988 151.561 266.988H128.312C128.23 266.988 128.15 267 128.074 267.024C127.999 267.048 127.931 267.084 127.873 267.128C127.815 267.173 127.77 267.226 127.738 267.284C127.707 267.342 127.691 267.405 127.691 267.468C127.691 267.531 127.707 267.593 127.738 267.651C127.77 267.71 127.815 267.762 127.873 267.807C127.931 267.852 127.999 267.887 128.074 267.911C128.15 267.935 128.23 267.948 128.312 267.948H128.311Z" fill="#003960"/>
<path d="M140.68 262.189C140.803 262.189 140.924 262.146 141.026 262.065C141.128 261.984 141.208 261.87 141.253 261.736C141.299 261.602 141.309 261.456 141.282 261.315C141.256 261.175 141.193 261.047 141.104 260.948C139.664 259.354 136.456 257.466 133.525 258.803C133.45 258.838 133.381 258.889 133.323 258.955C133.264 259.02 133.218 259.098 133.185 259.185C133.153 259.271 133.135 259.364 133.134 259.459C133.132 259.553 133.146 259.647 133.176 259.735C133.205 259.822 133.249 259.903 133.305 259.971C133.361 260.039 133.429 260.093 133.503 260.131C133.577 260.169 133.657 260.189 133.738 260.191C133.818 260.193 133.899 260.176 133.974 260.142C136.37 259.049 139.043 260.649 140.255 261.987C140.369 262.116 140.521 262.189 140.68 262.189Z" fill="#003960"/>
<path d="M143.365 259.309C143.501 259.309 143.633 259.268 143.743 259.192C143.854 259.115 143.937 259.007 143.982 258.882C144.027 258.756 144.032 258.621 143.995 258.493C143.958 258.365 143.881 258.252 143.776 258.169C142.261 256.972 138.997 255.667 136.204 256.975C136.055 257.053 135.942 257.184 135.889 257.341C135.836 257.499 135.847 257.67 135.92 257.819C135.993 257.969 136.122 258.085 136.28 258.143C136.438 258.202 136.613 258.198 136.768 258.133C138.998 257.088 141.747 258.213 142.956 259.168C143.072 259.26 143.216 259.309 143.365 259.309Z" fill="#003960"/>
<path d="M170.881 200.245C173.189 207.444 189.117 244.397 189.117 255.434C183.838 258.313 178.079 257.833 174.72 257.833C172.489 248.623 155.044 204.564 155.044 204.564L146.885 162.812L144.775 150.925L165.602 149.854C165.602 149.854 170.881 196.406 170.881 200.245Z" fill="#F3A769"/>
<path d="M149.766 203.604C151.686 212.242 151.206 247.275 150.726 258.313C147.367 258.313 137.318 258.495 136.809 256.394C134.578 247.183 133.069 200.586 133.069 200.586C133.069 200.586 129.436 161.584 131.05 150.335C131.525 147.032 134.889 138.817 134.889 138.817L151.206 153.694C151.206 153.694 149.9 199.872 149.766 203.604Z" fill="#F3A769"/>
<path d="M148.172 56.0047C148.172 56.0047 146.183 58.5188 144.828 58.4938C143.514 58.4688 141.738 56.0047 141.738 56.0047L141.763 51.1558H148.147L148.172 56.0047Z" fill="#FD9783"/>
<path d="M134.365 65.4819L133.127 56.2927C133.127 56.2927 137.171 52.9239 144.797 56.7013C146.027 57.31 149.287 54.1496 150.659 54.1538C152.281 54.1622 156.038 55.2253 156.963 56.8889C156.959 58.1272 155.992 69.5054 155.992 69.5054C155.992 69.5054 161.962 78.4486 159.419 83.0224C157.93 83.9021 149.675 88.7636 145.977 88.7802C142.283 88.7636 135.328 85.2029 133.836 84.3232C134.028 82.4845 134.365 65.4819 134.365 65.4819Z" fill="#FBC331"/>
<path d="M111.923 56.8593L111.014 60.0488C111.014 60.0488 123.472 68.375 134.366 65.4815C135.146 62.2085 136.18 56.8384 133.128 56.2922C125.335 57.6598 111.923 56.8593 111.923 56.8593Z" fill="#FBC331"/>
<path d="M101.678 56.7427C102.012 56.5592 102.687 56.7844 102.95 56.7844C103.842 56.7844 105.698 57.0262 105.864 57.0179C105.873 57.0095 105.956 56.9553 105.956 56.9428C105.364 56.6051 101.583 55.8171 101.337 55.4377C101.041 54.9832 101.457 54.4454 101.999 54.5871C103.384 54.9457 106.256 55.6545 106.477 55.642C106.594 55.0916 104.947 54.4954 104.426 54.0034C104.001 53.6073 103.188 53.2446 103.842 52.5984C104.059 52.3816 109.221 55.4877 109.738 55.3501C109.788 54.6997 109.604 54.6497 109.171 54.0993C108.937 53.8075 108.216 52.7401 109.021 52.5316C109.4 52.4316 111.706 55.9255 112.41 56.5134C113.457 59.7655 110.484 60.5827 110.271 60.5118C109.192 61.0663 108.466 60.8412 106.923 60.1157C106.115 59.7363 102.721 59.9698 102.592 59.6904C102.412 59.311 102.592 59.0275 103.029 59.0358C104.055 58.7898 105.414 58.9191 105.789 58.4605C105.231 57.9184 101.737 57.7975 101.52 57.5224C101.337 57.2889 101.503 56.8386 101.678 56.7427Z" fill="#FD9783"/>
<path d="M178.136 58.1647L178.941 61.3835C178.941 61.3835 166.337 69.8264 154.233 65.9823C153.566 62.6843 153.896 57.3309 156.964 56.8889C163.243 59.8825 178.136 58.1647 178.136 58.1647Z" fill="#FBC331"/>
<path d="M188.381 58.3899C188.056 58.1981 187.372 58.3982 187.109 58.3899C186.217 58.3607 184.353 58.54 184.186 58.5275C184.182 58.515 184.099 58.4566 184.099 58.4483C184.699 58.1314 188.51 57.4685 188.769 57.0974C189.077 56.6555 188.681 56.1051 188.131 56.226C186.734 56.5387 183.845 57.1516 183.624 57.1308C183.523 56.5762 185.187 56.0342 185.725 55.5631C186.163 55.1837 186.988 54.846 186.359 54.1747C186.146 53.9537 180.884 56.8848 180.371 56.7305C180.342 56.0801 180.53 56.0301 180.984 55.4964C181.222 55.2129 181.977 54.1747 181.184 53.937C180.809 53.8245 178.387 57.2392 177.666 57.802C176.506 61.0166 179.454 61.9339 179.671 61.8671C180.73 62.4592 181.46 62.2591 183.027 61.5836C183.845 61.2334 187.23 61.5795 187.372 61.3085C187.564 60.9332 187.388 60.6455 186.955 60.6372C185.938 60.3537 184.574 60.4412 184.216 59.9701C184.795 59.4448 188.285 59.4448 188.514 59.1779C188.702 58.9528 188.552 58.49 188.381 58.3899Z" fill="#FD9783"/>
<path d="M141.443 43.9252C140.034 41.6445 139.63 45.3552 139.813 46.4059C139.88 46.7853 140.234 47.6067 140.63 47.8026L141.443 43.9252Z" fill="#FD9783"/>
<path d="M150.664 46.1298C153.062 44.929 151.461 48.302 150.756 49.0942C150.493 49.3902 149.768 49.8989 149.33 49.8614L150.664 46.1298Z" fill="#FD9783"/>
<path d="M140.652 45.3924C141.341 43.2619 140.796 42.5286 141.976 41.356C143.343 39.9852 145.194 40.4187 146.753 40.9266C148.315 41.4344 150.09 42.1776 150.628 44.1677C151.09 45.8729 150.751 46.3214 150.361 48.5469C149.867 51.3875 148.853 52.5436 146.58 53.6625C145.909 53.9928 144.566 53.8896 143.848 53.6708C143.138 53.4231 141.951 52.7046 141.528 52.0234C140.103 49.6988 139.775 48.1092 140.652 45.3924Z" fill="#FD9783"/>
<path d="M139.32 38.5605C139.5 38.2737 140.438 37.768 140.99 37.5206C141.513 37.2875 141.47 35.9642 142.732 35.6989C144.298 35.369 144.821 38.411 147.798 38.1492C149.508 37.9986 150.244 39.8311 150.244 39.8311C150.244 39.8311 151.845 40.7921 152.026 41.0324C152.607 41.8285 152.718 42.7752 152.607 44.6758C152.534 45.8234 152.087 46.2598 151.539 46.9555C151.539 46.9555 150.846 47.2244 150.648 47.1383C150.922 46.3243 150.879 46.996 151.048 46.3971C151.034 45.8377 150.367 45.1256 149.847 44.7634C149.407 43.978 148.054 44.3904 147.462 44.2398C147.138 44.1573 145.33 43.4401 144.584 43.4222C142.964 43.3792 142.004 43.2032 142.004 43.2032C142.004 43.2032 141.207 43.581 141.008 44.4165C140.532 43.6527 139.208 41.9016 139.208 41.9016C139.396 40.937 138.436 40.0093 139.32 38.5605Z" fill="#172755"/>
<path d="M142.568 50.035C142.856 51.2183 143.802 52.0483 144.716 52.214C145.632 52.3792 146.095 51.4868 146.407 50.5747C146.344 49.5661 145.499 50.7399 144.583 50.5747C143.67 50.409 142.507 49.0258 142.568 50.035Z" fill="white"/>
<path d="M193.503 97.5782C193.503 92.0413 184.798 90.8266 184.798 90.8266L166.082 94.1859L148.805 88.218L134.408 93.2261L113.292 92.2662C113.292 92.2662 103.975 92.0413 103.975 97.5782C103.975 103.986 134.408 108.103 134.408 108.103C134.408 108.103 131.466 145.094 131.049 149.13C134.326 151.065 140.627 153.3 148.737 153.333C156.846 153.3 162.809 151.065 166.082 149.13C165.665 145.094 164.162 108.103 164.162 108.103C164.162 108.103 193.503 103.986 193.503 97.5782Z" fill="#4FA5FF"/>
<path d="M172.17 91.8279C169.535 88.5008 163.439 83.8603 158.602 80.8542C155.576 78.9697 146.424 82.9431 143.793 86.3869C145.327 87.5544 148.895 87.3811 151.205 88.9071C154.47 91.0668 162.284 97.615 167.133 100.509C167.133 100.509 172.328 110.373 178.599 115.306C178.882 115.527 183.435 109.385 183.435 109.385C181.246 107.309 173.908 94.0168 172.17 91.8279Z" fill="#005BBA"/>
<path d="M193.408 117.006C194.713 117.227 195.367 116.535 195.872 117.098C196.647 117.974 195.497 119.696 187.079 121.009C186.507 120.521 186.841 118.257 186.841 118.257L189.13 118.503L189.493 116.769C189.493 116.769 191.898 116.756 193.408 117.006Z" fill="#005BBA"/>
<path d="M189.493 116.769L189.13 118.503L186.841 118.257L180.316 113.454L183.435 109.385L189.493 116.769Z" fill="#FD9783"/>
<path d="M125.764 96.6606C127.036 92.7206 130.951 86.4624 134.366 81.9679C136.655 78.9659 144.268 83.8065 147.241 86.3248C146.995 86.6709 146.736 87.0253 146.474 87.3922C144.172 90.5567 137.051 98.6077 133.524 103.023C133.524 103.023 132.106 114.084 127.953 120.901C127.766 121.21 121.357 117.057 121.357 117.057C122.679 114.343 124.906 99.3207 125.764 96.6606Z" fill="#005BBA"/>
<path d="M114.677 127.693C113.535 128.356 112.68 127.939 112.405 128.643C111.984 129.732 113.66 130.945 122.007 129.219C122.37 128.564 121.265 126.563 121.265 126.563L119.209 127.593L118.263 126.096C118.263 126.096 116.003 126.93 114.677 127.693Z" fill="#005BBA"/>
<path d="M118.264 126.096L119.21 127.592L121.266 126.563L125.698 119.771L121.357 117.056L118.264 126.096Z" fill="#FD9783"/>
<path d="M144.006 90.2293C144.006 90.2293 146.68 92.3147 148.498 92.2651C150.265 92.2156 152.644 90.2293 152.644 90.2293L152.61 80.7483H144.04L144.006 90.2293Z" fill="#FD9783"/>
<path d="M139.207 72.11C139.207 77.9138 143.575 83.5335 148.207 83.5335C152.839 83.5335 156.591 78.8305 156.591 73.0268C156.591 67.223 157.756 63.9517 153.124 63.9517C148.492 63.9517 139.207 66.3063 139.207 72.11Z" fill="#172755"/>
<path d="M142.378 75.6584C140.056 73.5362 140.786 77.8598 141.328 78.9855C141.528 79.3983 141.97 80.2113 142.478 80.3072L142.378 75.6584Z" fill="#FD9783"/>
<path d="M154.065 75.6584C156.387 73.5362 155.662 77.8598 155.116 78.9855C154.915 79.3983 154.478 80.2113 153.965 80.3072L154.065 75.6584Z" fill="#FD9783"/>
<path d="M142.356 79.0976C142.356 77.0786 141.584 74.0666 142.661 72.7832C143.916 71.289 146.303 71.1504 148.351 71.1504C150.403 71.1504 152.79 71.289 154.045 72.7832C155.126 74.0666 154.155 77.1605 154.353 79.0976C154.602 81.5739 154.108 83.276 151.674 84.8094C150.955 85.2613 149.292 85.5355 148.351 85.5475C147.414 85.5355 145.751 85.2613 145.032 84.8094C142.598 83.276 142.103 81.5739 142.356 79.0976Z" fill="#FD9783"/>
<path d="M183.493 67.0958L189.697 66.0034C189.697 66.0034 196.556 88.4012 193.504 97.5779C188.38 102.11 182.734 95.1305 182.734 95.1305L183.493 67.0958Z" fill="#FD9783"/>
<path d="M178.13 62.3511L176.629 61.8216C176.629 61.8216 177.263 60.1538 179.377 61.0294C179.714 61.1753 180.748 62.0967 180.748 62.0967C180.748 62.0967 179.827 56.8267 179.693 55.2132C179.477 52.5906 180.877 53.2202 180.877 53.2202L181.511 55.1298L181.119 52.7783C180.986 51.9694 181.378 51.3065 181.999 51.2981C182.466 51.2898 183.258 52.5865 183.517 53.116C183.425 52.3488 183.746 51.4107 184.396 51.4024C185.08 51.3857 186.214 55.1923 186.214 55.1923C186.135 54.642 186.489 54.1708 187.002 54.1333C187.511 54.0999 188.716 59.6285 188.716 59.6285C188.728 59.7286 188.728 59.8286 188.716 59.9203L189.671 62.3386L189.696 66.0034L183.492 67.0958L181.24 66.8123L178.13 62.3511Z" fill="#FD9783"/>
<path d="M106.934 66.4663L100.647 66.7873C100.647 66.7873 98.95 90.1524 103.974 98.4202C109.974 101.689 113.922 93.6254 113.922 93.6254L106.934 66.4663Z" fill="#FD9783"/>
<path d="M111.109 60.6419L112.451 59.7913C112.451 59.7913 111.467 58.307 109.599 59.637C109.303 59.8497 108.499 60.9796 108.499 60.9796C108.499 60.9796 108.223 55.6386 107.994 54.0334C107.619 51.4318 106.397 52.3574 106.397 52.3574L106.205 54.3587L106.059 51.9821C106.009 51.1608 105.48 50.6062 104.875 50.7355C104.413 50.8314 103.933 52.2698 103.804 52.8452C103.716 52.078 103.195 51.2358 102.557 51.3692C101.89 51.511 101.632 55.4719 101.632 55.4719C101.586 54.9173 101.14 54.5379 100.631 54.6172C100.122 54.6964 100.185 60.3542 100.185 60.3542C100.189 60.4584 100.214 60.5543 100.247 60.6377L99.8555 63.2102L100.648 66.7875L106.935 66.4664L109.07 65.6868L111.109 60.6419Z" fill="#FD9783"/>
<path d="M302.378 71.6663C296.773 64.0031 283.059 71.8625 278.862 81.7449C274.665 91.6273 281.849 90.4853 281.742 92.7961C281.531 97.3229 271.176 97.9463 271.184 107.66C271.19 113.299 277.684 117.568 283.814 117.604C288.479 117.632 296.015 111.553 296.855 102.885C297.643 94.7663 291.232 112.048 291.82 107.66C292.819 100.206 302.378 109.113 300.458 92.7961C303.337 81.2787 302.378 71.6663 302.378 71.6663Z" fill="#172755"/>
<path d="M297.098 231.475L309.867 229.898C311.005 243.952 311.317 252.714 312.455 258.35C315.771 261.858 331.104 266.947 325.523 266.947H305.22C303.449 266.947 305.701 261.697 305.701 259.041C305.705 258.35 299.978 241.073 297.098 231.475Z" fill="#FD9783"/>
<path d="M308.192 212.23C307.869 214.107 309.095 222.357 310.055 230.995L297.577 233.875C296.392 231.522 295.992 226.985 295.658 225.716C294.698 217.558 294.886 212.474 295.193 208.718C295.5 204.961 287.444 161.45 290.859 153.251C297.775 136.607 302.321 138.459 302.321 138.459C302.447 141.242 306.065 149.63 306.779 157.968C307.969 171.842 309.46 204.948 308.192 212.23Z" fill="#005BBA"/>
<path d="M259.665 224.756L273.583 229.555C267.515 241.824 263.985 256.083 263.985 258.349C263.985 261.906 279.506 266.946 274.506 266.946H256.587C254.425 266.946 256.649 260.944 257.541 259.313C257.892 258.672 257.626 237.562 259.665 224.756Z" fill="#FD9783"/>
<path d="M261.585 217.078C264.451 210.212 264.892 207.42 267.344 203.64C268.784 199.801 274.239 168.655 276.942 158.049C279.008 149.943 281.427 141.74 286.54 138.373C290.026 136.077 300.938 140.773 300.938 140.773C300.938 140.773 286.883 202.675 278.862 212.758C277.424 213.981 274.543 224.756 272.817 232.914L258.706 228.595C259.256 225.422 261.042 218.376 261.585 217.078Z" fill="#005BBA"/>
<path d="M254.974 267.948H276.396C276.485 267.948 276.57 267.913 276.633 267.85C276.695 267.788 276.73 267.703 276.73 267.614V267.115C276.73 267.03 276.698 266.949 276.64 266.887C276.583 266.825 276.503 266.788 276.419 266.782L255.013 265.358C254.932 265.353 254.852 265.364 254.776 265.391C254.7 265.418 254.631 265.461 254.572 265.516C254.514 265.571 254.467 265.637 254.435 265.711C254.403 265.785 254.386 265.864 254.386 265.945V267.36C254.386 267.437 254.401 267.513 254.431 267.585C254.46 267.656 254.503 267.721 254.558 267.776C254.613 267.83 254.677 267.874 254.749 267.903C254.82 267.933 254.897 267.948 254.974 267.948Z" fill="#005BBA"/>
<path d="M273.75 265.357C274.125 264.305 269.031 261.922 268.447 261.848C265.452 261.471 259.446 266.806 262.28 266.806H270.173C271.128 264.467 273.154 265.175 273.75 265.357Z" fill="#005BBA"/>
<path d="M324.168 264.914C324.544 263.862 319.309 261.544 318.725 261.465C315.73 261.087 309.82 266.863 312.654 266.863H320.547C321.498 264.533 323.572 264.732 324.168 264.914Z" fill="#005BBA"/>
<path d="M304.238 267.675H326.995C327.086 267.677 327.175 267.644 327.241 267.581C327.308 267.518 327.347 267.432 327.35 267.341V266.842C327.347 266.755 327.311 266.672 327.25 266.61C327.188 266.548 327.106 266.512 327.019 266.509L304.277 265.086C304.194 265.078 304.111 265.087 304.032 265.113C303.953 265.139 303.88 265.18 303.817 265.235C303.755 265.29 303.705 265.357 303.669 265.432C303.634 265.508 303.614 265.589 303.611 265.672V267.087C303.613 267.167 303.632 267.246 303.664 267.318C303.697 267.391 303.744 267.457 303.803 267.511C303.861 267.566 303.929 267.608 304.004 267.636C304.079 267.664 304.158 267.678 304.238 267.675Z" fill="#005BBA"/>
<path d="M305.202 97.4712C305.633 97.3957 319.615 114.893 325.147 118.531C328.057 120.445 342.756 128.494 352.918 129.524C352.971 129.53 353.023 129.544 353.072 129.565C354.103 129.232 354.53 128.5 355.918 128.065C357.387 127.604 359.491 128.136 360.829 128.065C362.166 127.994 362.582 128.388 361.222 129.151C359.862 129.914 358.622 129.409 357.679 130.433C356.736 131.457 364.051 135.086 365.607 135.615C367.162 136.144 365.822 136.217 363.676 136.313C361.53 136.409 359.118 137.471 357.201 137.068C355.978 136.813 354.089 134.893 352.88 133.534C347.672 133.243 332.617 130.603 319.69 124.934C314.89 122.828 304.632 112.289 302.381 108.982C301.547 107.746 302.271 97.9896 305.202 97.4712Z" fill="#FD9783"/>
<path d="M276.941 102.86C280.3 97.1012 283.484 96.9262 285.579 95.593C292.15 93.6731 292.326 92.5502 297.865 93.6183C299.513 93.9417 302.942 94.8708 303.801 95.5929C308.227 97.6968 312.933 105.97 312.934 106.699C312.934 107.249 311.405 109.747 308.91 111.508C309.794 114.844 307.968 118.082 305.444 119.097C305.102 120.713 304.4 137.432 303.316 139.797C301.858 142.98 285.808 140.915 284.767 138.687C284.209 137.49 286.207 114.858 275.021 110.059C274.677 107.588 275.021 109.099 276.941 102.86Z" fill="#C9E4FF"/>
<path d="M298.997 94.3562C295.548 94.0673 294.95 91.0096 294.775 83.4466C294.775 83.4466 287.63 80.0396 288.79 81.5755C289.95 83.1114 288.117 92.3892 287.916 93.827C287.823 94.4877 286.532 95.6819 285.114 97.0992C287.627 99.4887 294.849 109.353 301.548 106.415C305.906 104.497 300.654 95.725 298.997 94.3562Z" fill="#FD9783"/>
<path d="M297.097 77.9054C294.218 75.9857 288.939 76.4657 287.5 78.3855C286.978 79.0814 286.54 81.2649 286.54 81.2649C286.54 81.2649 286.54 80.7853 286.54 82.2247C286.54 83.1848 287.98 89.9032 291.339 89.4233C295.719 88.7976 291.946 89.7291 294.698 88.9434C297.578 86.5437 298.058 82.2247 297.097 77.9054Z" fill="#FD9783"/>
<path d="M282.455 111.796C282.721 112.144 275.34 129.781 275.252 131.471C275.096 134.474 274.128 150.67 272.679 159.392C273.431 160.094 274.257 160.161 275.252 161.163C276.338 162.255 276.833 164.368 277.511 165.523C278.19 166.678 278.031 167.229 276.728 166.372C275.424 165.516 275.303 164.183 273.959 163.815C272.616 163.448 272.76 171.615 273.006 173.239C273.251 174.863 272.57 173.707 271.497 171.846C270.425 169.985 268.91 168.408 268.376 166.525C268.004 165.197 268.796 162.18 269.298 160.505C268.248 152.455 268.784 140.773 268.304 132.614C268.784 125.416 273.354 111.473 275.256 107.956C275.972 106.642 280.647 109.432 282.455 111.796Z" fill="#FD9783"/>
<path d="M143.552 46.5614C143.508 46.539 143.474 46.5049 143.454 46.4632C143.434 46.4214 143.428 46.3736 143.437 46.3254L143.574 45.6001C143.587 45.5332 143.629 45.4703 143.69 45.4251C143.751 45.3799 143.826 45.3562 143.899 45.3592C143.972 45.3622 144.037 45.3916 144.079 45.441C144.121 45.4904 144.138 45.5557 144.125 45.6226L143.987 46.3479C143.981 46.3811 143.968 46.4138 143.948 46.444C143.928 46.4741 143.903 46.5012 143.872 46.5237C143.842 46.5461 143.808 46.5634 143.772 46.5746C143.736 46.5858 143.699 46.5906 143.663 46.5888C143.623 46.5882 143.585 46.5788 143.552 46.5614Z" fill="#080C53"/>
<path d="M145.928 82.3522C146.956 83.3719 146.858 83.6289 148.228 83.6289C149.598 83.6289 149.698 83.3719 150.727 82.3522C150.727 81.3334 149.648 81.8305 148.281 81.8305C146.911 81.8305 145.928 81.3364 145.928 82.3522Z" fill="white"/>
<path d="M145.689 77.0888C145.626 77.0658 145.57 77.0218 145.53 76.9619C145.489 76.9021 145.466 76.8289 145.461 76.7507L145.394 75.575C145.388 75.4665 145.42 75.3562 145.484 75.2684C145.547 75.1807 145.636 75.1226 145.732 75.107C145.827 75.0914 145.92 75.1195 145.992 75.1852C146.063 75.2509 146.106 75.3488 146.112 75.4574L146.179 76.633C146.183 76.6868 146.176 76.7417 146.161 76.7946C146.146 76.8474 146.122 76.897 146.09 76.9406C146.059 76.9842 146.021 77.0208 145.978 77.0484C145.935 77.0759 145.889 77.0938 145.841 77.101C145.79 77.1111 145.738 77.107 145.689 77.0888Z" fill="#080C53"/>
<path d="M150.281 76.9662C150.222 76.9466 150.171 76.9075 150.133 76.8536C150.095 76.7997 150.072 76.7332 150.067 76.6618L150.011 75.5773C150.007 75.5284 150.012 75.4784 150.025 75.4301C150.039 75.3818 150.06 75.3362 150.088 75.296C150.116 75.2558 150.15 75.2218 150.189 75.196C150.228 75.1701 150.27 75.153 150.313 75.1456C150.4 75.1321 150.485 75.1581 150.55 75.218C150.616 75.2779 150.655 75.367 150.661 75.466L150.727 76.5442C150.732 76.6435 150.702 76.7441 150.644 76.8244C150.586 76.9047 150.505 76.9582 150.418 76.9735C150.372 76.9853 150.324 76.9829 150.281 76.9662Z" fill="#080C53"/>
<path d="M290.246 86.1913C291.274 87.211 291.176 87.468 292.546 87.468C293.916 87.468 294.017 87.211 295.045 86.1914C295.045 85.1726 293.967 85.6696 292.6 85.6696C291.23 85.6696 290.246 85.1755 290.246 86.1913Z" fill="white"/>
<path d="M290.008 80.9277C289.944 80.9047 289.889 80.8607 289.848 80.8008C289.808 80.741 289.784 80.6677 289.78 80.5896L289.712 79.4139C289.706 79.3053 289.739 79.1951 289.802 79.1073C289.866 79.0195 289.955 78.9615 290.05 78.9459C290.145 78.9303 290.239 78.9584 290.31 79.0241C290.381 79.0898 290.425 79.1877 290.43 79.2962L290.498 80.4719C290.501 80.5257 290.495 80.5806 290.48 80.6334C290.464 80.6863 290.44 80.7359 290.409 80.7795C290.377 80.8231 290.339 80.8597 290.296 80.8872C290.253 80.9148 290.207 80.9327 290.16 80.9399C290.108 80.95 290.056 80.9458 290.008 80.9277Z" fill="#080C53"/>
<path d="M294.599 80.8054C294.54 80.7857 294.489 80.7466 294.451 80.6927C294.413 80.6388 294.39 80.5723 294.385 80.5009L294.329 79.4164C294.326 79.3675 294.33 79.3175 294.344 79.2692C294.357 79.2209 294.378 79.1753 294.406 79.1351C294.434 79.0949 294.469 79.0609 294.507 79.0351C294.546 79.0093 294.588 78.9921 294.631 78.9847C294.718 78.9712 294.803 78.9972 294.869 79.0571C294.934 79.117 294.974 79.2061 294.98 79.3051L295.046 80.3834C295.05 80.4826 295.02 80.5832 294.962 80.6635C294.905 80.7438 294.823 80.7973 294.737 80.8126C294.69 80.8245 294.643 80.822 294.599 80.8054Z" fill="#080C53"/>
<path d="M146.968 47.0894C146.928 47.0697 146.896 47.0391 146.876 47.0013C146.857 46.9635 146.851 46.92 146.858 46.8758L146.99 46.2076C146.995 46.1773 147.006 46.1475 147.024 46.1198C147.041 46.0921 147.064 46.0671 147.092 46.0463C147.119 46.0255 147.15 46.0093 147.182 45.9986C147.215 45.9879 147.249 45.983 147.282 45.9841C147.349 45.9873 147.408 46.0143 147.446 46.0594C147.485 46.1045 147.5 46.164 147.489 46.2251L147.366 46.8908C147.354 46.9519 147.315 47.0093 147.26 47.0506C147.204 47.0919 147.136 47.1139 147.069 47.1118C147.032 47.113 146.998 47.1052 146.968 47.0894Z" fill="#080C53"/>
<path d="M65.0271 181.502C65.0497 181.457 64.9869 181.419 64.9592 181.462C64.233 182.54 63.6927 183.706 63.2353 184.92C63.0116 185.51 62.8081 186.106 62.6196 186.704C61.9888 185.631 61.1319 184.711 59.8854 184.362C58.7671 184.048 57.6362 184.208 56.5882 184.615C56.5908 184.568 56.5581 184.52 56.5003 184.543C55.8821 184.776 55.3041 185.171 54.7612 185.543C54.236 185.9 53.7284 186.284 53.2383 186.689C52.1527 187.593 51.2656 188.679 50.2227 189.627C49.6698 190.129 49.0641 190.576 48.5289 191.099C48.0262 191.587 47.5865 192.13 47.1567 192.677C46.2369 193.843 45.3473 195.035 44.4476 196.216C43.3796 197.616 42.3266 199.028 41.2912 200.45C41.2586 200.496 41.334 200.551 41.3666 200.508C43.2489 198.173 45.0659 195.786 46.8954 193.411C47.7825 192.258 48.7349 191.245 49.8558 190.315C50.9238 189.431 51.8009 188.36 52.8237 187.428C53.3916 186.91 53.9872 186.427 54.6105 185.978C55.0653 185.651 55.5529 185.367 56.0228 185.058C57.1411 184.59 58.3826 184.379 59.5687 184.706C60.9962 185.101 61.7878 186.216 62.3884 187.493C62.2753 187.9 62.1672 188.307 62.0743 188.722C61.4686 191.426 61.1218 194.205 60.9886 196.972C60.9157 198.493 60.9107 200.018 61.1746 201.521C61.0766 201.89 61.9235 202.079 61.7978 201.498C61.5013 200.139 61.456 198.749 61.4862 197.362C61.5138 195.995 61.6043 194.633 61.74 193.273C61.9159 191.514 62.21 189.755 62.6171 188.026C63.0895 189.245 63.2428 190.514 63.2479 191.833C63.2529 193.409 63.1875 194.987 63.1524 196.563C63.1323 197.452 63.1096 198.339 63.0895 199.229C63.0795 199.674 63.0669 200.119 63.0569 200.563C63.0468 201.006 62.9714 201.486 63.1197 201.913C63.2252 202.214 63.6072 202.197 63.7203 201.913C63.8761 201.511 63.8233 201.053 63.8309 200.629C63.8359 200.184 63.8435 199.739 63.8485 199.297C63.861 198.452 63.8736 197.605 63.8862 196.761C63.9138 195.057 63.9817 193.348 63.9515 191.642C63.9214 190.054 63.5871 188.538 62.8508 187.124C62.8483 187.118 62.8458 187.113 62.8433 187.106C62.979 186.586 63.1197 186.068 63.2805 185.553C63.7203 184.153 64.3536 182.806 65.0271 181.502Z" fill="#C9E4FF"/>
<path d="M55.1502 198.39C55.1502 198.39 62.0436 199.749 71.9324 198.933C71.9324 198.933 72.4753 210.694 69.5727 217.899H56.6028C56.6028 217.899 53.3358 210.897 55.1502 198.39Z" fill="#C9E4FF"/>
<path d="M63.348 188.888C61.6416 185.249 55.5122 185.42 55.5122 185.42C55.6806 183.444 53.8134 179.785 49.6945 178.725C47.4931 178.159 45.2841 179.763 43.6054 182.075C47.3021 181.972 51.4888 182.417 52.0693 184.236C52.6976 186.199 50.6696 184.419 47.9153 183.723C45.8219 183.198 44.0778 183.165 42.5624 183.718C42.3287 184.141 42.1151 184.57 41.9191 185.005C45.1609 185.462 48.3148 186.407 48.6189 188.043C48.9934 190.069 47.2066 188.048 44.5603 187.015C43.437 186.576 42.4041 186.304 41.4341 186.214C41.1224 187.091 40.8963 187.96 40.7857 188.767C40.7229 189.207 40.6701 189.692 40.6249 190.207C42.9494 190.391 44.8895 190.938 45.3017 192.119C45.9827 194.062 43.9069 192.338 41.135 191.717C40.9264 191.672 40.7229 191.632 40.5193 191.594C40.4565 192.62 40.4163 193.71 40.3886 194.791C41.2305 194.949 41.8713 195.263 42.1729 195.796C42.8841 197.048 41.9518 196.779 40.3585 196.462C40.3208 199.686 40.3937 202.426 40.3937 202.426C40.8309 202.126 42.3589 201.714 44.3769 201.247C44.5854 198.802 44.0527 196.842 45.4525 198.06C46.0631 198.591 46.1863 199.618 46.0129 200.878C47.091 200.641 48.247 200.395 49.4156 200.149C49.4156 199.694 49.3929 199.221 49.3427 198.724C49.0662 195.899 47.6061 193.63 49.4532 194.54C50.647 195.128 50.9209 197.344 50.7575 199.862C51.5366 199.696 52.3081 199.531 53.057 199.367C53.4792 198.075 53.5294 196.578 53.2605 194.803C52.8333 191.996 51.2576 189.807 53.15 190.619C54.8739 191.361 54.9443 195.424 54.5146 199.043C55.3916 198.844 56.2109 198.651 56.9346 198.467C57.387 198.352 57.8217 198.211 58.2389 198.048C58.5304 196.527 58.264 194.864 57.5026 192.939C56.4597 190.298 54.4316 188.516 56.4597 188.885C58.3972 189.237 59.3798 193.57 59.7317 197.329C63.1117 195.356 64.7201 191.808 63.348 188.888ZM62.2372 193.162C61.81 193.846 61.2822 190.928 62.2347 190.805C62.6971 190.747 62.6619 192.476 62.2372 193.162Z" fill="#C9E4FF"/>
<path d="M67.8511 199.735C68.6176 196.724 69.9721 193.329 71.5931 193.291C73.2869 193.251 71.4121 194.437 70.2234 196.45C69.359 197.918 68.9292 199.237 68.9719 200.511C69.2911 200.695 69.6253 200.866 69.9797 201.019C70.5426 201.26 71.1859 201.522 71.872 201.795C71.9876 198.8 72.5631 195.505 74.0584 195.123C75.7019 194.704 74.1388 196.282 73.4351 198.508C72.9878 199.918 72.837 201.142 73.0155 202.245C73.6035 202.474 74.2092 202.708 74.8223 202.941C75.0133 200.873 75.5185 199.106 76.5639 198.782C78.1823 198.277 76.7046 199.936 76.1166 202.198C76.0135 202.595 75.9331 202.977 75.8753 203.346C76.7951 203.695 77.7048 204.045 78.5492 204.374C78.5693 203.328 78.803 202.509 79.366 202.155C80.6577 201.346 79.9766 202.869 79.8334 204.884C81.4141 205.522 82.6003 206.053 82.9194 206.352C82.9194 206.352 83.3291 204.133 83.711 201.509C82.3766 201.562 81.5825 201.66 82.3188 200.735C82.6329 200.34 83.1934 200.167 83.8995 200.144C84.0151 199.262 84.1207 198.373 84.2011 197.531C84.0327 197.536 83.8618 197.541 83.6859 197.553C81.3538 197.702 79.4464 198.838 80.248 197.345C80.7331 196.438 82.3816 196.239 84.2941 196.39C84.3242 195.965 84.3418 195.566 84.3494 195.199C84.3594 194.528 84.289 193.794 84.1458 193.04C83.3467 192.99 82.4721 193.078 81.5021 193.291C79.2202 193.794 77.5088 195.206 78.0717 193.608C78.5291 192.316 81.2131 191.952 83.9071 191.997C83.804 191.618 83.6859 191.241 83.5502 190.869C82.3867 190.225 80.9668 190.027 79.1976 190.188C76.8705 190.399 74.9932 191.587 75.7547 190.072C76.4609 188.667 79.9188 188.843 82.9119 189.396C81.8438 187.305 80.2531 185.717 78.3909 185.898C74.9078 186.232 72.9225 188.969 72.8044 190.595C72.8044 190.595 67.8461 189.672 65.9915 192.412C64.5037 194.611 65.3556 197.699 67.8511 199.735ZM66.6524 194.113C67.4088 194.334 66.6072 196.639 66.3483 196.028C66.0895 195.417 66.283 194.005 66.6524 194.113Z" fill="#C9E4FF"/>
<path d="M74.7114 183.613C71.6429 184.116 67.9889 184.236 67.3054 182.769C66.5891 181.233 68.4287 182.475 70.7508 182.756C72.4421 182.96 73.8217 182.826 74.9727 182.279C75.0154 181.912 75.0381 181.537 75.0355 181.153C75.033 180.537 75.0154 179.846 74.9903 179.107C72.1983 180.203 68.9464 180.992 67.9965 179.776C66.9561 178.439 69.0268 179.238 71.3514 178.991C72.8215 178.836 74.0052 178.484 74.9451 177.878C74.9199 177.25 74.8898 176.602 74.8596 175.948C72.8869 176.602 71.0649 176.845 70.3487 176.018C69.2379 174.737 71.3489 175.425 73.6584 175.058C74.063 174.993 74.4475 174.915 74.8069 174.82C74.7616 173.837 74.7164 172.867 74.6812 171.96C73.7137 172.359 72.8693 172.475 72.3189 172.101C71.0574 171.241 72.7286 171.256 74.6335 170.58C74.5857 168.879 74.5958 167.577 74.744 167.167C74.744 167.167 72.5451 167.68 69.9868 168.381C70.5698 169.583 70.977 170.269 69.8335 169.965C69.346 169.836 68.9615 169.392 68.6599 168.753C67.8055 169 66.946 169.261 66.1418 169.525C66.2147 169.678 66.2876 169.831 66.368 169.987C67.4411 172.063 69.2455 173.355 67.5542 173.219C66.5288 173.136 65.687 171.709 65.0562 169.897C64.6566 170.04 64.2822 170.183 63.9454 170.324C63.3247 170.583 62.6788 170.942 62.0455 171.374C62.322 172.126 62.7517 172.89 63.3347 173.694C64.7094 175.581 66.6922 176.584 65.0009 176.707C63.6338 176.808 62.224 174.496 61.1861 172.01C60.8795 172.256 60.5804 172.518 60.2939 172.789C60.1708 174.111 60.5578 175.491 61.4122 177.046C62.5406 179.094 64.3802 180.338 62.6864 180.248C61.1157 180.163 59.8918 176.926 59.2007 173.963C57.7105 175.78 56.8912 177.871 57.801 179.504C59.5048 182.56 62.8095 183.284 64.3475 182.738C64.3475 182.738 65.4859 187.649 68.7403 188.25C71.3539 188.732 73.8444 186.714 74.7114 183.613ZM70.0371 186.965C69.9365 186.181 72.3717 185.993 71.9143 186.475C71.4569 186.958 70.0873 187.345 70.0371 186.965Z" fill="#C9E4FF"/>
<path d="M73.3089 168.489C72.5198 169.047 71.9996 169.839 71.497 170.648C70.8813 171.643 70.2681 172.641 69.675 173.651C69.0819 174.662 68.4989 175.677 67.9234 176.697C67.3479 177.72 66.8428 178.775 66.2849 179.806C66.2824 179.813 66.2849 179.821 66.2849 179.826C66.2723 179.831 66.2598 179.838 66.2547 179.851C65.6265 181.007 64.8751 182.065 64.1865 183.181C63.4652 184.352 62.945 185.621 62.3871 186.875C62.2916 187.091 62.6033 187.224 62.6912 187.001C63.2014 185.706 63.7618 184.412 64.488 183.221C65.1414 182.15 66.0034 181.138 66.3703 179.921C66.3904 179.919 66.408 179.909 66.4206 179.884C66.9559 178.894 67.5565 177.936 68.1069 176.953C68.6673 175.951 69.2377 174.953 69.8157 173.958C70.3837 172.985 70.9491 172.01 71.5271 171.04C72.0524 170.161 72.555 169.216 73.3742 168.57C73.4195 168.535 73.3592 168.454 73.3089 168.489Z" fill="#C9E4FF"/>
<path d="M82.1425 204.378C81.8058 203.924 81.7932 203.28 81.5997 202.76C81.4062 202.24 81.0845 201.787 80.8508 201.29C80.6422 200.85 80.6246 200.292 80.1924 199.998C79.6169 199.601 79.2626 199.091 78.8504 198.538C78.8077 198.48 78.7222 198.528 78.7524 198.596C78.9861 199.109 79.4133 199.553 79.8154 199.943C80.0441 200.164 80.2628 200.38 80.3532 200.692C80.4286 200.943 80.509 201.184 80.6246 201.421C80.8684 201.923 81.2026 202.373 81.4565 202.871C81.7153 203.373 81.6776 203.984 82.0269 204.446C82.0797 204.512 82.1953 204.446 82.1425 204.378Z" fill="#C9E4FF"/>
<path d="M78.4521 197.963C77.1453 196.827 76.1426 195.467 75.3585 193.929C74.974 193.175 74.587 192.439 74.0517 191.781C73.8055 191.474 73.529 191.195 73.2325 190.936C72.9736 190.707 72.7223 190.446 72.363 190.439C72.3906 190.366 72.3604 190.268 72.2549 190.263C72.1192 190.258 71.981 190.253 71.8428 190.245C71.7749 190.24 71.7096 190.235 71.6417 190.237C71.5688 190.24 71.4884 190.245 71.4356 190.293C71.3854 190.318 71.3125 190.318 71.3125 190.391C71.3125 190.464 71.3854 190.464 71.4356 190.486C71.4884 190.537 71.5688 190.542 71.6417 190.544C71.7096 190.547 71.7749 190.542 71.8428 190.537C71.981 190.529 72.1192 190.524 72.2549 190.519C72.2725 190.516 72.28 190.506 72.2951 190.501C72.2951 190.501 72.2926 190.501 72.2951 190.501C72.4233 190.846 72.7374 191.009 73.0013 191.245C73.3079 191.519 73.5944 191.816 73.8607 192.13C74.4312 192.801 74.8232 193.58 75.2555 194.344C76.0496 195.751 77.1252 197.015 78.3591 198.056C78.4245 198.108 78.5149 198.018 78.4521 197.963Z" fill="#C9E4FF"/>
<rect x="19.2324" y="218.037" width="58.5484" height="49.9101" fill="#FFDFBF"/>
<rect x="19.2324" y="218.037" width="1.91962" height="49.9101" fill="#F7CDA3"/>
<rect x="19.2324" y="266.028" width="58.5484" height="1.91962" fill="#F7CDA3"/>
</svg>
