<svg width="418" height="276" viewBox="0 0 418 276" fill="none" xmlns="http://www.w3.org/2000/svg">
<path d="M33.0429 212.639C5.37879 172.631 -8.69182 164.491 21.9502 113.702C56.4912 56.45 11.8218 26.1047 67.0612 14.8407C122.301 3.57657 199.352 -5.39029 307.493 3.80366C416.912 13.1062 373.24 63.3108 408.273 132.897C439.424 194.771 380.439 165.051 388.597 216.88C396.922 269.766 413.205 273.754 416.714 273.988H417.391C417.391 273.988 417.152 274.017 416.714 273.988H0.833822C-0.47506 262.045 49.6546 231.154 33.0429 212.639Z" fill="#F5FAFF"/>
<path d="M359.4 214.596C359.351 224.104 359.351 233.614 359.302 243.122C359.253 252.098 359.201 261.071 359.152 270.044C359.152 271.384 359.051 272.724 359.103 274.061C359.103 274.732 358.751 275.043 358.102 275.177C357.753 275.267 357.401 275.311 357.052 275.311C355.052 275.447 354.452 274.956 354.452 273.215C354.403 270.625 354.403 268.079 354.403 265.489C354.403 264.597 354.253 263.794 353.953 262.989C353.001 260.312 352.052 257.632 351.151 254.955C350.952 254.33 350.603 254.196 349.951 254.196C312.755 254.196 275.556 254.196 238.358 254.196C237.607 254.196 237.307 254.418 237.108 255.042C236.208 257.722 235.259 260.356 234.31 262.989C233.958 263.882 233.808 264.821 233.86 265.759C233.86 268.346 233.86 270.936 233.808 273.57C233.808 275 233.609 275.09 232.01 275.311C231.508 275.401 231.009 275.357 230.51 275.267C229.359 275.09 229.16 274.866 229.16 273.84C228.961 264.106 229.111 254.33 228.961 244.596C228.811 234.64 228.86 224.685 228.811 214.729C228.811 214.014 229.059 213.837 229.809 213.927C231.009 214.061 232.209 214.104 233.357 213.703C233.71 213.613 233.86 213.747 233.909 214.061C233.909 214.372 233.909 214.639 233.909 214.953C233.909 226.56 233.909 238.213 233.909 249.819C233.909 250.043 233.909 250.267 233.909 250.444C233.909 250.668 233.759 251.025 234.258 251.069C234.659 251.115 234.76 250.848 234.809 250.578C235.259 249.151 235.758 247.721 236.208 246.25C239.61 235.937 242.907 225.577 246.459 215.311C247.059 213.57 247.059 213.57 249.108 213.57C249.659 213.57 250.207 213.57 250.709 213.57C251.358 213.57 251.557 213.747 251.358 214.328C250.559 216.694 249.809 219.06 248.958 221.383C245.608 230.934 242.258 240.489 238.909 250.043C238.56 251.069 238.56 251.069 239.76 251.069C257.908 251.069 276.056 251.069 294.206 251.069C312.253 251.069 330.254 251.069 348.301 251.069C349.902 251.069 349.853 251.249 349.351 249.819C345.303 238.256 341.151 226.74 337.254 215.177C336.653 213.389 336.552 213.57 338.604 213.57C339.152 213.57 339.703 213.613 340.202 213.57C341.053 213.436 341.353 213.791 341.601 214.462C344.054 221.336 346.252 228.301 348.552 235.222C350.202 240.265 351.853 245.311 353.503 250.31C353.552 250.49 353.601 250.668 353.702 250.848C353.803 251.069 354.002 251.115 354.201 251.069C354.403 251.025 354.452 250.848 354.452 250.714C354.452 250.49 354.452 250.267 354.452 250.087C354.452 238.39 354.452 226.693 354.452 214.997C354.452 214.686 354.452 214.416 354.452 214.104C354.452 213.837 354.651 213.657 355.003 213.747C356.201 214.104 357.401 214.104 358.653 213.971C359.103 213.837 359.4 213.927 359.4 214.596Z" fill="#C9E4FF"/>
<path d="M293.155 212.14C293.155 212.899 292.854 213.032 292.104 213.032C281.204 213.032 270.255 213.032 259.354 213.032C248.457 213.032 237.606 213.032 226.708 213.032C225.906 213.032 225.658 212.855 225.658 212.096C225.707 206.292 225.707 200.534 225.658 194.729C225.658 193.97 225.906 193.837 226.656 193.837C248.506 193.837 270.304 193.837 292.153 193.837C292.952 193.837 293.155 194.014 293.155 194.729C293.155 200.577 293.155 206.335 293.155 212.14ZM362.099 194.863C362.099 194.06 361.851 193.88 361 193.88C339.401 193.88 317.754 193.88 296.155 193.88C295.255 193.88 294.955 194.06 294.955 194.909C295.004 200.621 295.004 206.382 294.955 212.096C294.955 212.811 295.154 213.032 296.005 213.032C306.853 212.989 317.702 213.032 328.553 213.032C339.352 213.032 350.152 213.032 360.951 213.032C361.799 213.032 362.099 212.899 362.099 212.05C362.05 206.335 362.05 200.577 362.099 194.863Z" fill="#C9E4FF"/>
<path d="M260.807 202.99C260.807 204.684 259.206 206.024 257.357 206.024C255.458 206.024 253.958 204.684 254.007 203.033C254.007 201.336 255.608 199.908 257.409 199.908C259.258 199.952 260.807 201.336 260.807 202.99ZM328.304 199.952C326.503 199.908 324.905 201.336 324.853 203.033C324.804 204.684 326.252 206.024 328.203 206.068C330.104 206.114 331.654 204.774 331.703 203.077C331.755 201.382 330.202 199.952 328.304 199.952Z" fill="#4FA5FF"/>
<path d="M342.248 176.527H246.279V120.161H342.248V176.527Z" fill="white"/>
<path d="M342.248 176.527H246.279V169.895H342.248V176.527Z" fill="white"/>
<path d="M340.593 174.869H337.283V171.552H340.593V174.869Z" fill="#4FA5FF"/>
<path d="M333.976 174.869H330.666V171.552H333.976V174.869Z" fill="#4FA5FF"/>
<path d="M327.357 174.869H324.049V171.552H327.357V174.869Z" fill="#4FA5FF"/>
<path d="M340.594 168.238H247.933V121.818H340.594V168.238ZM340.594 174.87H337.284V171.553H340.594V174.87ZM333.976 174.87H330.666V171.553H333.976V174.87ZM327.356 174.87H324.048V171.553H327.356V174.87ZM320.738 174.87H247.933V171.553H320.738V174.87ZM342.249 118.501H246.28C245.366 118.501 244.625 119.244 244.625 120.161V176.527C244.625 177.441 245.366 178.185 246.28 178.185H292.609V181.754L254.28 188.155C253.38 188.305 252.77 189.16 252.919 190.062C253.055 190.872 253.755 191.446 254.551 191.446C254.641 191.446 254.733 191.439 254.824 191.425L294.265 184.838L333.703 191.425C333.796 191.439 333.888 191.446 333.976 191.446C334.772 191.446 335.472 190.872 335.607 190.062C335.757 189.16 335.149 188.305 334.247 188.155L295.917 181.754V178.185H342.249C343.163 178.185 343.904 177.441 343.904 176.527V120.161C343.904 119.244 343.163 118.501 342.249 118.501Z" fill="#C9E4FF"/>
<path d="M232.078 56.1127C224.864 56.1199 218.468 59.5932 214.469 64.9642C214.082 65.4857 214.136 66.2101 214.592 66.6664L214.603 66.6809C215.165 67.2387 216.092 67.1735 216.563 66.536C220.083 61.7843 225.729 58.7167 232.082 58.7095C238.431 58.7022 244.084 61.7626 247.612 66.5071C248.086 67.1445 249.013 67.2097 249.575 66.6447L249.586 66.6338C250.042 66.1739 250.093 65.4495 249.705 64.9316C245.692 59.5678 239.293 56.1054 232.078 56.1127Z" fill="#4FA5FF" fill-opacity="0.3"/>
<path d="M232.085 61.3065C226.301 61.3138 221.18 64.2619 218.156 68.7383C217.804 69.2562 217.873 69.9516 218.315 70.3935H218.319C218.902 70.9766 219.861 70.8752 220.321 70.1907C222.864 66.4096 227.195 63.9106 232.088 63.9069C236.981 63.8997 241.317 66.3915 243.866 70.1689C244.33 70.8498 245.29 70.9512 245.869 70.3681L245.873 70.3645C246.315 69.9226 246.38 69.2273 246.028 68.713C242.99 64.2401 237.861 61.2993 232.085 61.3065Z" fill="#4FA5FF" fill-opacity="0.5"/>
<path d="M232.09 66.5002C227.675 66.5039 223.843 68.9775 221.862 72.5993C221.583 73.1099 221.667 73.7437 222.079 74.153C222.699 74.7723 223.727 74.6129 224.144 73.8451C225.679 71.0202 228.664 69.1007 232.094 69.097C235.523 69.0934 238.511 71.0057 240.051 73.8306C240.471 74.5948 241.499 74.7542 242.115 74.1349C242.528 73.722 242.611 73.0882 242.332 72.5775C240.34 68.9594 236.501 66.4966 232.09 66.5002Z" fill="#4FA5FF" fill-opacity="0.7"/>
<path d="M237.283 78.1838C237.283 78.5243 237.251 78.8611 237.182 79.1979C237.117 79.5311 237.019 79.8571 236.889 80.1722C236.758 80.4873 236.599 80.7843 236.411 81.0668C236.219 81.3529 236.005 81.6136 235.766 81.8563C235.523 82.0953 235.262 82.3126 234.98 82.501C234.697 82.6893 234.397 82.8486 234.082 82.979C233.77 83.1094 233.444 83.2108 233.111 83.276C232.778 83.3412 232.441 83.3738 232.101 83.3738C231.76 83.3738 231.423 83.3412 231.09 83.276C230.757 83.2108 230.431 83.1094 230.116 82.979C229.804 82.8486 229.504 82.6893 229.221 82.501C228.939 82.3126 228.678 82.0953 228.435 81.8563C228.196 81.6136 227.979 81.3529 227.791 81.0668C227.602 80.7843 227.443 80.4873 227.313 80.1722C227.182 79.8571 227.085 79.5311 227.016 79.1979C226.951 78.8611 226.918 78.5243 226.918 78.1838C226.918 77.8434 226.951 77.5066 227.016 77.1698C227.085 76.8366 227.182 76.5106 227.313 76.1955C227.443 75.884 227.602 75.5834 227.791 75.3009C227.979 75.0148 228.196 74.7541 228.435 74.5114C228.678 74.2724 228.939 74.0551 229.221 73.8667C229.504 73.6784 229.804 73.519 230.116 73.3887C230.431 73.2583 230.757 73.1569 231.09 73.0917C231.423 73.0265 231.76 72.9939 232.101 72.9939C232.441 72.9939 232.778 73.0265 233.111 73.0917C233.444 73.1569 233.77 73.2583 234.082 73.3887C234.397 73.519 234.697 73.6784 234.98 73.8667C235.262 74.0551 235.523 74.2724 235.766 74.5114C236.005 74.7541 236.219 75.0148 236.411 75.3009C236.599 75.5834 236.758 75.884 236.889 76.1955C237.019 76.5106 237.117 76.8366 237.182 77.1698C237.251 77.5066 237.283 77.8434 237.283 78.1838Z" fill="#4FA5FF"/>
<path d="M298.176 41.5813C298.176 51.5768 290.055 59.6827 280.037 59.6827C270.023 59.6827 261.902 51.5768 261.902 41.5813C261.902 31.5857 270.023 23.4799 280.037 23.4799C290.055 23.4799 298.176 31.5857 298.176 41.5813Z" fill="#C9E4FF"/>
<path d="M279.933 28.3278C275.021 28.3278 271.084 32.3695 271.036 37.3522C271.013 39.9017 271.879 41.4052 272.82 42.7999C275.43 46.6616 275.31 49.631 275.224 50.4071C275.209 50.4671 275.197 50.5346 275.197 50.6021C275.197 51.5619 276.982 52.338 279.933 52.338C282.883 52.338 284.518 51.5619 284.518 50.6021C284.668 46.8453 285.605 44.6483 286.359 43.5985C287.349 42.2112 288.83 39.4518 288.83 37.3522C288.83 32.3695 284.848 28.3278 279.933 28.3278Z" fill="white"/>
<path d="M279.359 50.1111L277.593 40.0369C277.574 39.9244 277.466 39.8494 277.353 39.8719C277.241 39.8869 277.166 39.9956 277.185 40.1081L278.95 50.1861C278.969 50.2948 279.078 50.3698 279.19 50.3511C279.303 50.3323 279.378 50.2236 279.359 50.1111Z" fill="#4FA5FF"/>
<path d="M280.915 50.1861L282.677 40.1081C282.696 39.9956 282.624 39.8869 282.512 39.8719C282.396 39.8494 282.291 39.9244 282.272 40.0369L280.51 50.1149C280.487 50.2236 280.566 50.3323 280.675 50.3511C280.787 50.3698 280.896 50.2948 280.915 50.1861Z" fill="#4FA5FF"/>
<path d="M283.723 39.6503L282.52 37.7457C282.478 37.6857 282.415 37.652 282.343 37.652C282.272 37.652 282.205 37.6857 282.167 37.7457L281.136 39.3766L280.105 37.7457C280.068 37.6857 280.004 37.652 279.933 37.652C279.861 37.652 279.794 37.6857 279.756 37.7457L278.725 39.3729L277.717 37.7495C277.676 37.6895 277.612 37.652 277.541 37.652C277.469 37.652 277.402 37.6857 277.364 37.7457L276.161 39.6503C276.101 39.7478 276.127 39.879 276.225 39.939C276.322 39.999 276.45 39.969 276.513 39.8715L277.541 38.2481L278.549 39.8715C278.587 39.9315 278.65 39.969 278.722 39.969C278.793 39.969 278.864 39.9315 278.898 39.8715L279.933 38.2444L280.96 39.8715C281.001 39.9315 281.065 39.969 281.136 39.969C281.207 39.969 281.275 39.9315 281.309 39.8715L282.343 38.2444L283.374 39.8715C283.434 39.969 283.562 39.999 283.659 39.939C283.757 39.879 283.783 39.7478 283.723 39.6503Z" fill="#4FA5FF"/>
<path d="M283.093 54.1262C283.093 54.5199 282.782 54.8386 282.392 54.8386H277.256C276.87 54.8386 276.555 54.5199 276.555 54.1262V54.0362C276.555 53.6425 276.87 53.3239 277.256 53.3239H282.392C282.782 53.3239 283.093 53.6425 283.093 54.0362V54.1262Z" fill="#4FA5FF"/>
<path d="M284.004 49.4548H275.752C275.163 49.4548 274.684 49.9347 274.684 50.5196V50.8758C274.684 51.4644 275.163 51.9406 275.752 51.9406H275.775C275.621 52.1056 275.523 52.3305 275.523 52.578V52.8854C275.523 53.3916 275.925 53.804 276.419 53.804H283.337C283.832 53.804 284.229 53.3916 284.229 52.8854V52.578C284.229 52.3305 284.135 52.1056 283.982 51.9406H284.004C284.593 51.9406 285.069 51.4644 285.069 50.8758V50.5196C285.069 49.9347 284.593 49.4548 284.004 49.4548Z" fill="#4FA5FF"/>
<path d="M161.88 41.5775C161.88 51.5768 153.759 59.6789 143.741 59.6789C133.727 59.6789 125.609 51.5768 125.609 41.5775C125.609 31.582 133.727 23.4799 143.741 23.4799C153.759 23.4799 161.88 31.582 161.88 41.5775Z" fill="#C9E4FF"/>
<path d="M149.484 54.2912H135.945V28.8712H149.484V54.2912Z" fill="#F5FAFF"/>
<path d="M150.129 38.3494V28.2527H135.297V38.3494H150.129Z" fill="#F5FAFF"/>
<path d="M138.083 36.8647H137.135V33.2992H138.083V36.8647Z" fill="#4FA5FF"/>
<path d="M138.083 45.2441H137.135V40.2389H138.083V45.2441Z" fill="#4FA5FF"/>
<path d="M135.945 54.2987V38.9268H149.484V54.2987H135.945ZM149.484 28.8825V38.0532H135.945V28.8825H149.484ZM135.297 28.2639V54.9061H150.129V28.2639H135.297Z" fill="#4FA5FF"/>
<path d="M206.036 22.3847C206.036 32.384 197.915 40.4899 187.897 40.4899C177.883 40.4899 169.762 32.384 169.762 22.3847C169.762 12.3892 177.883 4.28333 187.897 4.28333C197.915 4.28333 206.036 12.3892 206.036 22.3847Z" fill="#C9E4FF"/>
<path d="M194.417 35.8445H181.381V8.92859H194.417V35.8445Z" fill="white"/>
<path d="M189.439 27.3263V11.6394C189.439 11.0058 188.749 10.4884 187.898 10.4884C187.047 10.4884 186.361 11.0058 186.361 11.6394V27.3263C185.108 27.9037 184.242 29.1672 184.242 30.6331C184.242 32.6465 185.881 34.2812 187.898 34.2812C189.919 34.2812 191.553 32.6465 191.553 30.6331C191.553 29.1672 190.691 27.9037 189.439 27.3263Z" fill="#4FA5FF"/>
<path d="M188.526 28.5861V12.5055C188.526 11.6619 187.267 11.6169 187.267 12.5055V28.5861C186.337 28.8635 185.658 29.7371 185.658 30.7719C185.658 32.0316 186.659 33.0552 187.897 33.0552C189.134 33.0552 190.139 32.0316 190.139 30.7719C190.139 29.7371 189.456 28.8635 188.526 28.5861Z" fill="#E6E6E7"/>
<path d="M185.392 18.3581H183.09V17.8894H185.392V18.3581Z" fill="#4FA5FF"/>
<path d="M185.392 20.7051H183.09V20.2365H185.392V20.7051Z" fill="#4FA5FF"/>
<path d="M185.392 23.0559H183.09V22.5873H185.392V23.0559Z" fill="#4FA5FF"/>
<path d="M185.392 25.3991H183.09V24.9342H185.392V25.3991Z" fill="#4FA5FF"/>
<path d="M192.575 18.3581H190.273V17.8894H192.575V18.3581Z" fill="#4FA5FF"/>
<path d="M192.575 20.7051H190.273V20.2365H192.575V20.7051Z" fill="#4FA5FF"/>
<path d="M192.575 23.0559H190.273V22.5873H192.575V23.0559Z" fill="#4FA5FF"/>
<path d="M192.575 25.3991H190.273V24.9342H192.575V25.3991Z" fill="#4FA5FF"/>
<path d="M326.971 80.9373C326.971 90.9328 318.85 99.0387 308.832 99.0387C298.818 99.0387 290.697 90.9328 290.697 80.9373C290.697 70.938 298.818 62.8322 308.832 62.8322C318.85 62.8322 326.971 70.938 326.971 80.9373Z" fill="#C9E4FF"/>
<path d="M304.501 79.4113C301.772 79.2838 299.649 76.9518 299.649 74.0611C299.649 71.2042 301.813 68.8384 304.501 68.7072V67.5562C302.919 67.6199 301.438 68.3023 300.328 69.4983C299.185 70.7243 298.555 72.3402 298.555 74.0611C298.555 75.767 299.181 77.3829 300.313 78.6052C301.427 79.805 302.911 80.4986 304.501 80.5586V79.4113Z" fill="#4FA5FF"/>
<path d="M305.341 77.4692C303.624 77.3005 302.308 75.8458 302.308 74.0611C302.308 72.299 303.646 70.818 305.341 70.6493V69.4983C304.265 69.5808 303.264 70.0569 302.499 70.8518C301.67 71.7104 301.217 72.8501 301.217 74.0611C301.217 75.2609 301.667 76.3969 302.488 77.2555C303.253 78.0578 304.261 78.5377 305.341 78.6165V77.4692Z" fill="#4FA5FF"/>
<path d="M313.162 79.4113C315.892 79.2838 318.017 76.9518 318.017 74.0611C318.017 71.2042 315.85 68.8384 313.162 68.7072V67.5562C314.744 67.6199 316.222 68.3023 317.339 69.4983C318.479 70.7243 319.105 72.3402 319.105 74.0611C319.105 75.767 318.482 77.3829 317.35 78.6052C316.236 79.805 314.752 80.4986 313.162 80.5586V79.4113Z" fill="#4FA5FF"/>
<path d="M312.322 77.4692C314.043 77.3005 315.359 75.8458 315.359 74.0611C315.359 72.299 314.021 70.818 312.322 70.6493V69.4983C313.398 69.5808 314.403 70.0569 315.164 70.8518C315.993 71.7104 316.45 72.8501 316.45 74.0611C316.45 75.2609 315.997 76.3969 315.175 77.2555C314.411 78.0578 313.406 78.5377 312.322 78.6165V77.4692Z" fill="#4FA5FF"/>
<path d="M312.589 74.4474C312.589 72.4491 310.966 70.8331 308.967 70.8331C306.961 70.8331 305.342 72.4491 305.342 74.4474C305.342 76.0558 306.395 77.4206 307.85 77.8892L306.043 94.9821H311.982L309.995 77.9155C311.494 77.4693 312.589 76.0896 312.589 74.4474Z" fill="white"/>
<path d="M133.088 80.9333C133.088 90.9326 124.968 99.0385 114.95 99.0385C104.935 99.0385 96.8145 90.9326 96.8145 80.9333C96.8145 70.9378 104.935 62.8319 114.95 62.8319C124.968 62.8319 133.088 70.9378 133.088 80.9333Z" fill="#C9E4FF"/>
<path d="M126.085 92.4138H103.867V70.3531H126.085V92.4138Z" fill="#4FA5FF"/>
<path d="M124.593 91.3153V91.0753H105.599V75.8121H124.353V91.3153H124.593V91.0753V91.3153H124.833V75.3359H105.119V91.5552H124.833V91.3153H124.593Z" fill="#C9E4FF"/>
<path d="M126.085 74.2597H103.867V69.4569H126.085V74.2597Z" fill="white"/>
<path d="M121.864 83.5581C121.864 87.1799 118.925 90.1118 115.295 90.1118C111.67 90.1118 108.73 87.1799 108.73 83.5581C108.73 79.9363 111.67 77.0044 115.295 77.0044C118.925 77.0044 121.864 79.9363 121.864 83.5581Z" fill="#F5FAFF"/>
<path d="M120.116 83.5579C120.116 86.2161 117.956 88.3681 115.294 88.3681C112.632 88.3681 110.473 86.2161 110.473 83.5579C110.473 80.9034 112.632 78.7476 115.294 78.7476C117.956 78.7476 120.116 80.9034 120.116 83.5579Z" fill="#C9E4FF"/>
<path d="M116.974 72.3401H114.162V71.2191H116.974V72.3401Z" fill="#4FA5FF"/>
<path d="M120.783 72.3401H117.971V71.2191H120.783V72.3401Z" fill="#C9E4FF"/>
<path d="M124.593 72.3401H121.781V71.2191H124.593V72.3401Z" fill="#4FA5FF"/>
<path d="M109.108 71.7778C109.108 72.6514 108.399 73.36 107.525 73.36C106.648 73.36 105.939 72.6514 105.939 71.7778C105.939 70.9042 106.648 70.1993 107.525 70.1993C108.399 70.1993 109.108 70.9042 109.108 71.7778Z" fill="#4FA5FF"/>
<path d="M110.998 70.8742C110.998 71.2491 110.698 71.5491 110.323 71.5491C109.948 71.5491 109.645 71.2491 109.645 70.8742C109.645 70.503 109.948 70.1993 110.323 70.1993C110.698 70.1993 110.998 70.503 110.998 70.8742Z" fill="#C9E4FF"/>
<path d="M110.399 72.7901C110.399 73.0188 110.211 73.21 109.979 73.21C109.75 73.21 109.562 73.0188 109.562 72.7901C109.562 72.5614 109.75 72.3739 109.979 72.3739C110.211 72.3739 110.399 72.5614 110.399 72.7901Z" fill="#C9E4FF"/>
<path d="M254.782 22.3847C254.782 32.384 246.665 40.4899 236.643 40.4899C226.633 40.4899 218.512 32.384 218.512 22.3847C218.512 12.3892 226.633 4.28333 236.643 4.28333C246.665 4.28333 254.782 12.3892 254.782 22.3847Z" fill="#C9E4FF"/>
<path d="M241.925 34.1198H231.363V7.33142H241.925V34.1198Z" fill="white"/>
<path d="M240.11 13.0304C240.11 14.9425 238.558 16.491 236.642 16.491C234.73 16.491 233.182 14.9425 233.182 13.0304C233.182 11.1221 234.73 9.57361 236.642 9.57361C238.558 9.57361 240.11 11.1221 240.11 13.0304Z" fill="white"/>
<path d="M239.193 13.0304C239.193 14.4401 238.053 15.5761 236.643 15.5761C235.237 15.5761 234.098 14.4401 234.098 13.0304C234.098 11.6282 235.237 10.4884 236.643 10.4884C238.053 10.4884 239.193 11.6282 239.193 13.0304Z" fill="#C9E4FF"/>
<path d="M236.865 15.5648V14.2976C237.393 14.2114 237.813 13.7952 237.911 13.274H239.186C239.069 14.4925 238.091 15.4636 236.865 15.5648ZM234.109 13.274H235.38C235.481 13.7877 235.886 14.1964 236.4 14.2938V15.5648C235.185 15.4449 234.222 14.4851 234.109 13.274ZM236.4 10.4996V11.7706C235.879 11.8718 235.474 12.2842 235.376 12.8091H234.109C234.214 11.5906 235.181 10.6196 236.4 10.4996ZM239.186 12.8091H237.915C237.821 12.2767 237.397 11.8568 236.865 11.7631V10.4958C238.095 10.6008 239.077 11.5794 239.186 12.8091ZM236.644 10.0234C234.983 10.0234 233.637 11.3732 233.637 13.0303C233.637 14.6913 234.983 16.041 236.644 16.041C238.308 16.041 239.662 14.6913 239.662 13.0303C239.662 11.3732 238.308 10.0234 236.644 10.0234Z" fill="#4FA5FF"/>
<path d="M240.11 20.7238C240.11 22.6359 238.558 24.1843 236.642 24.1843C234.73 24.1843 233.182 22.6359 233.182 20.7238C233.182 18.8154 234.73 17.267 236.642 17.267C238.558 17.267 240.11 18.8154 240.11 20.7238Z" fill="white"/>
<path d="M239.193 20.7238C239.193 22.1297 238.053 23.2695 236.643 23.2695C235.237 23.2695 234.098 22.1297 234.098 20.7238C234.098 19.3178 235.237 18.1818 236.643 18.1818C238.053 18.1818 239.193 19.3178 239.193 20.7238Z" fill="#C9E4FF"/>
<path d="M236.865 23.2582V21.991C237.393 21.901 237.813 21.4886 237.911 20.9637H239.186C239.069 22.1859 238.091 23.157 236.865 23.2582ZM234.109 20.9637H235.38C235.481 21.4811 235.886 21.886 236.4 21.9835V23.2582C235.185 23.142 234.222 22.1747 234.109 20.9637ZM236.4 18.193V19.464C235.879 19.5652 235.474 19.9776 235.376 20.4988H234.109C234.214 19.284 235.181 18.3092 236.4 18.193ZM239.186 20.4988H237.915C237.821 19.9701 237.397 19.5502 236.865 19.4565V18.193C238.095 18.2942 239.077 19.2728 239.186 20.4988ZM236.644 17.7206C234.983 17.7206 233.637 19.0666 233.637 20.7237C233.637 22.3847 234.983 23.7306 236.644 23.7306C238.308 23.7306 239.662 22.3847 239.662 20.7237C239.662 19.0666 238.308 17.7206 236.644 17.7206Z" fill="#4FA5FF"/>
<path d="M240.11 28.4211C240.11 30.3257 238.558 31.8742 236.642 31.8742C234.73 31.8742 233.182 30.3257 233.182 28.4211C233.182 26.509 234.73 24.9568 236.642 24.9568C238.558 24.9568 240.11 26.509 240.11 28.4211Z" fill="white"/>
<path d="M239.193 28.421C239.193 29.8232 238.053 30.963 236.643 30.963C235.237 30.963 234.098 29.8232 234.098 28.421C234.098 27.0113 235.237 25.8752 236.643 25.8752C238.053 25.8752 239.193 27.0113 239.193 28.421Z" fill="#C9E4FF"/>
<path d="M236.865 30.9518V29.6846C237.393 29.5946 237.813 29.1822 237.911 28.6573H239.186C239.069 29.8795 238.091 30.8506 236.865 30.9518ZM234.109 28.6573H235.38C235.481 29.1747 235.886 29.5796 236.4 29.6771V30.948C235.185 30.8318 234.222 29.8683 234.109 28.6573ZM236.4 25.8866V27.1576C235.879 27.2588 235.474 27.6712 235.376 28.1923H234.109C234.214 26.9738 235.181 26.0028 236.4 25.8866ZM239.186 28.1923H237.915C237.821 27.66 237.397 27.2438 236.865 27.1538V25.8828C238.095 25.9878 239.077 26.9626 239.186 28.1923ZM236.644 25.4104C234.983 25.4104 233.637 26.7601 233.637 28.4211C233.637 30.0782 234.983 31.4242 236.644 31.4242C238.308 31.4242 239.662 30.0782 239.662 28.4211C239.662 26.7601 238.308 25.4104 236.644 25.4104Z" fill="#4FA5FF"/>
<path d="M238.705 36.8493H234.783V33.6849H238.705V36.8493Z" fill="#4FA5FF"/>
<path d="M241.547 37.4417C241.547 36.9843 241.307 36.6993 241.014 36.6993H232.47C232.181 36.6993 231.938 37.003 231.938 37.4417H241.547Z" fill="#4FA5FF"/>
<path d="M155.961 266.802V151.738H165.781V266.802C165.781 270.665 163.583 273.796 160.871 273.796C158.164 273.796 155.961 270.665 155.961 266.802Z" fill="#C9E4FF"/>
<path d="M155.961 266.802H156.659V152.431H165.083V266.802C165.083 268.602 164.564 270.217 163.772 271.348C163.373 271.912 162.909 272.355 162.421 272.649C161.927 272.948 161.414 273.098 160.871 273.103C160.327 273.098 159.814 272.948 159.32 272.649C158.588 272.211 157.915 271.433 157.431 270.416C156.948 269.399 156.659 268.153 156.659 266.802H155.258C155.263 268.866 155.841 270.745 156.828 272.146C157.317 272.849 157.915 273.432 158.598 273.846C159.281 274.259 160.058 274.494 160.871 274.494C161.683 274.494 162.461 274.259 163.144 273.846C164.171 273.223 164.998 272.226 165.576 271.009C166.155 269.793 166.484 268.347 166.484 266.802V151.04H155.258V266.802H155.961Z" fill="#4FA5FF"/>
<path d="M73.457 266.802V151.738H83.2771V266.802C83.2771 270.665 81.0788 273.796 78.3671 273.796C75.6553 273.796 73.457 270.665 73.457 266.802Z" fill="#C9E4FF"/>
<path d="M73.4568 266.802H74.1546V152.431H82.579V266.802C82.579 268.602 82.0605 270.217 81.268 271.348C80.8692 271.912 80.4056 272.355 79.9171 272.649C79.4236 272.948 78.9101 273.098 78.3668 273.103C77.8235 273.098 77.31 272.948 76.8165 272.649C76.0788 272.211 75.4058 271.433 74.9273 270.416C74.4438 269.399 74.1546 268.153 74.1546 266.802H72.7539C72.7589 268.866 73.3371 270.745 74.3191 272.146C74.8126 272.849 75.4058 273.432 76.0937 273.846C76.7766 274.259 77.5543 274.494 78.3668 274.494C79.1793 274.494 79.9569 274.259 80.6399 273.846C81.6667 273.223 82.4942 272.226 83.0725 271.009C83.6507 269.793 83.9747 268.347 83.9747 266.802V151.04H72.7539V266.802H73.4568Z" fill="#4FA5FF"/>
<path d="M78.3672 263.203H160.871V154.489H78.3672V263.203Z" fill="#C9E4FF"/>
<path d="M78.3658 263.203V263.9H161.567V153.791H77.668V263.9H78.3658V263.203H79.0687V155.187H160.166V262.505H78.3658V263.203H79.0687H78.3658Z" fill="#4FA5FF"/>
<path d="M81.0879 184.592H158.258V157.699H81.0879V184.592Z" fill="#C9E4FF"/>
<path d="M80.2213 184.593V185.291H158.094V157.002H79.5234V185.291H80.2213V184.593H80.9192V158.398H156.693V183.895H80.2213V184.593H80.9192H80.2213Z" fill="#4FA5FF"/>
<path d="M108.459 161.827C108.459 163.019 109.426 163.986 110.627 163.986H126.988C128.184 163.986 129.156 163.019 129.156 161.827C129.156 160.631 128.184 159.664 126.988 159.664H110.627C109.426 159.664 108.459 160.631 108.459 161.827Z" fill="#C9E4FF"/>
<path d="M80.2207 215.583H157.39V188.69H80.2207V215.583Z" fill="#C9E4FF"/>
<path d="M80.2213 215.583V216.276H158.094V187.992H79.5234V216.276H80.2213V215.583H80.9192V189.383H156.693V214.885H80.2213V215.583H80.9192H80.2213Z" fill="#4FA5FF"/>
<path d="M108.459 192.813C108.459 194.004 109.426 194.976 110.627 194.976H126.988C128.184 194.976 129.156 194.004 129.156 192.813C129.156 191.621 128.184 190.654 126.988 190.654H110.627C109.426 190.654 108.459 191.621 108.459 192.813Z" fill="#C9E4FF"/>
<path d="M80.2207 246.568H157.39V219.675H80.2207V246.568Z" fill="#C9E4FF"/>
<path d="M80.2213 246.569V247.266H158.094V218.978H79.5234V247.266H80.2213V246.569H80.9192V220.368H156.693V245.871H80.2213V246.569H80.9192H80.2213Z" fill="#4FA5FF"/>
<path d="M108.459 223.798C108.459 224.994 109.426 225.961 110.627 225.961H126.988C128.184 225.961 129.156 224.994 129.156 223.798C129.156 222.606 128.184 221.639 126.988 221.639H110.627C109.426 221.639 108.459 222.606 108.459 223.798Z" fill="#C9E4FF"/>
<rect x="63.7227" y="142.826" width="111.298" height="10.485" rx="4.5" fill="#C9E4FF" stroke="#4FA5FF"/>
<circle cx="120.33" cy="164.092" r="3.35933" fill="#4FA5FF"/>
<circle cx="120.33" cy="195.766" r="3.35933" fill="#4FA5FF"/>
<circle cx="120.33" cy="226.479" r="3.35933" fill="#4FA5FF"/>
<path d="M148.248 268.18C152.471 266.644 154.167 257.302 154.487 252.823C156.246 249.143 169.364 249.086 164.085 255.274C158.24 262.124 158.64 271.735 163.131 272.078L164.085 272.019C163.749 272.082 163.431 272.1 163.131 272.078L147.684 273.03C147.364 272.23 144.025 269.715 148.248 268.18Z" fill="#FD9783"/>
<path d="M189.937 267.897C193.609 265.307 193.486 255.274 190.876 250.955C191.608 246.942 204.904 244.558 201.434 251.914C197.717 259.795 203.416 268.491 208.172 268.26L209.592 267.897C209.136 268.119 208.659 268.236 208.172 268.26L190.666 272.726C190.147 272.038 186.265 270.487 189.937 267.897Z" fill="#FD9783"/>
<path d="M204.738 134.898C204.738 134.898 212.79 134.172 214.86 118.59L215.561 107.227L212.052 110.014L203.35 126.282C203.35 126.282 201.186 131.66 204.738 134.898Z" fill="#FD9783"/>
<path d="M202.175 106.851C202.175 106.851 209.742 116.59 206 130.804C204.17 135.898 199.632 129.665 199.096 128.77C197.065 125.398 197.176 125.458 195.382 121.416C191.478 112.62 191.845 109.552 191.845 109.552C191.845 109.552 195.331 102.605 202.175 106.851Z" fill="#FD9783"/>
<path d="M188.414 103.867C189.64 110.684 192.865 113.819 196.698 114.387C200.526 114.958 203.554 109.707 203.105 105.843C202.486 100.421 200.861 96.2496 196.351 95.1338C190.732 93.7498 187.724 100.039 188.414 103.867Z" fill="#F69575"/>
<path d="M196.209 92.8079C196.209 92.8079 202.111 93.6793 205.506 107.4C205.506 107.4 207.225 114.375 207.04 117.005C207.04 117.005 201.804 122.927 193.622 123.353C193.622 123.353 187.12 103.611 188.981 97.1214C188.981 97.1214 191.631 92.3348 196.209 92.8079Z" fill="#FBC331"/>
<path d="M196.399 75.1198C193.935 79.2479 191.636 71.7368 191.553 69.8639C191.471 68.066 191.656 66.2168 193.241 65.1759C194.018 64.6673 195.851 64.3518 196.636 64.9748C197.282 65.4913 197.472 66.5717 197.614 67.3366C198.067 69.7535 197.673 72.9827 196.399 75.1198Z" fill="#331205"/>
<path d="M200.151 212.036C200.151 212.036 199.587 255.569 199.414 257.268C199.414 257.268 195.325 258.443 195.246 257.489C195.061 255.194 188.035 236.008 187.751 232.401C187.033 223.273 187.242 219.275 189.214 212.97C189.214 212.97 199.702 202.794 200.151 212.036Z" fill="#E68368"/>
<path d="M187.787 211.385C184.483 194.396 182.791 167.927 182.791 167.927C182.791 167.927 182.763 159.947 191.201 158.551C199.181 157.234 201.949 167.9 201.76 169.138C201.76 169.138 203.7 202.873 200.262 213.266C200.262 213.266 191.662 218.676 187.787 211.385Z" fill="#E68368"/>
<path d="M179.355 215.671C179.355 215.671 168.421 220.899 167.293 210.947C165.499 195.097 165.44 176.66 165.44 176.66C165.44 176.66 163.859 169.208 172.273 167.678C184.969 165.376 185.805 176.873 185.699 176.195C185.699 176.195 181.693 211.208 179.355 215.671Z" fill="#F69575"/>
<path d="M179.353 215.671C179.353 215.671 162.69 252.568 161.835 254.047C161.835 254.047 157.261 253.676 157.58 252.773C158.353 250.608 159.911 230.338 161.133 226.936C164.228 218.316 166.062 214.756 170.45 209.82C170.45 209.82 181.995 208.731 179.353 215.671Z" fill="#F69575"/>
<path d="M164.531 173.648L202.698 173.612L202.994 166.184L201.989 149.08L166.306 148.717C166.306 148.717 164.35 159.572 164.531 173.648Z" fill="#005BBA"/>
<path d="M168.455 173.908C174.751 173.908 180.287 169.756 182.022 163.665C182.065 163.511 181.975 163.349 181.817 163.302C181.659 163.258 181.498 163.349 181.454 163.507C179.794 169.338 174.487 173.317 168.455 173.317C168.297 173.317 168.139 173.317 167.981 173.309C167.812 173.297 167.682 173.431 167.674 173.593C167.67 173.754 167.796 173.892 167.958 173.9C168.123 173.904 168.289 173.908 168.455 173.908Z" fill="#1D1E32"/>
<path d="M186.506 213.482L178.486 167.41L202.995 166.184L201.974 211.073C201.974 211.073 198.37 214.243 186.506 213.482Z" fill="#005BBA"/>
<path d="M165.44 209.856L164.352 166.263C166.5 150.326 187.374 152.266 187.374 152.266L186.506 172.095L182.67 213.049C182.67 213.049 174.177 215.218 165.44 209.856Z" fill="#005BBA"/>
<path d="M190.373 153.875C192.506 153.875 195.274 153.792 199.954 153.516C200.116 153.508 200.242 153.366 200.23 153.205C200.222 153.043 200.076 152.921 199.919 152.929C192.084 153.386 189.632 153.307 186.533 153.205C185.657 153.177 184.731 153.146 183.619 153.122C183.027 153.114 182.258 153.126 181.332 153.138C177.98 153.185 172.374 153.268 166.349 152.341C166.183 152.318 166.038 152.428 166.014 152.59C165.986 152.747 166.101 152.901 166.258 152.925C172.33 153.855 177.973 153.777 181.34 153.725C182.258 153.713 183.023 153.702 183.607 153.713C184.715 153.733 185.641 153.765 186.513 153.792C187.771 153.836 188.926 153.875 190.373 153.875Z" fill="#1D1E32"/>
<path d="M179.333 83.2912C179.175 82.9127 178.714 81.8994 178.584 81.6628C175.363 75.7604 175.505 66.7864 180.386 64.8741C186.233 62.5833 186.225 72.2433 186.612 74.9166C187.057 78.0039 187.365 81.3356 186.146 84.2691C185.689 85.377 184.534 87.0685 183.256 86.9857C181.845 86.895 180.09 85.0971 179.333 83.2912Z" fill="#331205"/>
<path d="M177.513 73.948C177.237 75.6395 177.899 77.6977 179.322 78.6282C181.25 79.8899 182.331 78.1077 182.603 76.2507C182.828 74.7524 182.548 72.0752 180.927 71.2984C179.401 70.5611 177.737 72.5601 177.513 73.948Z" fill="#FD9783"/>
<path d="M179.649 77.8175L189.928 77.8254L189.916 91.9251L179.641 91.9132L179.649 77.8175Z" fill="#FD9783"/>
<path d="M194.53 93.8284L189.909 90.3903H179.637L174.094 93.8284H194.53Z" fill="#FD9783"/>
<path d="M164.52 160.431C168.66 161.05 173.265 160.514 179.042 159.631C187.988 158.263 195.069 155.984 202.699 151.122C202.651 148.61 201.839 143.926 201.607 141.427C200.846 133.218 201.043 134.078 200.924 127.741L201.607 101.218C200.869 95.1814 197.329 93.2652 197.329 93.2652L189.92 90.2528C189.92 90.2528 185.283 94.6885 179.471 90.3159L166.117 95.9069C166.117 95.9069 161.977 97.4367 162.765 102.152L165.013 125.723C165.013 125.723 162.809 143.579 161.587 154.773C161.587 154.773 159.718 159.93 164.52 160.431Z" fill="white"/>
<path d="M182.679 80.6598C183.127 82.5291 183.891 84.1192 185.438 85.3872C186.953 86.6268 188.596 87.3848 190.4 86.3219C191.836 85.4727 192.891 84.0878 193.587 82.6403C195.184 79.3034 195.099 74.3566 193.252 71.2163C191.227 67.7684 186.303 67.7598 183.92 70.9371C181.979 73.5245 181.947 77.6393 182.679 80.6598Z" fill="#FD9783"/>
<path d="M178.016 72.718C178.336 72.0004 179.601 70.6717 180.591 71.8624C181.005 72.3553 180.954 74.6579 181.111 75.2612C181.316 76.0616 181.518 75.7935 182.211 75.896C182.59 73.6919 182.661 69.6229 183.911 68.0142C184.258 67.5647 184.999 67.1704 184.313 66.5356C184.313 66.5356 182.03 64.1226 179.629 65.475C179.629 65.475 177.173 67.1704 178.016 72.718Z" fill="#331205"/>
<path d="M170.54 111.544C170.54 111.544 169.078 123.782 156.413 131.278C151.532 133.62 152.683 125.998 152.928 124.985C153.858 121.164 153.894 121.282 155.459 117.146C158.869 108.149 161.286 106.221 161.286 106.221C161.286 106.221 168.656 103.721 170.54 111.544Z" fill="#FD9783"/>
<path d="M162.845 99.767C158.922 105.48 159.017 109.979 161.343 113.066C163.666 116.161 169.517 114.545 171.914 111.481C175.285 107.184 177.063 103.079 174.635 99.1204C171.61 94.1918 165.049 96.5615 162.845 99.767Z" fill="#F69575"/>
<path d="M174.094 95.6939C174.094 95.6939 182.457 103.718 168.661 122.143C168.661 122.143 158.402 121.011 154.273 114.73C154.273 114.73 159.04 102.629 164.769 96.7033C164.769 96.7033 170.317 92.9457 174.094 95.6939Z" fill="#FBC331"/>
<path d="M186.963 118.618C186.963 118.618 188.308 119.059 188.678 120.731C173.191 128.68 161.157 133.545 161.157 133.545C155.854 134.835 153.753 132.97 153.753 132.97C149.009 126.109 159.099 122.797 159.099 122.797C159.099 122.797 159.099 122.797 173.029 120.708L186.963 118.618Z" fill="#FD9783"/>
<path d="M194.644 118.069L192.314 120.309C192.314 120.309 191.261 121.72 189.849 121.713L187.085 121.543L186.506 118.621L190.973 113.862L195.409 111.505C195.409 111.505 196 112.778 194.955 114.04C194.955 114.04 196.442 114.296 194.857 116.2C194.857 116.2 195.768 116.413 194.644 118.069Z" fill="#FD9783"/>
<path d="M192.068 113.278L198.184 107.4C198.184 107.4 198.893 107.486 198.72 108.661L194.643 113.385C194.643 113.385 192.877 114.599 192.068 113.278Z" fill="#FD9783"/>
<path d="M210.284 106.294C209.345 106.984 208.366 106.984 207.175 106.984H196.153C193.999 106.984 193.344 106.723 193.999 106.294L207.98 97.1159C209.211 96.4259 210.126 96.4259 211.317 96.4259H222.671C224.265 96.4259 224.809 96.7469 224.265 97.1159L210.284 106.294Z" fill="#061C35"/>
<path d="M209.808 106.335C208.863 106.984 207.878 106.984 206.679 106.984H197.133C194.964 106.984 194.297 106.739 194.964 106.335L208.458 98.0365C209.705 97.3857 210.618 97.3857 211.825 97.3857H221.697C223.302 97.3857 223.858 97.6874 223.302 98.0365L209.808 106.335Z" fill="#092A4D"/>
<path d="M211.748 110.653L215.561 107.227L215.691 102.606C213.806 99.258 209.272 98.1028 209.272 98.1028C209.272 98.1028 208.685 98.501 209.201 99.1476C209.201 99.1476 210.301 99.8219 211.263 100.098C211.263 100.098 212.099 101.103 212.706 101.557L209.808 101.249L207.096 102.956C207.096 102.956 207.301 103.978 208.57 103.465L209.737 102.755L211.914 103.043L209.935 102.917L207.502 104.66C207.502 104.66 207.502 105.507 208.539 105.247L210.337 104.187L211.397 104.474L210.297 104.569L208.188 106.3C208.188 106.3 208.48 107.211 209.741 106.694L211.181 105.618C211.181 105.618 210.581 108.5 211.748 110.653Z" fill="#FD9783"/>
<path d="M182.67 213.049L164.411 255.624C164.411 255.624 157.175 257.95 154.273 252.442C154.273 252.442 156.88 223.561 165.925 213.049L165.321 208.712C165.321 208.712 180.143 202.738 182.67 213.049Z" fill="#005BBA"/>
<path d="M201.974 211.074L202.305 255.376C202.305 255.376 198.05 259.748 192.317 259.113C192.317 259.113 187.804 233.832 187.374 231.549C187.374 231.549 185 218.794 186.506 213.483C186.506 213.483 198.595 199.967 201.974 211.074Z" fill="#005BBA"/>
<path d="M184.31 71.3347C184.31 71.3347 196.71 74.4338 200.925 66.9227C200.925 66.9227 199.809 67.2775 198.749 67.2854C198.749 67.2854 200.906 65.8187 200.145 63.1651C200.145 63.1651 195.906 64.1232 192.555 63.1651C192.555 63.1651 183.324 61.2449 180.876 66.6269C180.876 66.6269 178.881 69.9429 183.967 71.3426" fill="#331205"/>
<path d="M144.216 272.553C144.029 273.281 144.578 273.99 145.33 273.99H172.117C172.885 273.99 173.449 273.291 173.235 272.553C173.201 272.45 173.169 272.339 173.139 272.22C172.149 268.991 169.432 262.473 163.552 262.473C159.924 262.473 157.626 264.098 156.204 265.842C154.456 267.986 152.111 270.043 149.344 270.043H147.214C145.869 270.043 144.685 270.929 144.306 272.22L144.216 272.553Z" fill="#FBC331"/>
<path d="M185.249 272.673C185.179 273.379 185.733 273.99 186.442 273.99H214.623C215.257 273.99 215.743 273.421 215.582 272.807C215.558 272.718 215.547 272.625 215.519 272.537C215.501 272.483 215.478 272.426 215.462 272.368C214.62 269.407 212.036 263.432 204.91 263.432C200.946 263.432 198.577 264.657 197.162 266.082C195.222 268.036 192.914 270.426 190.16 270.426H187.434C186.326 270.426 185.397 271.265 185.285 272.368L185.249 272.673Z" fill="#FBC331"/>
<path d="M209.005 266.306C209.036 266.3 209.063 266.283 209.083 266.26C209.102 266.236 209.113 266.207 209.113 266.176C209.113 266.146 209.102 266.116 209.083 266.093C209.063 266.069 209.036 266.053 209.005 266.046L205.632 265.896L208.648 264.817C208.679 264.805 208.706 264.783 208.722 264.754C208.738 264.726 208.744 264.693 208.737 264.661C208.729 264.631 208.71 264.605 208.684 264.587C208.658 264.569 208.626 264.56 208.594 264.563L205.21 264.828L206.994 263.673C207.02 263.655 207.038 263.63 207.046 263.6C207.055 263.571 207.053 263.54 207.042 263.512C207.03 263.483 207.008 263.46 206.979 263.446C206.951 263.432 206.918 263.429 206.887 263.437L202.528 264.395C202.507 264.396 202.488 264.401 202.47 264.409C202.451 264.418 202.436 264.431 202.423 264.446C202.411 264.462 202.402 264.48 202.398 264.499C202.393 264.518 202.394 264.538 202.398 264.557C202.402 264.576 202.411 264.594 202.424 264.61C202.436 264.625 202.452 264.638 202.47 264.647C202.488 264.655 202.508 264.66 202.528 264.661C202.549 264.661 202.569 264.657 202.587 264.649L206.257 263.841L204.663 264.892C204.638 264.909 204.619 264.933 204.61 264.961C204.6 264.989 204.6 265.019 204.609 265.048C204.621 265.073 204.64 265.095 204.664 265.111C204.689 265.126 204.717 265.134 204.746 265.134L207.661 264.903L204.936 265.885C204.909 265.896 204.886 265.917 204.871 265.943C204.856 265.968 204.851 265.998 204.856 266.027C204.861 266.056 204.875 266.083 204.897 266.103C204.919 266.124 204.948 266.136 204.978 266.139L209.017 266.312L209.005 266.306Z" fill="#08294A"/>
<path d="M168.659 266.312C168.694 266.312 168.729 266.3 168.755 266.278C168.781 266.256 168.798 266.226 168.801 266.194C168.802 266.16 168.79 266.127 168.766 266.101C168.742 266.075 168.708 266.058 168.671 266.054L164.402 265.696L167.579 264.906C167.615 264.901 167.648 264.884 167.67 264.858C167.692 264.832 167.701 264.798 167.696 264.766C167.691 264.733 167.672 264.704 167.643 264.684C167.615 264.664 167.578 264.655 167.542 264.659H164.05L166.481 263.673C166.509 263.659 166.53 263.637 166.542 263.61C166.554 263.584 166.556 263.554 166.548 263.527C166.539 263.499 166.521 263.475 166.495 263.458C166.47 263.441 166.439 263.432 166.407 263.433L162.212 263.853C162.175 263.857 162.141 263.874 162.117 263.9C162.093 263.926 162.08 263.959 162.082 263.993C162.085 264.01 162.091 264.026 162.1 264.041C162.109 264.056 162.122 264.069 162.137 264.079C162.152 264.09 162.169 264.097 162.187 264.102C162.205 264.106 162.224 264.107 162.243 264.105L165.543 263.774L163.335 264.671C163.305 264.682 163.281 264.702 163.267 264.727C163.252 264.753 163.248 264.782 163.254 264.811C163.26 264.839 163.277 264.865 163.302 264.884C163.327 264.902 163.358 264.912 163.39 264.911H166.475L163.563 265.634C163.531 265.642 163.503 265.66 163.484 265.684C163.465 265.709 163.455 265.739 163.458 265.769C163.461 265.799 163.475 265.827 163.499 265.849C163.523 265.87 163.554 265.884 163.588 265.886L168.622 266.312H168.659Z" fill="#08294A"/>
<path d="M188.587 76.7433C188.529 76.7075 188.484 76.653 188.457 76.5861C188.43 76.5191 188.422 76.4426 188.434 76.3652L188.611 75.2009C188.628 75.0936 188.683 74.9924 188.763 74.9197C188.843 74.8469 188.942 74.8086 189.039 74.813C189.135 74.8175 189.221 74.8644 189.277 74.9434C189.333 75.0225 189.355 75.1272 189.338 75.2345L189.161 76.3987C189.153 76.452 189.135 76.5045 189.11 76.553C189.084 76.6015 189.05 76.6451 189.01 76.6812C188.97 76.7173 188.925 76.7452 188.878 76.7633C188.83 76.7814 188.781 76.7894 188.733 76.7866C188.681 76.7858 188.63 76.7709 188.587 76.7433Z" fill="#080C53"/>
<path d="M192.115 77.5359C192.061 77.5044 192.019 77.4555 191.993 77.3949C191.967 77.3343 191.958 77.2645 191.968 77.1936L192.138 76.1211C192.145 76.0725 192.16 76.0245 192.183 75.98C192.206 75.9355 192.236 75.8953 192.272 75.8618C192.308 75.8283 192.348 75.8022 192.391 75.7849C192.434 75.7676 192.479 75.7595 192.523 75.7612C192.611 75.766 192.689 75.8091 192.74 75.8812C192.792 75.9534 192.812 76.0488 192.798 76.1469L192.639 77.2154C192.623 77.3134 192.573 77.4057 192.499 77.4722C192.426 77.5388 192.336 77.5744 192.248 77.5713C192.2 77.5733 192.154 77.5611 192.115 77.5359Z" fill="#080C53"/>
<path d="M188.242 81.5037C188.153 81.1879 188.461 80.9507 188.774 81.0395L191.1 81.6987C191.377 81.7771 191.53 82.0745 191.401 82.3329C191.161 82.8163 190.726 83.4744 190.165 83.405C189.44 83.3151 188.524 82.4976 188.242 81.5037Z" fill="white"/>
<path fill-rule="evenodd" clip-rule="evenodd" d="M266.676 267.781C266.639 267.812 266.728 271.34 266.692 272.239C266.678 272.632 266.676 273.144 266.393 273.434C265.852 273.987 264.65 273.975 263.963 273.987C263.287 273.996 260.581 273.991 259.924 273.853C259.691 273.802 259.367 273.701 259.222 273.474C258.957 273.056 259.024 272.276 259.048 271.806C259.11 270.608 260.384 267.982 260.993 267.789C263.248 267.072 264.255 267.278 265.205 267.372C265.523 267.402 266.245 267.593 266.676 267.781Z" fill="#FFDFBF"/>
<path fill-rule="evenodd" clip-rule="evenodd" d="M261.178 273.774C261.001 273.053 261.034 272.339 261.209 271.819C261.338 271.437 261.546 271.157 261.795 271.028C261.888 270.979 262.002 271.016 262.051 271.109C262.099 271.202 262.063 271.318 261.97 271.365C261.793 271.458 261.659 271.669 261.569 271.942C261.413 272.404 261.388 273.04 261.547 273.682C261.572 273.785 261.51 273.887 261.409 273.913C261.307 273.938 261.204 273.876 261.178 273.774Z" fill="#EAD2C1"/>
<path fill-rule="evenodd" clip-rule="evenodd" d="M260.009 273.61C259.975 273.403 259.877 272.752 259.882 272.541C259.897 271.902 260.052 271.292 260.626 270.852C260.71 270.789 260.829 270.805 260.893 270.889C260.956 270.971 260.94 271.091 260.858 271.156C260.385 271.516 260.274 272.025 260.262 272.55C260.257 272.747 260.351 273.354 260.385 273.547C260.401 273.651 260.332 273.749 260.229 273.766C260.125 273.784 260.027 273.714 260.009 273.61Z" fill="#EAD2C1"/>
<path fill-rule="evenodd" clip-rule="evenodd" d="M234.294 269.243C234.669 269.223 235.086 269.22 236.613 269.23C236.724 269.231 236.688 270.608 236.749 270.605C237.964 270.546 242.198 270.595 243.154 270.606C243.171 270.606 243.248 269.28 243.269 269.281C247.948 269.466 252.675 269.105 255.736 269.186C259.538 269.287 266.609 269.231 266.613 269.409C266.619 269.646 266.594 270.675 266.631 270.708C266.765 270.83 272.376 271.143 272.643 270.895C272.672 270.868 272.653 268.906 272.895 266.93C273.107 265.204 273.435 263.562 273.659 262.721C273.681 262.636 274.863 261.65 275.252 260.847C276.137 259.029 275.8 257.247 275.755 257.083C275.286 255.416 274.714 255.003 274.015 254.158C273.036 252.977 271.317 252.263 271.065 251.975C270.758 251.626 270.135 250.638 269.409 250.052C266.196 247.462 261.08 247.718 257.254 248.68C255.456 249.133 253.921 249.857 252.649 250.175C251.899 250.363 247.558 249.759 245.361 250.125C244.981 250.188 239.69 255.203 238.72 256.175C237.862 257.035 236.713 258.13 236.113 259.111C234.276 262.111 234.249 265.454 234.294 269.243Z" fill="#F3A769"/>
<path fill-rule="evenodd" clip-rule="evenodd" d="M245.584 249.805C245.309 251.872 244.908 252.555 244.116 253.398C242.732 254.869 241.272 255.085 239.892 256.262C239.325 256.745 239.44 257.583 239.356 258.274C239.264 259.034 238.889 259.262 238.718 258.954C238.433 258.44 238.382 257.825 238.339 257.88C237.942 258.39 237.995 259.417 237.289 260.165C236.495 261.009 236.845 259.638 236.179 259.906C235.9 260.019 235.511 261.118 235.471 261.223C234.808 262.954 234.598 264.599 234.581 266.442C234.575 267.164 234.549 268.973 234.566 269.467C234.566 269.496 232.194 269.598 232.193 269.619C232.171 270.005 232.211 271.73 232.208 272.378C232.206 272.726 232.272 274.006 230.495 273.99C228.522 273.972 226.167 273.984 224.942 273.929C224.428 273.906 224.564 272.326 225.048 271.593C225.753 270.521 226.341 270.209 226.375 269.851C226.403 269.539 226.052 269.228 226.02 267.676C225.986 266.132 226.243 263.86 226.123 262.346C226.058 261.531 225.417 260.318 225.049 258.851C224.82 257.94 224.755 256.204 224.687 256.019C224.563 255.684 224.186 255.904 224.083 255.557C223.879 254.866 224.561 253.796 224.346 253.17C224.245 252.875 223.647 253.472 223.544 252.812C223.315 251.337 224.243 249.404 224.639 247.988C225.128 246.246 225.061 243.856 226.554 242.051C227.133 241.35 228.23 242.781 229.031 242.598C230.187 242.33 231.238 241.404 232.173 240.712C233.555 239.69 236.771 233.798 240.964 236.145C243.992 237.841 244.421 247.195 245.584 249.805Z" fill="#FFDFBF"/>
<path fill-rule="evenodd" clip-rule="evenodd" d="M226.544 273.765C226.346 273.087 226.346 272.409 226.487 271.911C226.591 271.542 226.776 271.268 227.004 271.136C227.096 271.084 227.211 271.114 227.264 271.206C227.316 271.297 227.285 271.413 227.193 271.466C227.035 271.558 226.924 271.758 226.853 272.015C226.728 272.456 226.734 273.056 226.909 273.657C226.938 273.758 226.881 273.864 226.78 273.893C226.68 273.923 226.574 273.865 226.544 273.765Z" fill="#EAD2C1"/>
<path fill-rule="evenodd" clip-rule="evenodd" d="M225.534 273.759C225.505 273.554 225.425 272.911 225.429 272.706C225.438 272.08 225.568 271.504 226.027 271.15C226.109 271.086 226.228 271.101 226.292 271.185C226.357 271.268 226.341 271.387 226.258 271.452C225.891 271.735 225.816 272.21 225.809 272.712C225.805 272.905 225.884 273.513 225.91 273.706C225.924 273.81 225.852 273.906 225.748 273.921C225.644 273.936 225.548 273.862 225.534 273.759Z" fill="#EAD2C1"/>
<path fill-rule="evenodd" clip-rule="evenodd" d="M239.521 234.18C239.32 234.099 238.981 233.978 238.696 233.911C238.164 233.788 237.597 233.742 237.604 233.679C237.628 233.477 237.522 231.104 237.429 230.273C237.211 228.312 235.779 224.37 233.394 225.137C230.951 225.922 229.489 229.256 228.922 230.685C228.099 232.759 227.831 235.021 227.725 237.246C227.688 238.054 227.624 239.01 227.559 239.33C227.533 239.457 226.441 240.305 226.404 240.482C226.017 242.328 228.12 245.209 230.069 245.487C231.523 245.696 233.523 244.328 235.081 242.652C235.808 241.871 236.88 240.743 237.987 238.393C238.054 238.251 238.251 237.732 238.486 237.108C238.498 237.098 238.514 237.076 238.536 237.035C238.69 236.758 238.832 236.467 238.989 236.346C240.123 235.47 241.009 236.561 240.755 237.495C240.621 237.989 240.085 239.358 240.04 239.466C239.049 241.869 238.935 243.422 238.846 244.487C238.655 246.77 238.99 249.175 240.121 250.115C241.636 251.375 244.899 251.191 246.003 249.663C246.109 249.517 246.277 247.946 246.354 247.842C246.546 247.58 247.21 246.89 247.78 246.319C249.354 244.746 250.844 243.026 251.822 241.023C252.497 239.64 253.977 236.315 252.915 233.972C251.879 231.685 248.007 233.27 246.411 234.427C245.735 234.915 243.912 236.431 243.778 236.584C243.737 236.633 243.216 236.019 242.748 235.737C240.992 234.678 239.949 234.303 239.521 234.18Z" fill="#F3A769"/>
<path fill-rule="evenodd" clip-rule="evenodd" d="M234.903 247.146C235.017 247.442 235.189 247.838 235.896 247.742C236.65 247.638 238.043 247.324 237.684 246.37C237.401 245.618 236.349 245.125 235.62 245.024C235.332 244.983 234.869 244.949 234.684 245.236C234.348 245.757 234.684 246.585 234.903 247.146Z" fill="#292D3E"/>
<path fill-rule="evenodd" clip-rule="evenodd" d="M234.949 248.374C234.961 248.623 235.033 248.916 235.223 249.242C235.89 250.394 237.29 250.136 237.35 250.127C237.454 250.112 237.525 250.014 237.51 249.911C237.494 249.807 237.398 249.734 237.294 249.75C237.246 249.758 236.095 249.99 235.55 249.052C235.112 248.294 235.457 247.761 235.505 247.618C235.513 247.594 235.254 247.248 235.144 247.499C235.101 247.597 234.85 248.141 234.306 248.301C233.569 248.519 232.699 248.12 232.542 247.288C232.522 247.185 232.422 247.117 232.32 247.137C232.216 247.157 232.15 247.256 232.169 247.359C232.369 248.422 233.474 248.945 234.413 248.666C234.625 248.604 234.803 248.497 234.949 248.374Z" fill="#292D3E"/>
<path fill-rule="evenodd" clip-rule="evenodd" d="M240.951 243.995C240.252 243.997 239.686 244.584 239.689 245.304C239.692 246.023 240.262 246.604 240.962 246.602C241.661 246.598 242.227 246.012 242.225 245.293C242.221 244.574 241.652 243.992 240.951 243.995Z" fill="#292D3E"/>
<path fill-rule="evenodd" clip-rule="evenodd" d="M233.377 240.616C232.678 240.619 232.112 241.206 232.115 241.925C232.118 242.645 232.687 243.226 233.388 243.224C234.087 243.221 234.653 242.634 234.65 241.916C234.647 241.195 234.077 240.614 233.377 240.616Z" fill="#292D3E"/>
<path fill-rule="evenodd" clip-rule="evenodd" d="M246.168 245.526C246.517 245.648 247.093 244.948 247.292 244.763C247.876 244.223 248.381 243.62 248.859 242.987C250.193 241.22 251.313 239.193 251.836 237.044C252.043 236.192 252.15 234.827 251.164 234.39C249.148 233.496 246.325 236.299 245.179 237.667C244.782 238.14 244.103 238.938 244.077 239.606C244.049 240.317 244.986 238.98 245.243 239.276C245.608 239.694 244.443 241.058 244.748 241.6C245.006 242.062 245.514 241.208 245.615 241.637C245.808 242.461 245.851 243.665 245.878 244.46C245.889 244.75 245.802 245.396 246.168 245.526Z" fill="#FBB0A2"/>
<path fill-rule="evenodd" clip-rule="evenodd" d="M229.834 237.808C229.511 237.655 229.603 236.778 229.594 236.514C229.569 235.741 229.642 234.979 229.753 234.216C230.064 232.083 230.701 229.917 231.828 228.076C232.274 227.347 233.143 226.331 234.116 226.704C236.106 227.467 236.093 231.335 235.93 233.062C235.873 233.66 235.785 234.675 235.341 235.155C234.87 235.666 235.154 234.1 234.776 234.129C234.238 234.168 234.09 235.906 233.51 236.073C233.014 236.213 233.258 235.277 232.894 235.504C232.192 235.941 231.333 236.743 230.766 237.271C230.558 237.465 230.171 237.97 229.834 237.808Z" fill="#FBB0A2"/>
<path fill-rule="evenodd" clip-rule="evenodd" d="M244.377 239.588C244.373 239.583 244.37 239.577 244.367 239.572C244.298 239.446 244.326 239.289 244.378 239.133C244.477 238.842 244.685 238.555 244.817 238.404C245.363 237.771 246.62 236.321 248.067 235.376C249 234.769 250.008 234.365 250.954 234.567C251.371 234.657 251.606 234.978 251.719 235.362C251.843 235.78 251.827 236.273 251.73 236.667C251.221 238.714 249.9 240.946 248.755 242.687C248.698 242.775 248.722 242.893 248.81 242.95C248.897 243.009 249.015 242.985 249.073 242.897C250.238 241.122 251.58 238.845 252.098 236.76C252.233 236.211 252.226 235.498 251.974 234.966C251.793 234.584 251.489 234.292 251.033 234.195C249.997 233.973 248.882 234.39 247.86 235.057C246.378 236.024 245.089 237.507 244.529 238.155C244.376 238.332 244.135 238.671 244.018 239.01C243.929 239.275 243.917 239.541 244.034 239.755C244.12 239.912 244.227 239.967 244.329 239.977C244.45 239.989 244.593 239.92 244.733 239.8C244.821 239.724 244.913 239.629 245.007 239.566C245.042 239.543 245.074 239.519 245.11 239.522C245.138 239.525 245.16 239.553 245.187 239.595C245.187 239.6 245.188 239.614 245.188 239.622C245.186 239.65 245.179 239.678 245.169 239.712C245.137 239.818 245.077 239.942 245.008 240.077C244.871 240.35 244.702 240.66 244.615 240.946C244.546 241.172 244.528 241.385 244.588 241.566C244.666 241.803 244.851 241.859 245.082 241.832C245.181 241.82 245.291 241.789 245.388 241.778C245.407 241.776 245.426 241.775 245.444 241.776C245.451 241.776 245.463 241.778 245.468 241.778C245.52 241.84 245.557 241.932 245.588 242.039C245.647 242.242 245.679 242.498 245.699 242.774C245.75 243.508 245.711 244.375 245.766 244.804C245.793 245.018 245.849 245.237 245.948 245.385C246.039 245.519 246.164 245.603 246.324 245.615C246.457 245.624 246.625 245.58 246.832 245.436C247.08 245.263 247.407 244.93 247.83 244.362C247.893 244.277 247.875 244.158 247.792 244.095C247.708 244.032 247.588 244.05 247.526 244.134C247.138 244.656 246.843 244.966 246.615 245.123C246.541 245.175 246.477 245.209 246.42 245.225C246.374 245.238 246.338 245.24 246.309 245.22C246.262 245.191 246.236 245.132 246.211 245.067C246.177 244.973 246.156 244.863 246.142 244.755C246.079 244.258 246.143 243.166 246.042 242.386C245.992 242.006 245.897 241.694 245.752 241.526C245.693 241.457 245.618 241.417 245.529 241.402C245.442 241.386 245.338 241.398 245.231 241.417C245.156 241.432 245.077 241.452 245.008 241.455C244.994 241.457 244.981 241.457 244.968 241.457C244.959 241.455 244.951 241.455 244.948 241.446C244.911 241.333 244.934 241.199 244.977 241.058C245.059 240.791 245.219 240.504 245.348 240.249C245.445 240.056 245.524 239.878 245.554 239.738C245.584 239.593 245.563 239.473 245.505 239.386C245.411 239.248 245.311 239.183 245.214 239.155C245.114 239.128 245.013 239.141 244.913 239.185C244.808 239.23 244.702 239.316 244.602 239.407C244.546 239.458 244.49 239.509 244.437 239.551C244.42 239.564 244.395 239.578 244.377 239.588Z" fill="#D37A6E"/>
<path fill-rule="evenodd" clip-rule="evenodd" d="M233.498 235.885C233.491 235.876 233.479 235.861 233.472 235.85C233.448 235.813 233.424 235.77 233.396 235.727C233.315 235.603 233.204 235.475 232.996 235.399C232.913 235.369 232.813 235.364 232.699 235.39C232.575 235.42 232.428 235.49 232.268 235.592C231.715 235.943 230.993 236.687 230.635 237.128C230.534 237.252 230.341 237.462 230.141 237.557C230.061 237.595 229.98 237.621 229.914 237.566C229.892 237.549 229.883 237.512 229.869 237.466C229.833 237.344 229.814 237.173 229.806 236.977C229.768 236.151 229.921 234.901 229.96 234.597C230.208 232.634 230.566 231.425 231.391 229.284C231.571 228.814 231.881 228.212 232.286 227.736C232.542 227.434 232.835 227.182 233.16 227.062C233.639 226.885 234.034 226.897 234.359 227.053C234.689 227.21 234.943 227.511 235.141 227.889C235.567 228.699 235.735 229.849 235.763 230.826C235.765 230.931 235.853 231.014 235.958 231.011C236.063 231.007 236.145 230.92 236.143 230.815C236.113 229.783 235.928 228.568 235.477 227.711C235.237 227.255 234.922 226.9 234.523 226.708C234.119 226.514 233.626 226.484 233.029 226.705C232.647 226.847 232.298 227.135 231.996 227.49C231.564 227.998 231.23 228.644 231.036 229.145C230.198 231.324 229.837 232.553 229.583 234.548C229.544 234.861 229.388 236.145 229.426 236.993C229.437 237.227 229.462 237.429 229.506 237.576C229.546 237.711 229.607 237.807 229.674 237.862C229.858 238.013 230.082 238.006 230.304 237.9C230.555 237.78 230.803 237.524 230.929 237.369C231.267 236.952 231.947 236.245 232.47 235.913C232.572 235.849 232.665 235.8 232.747 235.773C232.794 235.757 232.834 235.744 232.866 235.756C233.054 235.825 233.1 235.977 233.162 236.072C233.22 236.155 233.284 236.215 233.365 236.245C233.424 236.267 233.495 236.275 233.583 236.256C233.689 236.234 233.812 236.137 233.924 235.97C234.105 235.699 234.295 235.218 234.474 234.826C234.552 234.655 234.627 234.504 234.7 234.402L234.702 234.397C234.72 234.479 234.729 234.579 234.741 234.679C234.761 234.845 234.794 235.008 234.86 235.123C234.925 235.237 235.018 235.314 235.148 235.343C235.25 235.364 235.371 235.337 235.489 235.244C235.66 235.106 235.844 234.796 235.922 234.404C235.942 234.3 235.876 234.2 235.773 234.18C235.67 234.159 235.57 234.225 235.549 234.329C235.499 234.578 235.4 234.788 235.293 234.907C235.269 234.932 235.23 234.958 235.217 234.966C235.181 234.952 235.174 234.908 235.161 234.864C235.127 234.754 235.116 234.618 235.102 234.495C235.086 234.366 235.065 234.247 235.026 234.163C234.981 234.063 234.913 233.999 234.829 233.968C234.747 233.938 234.66 233.945 234.571 233.998C234.476 234.055 234.363 234.202 234.257 234.403C234.087 234.727 233.903 235.209 233.725 235.556C233.671 235.659 233.617 235.75 233.566 235.818C233.544 235.845 233.505 235.879 233.498 235.885Z" fill="#D37A6E"/>
<path fill-rule="evenodd" clip-rule="evenodd" d="M235.401 254.171C232.348 254.06 231.067 253.195 230.285 252.495C230.207 252.426 230.201 252.304 230.27 252.227C230.34 252.148 230.459 252.141 230.538 252.211C231.282 252.879 232.508 253.685 235.415 253.791C235.52 253.794 235.601 253.883 235.598 253.987C235.594 254.092 235.506 254.174 235.401 254.171Z" fill="#EAD2C1"/>
<path fill-rule="evenodd" clip-rule="evenodd" d="M272.67 269.313C272.634 269.335 272.719 271.974 272.685 272.645C272.67 272.94 272.669 273.323 272.396 273.539C271.875 273.952 270.717 273.945 270.057 273.952C269.405 273.96 266.798 273.957 266.165 273.852C265.94 273.815 265.628 273.739 265.489 273.57C265.234 273.258 265.298 272.673 265.322 272.322C265.382 271.427 266.332 269.561 266.548 269.491C268.464 268.878 270.338 268.938 271.253 269.007C271.557 269.031 272.253 269.172 272.67 269.313Z" fill="#FFDFBF"/>
<path fill-rule="evenodd" clip-rule="evenodd" d="M267.778 273.879C267.6 273.158 267.633 272.443 267.808 271.924C267.937 271.542 268.145 271.262 268.394 271.132C268.487 271.083 268.603 271.12 268.65 271.213C268.699 271.306 268.662 271.422 268.569 271.47C268.392 271.562 268.26 271.773 268.168 272.046C268.012 272.509 267.988 273.145 268.146 273.787C268.171 273.888 268.11 273.992 268.008 274.017C267.907 274.043 267.803 273.98 267.778 273.879Z" fill="#EAD2C1"/>
<path fill-rule="evenodd" clip-rule="evenodd" d="M265.87 273.907C265.834 273.701 265.736 273.05 265.741 272.838C265.757 272.199 265.911 271.59 266.487 271.15C266.569 271.085 266.688 271.102 266.752 271.185C266.815 271.269 266.8 271.388 266.717 271.452C266.244 271.814 266.134 272.323 266.121 272.847C266.116 273.045 266.21 273.651 266.244 273.844C266.262 273.948 266.191 274.046 266.088 274.063C265.985 274.081 265.886 274.012 265.87 273.907Z" fill="#EAD2C1"/>
<path fill-rule="evenodd" clip-rule="evenodd" d="M243.154 269.624C243.154 269.722 243.206 272.208 243.172 272.833C243.158 273.106 243.157 273.463 242.884 273.663C242.362 274.048 240.115 273.981 239.454 273.987C238.802 273.994 236.196 273.992 235.562 273.894C235.338 273.86 235.025 273.789 234.887 273.632C234.632 273.342 234.696 272.799 234.719 272.472C234.779 271.639 236.191 269.619 236.789 269.538C237.891 269.388 239.735 269.327 240.65 269.391C240.956 269.413 242.739 269.493 243.154 269.624Z" fill="#FFDFBF"/>
<path fill-rule="evenodd" clip-rule="evenodd" d="M236.749 273.507C236.587 272.794 236.642 272.09 236.836 271.577C236.978 271.203 237.199 270.928 237.455 270.801C237.549 270.755 237.663 270.794 237.709 270.888C237.755 270.982 237.717 271.097 237.623 271.143C237.438 271.234 237.294 271.442 237.191 271.712C237.019 272.166 236.976 272.792 237.12 273.422C237.143 273.524 237.079 273.627 236.977 273.649C236.876 273.673 236.773 273.609 236.749 273.507Z" fill="#EAD2C1"/>
<path fill-rule="evenodd" clip-rule="evenodd" d="M235.576 273.441C235.556 273.215 235.504 272.512 235.521 272.29C235.569 271.615 235.744 270.996 236.272 270.634C236.358 270.575 236.476 270.597 236.536 270.684C236.594 270.77 236.572 270.889 236.486 270.949C236.054 271.245 235.938 271.764 235.9 272.317C235.884 272.527 235.936 273.195 235.953 273.407C235.963 273.512 235.886 273.605 235.781 273.613C235.677 273.623 235.584 273.545 235.576 273.441Z" fill="#EAD2C1"/>
<path fill-rule="evenodd" clip-rule="evenodd" d="M272.332 263.32C272.308 263.271 272.218 263.081 272.153 262.907C271.905 262.246 271.561 261.152 271.377 260.868C270.907 260.136 270.275 259.578 269.699 258.905C269.029 258.12 268.881 257.117 269.125 256.014C269.379 254.872 270.049 253.626 271.013 252.391C271.077 252.308 271.063 252.188 270.981 252.124C270.899 252.058 270.778 252.074 270.714 252.156C269.711 253.441 269.019 254.742 268.755 255.932C268.482 257.161 268.663 258.276 269.411 259.152C269.974 259.812 270.597 260.358 271.058 261.074C271.262 261.389 271.66 262.73 271.898 263.297C271.948 263.414 271.993 263.502 272.028 263.552C272.065 263.605 272.104 263.633 272.133 263.648C272.347 263.755 272.605 263.724 272.86 263.604C273.177 263.453 273.49 263.168 273.664 262.973C273.735 262.895 273.727 262.775 273.65 262.704C273.571 262.634 273.451 262.641 273.382 262.719C273.233 262.884 272.969 263.131 272.698 263.259C272.57 263.319 272.442 263.359 272.332 263.32Z" fill="#B96F30"/>
<path fill-rule="evenodd" clip-rule="evenodd" d="M266.578 270.661C266.447 270.796 266.276 270.97 266.169 271.125C265.907 271.503 265.819 271.785 265.656 272.366C265.637 272.431 265.569 272.469 265.502 272.452C265.438 272.433 265.399 272.365 265.418 272.298C265.592 271.681 265.688 271.384 265.967 270.983C266.081 270.819 266.261 270.632 266.402 270.489C266.449 270.44 266.528 270.439 266.575 270.486C266.625 270.534 266.625 270.613 266.578 270.661Z" fill="#EAD2C1"/>
</svg>
