<svg width="300" height="50" viewBox="0 0 300 50" fill="none" xmlns="http://www.w3.org/2000/svg">
<path d="M0 0H300V50H0V0Z" fill="#C4C4C4"/>
<path d="M38.528 20.154L36.566 30H32.498L33.848 23.322H31.976L31.67 24.6C31.31 26.1 30.938 27.252 30.554 28.056C30.17 28.86 29.708 29.43 29.168 29.766C28.64 30.102 27.956 30.27 27.116 30.27C26.516 30.27 25.874 30.18 25.19 30L26.018 26.706C26.258 26.73 26.402 26.742 26.45 26.742C26.894 26.742 27.236 26.574 27.476 26.238C27.716 25.89 27.938 25.29 28.142 24.438L29.15 20.154H38.528Z" fill="black"/>
<path d="M44.1676 30.18C43.0876 30.18 42.1456 29.994 41.3416 29.622C40.5376 29.238 39.9136 28.704 39.4696 28.02C39.0376 27.336 38.8216 26.538 38.8216 25.626C38.8216 24.558 39.0856 23.598 39.6136 22.746C40.1416 21.882 40.8676 21.204 41.7916 20.712C42.7276 20.22 43.7836 19.974 44.9596 19.974C46.0396 19.974 46.9816 20.166 47.7856 20.55C48.5896 20.922 49.2076 21.45 49.6396 22.134C50.0836 22.818 50.3056 23.616 50.3056 24.528C50.3056 25.596 50.0416 26.562 49.5136 27.426C48.9856 28.278 48.2536 28.95 47.3176 29.442C46.3936 29.934 45.3436 30.18 44.1676 30.18ZM44.4016 26.976C44.9296 26.976 45.3556 26.772 45.6796 26.364C46.0156 25.956 46.1836 25.41 46.1836 24.726C46.1836 24.258 46.0516 23.886 45.7876 23.61C45.5356 23.322 45.1816 23.178 44.7256 23.178C44.1976 23.178 43.7656 23.382 43.4296 23.79C43.1056 24.198 42.9436 24.744 42.9436 25.428C42.9436 25.896 43.0696 26.274 43.3216 26.562C43.5856 26.838 43.9456 26.976 44.4016 26.976Z" fill="black"/>
<path d="M60.5094 23.322H55.9194L54.6234 30H50.5734L52.5534 20.154H61.1574L60.5094 23.322Z" fill="black"/>
<path d="M65.6833 30.18C64.6032 30.18 63.6613 29.994 62.8573 29.622C62.0532 29.238 61.4292 28.704 60.9852 28.02C60.5532 27.336 60.3372 26.538 60.3372 25.626C60.3372 24.558 60.6012 23.598 61.1292 22.746C61.6572 21.882 62.3833 21.204 63.3073 20.712C64.2432 20.22 65.2992 19.974 66.4753 19.974C67.5553 19.974 68.4973 20.166 69.3013 20.55C70.1053 20.922 70.7233 21.45 71.1553 22.134C71.5993 22.818 71.8213 23.616 71.8213 24.528C71.8213 25.596 71.5573 26.562 71.0293 27.426C70.5013 28.278 69.7692 28.95 68.8333 29.442C67.9092 29.934 66.8593 30.18 65.6833 30.18ZM65.9173 26.976C66.4453 26.976 66.8713 26.772 67.1953 26.364C67.5312 25.956 67.6992 25.41 67.6992 24.726C67.6992 24.258 67.5673 23.886 67.3033 23.61C67.0513 23.322 66.6973 23.178 66.2412 23.178C65.7132 23.178 65.2812 23.382 64.9453 23.79C64.6213 24.198 64.4593 24.744 64.4593 25.428C64.4593 25.896 64.5853 26.274 64.8372 26.562C65.1012 26.838 65.4613 26.976 65.9173 26.976Z" fill="black"/>
<path d="M82.3934 23.322H79.3514L78.0554 30H74.0054L75.3014 23.322H72.3314L72.9794 20.154H83.0414L82.3934 23.322Z" fill="black"/>
<path d="M84.2116 20.154H88.2616L87.3076 24.6L91.6096 20.154H95.4076L93.4276 30H89.3776L90.3316 25.536L86.0476 30H82.2316L84.2116 20.154Z" fill="black"/>
<path d="M107.873 20.154L105.893 30H101.843L103.139 23.322H100.673L99.3773 30H95.3273L97.3073 20.154H107.873Z" fill="black"/>
<path d="M125.75 20.154L123.77 30H119.72L121.016 23.322H118.55L117.254 30H113.204L115.184 20.154H125.75Z" fill="black"/>
<path d="M133.983 19.974C134.655 19.974 135.303 20.154 135.927 20.514C136.551 20.874 137.055 21.402 137.439 22.098C137.835 22.782 138.033 23.592 138.033 24.528C138.033 25.584 137.793 26.544 137.313 27.408C136.845 28.272 136.209 28.95 135.405 29.442C134.601 29.934 133.731 30.18 132.795 30.18C131.475 30.18 130.539 29.772 129.987 28.956L129.069 33.492H125.001L127.665 20.154H131.499L131.319 21.054C132.063 20.334 132.951 19.974 133.983 19.974ZM132.129 26.976C132.657 26.976 133.083 26.772 133.407 26.364C133.743 25.956 133.911 25.41 133.911 24.726C133.911 24.258 133.779 23.886 133.515 23.61C133.263 23.322 132.909 23.178 132.453 23.178C131.925 23.178 131.493 23.382 131.157 23.79C130.833 24.198 130.671 24.744 130.671 25.428C130.671 25.896 130.797 26.274 131.049 26.562C131.313 26.838 131.673 26.976 132.129 26.976Z" fill="black"/>
<path d="M144.047 30.18C142.967 30.18 142.025 29.994 141.221 29.622C140.417 29.238 139.793 28.704 139.349 28.02C138.917 27.336 138.701 26.538 138.701 25.626C138.701 24.558 138.965 23.598 139.493 22.746C140.021 21.882 140.747 21.204 141.671 20.712C142.607 20.22 143.663 19.974 144.839 19.974C145.919 19.974 146.861 20.166 147.665 20.55C148.469 20.922 149.087 21.45 149.519 22.134C149.963 22.818 150.185 23.616 150.185 24.528C150.185 25.596 149.921 26.562 149.393 27.426C148.865 28.278 148.133 28.95 147.197 29.442C146.273 29.934 145.223 30.18 144.047 30.18ZM144.281 26.976C144.809 26.976 145.235 26.772 145.559 26.364C145.895 25.956 146.063 25.41 146.063 24.726C146.063 24.258 145.931 23.886 145.667 23.61C145.415 23.322 145.061 23.178 144.605 23.178C144.077 23.178 143.645 23.382 143.309 23.79C142.985 24.198 142.823 24.744 142.823 25.428C142.823 25.896 142.949 26.274 143.201 26.562C143.465 26.838 143.825 26.976 144.281 26.976Z" fill="black"/>
<path d="M152.432 20.154H156.482L155.528 24.6L159.83 20.154H163.628L161.648 30H157.598L158.552 25.536L154.268 30H150.452L152.432 20.154Z" fill="black"/>
<path d="M171.612 24.978C172.044 25.182 172.374 25.452 172.602 25.788C172.842 26.124 172.962 26.508 172.962 26.94C172.962 27.552 172.716 28.11 172.224 28.614C171.732 29.118 171.054 29.514 170.19 29.802C169.338 30.09 168.372 30.234 167.292 30.234C165.888 30.234 164.466 29.964 163.026 29.424L164.268 26.796C164.7 26.964 165.198 27.102 165.762 27.21C166.338 27.306 166.902 27.354 167.454 27.354C168.606 27.354 169.182 27.102 169.182 26.598C169.182 26.442 169.128 26.334 169.02 26.274C168.924 26.202 168.75 26.166 168.498 26.166H166.248L166.608 23.898H168.48C169.128 23.898 169.452 23.706 169.452 23.322C169.452 23.13 169.362 22.992 169.182 22.908C169.014 22.824 168.726 22.782 168.318 22.782C167.886 22.782 167.454 22.836 167.022 22.944C166.602 23.052 166.086 23.238 165.474 23.502L164.682 20.676C166.026 20.184 167.37 19.938 168.714 19.938C169.602 19.938 170.394 20.052 171.09 20.28C171.786 20.508 172.326 20.832 172.71 21.252C173.106 21.672 173.304 22.158 173.304 22.71C173.304 23.202 173.154 23.646 172.854 24.042C172.554 24.438 172.14 24.75 171.612 24.978Z" fill="black"/>
<path d="M182.981 24.924C183.761 25.332 184.151 25.998 184.151 26.922C184.151 27.882 183.749 28.638 182.945 29.19C182.141 29.73 181.007 30 179.543 30H173.585L175.565 20.154H180.947C182.147 20.154 183.077 20.37 183.737 20.802C184.397 21.222 184.727 21.822 184.727 22.602C184.727 23.118 184.577 23.58 184.277 23.988C183.977 24.384 183.545 24.696 182.981 24.924ZM178.337 24.042H179.939C180.251 24.042 180.497 23.97 180.677 23.826C180.857 23.67 180.947 23.472 180.947 23.232C180.947 23.028 180.881 22.872 180.749 22.764C180.617 22.656 180.437 22.602 180.209 22.602H178.625L178.337 24.042ZM179.597 27.48C179.909 27.48 180.155 27.408 180.335 27.264C180.515 27.108 180.605 26.91 180.605 26.67C180.605 26.466 180.539 26.31 180.407 26.202C180.275 26.094 180.095 26.04 179.867 26.04H177.941L177.653 27.48H179.597Z" fill="black"/>
<path d="M190.593 30.18C189.513 30.18 188.571 29.994 187.767 29.622C186.963 29.238 186.339 28.704 185.895 28.02C185.463 27.336 185.247 26.538 185.247 25.626C185.247 24.558 185.511 23.598 186.039 22.746C186.567 21.882 187.293 21.204 188.217 20.712C189.153 20.22 190.209 19.974 191.385 19.974C192.465 19.974 193.407 20.166 194.211 20.55C195.015 20.922 195.633 21.45 196.065 22.134C196.509 22.818 196.731 23.616 196.731 24.528C196.731 25.596 196.467 26.562 195.939 27.426C195.411 28.278 194.679 28.95 193.743 29.442C192.819 29.934 191.769 30.18 190.593 30.18ZM190.827 26.976C191.355 26.976 191.781 26.772 192.105 26.364C192.441 25.956 192.609 25.41 192.609 24.726C192.609 24.258 192.477 23.886 192.213 23.61C191.961 23.322 191.607 23.178 191.151 23.178C190.623 23.178 190.191 23.382 189.855 23.79C189.531 24.198 189.369 24.744 189.369 25.428C189.369 25.896 189.495 26.274 189.747 26.562C190.011 26.838 190.371 26.976 190.827 26.976Z" fill="black"/>
<path d="M208.344 26.814H209.658L208.632 31.944H204.87L205.248 30H199.812L199.434 31.944H195.672L196.698 26.814H196.842C197.922 26.814 198.72 25.698 199.236 23.466L200.028 20.154H209.676L208.344 26.814ZM202.692 24.474C202.548 25.11 202.416 25.602 202.296 25.95C202.176 26.286 202.008 26.574 201.792 26.814H204.294L204.978 23.322H202.962L202.782 24.096L202.692 24.474Z" fill="black"/>
<path d="M212.18 20.154H216.23L215.276 24.6L219.578 20.154H223.376L221.396 30H217.346L218.3 25.536L214.016 30H210.2L212.18 20.154Z" fill="black"/>
<path d="M233.952 23.322H230.91L229.614 30H225.564L226.86 23.322H223.89L224.538 20.154H234.6L233.952 23.322Z" fill="black"/>
<path d="M244.923 24.312C244.923 24.852 244.851 25.422 244.707 26.022H237.813C237.897 26.43 238.095 26.724 238.407 26.904C238.719 27.084 239.151 27.174 239.703 27.174C240.519 27.174 241.233 26.946 241.845 26.49L243.537 28.956C242.337 29.772 240.903 30.18 239.235 30.18C238.167 30.18 237.219 29.994 236.391 29.622C235.575 29.25 234.939 28.722 234.483 28.038C234.039 27.354 233.817 26.55 233.817 25.626C233.817 24.546 234.069 23.58 234.573 22.728C235.089 21.864 235.809 21.192 236.733 20.712C237.657 20.22 238.719 19.974 239.919 19.974C240.951 19.974 241.845 20.16 242.601 20.532C243.357 20.892 243.933 21.402 244.329 22.062C244.725 22.71 244.923 23.46 244.923 24.312ZM239.739 22.746C239.295 22.746 238.923 22.866 238.623 23.106C238.335 23.334 238.119 23.652 237.975 24.06H241.197C241.197 23.652 241.065 23.334 240.801 23.106C240.537 22.866 240.183 22.746 239.739 22.746Z" fill="black"/>
<path d="M257.657 20.154L255.695 30H251.627L252.977 23.322H251.105L250.799 24.6C250.439 26.1 250.067 27.252 249.683 28.056C249.299 28.86 248.837 29.43 248.297 29.766C247.769 30.102 247.085 30.27 246.245 30.27C245.645 30.27 245.003 30.18 244.319 30L245.147 26.706C245.387 26.73 245.531 26.742 245.579 26.742C246.023 26.742 246.365 26.574 246.605 26.238C246.845 25.89 247.067 25.29 247.271 24.438L248.279 20.154H257.657Z" fill="black"/>
<path d="M269.363 20.154L267.401 30H263.801L264.287 27.498H263.351L261.389 30H256.907L259.715 26.85C259.235 26.574 258.869 26.22 258.617 25.788C258.365 25.356 258.239 24.876 258.239 24.348C258.239 23.028 258.749 22.002 259.769 21.27C260.801 20.526 262.223 20.154 264.035 20.154H269.363ZM263.639 23.304C262.823 23.304 262.415 23.634 262.415 24.294C262.415 24.738 262.715 24.96 263.315 24.96H264.809L265.133 23.304H263.639Z" fill="black"/>
</svg>
