<svg width="17" height="19" viewBox="0 0 17 19" fill="none" xmlns="http://www.w3.org/2000/svg">
<path d="M15.2147 6.80322C15.2147 6.80322 14.7102 13.061 14.4175 15.6969C14.2781 16.9559 13.5004 17.6937 12.2266 17.7169C9.80247 17.7606 7.37556 17.7633 4.95237 17.7122C3.72683 17.6872 2.96215 16.9401 2.82557 15.7034C2.53103 13.0442 2.0293 6.80322 2.0293 6.80322" stroke="#1F1F1F" stroke-linecap="round" stroke-linejoin="round"/>
<path d="M16.5005 3.80319H0.744141" stroke="#1F1F1F" stroke-linecap="round" stroke-linejoin="round"/>
<path d="M13.4647 3.80329C12.7353 3.80329 12.1072 3.28762 11.9641 2.57311L11.7383 1.44328C11.599 0.922029 11.127 0.561523 10.589 0.561523H6.65596C6.11799 0.561523 5.64598 0.922029 5.50661 1.44328L5.28083 2.57311C5.13774 3.28762 4.50965 3.80329 3.78027 3.80329" stroke="#1F1F1F" stroke-linecap="round" stroke-linejoin="round"/>
</svg>
