<svg width="406" height="262" viewBox="0 0 406 262" fill="none" xmlns="http://www.w3.org/2000/svg">
<path d="M20.1444 98.5774C-9.36225 138.773 -0.280669 134.756 26.3584 166.42C42.3546 181.073 31.5721 205.522 32.8325 214.973H376.406C373.864 213.862 393.978 192.315 393.978 192.315C393.978 192.315 409.787 162.947 381.03 121.565C362.071 94.283 399.527 83.1851 394.683 60.5163C385.231 16.2799 336.215 -8.473 232.585 2.6517C128.956 13.7764 106.599 -6.26385 53.4061 2.65089C0.21346 11.5656 53.4056 53.2666 20.1444 98.5774Z" fill="#F5FAFF"/>
<path d="M244.711 216.151H247.988V198.51H242.818L244.711 216.151Z" fill="#005BBA"/>
<path d="M97.0816 216.151H93.8086V198.51H98.9746L97.0816 216.151Z" fill="#005BBA"/>
<path d="M250.048 197.322C250.048 199.302 248.506 200.906 246.602 200.906H95.132C93.2317 200.906 91.6856 199.302 91.6856 197.322L90.6523 191.946C90.6523 189.97 92.1949 188.363 94.0988 188.363H247.635C249.539 188.363 251.081 189.97 251.081 191.946L250.048 197.322Z" fill="#A3D1FF"/>
<path d="M243.715 176.441C243.715 178.995 247.595 181.271 247.595 181.271L92.9062 181.065C92.9062 181.065 96.4972 178.995 96.4972 176.441L93.0508 139.596C93.0508 137.046 94.4235 134.976 96.1143 134.976H244.528C246.222 134.976 247.595 137.046 247.595 139.596L243.715 176.441Z" fill="#4FA5FF"/>
<path d="M242.642 181.271L97.8555 181.083C97.8555 181.083 97.8627 181.08 97.8771 181.069L242.631 181.264C242.638 181.268 242.642 181.271 242.642 181.271Z" fill="white"/>
<path d="M242.631 181.264L97.877 181.069C98.1515 180.903 100.995 179.093 100.995 176.885L97.9817 143.432C97.9817 141.113 99.1811 139.235 100.662 139.235H239.965C241.442 139.235 242.642 141.113 242.642 143.432L239.253 176.885C239.253 179.125 242.425 181.134 242.631 181.264Z" fill="#A3D1FF"/>
<path d="M245.442 176.81H96.6092C96.2804 179.19 92.9062 181.065 92.9062 181.065L249.444 181.271C249.444 181.271 245.796 179.208 245.442 176.81Z" fill="#4FA5FF"/>
<path d="M251.832 190.021C251.832 192 250.225 193.604 248.249 193.604H92.9063C90.9266 193.604 89.3262 192 89.3262 190.021V184.645C89.3262 182.669 90.9266 181.065 92.9063 181.065H248.249C250.225 181.065 251.832 182.669 251.832 184.645V190.021Z" fill="#A3D1FF"/>
<path d="M98.3355 180.068H109.628L105.647 158.154C105.478 157.233 103.921 156.604 102.165 156.748L98.9424 157.077C97.6599 157.077 88.8379 161.185 88.8379 161.185L98.3355 180.068Z" fill="#4FA5FF"/>
<path d="M95.4134 186.303C93.654 186.448 92.0934 185.819 91.9272 184.898L87.8738 162.587C87.7076 161.669 88.9937 160.802 90.7495 160.657L95.5217 160.264C97.2775 160.115 98.8345 160.748 99.0043 161.669L103.058 183.98C103.22 184.898 101.934 185.765 100.178 185.91L95.4134 186.303Z" fill="#A3D1FF"/>
<path d="M242.751 180.068H231.299L235.334 158.154C235.504 157.233 237.086 156.604 238.864 156.748L242.133 157.077C243.43 157.077 252.378 161.185 252.378 161.185L242.751 180.068Z" fill="#4FA5FF"/>
<path d="M245.713 186.303C247.494 186.448 249.076 185.819 249.243 184.898L253.357 162.587C253.524 161.669 252.219 160.802 250.438 160.657L245.601 160.264C243.824 160.115 242.241 160.748 242.072 161.669L237.964 183.98C237.794 184.898 239.098 185.765 240.879 185.91L245.713 186.303Z" fill="#A3D1FF"/>
<path d="M369.576 180.399C369.537 185.993 369.537 191.588 369.499 197.182C369.461 202.463 369.42 207.742 369.382 213.021C369.382 213.809 369.303 214.598 369.344 215.384C369.344 215.779 369.069 215.962 368.563 216.041C368.291 216.094 368.016 216.12 367.744 216.12C366.184 216.2 365.716 215.911 365.716 214.887C365.678 213.363 365.678 211.865 365.678 210.341C365.678 209.816 365.561 209.344 365.327 208.871C364.584 207.296 363.844 205.719 363.141 204.144C362.986 203.776 362.714 203.697 362.205 203.697C333.192 203.697 304.176 203.697 275.16 203.697C274.575 203.697 274.341 203.828 274.185 204.195C273.483 205.772 272.743 207.321 272.002 208.871C271.728 209.396 271.611 209.948 271.651 210.5C271.651 212.022 271.651 213.546 271.611 215.095C271.611 215.937 271.455 215.99 270.209 216.12C269.817 216.173 269.428 216.147 269.038 216.094C268.14 215.99 267.985 215.858 267.985 215.254C267.83 209.527 267.947 203.776 267.83 198.049C267.713 192.192 267.751 186.335 267.713 180.478C267.713 180.057 267.906 179.953 268.491 180.006C269.428 180.085 270.364 180.11 271.26 179.874C271.534 179.821 271.651 179.9 271.689 180.085C271.689 180.268 271.689 180.425 271.689 180.61C271.689 187.438 271.689 194.294 271.689 201.122C271.689 201.254 271.689 201.385 271.689 201.49C271.689 201.622 271.572 201.832 271.962 201.858C272.275 201.885 272.353 201.727 272.392 201.569C272.743 200.729 273.132 199.888 273.483 199.022C276.137 192.955 278.709 186.86 281.479 180.82C281.947 179.796 281.947 179.796 283.545 179.796C283.975 179.796 284.403 179.796 284.794 179.796C285.301 179.796 285.456 179.9 285.301 180.242C284.677 181.634 284.092 183.026 283.428 184.392C280.815 190.012 278.202 195.633 275.59 201.254C275.317 201.858 275.317 201.858 276.254 201.858C290.409 201.858 304.565 201.858 318.723 201.858C332.8 201.858 346.841 201.858 360.918 201.858C362.167 201.858 362.129 201.963 361.737 201.122C358.58 194.319 355.341 187.544 352.301 180.741C351.833 179.69 351.754 179.796 353.354 179.796C353.781 179.796 354.211 179.821 354.601 179.796C355.265 179.717 355.499 179.926 355.692 180.321C357.605 184.365 359.32 188.462 361.114 192.534C362.401 195.501 363.688 198.47 364.976 201.411C365.014 201.517 365.052 201.622 365.131 201.727C365.21 201.858 365.365 201.885 365.52 201.858C365.678 201.832 365.716 201.727 365.716 201.649C365.716 201.517 365.716 201.385 365.716 201.28C365.716 194.398 365.716 187.517 365.716 180.635C365.716 180.452 365.716 180.293 365.716 180.11C365.716 179.953 365.871 179.847 366.146 179.9C367.08 180.11 368.016 180.11 368.993 180.032C369.344 179.953 369.576 180.006 369.576 180.399Z" fill="#C9E4FF"/>
<path d="M373.592 179.953C373.592 180.425 373.399 180.583 372.735 180.531C372.19 180.504 371.605 180.531 371.058 180.531C370.628 180.531 370.16 180.453 370.005 180.899C369.888 181.188 369.343 181.188 368.952 181.161C368.056 181.082 367.196 181.188 366.301 181.188C365.794 181.188 365.286 181.135 365.209 180.714C365.169 180.557 365.051 180.557 364.858 180.557C364.662 180.557 364.466 180.557 364.311 180.557C333.853 180.557 303.394 180.557 272.938 180.557C272.508 180.557 272.002 180.453 271.923 180.95C271.885 181.135 271.572 181.214 271.3 181.214C270.129 181.214 268.959 181.188 267.829 181.161C267.555 181.161 267.244 181.109 267.204 180.925C267.127 180.531 266.736 180.583 266.346 180.583C265.723 180.583 265.059 180.557 264.436 180.583C263.695 180.557 263.578 180.347 263.578 179.953C263.616 177.248 263.578 174.543 263.578 171.81C263.578 170.498 263.616 169.185 263.578 167.897C263.578 167.451 263.772 167.345 264.397 167.345C282.453 167.345 300.509 167.345 318.605 167.345C336.661 167.345 354.679 167.345 372.735 167.345C373.437 167.345 373.633 167.424 373.633 167.923C373.592 171.942 373.592 175.935 373.592 179.953ZM270.714 215.595C269.933 215.831 269.193 215.805 268.412 215.595C268.219 215.544 268.063 215.333 267.789 215.463C267.516 215.622 267.595 215.831 267.712 216.041C267.906 216.436 268.453 216.619 269.74 216.619C270.051 216.619 270.597 216.568 271.142 216.462C271.61 216.358 271.885 215.884 271.651 215.595C271.338 215.202 271.027 215.516 270.714 215.595ZM368.913 215.544C368.094 215.884 367.237 215.858 366.379 215.569C366.145 215.491 365.95 215.333 365.677 215.463C365.403 215.595 365.481 215.805 365.52 215.99C365.56 216.279 365.832 216.462 366.222 216.515C366.69 216.568 367.196 216.619 367.664 216.647C368.056 216.619 368.407 216.619 368.758 216.515C369.226 216.383 369.499 216.147 369.499 215.78C369.499 215.463 369.42 215.333 368.913 215.544Z" fill="#4FA5FF"/>
<path d="M317.902 178.955C317.902 179.401 317.668 179.48 317.083 179.48C308.581 179.48 300.04 179.48 291.538 179.48C283.037 179.48 274.573 179.48 266.073 179.48C265.447 179.48 265.254 179.376 265.254 178.929C265.292 175.514 265.292 172.126 265.254 168.711C265.254 168.265 265.447 168.186 266.033 168.186C283.076 168.186 300.078 168.186 317.121 168.186C317.745 168.186 317.902 168.291 317.902 168.711C317.902 172.152 317.902 175.54 317.902 178.955ZM371.681 168.79C371.681 168.318 371.487 168.212 370.823 168.212C353.976 168.212 337.09 168.212 320.243 168.212C319.541 168.212 319.307 168.318 319.307 168.817C319.345 172.178 319.345 175.567 319.307 178.929C319.307 179.35 319.462 179.48 320.126 179.48C328.588 179.454 337.05 179.48 345.514 179.48C353.938 179.48 362.361 179.48 370.785 179.48C371.447 179.48 371.681 179.401 371.681 178.902C371.642 175.54 371.642 172.152 371.681 168.79Z" fill="#C9E4FF"/>
<path d="M292.671 173.571C292.671 174.568 291.422 175.357 289.979 175.357C288.498 175.357 287.328 174.568 287.366 173.597C287.366 172.598 288.615 171.759 290.02 171.759C291.462 171.784 292.671 172.598 292.671 173.571ZM345.319 171.784C343.915 171.759 342.668 172.598 342.628 173.597C342.589 174.568 343.719 175.357 345.24 175.382C346.724 175.41 347.932 174.621 347.97 173.623C348.011 172.626 346.8 171.784 345.319 171.784Z" fill="#4FA5FF"/>
<path d="M375.944 214.973L405.076 261.677H0.925781L32.8324 214.973H375.944Z" fill="#FFDFBF"/>
<path d="M10.4126 247.804H396.418L397.008 248.729H9.76953L10.4126 247.804Z" fill="#F7CDA3"/>
<path d="M17.9913 236.706H389.498L390.082 237.631H17.3555L17.9913 236.706Z" fill="#F7CDA3"/>
<path d="M24.3099 227.458H383.731L384.307 228.383H23.6699L24.3099 227.458Z" fill="#F7CDA3"/>
<path d="M29.3618 220.06H379.112L379.694 220.984H28.7246L29.3618 220.06Z" fill="#F7CDA3"/>
<path d="M57.8667 123.031C57.3378 120.834 56.3447 118.725 56.1844 116.469C55.8924 112.341 58.4195 108.256 57.5173 104.216C57.0794 102.268 55.8804 100.579 54.581 99.0614C53.3031 97.5657 51.8696 96.1538 50.125 95.242C48.3805 94.3302 46.2793 93.9641 44.4175 94.6078C39.672 96.2471 40.2654 102.785 41.6271 106.497C42.5078 108.895 43.6636 111.24 43.9221 113.779C44.2117 116.605 43.3645 119.458 43.6636 122.284C44.0681 126.106 46.509 129.396 49.175 132.163C49.8187 132.826 50.5127 133.496 51.3958 133.773C53.1427 134.321 54.9902 133.142 56.1174 131.699C57.6729 129.7 58.4171 127.089 58.1419 124.572C58.0869 124.053 57.9888 123.538 57.8667 123.031Z" fill="#C5DC99"/>
<path d="M78.2015 115.255C76.6867 114.056 74.6166 113.554 72.817 114.228C70.2851 115.176 68.9522 117.957 68.3419 120.592C67.7293 123.227 67.5594 126.031 66.236 128.391C65.073 130.466 63.1154 131.98 61.9954 134.079C60.7295 136.451 60.7223 139.464 60.3466 142.077C60.258 142.699 60.1719 143.352 60.3849 143.944C60.9161 145.411 62.9263 145.676 64.422 145.229C66.571 144.587 68.4042 142.965 69.3087 140.914C70.0697 139.184 70.1798 137.231 70.8667 135.472C72.6184 130.992 77.7014 128.587 79.757 124.239C80.8674 121.889 80.9344 118.969 79.5584 116.763C79.1994 116.188 78.7328 115.676 78.2015 115.255Z" fill="#C5DC99"/>
<path d="M47.9342 146.296C47.58 143.845 46.8716 141.436 45.9431 139.138C44.3924 135.3 42.241 131.734 40.0393 128.228C39.3118 127.065 38.5006 125.845 37.2394 125.306C34.7984 124.265 32.2163 126.364 31.6587 128.664C30.9264 131.686 32.1995 134.953 33.6474 137.559C35.2101 140.375 37.2131 142.974 38.333 145.994C39.2711 148.519 39.5846 151.319 41.0708 153.564C42.1094 155.131 44.0837 156.39 45.8187 155.667C47.4292 154.993 47.9892 152.999 48.1208 151.254C48.2453 149.598 48.1711 147.938 47.9342 146.296Z" fill="#C5DC99"/>
<path d="M81.8928 156.948C81.8042 156.037 81.5051 155.177 80.7249 154.78C79.6576 154.239 78.4108 154.936 77.3842 155.548C74.7589 157.116 71.8992 158.274 69.3458 159.952C65.4809 162.488 62.3316 167.004 63.0687 171.829C63.162 172.427 63.3558 173.083 63.8847 173.384C64.2173 173.573 64.6218 173.583 65.0047 173.544C69.0801 173.147 71.344 168.514 75.0844 166.853C76.4461 166.248 77.9968 166.044 79.2149 165.188C81.3424 163.692 81.7779 160.76 81.9095 158.162C81.9287 157.772 81.9311 157.355 81.8928 156.948Z" fill="#C5DC99"/>
<path d="M56.8082 186.346C56.624 186.346 56.4612 186.209 56.4325 186.022C56.4229 185.963 55.4131 179.949 50.0932 170.955C47.7097 166.926 46.4102 161.496 46.4341 155.666C46.4581 149.42 38.5417 134.241 38.4603 134.087C38.3646 133.901 38.4364 133.671 38.623 133.573C38.8097 133.475 39.0418 133.547 39.14 133.733C39.4702 134.363 47.2239 149.236 47.1975 155.668C47.176 161.362 48.4372 166.653 50.7537 170.565C56.1549 179.7 57.1481 185.652 57.1887 185.9C57.2198 186.109 57.0787 186.307 56.8705 186.338C56.8489 186.343 56.8298 186.346 56.8082 186.346Z" fill="#153B72"/>
<path d="M58.1653 189.525C58.1486 189.525 58.1294 189.525 58.1127 189.523C57.9045 189.494 57.7561 189.3 57.7848 189.092C57.7896 189.071 58.0672 187.06 58.8234 183.665C59.5796 180.262 60.7235 175.124 64.2964 171.582C67.7329 168.179 73.1078 162.55 73.1605 162.493C73.3065 162.34 73.5506 162.335 73.7013 162.481C73.8545 162.627 73.8593 162.869 73.7133 163.022C73.6606 163.079 68.2786 168.715 64.8349 172.125C61.4223 175.509 60.3071 180.515 59.5701 183.83C58.821 187.19 58.5482 189.176 58.5434 189.195C58.5171 189.387 58.3544 189.525 58.1653 189.525Z" fill="#153B72"/>
<path d="M59.9237 189.524C59.761 189.524 59.6102 189.419 59.56 189.256C59.5432 189.201 57.9159 183.877 57.7795 177.935C57.6718 173.046 58.3132 168.066 58.9354 163.248L59.0119 162.645C59.4068 159.594 59.8352 156.863 60.3234 154.298C60.723 152.202 61.5654 150.206 62.3814 148.277C62.7571 147.382 63.1472 146.458 63.4822 145.546C64.26 143.433 64.832 141.198 65.3824 139.037C65.6025 138.173 65.8227 137.312 66.0548 136.457C67.5481 130.963 72.2912 125.16 72.4923 124.916C72.6263 124.75 72.868 124.726 73.0307 124.863C73.1934 124.997 73.2174 125.236 73.0834 125.401C73.0355 125.459 68.2421 131.324 66.7919 136.658C66.5622 137.51 66.342 138.367 66.1242 139.226C65.5666 141.406 64.9923 143.661 64.2002 145.81C63.8604 146.738 63.4655 147.672 63.085 148.574C62.2857 150.467 61.4577 152.424 61.0748 154.442C60.589 156.99 60.1654 159.706 59.7729 162.743L59.694 163.346C59.0766 168.135 58.4376 173.086 58.5477 177.916C58.6793 183.75 60.2731 188.976 60.2899 189.029C60.3521 189.23 60.2396 189.445 60.0386 189.508C60.0003 189.52 59.962 189.524 59.9237 189.524Z" fill="#153B72"/>
<path d="M56.8115 189.496C56.8091 189.496 56.8067 189.496 56.8044 189.496C56.5938 189.492 56.4239 189.319 56.4286 189.106C56.431 188.853 56.8187 163.488 55.4738 154.244C54.8372 149.871 54.6147 145.269 54.416 141.208C54.1815 136.355 53.9781 132.162 53.1908 129.176C51.6089 123.176 51.0466 116.832 51.6927 112.206C52.3364 107.576 50.1396 104.572 50.118 104.544C49.9936 104.374 50.0271 104.134 50.1946 104.008C50.3645 103.881 50.6038 103.914 50.7307 104.082C50.8288 104.213 53.1405 107.356 52.4513 112.312C51.8195 116.844 52.3723 123.073 53.9302 128.98C54.7391 132.045 54.9449 136.274 55.1818 141.17C55.3781 145.214 55.5982 149.797 56.23 154.134C57.5845 163.438 57.1968 188.865 57.1944 189.118C57.1896 189.329 57.0197 189.496 56.8115 189.496Z" fill="#153B72"/>
<path d="M70.9776 184.927V213.621C70.9776 214.839 69.9916 215.827 68.7711 215.827H45.5365C44.316 215.827 43.3301 214.839 43.3301 213.621V184.927C43.3301 183.709 44.316 182.721 45.5365 182.721H68.7711C69.9916 182.721 70.9776 183.709 70.9776 184.927Z" fill="#C9E4FF"/>
<path d="M256.452 154.202C256.452 154.202 254.749 173.545 253.182 175.065C251.618 176.582 257.021 171.494 257.021 171.494C257.021 171.494 247.626 166.726 248.011 165.663C248.063 165.527 249.552 165.848 249.601 165.664C249.781 164.986 253.022 165.48 252.782 165.134C252.206 164.303 239.788 159.523 239.788 159.523L242.324 147.92C242.324 147.92 249.083 154.853 250.26 154.959C251.439 155.068 256.452 154.202 256.452 154.202Z" fill="#FD9783"/>
<path d="M219.775 157.594C219.377 157.478 219.041 157.296 218.79 157.032C218.448 156.665 218.3 156.155 217.893 155.842C217.193 155.297 215.776 155.348 215.591 154.483C215.482 153.98 215.874 153.357 216.327 152.842C216.915 152.181 217.835 151.369 218.118 150.618C218.286 150.177 218.022 149.827 217.961 149.426C217.868 148.815 218.277 148.06 218.899 147.495C219.527 146.931 220.336 146.542 221.132 146.315C221.679 146.158 222.366 145.975 222.597 145.51C222.682 145.339 222.674 145.168 222.683 145.001C222.698 144.367 222.92 143.664 223.426 143.046C223.935 142.43 224.759 141.923 225.518 141.858C226.437 141.782 227.448 141.468 228.386 141.155C228.528 141.108 228.679 141.052 228.797 140.952C228.924 140.841 228.982 140.697 229.067 140.567C229.462 139.956 230.398 139.702 231.073 139.763C231.748 139.821 232.319 140.084 233.023 140.072C233.647 140.064 234.33 139.836 234.953 139.834C235.934 139.829 236.594 140.371 237.169 140.909C238.156 141.841 239.073 142.833 239.912 143.873C240.383 144.457 241.352 145.384 241.169 146.276C240.995 147.125 240.07 147.984 239.377 148.68C238.903 149.154 238.405 149.612 237.864 150.032C236.793 150.859 235.588 151.515 234.397 152.163C232.212 153.351 230.028 154.538 227.792 155.595C226.648 156.137 225.487 156.651 224.318 157.096C222.911 157.63 221.045 157.964 219.775 157.594Z" fill="#08294A"/>
<path d="M226.822 152.577C226.953 152.895 227.335 153.204 227.559 153.445C227.877 153.781 228.198 154.114 228.521 154.443C229.379 155.309 230.267 156.152 231.194 156.953C232.236 157.85 233.331 158.712 234.536 159.422C235.428 159.947 236.491 160.503 237.628 160.483C241.497 160.418 244.92 156.265 244.803 153.072C244.7 150.362 242.534 146.839 242.534 146.839C242.534 146.839 243.825 145.123 242.416 143.679C241.75 142.998 240.76 142.189 239.643 142.354C239.26 142.409 238.839 142.626 238.653 142.985C238.4 143.481 238.787 144.382 238.903 144.877C238.953 145.094 239.408 145.918 239.01 146.031C238.872 146.067 238.737 146.018 238.62 145.958C237.775 145.544 237.223 144.723 236.334 144.391C236.192 144.337 236.037 144.297 235.877 144.308C235.579 144.331 235.311 144.502 235.045 144.672C234.86 144.789 234.676 144.908 234.48 144.974C233.619 145.272 232.762 145.57 232.502 146.422C232.292 147.117 232.163 148.1 231.548 148.639C231.247 148.898 230.847 148.967 230.447 149.036C230.043 149.104 229.636 149.174 229.331 149.445C229.158 149.6 229.054 149.808 228.916 149.99C228.656 150.333 228.218 150.631 227.783 150.689C227.472 150.732 227.141 150.589 226.869 150.843C226.75 150.955 226.77 151.129 226.791 151.276C226.841 151.622 226.844 151.981 226.798 152.337C226.789 152.394 226.782 152.453 226.796 152.505C226.804 152.53 226.812 152.554 226.822 152.577Z" fill="#FD9783"/>
<path d="M231.938 154.598C231.871 154.633 231.794 154.644 231.715 154.632C231.636 154.619 231.559 154.583 231.493 154.528L230.493 153.696C230.401 153.618 230.337 153.509 230.314 153.392C230.291 153.274 230.311 153.159 230.371 153.07C230.43 152.981 230.523 152.927 230.63 152.919C230.737 152.911 230.848 152.95 230.94 153.027L231.939 153.859C231.985 153.897 232.025 153.944 232.056 153.996C232.087 154.048 232.109 154.105 232.12 154.163C232.132 154.222 232.133 154.28 232.123 154.335C232.113 154.391 232.092 154.441 232.062 154.485C232.031 154.535 231.989 154.573 231.938 154.598Z" fill="#080C53"/>
<path d="M234.701 151.715C234.641 151.748 234.571 151.76 234.499 151.75C234.426 151.74 234.356 151.708 234.294 151.658L233.377 150.886C233.335 150.852 233.298 150.81 233.269 150.763C233.24 150.716 233.219 150.664 233.208 150.611C233.197 150.558 233.195 150.505 233.204 150.454C233.212 150.404 233.23 150.357 233.256 150.316C233.311 150.236 233.396 150.187 233.494 150.179C233.592 150.172 233.694 150.207 233.778 150.277L234.698 151.037C234.781 151.108 234.84 151.208 234.861 151.315C234.882 151.422 234.864 151.528 234.811 151.61C234.785 151.656 234.747 151.693 234.701 151.715Z" fill="#080C53"/>
<path d="M236.15 157.676C235.857 157.528 235.819 157.14 236.057 156.918L237.917 155.18C238.183 154.932 238.613 155.043 238.699 155.395C238.881 156.137 239.057 157.231 238.676 157.715C238.168 158.361 237.16 158.189 236.15 157.676Z" fill="white"/>
<path d="M313.489 168.327C313.489 168.327 320.209 170.025 321.231 171.044C322.253 172.066 328.453 183.58 327.286 191.235C326.119 198.886 318.023 210.476 318.023 210.476C318.023 210.476 312.261 210.331 306.427 210.985C300.592 211.642 297.966 212.882 297.966 212.882L296.871 216.162C296.871 216.162 286.344 214.048 284.498 213.973C284.498 213.973 285.423 207.997 287.392 203.333C289.361 198.669 291.911 190.227 291.911 190.227L313.489 168.327Z" fill="#FFDFBF"/>
<path d="M248.924 153.505C248.924 153.505 255.301 151.876 259.676 153.042C264.05 154.206 305.184 165.578 305.184 165.578L313.681 167.818C313.681 167.818 310.292 176.947 307.116 182.85C303.945 188.757 300.336 194.002 300.336 194.002C300.336 194.002 295.191 191.817 289.722 189.194C284.252 186.567 265.329 183.616 265.329 183.616L265.001 180.556L254.062 182.413V190.397L241.219 185.364C241.219 185.364 244.651 169.111 244.871 165.101L248.924 153.505Z" fill="#005BBA"/>
<path d="M286.739 214.269C286.739 214.269 286.721 214.345 286.685 214.482C286.233 216.27 283.101 228.781 283.05 229.59C282.996 230.464 284.495 232.216 284.495 232.216H344.804L339.833 223.857C339.833 223.857 337.532 220.407 336.109 220.407C334.685 220.407 333.977 223.289 330.914 223.242C327.85 223.195 296.872 216.162 296.872 216.162L286.739 214.269Z" fill="#DF8568"/>
<path d="M297.967 212.881C297.967 212.881 291.62 230.301 291.692 230.594C291.768 230.883 292.205 232.415 292.642 232.415C293.079 232.415 364.772 232.415 364.772 232.415C364.772 232.415 365.429 231.721 365.321 231.176C365.209 230.63 364.006 228.824 362.857 228.715C361.708 228.607 360.068 228.99 360.068 228.99C360.068 228.99 356.676 230.301 352.738 227.13C348.8 223.961 347.926 220.789 347.106 220.681C346.286 220.569 344.151 219.695 343.385 220.078C342.619 220.461 340.596 224.286 338.519 224.341C336.438 224.395 332.937 223.633 325.553 220.298C318.169 216.964 314.997 216.689 312.754 216.743L317.074 210.465C317.074 210.465 305.608 209.894 297.967 212.881Z" fill="#FD9783"/>
<path d="M254.058 182.413C254.058 182.413 253.621 205.01 253.621 208.872C253.621 212.733 255.153 231.685 252.891 231.685C250.63 231.685 246.876 230.775 245.89 230.955C244.907 231.14 248.48 233.105 247.678 233.434C246.876 233.762 240.456 233.726 240.164 234.416C239.871 235.11 245.232 234.492 245.308 235.11C245.38 235.731 238.672 236.934 239.145 237.697C239.618 238.462 246.8 236.895 247.53 237.007C248.26 237.115 243.921 239.557 244.615 240.066C245.308 240.576 251.031 237.187 251.435 237.881C251.833 238.571 248.845 240.323 249.39 240.832C249.939 241.342 254.715 237.223 256.356 236.678C257.996 236.132 259.675 234.893 259.639 231.978C259.6 229.062 259.928 219.55 260.441 214.446C260.951 209.345 263.028 201.82 264.014 195.259C264.997 188.699 265.163 184.873 265.326 183.616C265.492 182.359 264.997 180.556 264.997 180.556L254.058 182.413Z" fill="#FD9783"/>
<path d="M250.077 188.836C249.354 191.051 249.137 196.683 247.114 202.694C245.088 208.709 241.258 215.27 240.001 218.875C238.744 222.484 238.307 224.98 237.028 225.49C235.753 226.003 232.837 227.166 231.193 228.116C229.553 229.063 228.058 229.536 227.476 229.243C226.891 228.954 229.81 226.769 229.701 226.219C229.589 225.674 222.259 227.607 221.786 227.13C221.313 226.657 226.161 225.381 226.201 225.053C226.237 224.727 219.051 225.016 219.2 224.214C219.344 223.412 226.819 223.85 226.963 223.376C227.111 222.903 222.259 222.538 222.516 221.884C222.769 221.227 228.058 221.92 228.278 221.556C228.495 221.191 226.526 221.046 226.598 220.533C226.674 220.024 232.18 221.006 233.784 220.28C235.388 219.551 236.266 213.355 237.393 207.925C238.523 202.495 241.789 185.588 241.789 185.588L250.077 188.836Z" fill="#FD9783"/>
<path d="M274.9 116.27C274.9 116.27 272.657 110.468 273.805 104.76C274.954 99.0521 279.004 95.024 280.68 93.8571C282.356 92.6939 284.253 91.8521 284.072 90.9779C283.888 90.1036 279.842 92.1809 279.405 91.3066C278.968 90.4324 282.031 84.8942 281.117 84.4174C280.207 83.9441 278.856 89.009 278.09 89.0451C277.328 89.0849 278.639 82.9976 277.617 82.9615C276.598 82.9254 276.378 88.4635 275.756 88.608C275.138 88.7561 275.72 84.2367 274.774 84.1645C273.827 84.0886 274.553 88.9367 273.899 88.6839C273.242 88.4274 272.512 85.7287 271.855 85.8407C271.201 85.9491 273.35 90.2842 272.769 92.4012C272.183 94.5146 271.529 96.4438 270.214 99.7963C268.903 103.149 268.065 107.087 268.137 111.133C268.209 115.175 269.156 119.622 270.106 121.92L274.9 116.27Z" fill="#FD9783"/>
<path d="M292.185 110.973C292.185 110.973 291.766 108.036 291.365 106.508C290.964 104.976 290.415 101.443 289.833 101.443C289.248 101.443 286.55 101.331 282.467 100.822C278.381 100.312 273.056 102.498 271.637 105.121C271.637 105.121 273.205 104.174 274.079 104.174C274.079 104.174 272.475 107.306 272.984 109.384C273.497 111.465 276.481 111.801 276.481 111.801L289.721 113.632L292.185 110.973Z" fill="#08294A"/>
<path d="M279.762 108.154C279.762 108.154 277.472 108.339 276.432 109.459C276.432 109.459 276.815 113.155 278.238 116.435C279.658 119.712 282.559 121.373 283.978 121.171C283.978 121.171 285.019 123.649 282.504 122.992C282.504 122.992 283.05 126.381 286.551 126.381C290.051 126.381 292.186 121.518 292.186 121.518C292.186 121.518 290.434 121.464 290.434 118.621C290.434 115.778 290.98 114.3 290.98 114.3C290.98 114.3 293.115 114.845 293.714 111.731C294.318 108.617 292.349 107.851 291.146 108.534C289.943 109.217 289.722 110.857 289.722 110.857C289.722 110.857 289.394 110.579 287.974 109.759C286.551 108.939 286.235 108.155 286.235 108.155C286.235 108.155 284.465 107.063 279.762 108.154Z" fill="#FD9783"/>
<path d="M298.256 154.227C298.256 154.227 298.747 159.566 298.256 161.369C297.764 163.172 290.105 172.85 290.105 172.85C290.105 172.85 282.667 167.11 279.387 164.978C276.103 162.847 275.886 163.172 275.886 163.172L279.889 158.667L270.521 156.012C270.521 156.012 273.422 153.168 274.954 151.091C276.486 149.014 276.508 148.27 276.508 148.27L298.256 154.227Z" fill="#0089EE"/>
<path d="M303.544 116.089C303.544 116.089 306.098 112.259 306.351 107.924C306.608 103.586 306.171 98.4846 305.622 97.3177C305.076 96.1545 304.13 95.1682 302.815 94.5143C301.503 93.8568 299.57 92.8381 300.044 92.0361C300.517 91.2341 303.765 93.1271 304.494 92.7658C305.221 92.401 303.436 85.3672 304.274 85.2227C305.112 85.0746 305.99 90.8692 306.427 90.797C306.861 90.7247 306.825 84.2003 307.739 84.0558C308.649 83.9077 308.36 90.797 308.905 90.8692C309.451 90.9415 311.384 84.9301 312.258 85.5117C313.136 86.0969 310.766 90.7608 311.203 91.3425C311.64 91.9277 314.411 89.193 314.92 89.7023C315.43 90.2117 313.389 91.6351 312.623 93.5281C311.857 95.4247 310.947 97.1443 311.091 99.5467C311.239 101.949 311.604 105.63 311.055 110.511C310.509 115.395 308.978 119.658 307.883 121.591C306.788 123.524 305.04 125.565 305.04 125.565L303.544 116.089Z" fill="#FD9783"/>
<path d="M275.036 116.052C275.036 116.052 276.077 118.7 278.154 120.424C280.231 122.147 282.504 122.992 282.504 122.992C282.504 122.992 283.352 125.752 286.019 126.356C288.685 126.955 292.185 121.518 292.185 121.518C292.185 121.518 294.783 122.035 297.68 120.369C300.581 118.7 303.453 115.778 303.453 115.778L305.476 126.901C305.476 126.901 300.335 129.524 299.049 132.23C297.763 134.936 297.709 138.299 298.121 140.784C298.529 143.273 299.403 153.497 299.403 154.234C299.403 154.234 297.272 154.48 290.816 152.977C284.364 151.474 281.492 150.408 278.891 149.397C276.293 148.385 274.762 147.128 274.762 147.128C274.762 147.128 277.359 139.263 277.07 135.983C276.778 132.707 273.714 128.332 272.11 126.547C270.506 124.759 268.682 123.119 268.682 123.119L275.036 116.052Z" fill="#FBC331"/>
<path d="M279.888 158.664L281.734 155.683L278.818 158.364L279.888 158.664Z" fill="#0F449A"/>
<path d="M276.45 163.291C276.45 163.291 273.022 166.925 273.751 167.818C274.481 168.71 278.054 180.01 279.221 185.841C280.388 191.672 280.482 194.659 280.424 196.137C280.37 197.611 278.365 200.125 277.043 201.711C276.092 202.853 274.38 204.247 273.495 204.941C273.228 205.15 273.26 205.562 273.553 205.732L273.788 205.869C274.474 206.267 275.33 206.158 275.919 205.627C276.186 205.389 276.461 205.179 276.685 205.1C277.115 204.948 279.008 204.218 280.128 203.789C280.641 203.59 281.11 203.301 281.511 202.929C282.169 202.322 283.314 201.401 284.362 201.22C285.951 200.945 287.479 199.742 287.754 198.706C288.028 197.665 285.073 195.7 284.965 194.659C284.857 193.619 286.005 185.422 285.731 180.393C285.456 175.361 283.816 170.881 283.816 170.881L285.409 169.288C285.409 169.288 279.253 164.505 276.45 163.291Z" fill="#FD9783"/>
<path d="M269.868 184.378C269.868 184.378 271.837 188.045 271.454 190.23C271.071 192.42 271.237 194.876 270.305 196.928C269.377 198.977 267.599 201 267.708 201.112C267.816 201.22 267.816 201.22 267.816 201.22C267.816 201.22 269.294 201.849 269.868 201.22C270.258 200.79 270.446 200.328 270.526 200.071C270.569 199.941 270.641 199.825 270.742 199.735C271.212 199.327 272.556 198.153 273.094 197.64C273.752 197.011 273.506 195.371 275.2 194.222C276.277 193.493 277.278 192.994 277.863 192.73C278.203 192.575 278.441 192.268 278.499 191.903C278.582 191.412 278.325 190.928 277.874 190.722C277.122 190.378 276.057 189.75 275.746 188.84C275.255 187.391 275.352 185.397 275.352 185.397L269.868 184.378Z" fill="#FD9783"/>
<path d="M84.025 150.243C84.025 150.243 80.3425 151.02 80.0205 151.424C79.7012 151.828 79.2616 152.133 79.2616 152.133C79.2616 152.133 78.6763 150.243 77.7718 149.467C76.8644 148.69 73.7952 148.354 72.157 150.347C70.5215 152.336 71.1628 156.151 72.9187 157.196C74.6717 158.244 76.5732 157.196 76.5732 157.196C76.5732 157.196 76.2791 163.408 76.2791 164.421C76.2791 165.434 76.7384 166.582 77.6205 167.896C78.4999 169.213 81.5439 169.316 81.6867 169.113C81.8351 168.909 94.2297 163.324 94.2297 163.324C94.2297 163.324 95.3974 159.257 95.3974 158.849C95.3974 158.445 92.5326 156.251 92.2974 153.417C92.2974 153.417 95.3666 152.741 96.4196 151.492C97.4725 150.243 97.2961 147.173 96.0387 145.652C94.7842 144.134 92.0342 144.034 91.5385 144.403C91.0428 144.775 89.1414 146.124 89.0826 147.137C89.0237 148.15 89.4046 150.211 89.0826 150.479C88.7633 150.751 85.2824 149.198 84.025 150.243Z" fill="#08294A"/>
<path d="M116.786 153.544C116.772 153.382 116.006 153.02 115.211 152.692C114.131 152.24 112.917 152.226 111.826 152.652L109.453 153.584C110.732 151.846 109.706 151.633 109.706 151.633C106.953 153.479 99.789 161.618 97.9791 164.758C96.1691 167.897 93.4922 171.983 93.4922 171.983C96.6207 176.318 97.336 182.008 97.336 182.008C97.336 182.008 99.6734 174.093 102.466 167.987C105.255 161.882 109.066 158.114 109.066 158.114L113.466 156.106C114.185 156.116 115.316 157.135 115.399 156.796C115.486 156.456 114.525 155.578 114.214 155.043C113.9 154.505 116.505 155.553 116.505 155.267C116.505 154.986 114.976 154.108 114.438 153.938C113.9 153.772 116.815 153.884 116.786 153.544Z" fill="#FD9783"/>
<path d="M69.7888 216.917H69.5034L67.791 218.394L75.4642 225.385L76.4071 225.096C77.1657 224.865 77.5378 224.012 77.1947 223.297C76.8189 222.52 76.3818 221.581 76.1434 220.977L69.7888 216.917Z" fill="#005BBA"/>
<path d="M88.8491 224.933L88.7949 225.818V226.479H99.0331L99.3438 225.768C99.5858 225.222 99.2968 224.59 98.726 224.42C98.0468 224.214 97.0786 223.954 95.9407 223.727L88.8491 224.933Z" fill="#005BBA"/>
<path d="M77.0466 209.84C77.0466 209.84 76.1037 212.499 73.9181 214.345C71.7288 216.191 69.7311 216.754 69.6552 217.058C69.5793 217.358 74.3299 221.465 74.3299 221.465C74.3299 221.465 75.3884 220.714 76.1398 220.978C76.1398 220.978 74.4058 218.622 75.5365 218.008C76.6709 217.397 81.6996 213.72 82.1657 212.224L77.0466 209.84Z" fill="#FD9783"/>
<path d="M89.9088 212.849C89.9088 212.849 89.7209 217.358 89.5692 220.374C89.4175 223.387 88.778 224.572 88.89 225.009C89.0129 225.493 89.0526 225.461 89.0526 225.461H93.9043C93.9043 225.461 94.887 223.727 95.9419 223.727C95.9419 223.727 93.3372 222.672 93.3769 221.805C93.413 220.938 95.3169 213.853 95.5517 210.555L89.9088 212.849Z" fill="#FD9783"/>
<path d="M82.9031 175.169L79.6879 177.044L80.8548 186.134C80.8548 186.134 81.5448 189.273 79.3664 193.482C77.188 197.694 70.8262 207.108 70.8262 207.108C70.8262 207.108 74.8145 208.434 77.7841 210.273C80.7536 212.108 87.0035 214.37 92.3212 212.137C97.639 209.905 99.7307 207.416 99.7307 207.416C99.7307 207.416 99.5609 193.568 98.8528 188.254C98.1484 182.94 95.988 175.014 93.4881 171.983C93.4881 171.983 91.5843 173.865 90.7931 174.403L82.9031 175.169Z" fill="#005BBA"/>
<path d="M80.4608 160.408C80.4608 160.408 78.6338 161.192 77.4199 161.73C77.4199 161.73 77.4849 164.444 80.5954 163.876C80.5954 163.876 80.6243 167.507 82.716 168.696C84.8077 169.881 84.0635 169.458 84.3164 170.137C84.5729 170.816 84.4573 174.461 82.9039 175.166C82.9039 175.166 84.2333 176.806 86.6068 177.034C88.9839 177.257 90.7938 174.404 90.7938 174.404C90.7938 174.404 88.7021 174.18 88.7021 172.821C88.7021 171.463 88.9839 169.769 88.9839 169.769C88.9839 169.769 90.2917 168.439 91.2815 166.376C92.2714 164.313 91.4333 161.777 91.4333 161.777C91.4333 161.777 92.676 162.276 93.2432 160.835C93.8104 159.393 92.9614 157.84 91.603 157.587C91.603 157.587 87.8243 158.949 86.0143 157.052C84.2044 155.159 84.1602 155.783 84.1602 155.783C84.1602 155.783 82.7729 157.633 82.3105 158.558C81.6169 159.945 80.4608 160.408 80.4608 160.408Z" fill="#FD9783"/>
<path d="M79.6882 177.044C79.6882 177.044 78.254 177.034 77.3111 179.595C76.3683 182.16 75.5193 188.507 73.4276 193.146C71.3359 197.781 68.7601 199.844 68.052 200.042C67.3476 200.237 65.8628 199.547 65.5629 199.63C65.2667 199.717 66.6973 200.548 66.8924 200.649C67.0911 200.747 63.1894 200.378 63.4026 200.79C63.6121 201.202 67.1344 201.383 66.8815 201.538C66.625 201.693 62.7379 201.722 62.8932 202.188C63.0485 202.654 66.9502 202.416 66.7659 202.615C66.5817 202.81 63.9517 203.702 64.1937 204.085C64.4358 204.464 67.4162 203.008 67.474 203.377C67.5318 203.745 67.3187 205.284 67.6727 205.299C68.0267 205.313 68.8901 203.319 69.6669 202.503C70.4436 201.682 73.3553 199.435 75.5626 196.748C77.7699 194.063 79.952 189.114 80.8551 186.134C80.8551 186.134 81.2706 178.489 79.6882 177.044Z" fill="#FD9783"/>
<path d="M80.836 189.049C80.836 189.049 88.7549 192.691 98.8522 188.254L99.0834 190.465C99.0834 190.465 91.58 194.41 80.3809 191.022C80.3809 191.022 80.6085 190.198 80.836 189.049Z" fill="#EAEAEA"/>
<path d="M167.171 182.796C162.243 189.826 161.954 200.591 157.934 204.75L163.678 211.064L173.009 197.763L167.171 182.796Z" fill="#005BBA"/>
<path d="M186.795 123.104C184.642 116.07 182.803 106.425 182.803 106.425L155.831 113C153.483 123.534 149.751 129.56 158.508 152.518C167.269 175.48 166.98 178.493 167.269 185.093C167.554 191.693 176.026 200.877 178.753 207.766C181.481 214.651 183.208 223.119 183.208 223.119H194.118L183.923 189.255C183.923 189.255 197.279 171.405 198.569 168.06C199.862 164.714 188.948 130.134 186.795 123.104ZM179.328 169.165L177.894 158.688L183.204 166.008C183.204 166.008 181.914 166.723 179.328 169.165Z" fill="#005BBA"/>
<path d="M167.994 188.489L170.447 201.408L173.008 197.763C173.008 197.763 169.649 192.897 167.994 188.489Z" fill="#004186"/>
<path d="M177.893 158.689L175.834 132.288L180.834 162.742L177.893 158.689Z" fill="#004186"/>
<path d="M157.218 66.4224L146.305 73.0226L140.561 97.3681C140.561 97.3681 138.169 107.747 137.212 109.615C136.254 111.479 121.417 122.432 117.541 127.313L121.941 133.913C121.941 133.913 126.442 126.356 134.625 123.245C142.811 120.138 150.755 113.535 150.708 111.334C150.661 109.134 152.287 94.2612 153.772 91.1977C153.772 91.1977 155.925 96.2698 155.781 103.202C155.636 110.139 154.823 112.866 154.823 112.866C154.823 112.866 161.763 114.109 170.618 111.717C179.472 109.326 183.876 105.645 183.876 105.645L183.157 97.5126C183.157 97.5126 186.314 97.5126 188.041 100.67C189.761 103.824 192.492 111.526 199.909 113.964C207.329 116.407 212.065 117.985 212.065 117.985L215.656 112.675C215.656 112.675 197.756 98.5638 196.462 96.6022C195.169 94.6405 189.569 80.5224 187.514 75.2408C185.455 69.9628 184.544 63.7418 181.148 61.9247C177.749 60.1076 166.907 64.197 166.907 64.197L157.218 66.4224Z" fill="#FBC331"/>
<path d="M113.68 134.314C113.68 134.314 114.366 134.918 114.493 136.207C114.623 137.493 120.128 137.577 120.262 136.681C120.392 135.785 121.208 132.812 121.208 132.812L120.157 131.236L115.262 132.793L113.68 134.314Z" fill="#FD9783"/>
<path d="M163.908 42.9513C160.773 41.8061 157.239 42.8682 155.09 45.4151C154.382 46.2532 153.515 45.9498 152.594 46.1376C150.166 46.6362 149.006 48.1282 148.262 50.8629C147.514 53.5941 149.205 55.5521 143.071 60.6061C136.937 65.6602 123.501 62.2643 118.115 68.1493C112.725 74.0306 115.886 82.8129 115.886 82.8129C115.886 82.8129 116.041 77.0146 117.45 73.7813C118.859 70.5517 121.265 69.5437 121.265 69.5437C121.265 69.5437 115.955 77.925 120.6 85.7969C125.243 93.6688 133.772 95.9628 141.402 93.5604C141.402 93.5604 144.137 84.612 145.3 78.9763C146.459 73.3442 148.212 71.9606 149.454 71.8775C150.697 71.7944 154.097 68.8935 157.25 66.3683L165.642 64.4391C165.642 64.4391 171.925 62.846 174.66 62.3474C177.398 61.8489 179.468 64.7968 182.297 68.1023C185.645 72.0184 187.513 75.2408 187.513 75.2408C187.513 75.2408 189.753 76.6823 196.053 71.8775C202.354 67.0727 200.035 56.961 196.053 53.1497C192.072 49.3384 185.024 50.9966 185.024 50.9966C185.024 50.9966 186.104 50.6642 188.008 47.4345C189.916 44.2013 193.232 43.8761 193.232 43.8761C193.232 43.8761 189.088 43.374 186.765 46.0256C184.446 48.6737 179.305 52.0731 176.152 49.92C173.001 47.7633 167.283 48.4894 166.202 44.9924C165.895 43.9953 165.01 43.3523 163.908 42.9513Z" fill="#08294A"/>
<path d="M155.516 50.7118L152.598 53.543C152.598 53.543 152.764 56.1967 154.573 58.8656C156.387 61.5307 157.974 62.2944 157.974 62.2944C157.974 62.2944 158.04 65.6778 156.581 66.9139C156.581 66.9139 156.913 70.4258 160.231 70.2292C163.554 70.0326 165.545 64.6882 165.545 64.6882C165.545 64.6882 162.97 63.4586 162.97 61.7688C162.97 61.7688 164.218 59.4971 164.418 58.0039C164.86 54.6476 164.688 50.2268 161.412 49.3735C161.373 49.3633 161.335 49.3545 161.297 49.3471C158.525 48.7037 158.525 48.7037 155.516 50.7118Z" fill="#FD9783"/>
<path d="M183.157 97.5127C182.965 94.6913 182.199 85.6995 182.199 85.6995L186.253 98.6182C186.253 98.6182 184.833 97.3682 183.157 97.5127Z" fill="#F3A769"/>
<path d="M153.771 91.1979C154.776 88.8064 155.733 88.1381 155.733 88.1381L154.126 92.1589L153.771 91.1979Z" fill="#F3A769"/>
<path d="M184.642 223.116C184.642 223.116 185.79 228.282 185.36 231.154C184.927 234.023 184.139 237.682 184.212 238.546C184.28 239.405 186.22 240.193 188.662 240.193C191.101 240.193 193.254 238.903 194.62 239.333C195.985 239.763 203.091 240.193 203.091 240.193L207.329 239.478L209.529 239.387C210.36 239.355 211.071 238.795 211.303 238C211.512 237.278 211.01 236.548 210.262 236.486L208.261 236.32C208.261 236.32 204.887 236.895 202.376 235.388C199.862 233.882 196.13 232.661 194.045 229.146C191.964 225.631 192.037 223.12 192.037 223.12H184.642V223.116Z" fill="#FD9783"/>
<path d="M163.339 210.689C163.339 210.689 163.216 210.822 163.013 211.046C162.06 212.101 159.332 215.23 159.155 216.588C158.942 218.239 159.3 225.844 159.802 226.779C160.304 227.711 162.782 230.367 163.339 230.367C163.628 230.367 164.473 230.482 165.214 230.594C165.878 230.695 166.294 231.367 166.084 232.007C165.723 233.112 164.603 233.788 163.454 233.593C162.71 233.47 161.973 233.315 161.67 233.163C160.951 232.805 157.287 232.375 156.572 231.656C155.853 230.941 155.279 226.779 153.339 226.707C151.402 226.635 145.301 222.903 145.301 221.899C145.301 220.894 149.39 217.524 151.258 216.303C153.126 215.082 158.516 205.389 158.516 205.389L163.339 210.689Z" fill="#FD9783"/>
<path d="M215.342 113.137C215.342 113.137 217.379 114.684 218.192 115.594C219.005 116.501 221.209 119.275 222.43 119.85C223.647 120.424 223.026 120.901 221.783 120.449C220.537 119.994 219.915 119.253 220.035 119.705C220.154 120.16 221.924 121.334 222.166 122.097C222.404 122.862 222.477 124.394 222.188 124.513C221.902 124.633 221.447 122.386 220.945 122.003C220.443 121.62 218.813 120.113 219.056 120.662C219.294 121.212 220.945 122.769 220.97 123.509C220.992 124.25 220.873 125.781 220.537 125.781C220.204 125.781 220.107 124.033 219.699 123.365C219.294 122.696 217.618 121.45 217.907 121.905C218.192 122.36 218.503 123.245 218.647 124.058C218.792 124.871 218.767 125.518 218.384 125.518C218.001 125.518 217.762 123.437 217.116 122.696C216.469 121.952 215.465 119.897 215.512 120.876C215.559 121.858 214.673 124.011 214.124 123.675C213.575 123.339 214.171 122.956 213.933 121.688C213.694 120.424 212.322 118.184 212.336 117.581L215.342 113.137Z" fill="#FD9783"/>
<path d="M117.602 127.407C116.359 128.794 112.83 133.368 112.393 133.552C112.393 133.552 113.086 134.628 113.877 134.224C114.669 133.816 114.788 132.837 115.864 133.292C116.941 133.747 120.156 131.236 120.156 131.236C120.156 131.236 118.057 127.815 117.602 127.407Z" fill="#FD9783"/>
<path d="M114.358 136.269C114.282 137.205 114.069 140.322 114.571 140.037C115.074 139.748 115.182 138.527 115.54 138.744C115.901 138.96 116.511 139.571 116.724 139.21C116.941 138.852 116.869 138.296 117.335 138.162C117.801 138.028 117.696 138.78 118.448 138.386C119.203 137.992 118.701 137.522 119.167 137.309C119.633 137.093 119.784 137.522 120.156 137.237C120.532 136.952 119.813 132.537 119.239 132.826C118.664 133.111 118.664 135.373 118.664 135.373C118.664 135.373 118.292 133.166 117.769 133.111C117.241 133.057 117.248 136.233 117.248 136.233C117.248 136.233 116.902 134.408 116.277 134.314C115.648 134.224 115.612 137.486 115.612 137.486C115.612 137.486 115.33 134.896 115.11 134.799C114.889 134.697 114.434 135.297 114.358 136.269Z" fill="#FD9783"/>
<path d="M157.084 55.5041C157.017 55.5034 156.95 55.4802 156.892 55.4371C156.834 55.3941 156.788 55.3329 156.758 55.2608L156.307 54.1755C156.266 54.0751 156.26 53.9605 156.291 53.8569C156.321 53.7534 156.386 53.6693 156.471 53.6232C156.555 53.5771 156.653 53.5728 156.742 53.6112C156.831 53.6496 156.904 53.7275 156.945 53.8279L157.396 54.9132C157.417 54.9628 157.429 55.0166 157.432 55.0714C157.435 55.1262 157.428 55.1809 157.413 55.2323C157.398 55.2837 157.374 55.3309 157.343 55.3709C157.312 55.4109 157.274 55.4431 157.232 55.4655C157.186 55.4921 157.136 55.5053 157.084 55.5041Z" fill="#080C53"/>
<path d="M160.702 54.495C160.641 54.4889 160.582 54.4623 160.533 54.4183C160.484 54.3742 160.447 54.3145 160.426 54.2462L160.132 53.2031C160.118 53.1564 160.111 53.1066 160.113 53.0567C160.116 53.0067 160.126 52.9576 160.145 52.9123C160.163 52.867 160.189 52.8263 160.221 52.7926C160.253 52.7589 160.29 52.7329 160.33 52.7162C160.412 52.6838 160.501 52.6902 160.577 52.7341C160.654 52.7779 160.713 52.8558 160.74 52.9508L161.043 53.9856C161.07 54.0812 161.063 54.1857 161.024 54.2766C160.986 54.3676 160.919 54.4376 160.837 54.4717C160.795 54.4936 160.748 54.5016 160.702 54.495Z" fill="#080C53"/>
<path d="M159.005 59.1032C158.865 58.8716 159.02 58.5982 159.278 58.5222L161.543 57.8548C161.882 57.7547 162.211 58.0301 162.135 58.3755C161.977 59.0894 161.632 60.07 160.921 60.07C160.184 60.07 159.398 59.7523 159.005 59.1032Z" fill="white"/>
<path d="M84.1025 163.324C84.0356 163.314 83.9729 163.281 83.9219 163.23C83.8709 163.179 83.8335 163.112 83.8142 163.036L83.5231 161.898C83.4968 161.792 83.5075 161.678 83.5528 161.58C83.5981 161.482 83.6744 161.408 83.7647 161.375C83.855 161.341 83.952 161.351 84.0344 161.402C84.1169 161.452 84.1779 161.54 84.2042 161.645L84.4953 162.784C84.5087 162.836 84.5132 162.891 84.5083 162.946C84.5034 163 84.4893 163.053 84.4668 163.102C84.4443 163.151 84.4138 163.194 84.3772 163.229C84.3407 163.264 84.2987 163.291 84.2537 163.307C84.2049 163.327 84.1531 163.333 84.1025 163.324Z" fill="#080C53"/>
<path d="M87.8271 162.844C87.7668 162.829 87.7125 162.794 87.6704 162.743C87.6283 162.693 87.6003 162.628 87.5894 162.558L87.4476 161.483C87.4401 161.435 87.4409 161.385 87.4503 161.336C87.4596 161.287 87.4772 161.24 87.5019 161.197C87.5267 161.155 87.5581 161.119 87.5945 161.09C87.6308 161.061 87.6712 161.041 87.7135 161.03C87.799 161.009 87.886 161.028 87.9557 161.083C88.0254 161.137 88.0722 161.223 88.0861 161.321L88.2375 162.388C88.2499 162.487 88.2281 162.589 88.177 162.674C88.1258 162.758 88.0494 162.818 87.9641 162.84C87.9188 162.855 87.8715 162.857 87.8271 162.844Z" fill="#080C53"/>
<path d="M85.4895 167.162C85.3839 166.912 85.5768 166.664 85.8429 166.626L88.1799 166.29C88.5303 166.239 88.8161 166.559 88.6913 166.89C88.4333 167.574 87.9509 168.495 87.2472 168.393C86.5184 168.287 85.7857 167.86 85.4895 167.162Z" fill="white"/>
<path fill-rule="evenodd" clip-rule="evenodd" d="M281.242 115.953C280.954 116.077 280.735 116.402 280.84 116.697C281.12 117.482 281.728 118.72 282.641 118.086C283.635 117.394 283.891 116.046 283.84 115.028C283.821 114.656 283.393 114.52 283.103 114.754C282.324 115.385 281.69 115.76 281.242 115.953Z" fill="white"/>
<path d="M279.834 112.68C279.779 112.686 279.722 112.671 279.671 112.636C279.619 112.601 279.574 112.547 279.541 112.481L279.052 111.492C279.007 111.401 278.99 111.292 279.003 111.19C279.016 111.088 279.059 111.001 279.122 110.948C279.186 110.896 279.264 110.881 279.341 110.909C279.417 110.936 279.485 111.003 279.53 111.095L280.019 112.084C280.042 112.129 280.058 112.179 280.066 112.231C280.075 112.283 280.076 112.336 280.07 112.386C280.063 112.437 280.049 112.484 280.028 112.526C280.008 112.567 279.981 112.602 279.949 112.628C279.915 112.658 279.876 112.676 279.834 112.68Z" fill="#080C53"/>
<path d="M282.453 111.37C282.398 111.378 282.341 111.364 282.289 111.331C282.237 111.297 282.192 111.244 282.158 111.179L281.67 110.182C281.647 110.137 281.63 110.088 281.621 110.036C281.612 109.985 281.61 109.932 281.616 109.882C281.622 109.831 281.635 109.784 281.655 109.742C281.676 109.7 281.702 109.665 281.733 109.639C281.797 109.587 281.875 109.573 281.952 109.6C282.028 109.628 282.096 109.694 282.142 109.784L282.636 110.771C282.68 110.863 282.697 110.971 282.684 111.073C282.671 111.175 282.628 111.262 282.565 111.315C282.533 111.347 282.495 111.366 282.453 111.37Z" fill="#080C53"/>
</svg>
