<svg width="402" height="282" viewBox="0 0 402 282" fill="none" xmlns="http://www.w3.org/2000/svg">
<path d="M16.9237 135.813C25.2563 187.335 -9.23574 203.858 16.9234 236.113C30.5299 262.494 15.6857 270.418 16.9234 280.046H388.06C370.061 280.046 369.381 266.154 388.06 254.829C411.408 240.673 400.553 160.548 380.571 135.813C366.226 118.057 375.914 119.902 380.571 74.0753C385.228 28.2489 327.309 3.90463 225.547 15.2372C123.784 26.5698 82.7643 6.15588 30.5299 15.2372C-21.7044 24.3185 8.88467 86.1068 16.9237 135.813Z" fill="white"/>
<path d="M181.463 266.019H373.436V281.53H181.463V266.019Z" fill="#FFDFBF"/>
<path d="M188.686 160.722H364.915V262.31H188.686V160.722Z" fill="#F3A769"/>
<path d="M192.434 165.776H361.163V257.252H192.434V165.776Z" fill="#FFDFBF"/>
<path d="M199.936 175.892H353.666V247.14H199.936V175.892Z" fill="#F3A769"/>
<path d="M201.434 177.91H352.164V245.114H201.434V177.91Z" fill="#C9E4FF"/>
<path d="M186.311 261.299H367.288V267.03H186.311V261.299Z" fill="#F7CDA3"/>
<path d="M370.71 162.289V159.976C370.71 156.453 368.572 153.57 365.96 153.57H187.639C185.027 153.57 182.889 156.453 182.889 159.976V162.289H370.71Z" fill="#F7CDA3"/>
<path d="M182.891 160.178H370.712V162.289H182.891V160.178Z" fill="#F3A769"/>
<path d="M237.263 241.996C230.82 234.568 229.313 230.568 229.161 225.84C229.006 220.976 232.776 217.683 231.676 210.938C232.463 211.409 237.493 214.39 238.276 223.486C240.947 219.879 239.063 211.094 238.276 207.014C237.493 202.934 236.709 195.721 242.049 188.506C241.891 190.541 241.104 193.682 244.561 199.485C248.018 205.288 252.896 209.839 252.264 225.214C255.721 223.486 256.034 213.916 254.934 207.014C256.975 211.251 262.792 215.642 262.947 224.27C263.077 231.454 256.668 239.504 254.53 241.996H237.263Z" fill="#FBC331"/>
<path d="M239.712 241.996C232.942 233.856 233.477 229.122 234.975 223.433C236.23 228.133 237.595 229.501 239.795 231.174C240.947 229.814 242.625 225.316 243.567 219.148C244.523 212.902 242.312 208.478 241.891 202.205C242.415 205.448 246.185 209.42 248.395 215.486C249.625 218.876 250.278 224.269 250.386 230.964C255.203 229.712 257.929 222.702 258.458 217.984C259.505 220.494 260.239 223.422 259.086 229.072C258.161 233.595 253.076 239.725 251.087 241.985L239.712 241.996Z" fill="#FF8B65"/>
<path d="M240.58 179.472C240.58 179.472 242.926 180.716 242.713 184.09C242.5 187.466 239.736 188.264 238.772 190.308C237.866 187.286 240.641 186.27 240.586 183.333C240.533 180.359 238.772 179.118 238.453 178.896C239.893 178.988 240.58 179.472 240.58 179.472Z" fill="#FBC331"/>
<path d="M256.554 199.643C256.554 199.643 254.482 200.74 254.668 203.72C254.854 206.698 257.299 207.412 258.158 209.204C258.958 206.534 256.507 205.637 256.554 203.047C256.601 200.416 258.158 199.319 258.438 199.122C257.166 199.211 256.554 199.643 256.554 199.643Z" fill="#FBC331"/>
<path d="M231.411 201.396C231.411 201.396 229.854 202.222 229.995 204.46C230.137 206.698 231.97 207.224 232.616 208.581C233.217 206.579 231.378 205.894 231.411 203.958C231.444 202.022 232.616 201.161 232.826 201.014C232.322 201.02 231.848 201.147 231.411 201.396Z" fill="#FBC331"/>
<path d="M241.369 234.659C244.731 232.457 244.939 227.632 246.41 222.391C247.98 225.327 248.51 232.77 247.354 236.232C248.925 236.022 250.925 236.232 254.182 233.401C253.805 236.105 249.288 240.957 248.293 241.996H241.042C239.264 239.758 237.148 234.955 237.48 232.457C238.533 233.822 240.214 234.343 241.369 234.659Z" fill="#E1545A"/>
<path d="M231.981 241.996H218.39C215.146 237.052 214.052 229.934 216.124 224.668C216.409 226.289 217.553 229.524 220.129 230.953C218.221 223.527 220.891 213.625 225.66 207.817C225.087 214.672 227.851 219.527 229.095 222.577C230.336 225.624 232.433 227.43 230.524 235.905C231.477 235.617 232.909 232.667 233.577 227.815C234.147 229.812 235.77 232.191 235.579 235.617C235.427 238.357 232.965 241.03 231.981 241.996Z" fill="#FBC331"/>
<path d="M218.348 233.302C219.176 235.905 220.699 235.905 222.674 238.254C223.627 237.359 223.688 235.207 223.123 232.54C222.555 229.875 222.549 227.463 224.583 221.051C225.663 224.668 228.081 225.812 228.843 230.127C229.158 231.867 229.228 233.615 229.056 235.371C228.884 237.13 228.474 238.83 227.829 240.476C229.671 240.282 231.069 239.207 232.468 238.127C232.064 240.163 231.208 241.329 230.391 241.996H220.431C218.569 239.406 217.628 236.686 218.348 233.302Z" fill="#FF8B65"/>
<path d="M224.518 203.216C224.548 204.041 223.787 204.382 223.787 205.407C223.787 206.138 223.978 206.93 224.46 207.406C223.238 206.886 222.646 206.354 222.363 205.733C222.175 205.218 222.111 204.686 222.169 204.141C222.227 203.592 222.405 203.088 222.698 202.623C222.992 202.163 223.158 201.695 222.87 201.28C224.008 201.407 224.488 202.327 224.518 203.216Z" fill="#FBC331"/>
<path d="M232.747 222.594C232.747 222.594 231.805 223.092 231.888 224.452C231.974 225.81 233.087 226.131 233.478 226.954C233.843 225.738 232.727 225.328 232.747 224.148C232.769 222.968 233.478 222.453 233.605 222.358C233.301 222.361 233.013 222.441 232.747 222.594Z" fill="#FBC331"/>
<path d="M217.248 220.247C217.148 220.94 216.464 221.111 216.309 221.97C216.198 222.579 216.24 223.272 216.569 223.743C215.622 223.125 215.204 222.59 215.063 222.031C214.982 221.568 215.01 221.114 215.14 220.665C215.27 220.217 215.495 219.821 215.808 219.474C216.124 219.134 216.334 218.768 216.154 218.378C217.087 218.657 217.348 219.499 217.248 220.247Z" fill="#FBC331"/>
<path d="M276.716 241.656C276.716 241.656 276.583 241.783 276.353 241.988H264.695C262.847 239.434 261.415 236.664 260.399 233.681C258.402 227.698 260.731 222.042 263.726 220.051C262.764 224.851 262.867 228.765 266.168 231.651C264.93 226.397 265.653 223.411 269.883 217.744C273.655 212.692 274.736 211.146 275.265 207.645C277.924 211.631 275.913 216.915 274.852 218.874C272.888 222.48 273.096 228.05 275.395 229.693C277.281 231.033 279.721 230.022 282.053 223.372C286.372 232.36 276.716 241.656 276.716 241.656Z" fill="#FBC331"/>
<path d="M274.436 241.996H267.185C264.581 239.204 262.628 235.232 262.57 231.701C263.498 233.401 265.897 234.869 268.606 235.642C266.828 229.925 267.368 225.444 271.085 222.508C269.844 227.142 271.16 231.626 272.788 232.939C274.134 234.019 276.658 235.487 279.599 233.479C278.702 237.155 276.148 240.251 274.436 241.996Z" fill="#FF8B65"/>
<path d="M282.852 214.883C282.9 216.226 281.667 216.777 281.667 218.439C281.667 219.624 281.972 220.912 282.747 221.685C280.764 220.843 279.8 219.976 279.351 218.968C278.997 218.195 278.606 215.941 279.897 213.916C280.373 213.171 280.65 212.417 280.18 211.739C282.024 211.947 282.8 213.439 282.852 214.883Z" fill="#FBC331"/>
<path d="M273.748 199.631C273.748 199.631 275.786 200.714 275.604 203.65C275.418 206.586 273.019 207.284 272.177 209.06C271.391 206.431 273.803 205.545 273.759 202.994C273.712 200.407 272.177 199.324 271.9 199.13C273.152 199.207 273.748 199.631 273.748 199.631Z" fill="#FBC331"/>
<path d="M264.134 215.071C264.106 215.766 264.749 216.051 264.749 216.913C264.749 217.53 264.588 218.195 264.184 218.597C265.214 218.148 265.712 217.702 265.951 217.19C266.109 216.755 266.164 216.309 266.114 215.849C266.067 215.392 265.92 214.965 265.676 214.575C265.43 214.187 265.286 213.799 265.53 213.456C264.555 213.545 264.159 214.323 264.134 215.071Z" fill="#FBC331"/>
<path d="M299.055 241.996C292.615 234.568 291.108 230.568 290.956 225.84C290.798 220.976 294.571 217.683 293.471 210.938C294.255 211.409 299.288 214.39 300.071 223.486C302.742 219.879 300.855 211.094 300.071 207.014C299.288 202.934 298.501 195.721 303.841 188.506C303.686 190.541 302.899 193.682 306.356 199.485C309.813 205.288 314.685 209.839 314.056 225.214C317.513 223.486 317.829 213.916 316.726 207.014C318.771 211.251 324.573 215.642 324.74 224.27C324.872 231.454 318.463 239.504 316.325 241.996H299.055Z" fill="#FFE49D"/>
<path d="M301.505 241.996C294.732 233.856 295.27 229.122 296.771 223.433C298.026 228.133 299.391 229.501 301.59 231.174C302.743 229.814 304.421 225.316 305.36 219.148C306.316 212.902 304.105 208.478 303.687 202.205C304.208 205.448 307.98 209.42 310.188 215.486C311.42 218.876 312.074 224.269 312.182 230.964C316.996 229.712 319.724 222.702 320.253 217.984C321.3 220.494 322.032 223.422 320.879 229.072C319.957 233.595 314.869 239.725 312.88 241.985L301.505 241.996Z" fill="#FF8B65"/>
<path d="M302.372 179.472C302.372 179.472 304.721 180.716 304.508 184.09C304.294 187.466 301.53 188.264 300.561 190.308C299.652 187.286 302.428 186.27 302.372 183.333C302.32 180.359 300.561 179.118 300.242 178.896C301.68 178.988 302.372 179.472 302.372 179.472Z" fill="#FBC331"/>
<path d="M318.349 199.643C318.349 199.643 316.277 200.74 316.463 203.72C316.649 206.698 319.094 207.412 319.95 209.204C320.751 206.534 318.302 205.637 318.349 203.047C318.396 200.416 319.95 199.319 320.23 199.122C318.961 199.211 318.349 199.643 318.349 199.643Z" fill="#FBC331"/>
<path d="M293.206 201.396C293.206 201.396 291.649 202.222 291.79 204.46C291.932 206.698 293.765 207.224 294.408 208.581C295.009 206.579 293.172 205.894 293.206 203.958C293.239 202.022 294.408 201.161 294.618 201.014C294.114 201.02 293.643 201.147 293.206 201.396Z" fill="#FBC331"/>
<path d="M303.161 234.659C306.526 232.457 306.734 227.632 308.205 222.391C309.773 225.327 310.302 232.77 309.149 236.232C310.717 236.022 312.72 236.232 315.974 233.401C315.6 236.105 311.08 240.957 310.088 241.996H302.837C301.056 239.758 298.943 234.955 299.275 232.457C300.325 233.822 302.009 234.343 303.161 234.659Z" fill="#E1545A"/>
<path d="M294.317 241.996H282.775C280.022 237.797 279.091 231.751 280.853 227.28C281.094 228.654 282.066 231.404 284.254 232.618C282.634 226.311 284.902 217.902 288.96 212.969C288.475 218.788 290.824 222.912 291.877 225.502C292.926 228.092 294.713 229.623 293.093 236.822C293.901 236.578 295.112 234.075 295.685 229.95C296.17 231.648 297.546 233.667 297.386 236.578C297.247 238.905 295.156 241.176 294.317 241.996Z" fill="#FBC331"/>
<path d="M282.742 234.612C283.443 236.822 284.739 236.822 286.415 238.819C287.224 238.063 287.279 236.229 286.792 233.964C286.304 231.698 286.301 229.654 288.035 224.2C288.952 227.272 291.004 228.241 291.653 231.908C291.918 233.385 291.979 234.872 291.833 236.365C291.686 237.861 291.337 239.307 290.786 240.705C292.356 240.542 293.539 239.628 294.727 238.708C294.384 240.44 293.658 241.431 292.963 241.996H284.509C282.939 239.794 282.13 237.484 282.742 234.612Z" fill="#FF8B65"/>
<path d="M287.979 209.06C288.004 209.76 287.358 210.049 287.358 210.918C287.358 211.536 287.519 212.212 287.923 212.616C286.888 212.167 286.383 211.721 286.142 211.195C285.982 210.755 285.929 210.306 285.979 209.841C286.029 209.378 286.178 208.949 286.428 208.553C286.677 208.162 286.818 207.769 286.575 207.414C287.547 207.522 287.951 208.306 287.979 209.06Z" fill="#FBC331"/>
<path d="M294.972 225.519C294.972 225.519 294.169 225.942 294.241 227.095C294.313 228.247 295.26 228.521 295.584 229.222C295.894 228.189 294.947 227.84 294.967 226.834C294.953 226.538 295.011 226.255 295.141 225.987C295.271 225.718 295.454 225.494 295.695 225.319C295.437 225.322 295.194 225.388 294.972 225.519Z" fill="#FBC331"/>
<path d="M281.801 223.527C281.716 224.119 281.128 224.263 281.001 224.992C280.909 225.51 280.943 226.111 281.225 226.496C280.419 225.972 280.067 225.518 279.946 225.042C279.876 224.651 279.899 224.266 280.012 223.884C280.123 223.502 280.311 223.167 280.58 222.87C280.846 222.582 281.029 222.272 280.873 221.94C281.668 222.183 281.89 222.887 281.801 223.527Z" fill="#FBC331"/>
<path d="M331.552 241.761L331.292 241.996H322.955C321.633 240.171 320.609 238.193 319.883 236.06C318.454 231.778 320.118 227.737 322.262 226.311C321.573 229.745 321.647 232.545 324.01 234.609C323.124 230.85 323.642 228.712 326.669 224.66C329.358 221.045 330.14 219.94 330.508 217.436C332.411 220.286 330.973 224.067 330.212 225.469C328.81 228.047 328.957 232.027 330.599 233.205C331.945 234.171 333.696 233.443 335.363 228.687C338.46 235.102 331.552 241.761 331.552 241.761Z" fill="#FBC331"/>
<path d="M329.923 241.996H324.735C322.871 239.999 321.478 237.157 321.434 234.634C322.104 235.85 323.813 236.899 325.749 237.453C324.48 233.362 324.854 230.158 327.524 228.052C326.627 231.371 327.577 234.575 328.743 235.517C329.699 236.287 331.513 237.34 333.615 235.902C332.973 238.533 331.142 240.747 329.923 241.996Z" fill="#FF8B65"/>
<path d="M335.942 222.599C335.975 223.558 335.092 223.956 335.092 225.145C335.092 225.992 335.316 226.915 335.867 227.466C334.449 226.859 333.759 226.242 333.43 225.521C333.211 224.923 333.139 224.305 333.205 223.671C333.275 223.037 333.48 222.45 333.82 221.91C334.161 221.375 334.358 220.835 334.02 220.342C335.349 220.5 335.903 221.566 335.942 222.599Z" fill="#FBC331"/>
<path d="M329.433 211.689C329.433 211.689 330.893 212.462 330.763 214.564C330.633 216.666 328.91 217.165 328.298 218.433C327.733 216.555 329.458 215.921 329.419 214.096C329.378 212.27 328.298 211.467 328.09 211.331C328.569 211.331 329.018 211.453 329.433 211.689Z" fill="#FBC331"/>
<path d="M322.549 222.732C322.53 223.233 322.998 223.436 322.998 224.051C323.023 224.505 322.89 224.906 322.597 225.255C323.333 224.942 323.691 224.624 323.86 224.247C323.973 223.937 324.012 223.618 323.976 223.289C323.94 222.959 323.835 222.655 323.657 222.375C323.48 222.098 323.378 221.821 323.552 221.566C322.846 221.644 322.569 222.198 322.549 222.732Z" fill="#FBC331"/>
<path d="M216.822 240.362H331.914V245.09H216.822V240.362Z" fill="#F3A769"/>
<path d="M227.511 177.91L208.859 245.117H219.562L237.76 177.91H227.511Z" fill="#FBFDF8" fill-opacity="0.498"/>
<path d="M244.194 177.91L225.539 245.117H236.242L254.439 177.91H244.194Z" fill="#FBFDF8" fill-opacity="0.498"/>
<path d="M313.702 177.91L295.045 245.117H305.748L323.945 177.91H313.702Z" fill="#FBFDF8" fill-opacity="0.498"/>
<path d="M330.381 177.91L311.727 245.117H322.432L340.627 177.91H330.381Z" fill="#FBFDF8" fill-opacity="0.498"/>
<rect x="220.355" y="0.5" width="114.177" height="152.569" fill="#FFDFBF" stroke="#F7CDA3"/>
<path d="M49.9689 281.152H129.309V107.291H49.9689V281.152Z" fill="#C9E4FF"/>
<path d="M52.1161 236.118L52.1899 277.896L127.452 278.188L127.49 236.118H52.1161Z" fill="#F2F2F2"/>
<path d="M52.0395 191.964L52.1166 233.447H127.491L127.529 191.964H52.0395Z" fill="#F2F2F2"/>
<path d="M127.49 233.447H52.1161V236.119H127.49V233.447Z" fill="#C9E4FF"/>
<path d="M51.965 148.7L52.0292 189.293H127.529L127.57 148.7H51.965Z" fill="#F2F2F2"/>
<path d="M52.0299 189.293L52.0395 191.964H127.529V189.293H52.0299Z" fill="#C9E4FF"/>
<path d="M51.896 109.295L51.957 146.038H127.572L127.598 109.593L51.896 109.295Z" fill="#F2F2F2"/>
<path d="M51.9553 146.038L51.9649 148.7H127.57V146.038H51.9553Z" fill="#C9E4FF"/>
<path d="M78.1199 94.3574L80.3964 107.034L98.4164 107.185L100.709 94.3574H78.1199Z" fill="#81BFEB"/>
<path d="M76.805 87.0365L77.5114 90.9571C85.2273 90.9346 95.4574 90.9153 101.314 90.9346L102.008 87.0365H76.805Z" fill="#30384B"/>
<path d="M77.5116 90.957L78.1184 94.3574H100.708L101.314 90.9345C95.4577 90.9153 85.2275 90.9345 77.5116 90.957Z" fill="#FFBA5A"/>
<path d="M54.7206 62.9768C55.0321 64.974 55.5426 66.7144 56.1463 68.2299C60.8825 80.1394 74.0185 85.1421 80.9767 87.0366H87.3633C86.6858 85.3444 85.8638 83.6618 84.8652 82.0018C83.7638 80.1812 82.5308 78.5307 81.2111 77.0312L81.2047 77.0248C72.8016 67.5171 60.6641 64.1681 54.7206 62.9768Z" fill="#C5DC99"/>
<path d="M89.4411 87.0364H94.524C96.3768 85.7359 98.2841 84.1112 100.105 82.1043C109.176 72.0701 109.567 59.3033 109.352 54.0437C106.684 54.8175 104.536 55.8964 102.837 56.9946C97.6965 60.3276 94.5144 65.2307 92.5525 70.2109C89.958 76.8126 89.4925 83.5557 89.4411 87.0364Z" fill="#C5DC99"/>
<path d="M81.205 77.0246L81.2114 77.0311C82.5311 78.5306 83.7641 80.181 84.8655 82.0016C85.8641 83.6617 86.6861 85.3443 87.3636 87.0364H89.4411C89.4925 83.5558 89.9581 76.8127 92.5525 70.211C92.7131 68.4385 92.7933 66.5762 92.7773 64.6175C92.6167 50.6434 87.1324 40.0632 83.6292 34.5532C82.4926 36.3482 81.4586 38.2844 80.566 40.3908C74.6803 54.3167 78.0679 68.5284 81.205 77.0246Z" fill="#C5DC99"/>
<path d="M56.7118 145.881L61.4062 145.219L56.6861 111.915L51.9917 112.583L56.7118 145.881Z" fill="#30384B"/>
<path d="M70.6666 145.881L75.0078 143.986L61.5507 113.164L57.2094 115.062L70.6666 145.881Z" fill="#F2F2F2"/>
<path d="M76.7217 145.935L78.873 144.93L64.6806 114.442L62.5324 115.444L76.7217 145.935Z" fill="#30384B"/>
<path d="M83.9631 145.945L85.9121 144.596L71.5141 123.84L69.5651 125.189L83.9631 145.945Z" fill="#81BFEB"/>
<path d="M115.224 144.751L121.013 146.032L127.516 116.668L121.729 115.386L115.224 144.751Z" fill="#FFBA5A"/>
<path d="M87.6847 146.16L88.9434 145.245L74.0927 124.811L72.834 125.726L87.6847 146.16Z" fill="#C9E8F8"/>
<path d="M95.2431 146.057L96.3027 144.921L77.7947 127.726L76.7319 128.869L95.2431 146.057Z" fill="#FFBA5A"/>
<path d="M119.691 140.541L123.84 120.839L122.607 120.575L118.455 140.281L119.691 140.541Z" fill="#F2F2F2"/>
<path d="M308.206 144.331C308.212 144.408 308.229 144.482 308.238 144.556C308.611 147.423 310.39 150.573 313.539 151.887C315.309 152.632 316.953 152.561 317.871 152.449H320.385C321.3 152.561 322.951 152.632 324.717 151.887C327.857 150.573 329.646 147.423 330.018 144.556C330.031 144.482 330.047 144.408 330.05 144.331C330.079 144.126 330.127 143.554 330.079 142.777C329.999 141.56 329.678 139.842 328.605 138.224C326.772 135.459 324.797 136.076 322.601 132.891C321.946 131.927 320.748 130.139 320.941 127.779C321.06 126.241 321.721 125.082 322.158 124.443H316.099C316.535 125.082 317.194 126.241 317.316 127.779C317.508 130.139 316.311 131.927 315.649 132.891C313.459 136.076 311.478 135.459 309.648 138.224C308.575 139.842 308.254 141.56 308.174 142.777C308.132 143.557 308.18 144.126 308.206 144.331Z" fill="#F2F2F2"/>
<path d="M313.216 151.183C313.286 151.183 313.354 151.151 313.396 151.094C313.482 150.991 313.466 150.843 313.363 150.763C312.352 149.95 310.557 148.172 309.889 145.391C309.68 144.508 309.035 141.827 310.419 139.569C311.01 138.603 311.909 137.823 312.201 137.566C312.814 137.039 313.257 136.782 313.723 136.509C314.038 136.33 314.362 136.137 314.744 135.858C316.391 134.65 317.21 133.157 317.477 132.669C318.283 131.202 319.442 128.389 318.202 126C318.106 125.814 317.994 125.634 317.872 125.457H320.604C320.733 125.457 320.842 125.351 320.842 125.223C320.842 125.094 320.733 124.985 320.604 124.985H317.38C317.29 124.985 317.204 125.04 317.168 125.127C317.13 125.21 317.146 125.306 317.204 125.377C317.435 125.634 317.628 125.92 317.785 126.221C318.925 128.408 317.823 131.057 317.066 132.441C316.809 132.91 316.029 134.332 314.465 135.479C314.102 135.742 313.803 135.919 313.482 136.105C313.017 136.371 312.538 136.654 311.896 137.209C311.588 137.476 310.641 138.295 310.011 139.325C308.534 141.75 309.205 144.572 309.43 145.503C310.13 148.419 312.008 150.281 313.065 151.129C313.11 151.161 313.161 151.183 313.216 151.183Z" fill="#81BFEB"/>
<path d="M323.575 124.292C323.6 124.292 323.629 124.292 323.655 124.292C324.519 124.324 325.331 124.902 325.867 125.872C326.586 127.166 326.917 129.461 326.153 131.34C325.54 132.859 324.38 133.681 323.331 133.337C321.873 132.859 321.269 130.492 321.144 129.169C321.076 128.421 321.003 126.54 321.812 125.319C322.245 124.661 322.887 124.292 323.575 124.292ZM323.815 133.889C324.917 133.889 325.999 132.99 326.596 131.517C327.325 129.709 327.197 127.294 326.281 125.644C325.668 124.542 324.695 123.862 323.671 123.817C322.791 123.791 321.963 124.234 321.417 125.056C320.521 126.408 320.601 128.415 320.675 129.211C320.842 131 321.6 133.27 323.186 133.787C323.395 133.857 323.6 133.889 323.815 133.889Z" fill="#F2F2F2"/>
<path d="M308.206 144.331C308.212 144.408 308.229 144.482 308.238 144.556H330.018C330.031 144.482 330.047 144.408 330.05 144.331C330.079 144.125 330.127 143.554 330.079 142.777H308.174C308.132 143.557 308.18 144.125 308.206 144.331Z" fill="#FFBA5A"/>
<path d="M90.8106 85.4952C90.817 85.4952 90.8234 85.4887 90.8266 85.4887C90.9165 85.4823 90.9776 85.402 90.9711 85.3186C90.5826 81.6388 90.3675 72.1986 96.7155 63.9849C99.2843 60.6551 102.56 57.9772 106.442 56.0281C106.515 55.9864 106.548 55.8965 106.509 55.8162C106.474 55.7424 106.377 55.7103 106.297 55.7456C102.376 57.7171 99.066 60.424 96.4651 63.7923C90.0464 72.0958 90.2679 81.6324 90.6565 85.3507C90.6661 85.4309 90.7303 85.4952 90.8106 85.4952Z" fill="#F2F2F2"/>
<path d="M89.3705 76.2667C89.4412 76.2667 89.5054 76.225 89.5215 76.1543C91.0756 70.4934 91.5989 64.6784 91.0788 58.8761C90.4494 51.7157 88.1761 44.6227 84.5059 38.3613C84.4642 38.2842 84.3614 38.265 84.294 38.3067C84.2169 38.3485 84.1913 38.4448 84.233 38.5218C87.8807 44.7415 90.1412 51.7895 90.7705 58.9018C91.2779 64.6687 90.7609 70.4453 89.2164 76.0709C89.1939 76.1543 89.2421 76.241 89.3288 76.2603C89.3449 76.2667 89.3545 76.2667 89.3705 76.2667Z" fill="#F2F2F2"/>
<path d="M87.3683 85.7137C87.4004 85.7137 87.4261 85.7073 87.4518 85.688C87.5256 85.6431 87.5481 85.5468 87.4999 85.4729C83.7881 79.584 77.8092 67.4626 79.4147 52.4642C79.9702 47.2528 81.3863 42.1506 83.6243 37.286C83.6564 37.2057 83.6243 37.1126 83.544 37.0805C83.4702 37.0419 83.3739 37.074 83.3353 37.1543C81.0876 42.051 79.662 47.1886 79.1001 52.4257C77.4817 67.5204 83.5023 79.7156 87.2334 85.6399C87.2655 85.688 87.3137 85.7137 87.3683 85.7137Z" fill="#F2F2F2"/>
<path d="M85.9284 85.8263C85.9541 85.8263 85.9798 85.8198 86.0023 85.8038C86.0761 85.762 86.1018 85.6657 86.0601 85.5919C83.5202 81.0516 78.8194 74.6328 70.8947 69.8646C66.3448 67.1256 61.3549 65.2889 56.0633 64.4027C55.9766 64.3866 55.8963 64.4444 55.8802 64.5311C55.8642 64.6178 55.922 64.6949 56.0087 64.711C61.2618 65.594 66.2195 67.4146 70.7309 70.1311C78.5946 74.8672 83.2633 81.2378 85.7872 85.746C85.8161 85.7941 85.8674 85.8263 85.9284 85.8263Z" fill="#F2F2F2"/>
<path d="M92.1479 86.494C92.2025 86.494 92.2603 86.4619 92.286 86.4137L107.397 58.96C107.442 58.8861 107.413 58.7898 107.333 58.748C107.259 58.7095 107.162 58.7384 107.121 58.8123L92.0098 86.2596C91.9649 86.3334 91.997 86.4298 92.074 86.4715C92.0933 86.4811 92.1222 86.494 92.1479 86.494Z" fill="#F2F2F2"/>
<path d="M88.4765 86.1568C88.4893 86.1568 88.4925 86.1568 88.499 86.1568C88.5857 86.1471 88.6499 86.0701 88.637 85.9802L83.9715 46.1995C83.9619 46.1193 83.8816 46.055 83.7949 46.0647C83.7082 46.0775 83.644 46.1514 83.6568 46.2381L88.3224 86.0187C88.3352 86.099 88.4026 86.1568 88.4765 86.1568Z" fill="#F2F2F2"/>
<path d="M83.7047 86.051C83.7465 86.051 83.8011 86.0221 83.8267 85.9804C83.8813 85.9097 83.8653 85.8166 83.7946 85.762L58.5693 67.649C58.5019 67.6008 58.3991 67.6169 58.351 67.6875C58.2964 67.7549 58.3124 67.8513 58.3831 67.9058L83.6084 86.0189C83.6405 86.0382 83.6662 86.051 83.7047 86.051Z" fill="#F2F2F2"/>
<path d="M92.5907 85.7679C92.6003 85.7679 92.6068 85.7679 92.6132 85.7679L96.8934 85.1578C96.9801 85.1418 97.0379 85.0615 97.0283 84.9748C97.0122 84.8913 96.9383 84.8335 96.8452 84.8432L92.7127 85.434L91.8522 81.4684C91.8361 81.3817 91.7526 81.3304 91.6724 81.3464C91.5857 81.3657 91.5279 81.446 91.5503 81.5327L92.4398 85.6427C92.4526 85.7198 92.5201 85.7679 92.5907 85.7679Z" fill="#F2F2F2"/>
<path d="M94.3692 82.381C94.3788 82.381 94.3852 82.381 94.3948 82.3778L99.7283 81.4916C99.815 81.4755 99.8728 81.3953 99.8567 81.3086C99.8471 81.2219 99.7604 81.1641 99.6769 81.1801L94.4912 82.0407L93.1939 75.6926C93.1715 75.6059 93.088 75.5513 93.0077 75.5674C92.921 75.5834 92.8632 75.6701 92.8825 75.7536L94.2118 82.2526C94.2279 82.3297 94.2921 82.381 94.3692 82.381Z" fill="#F2F2F2"/>
<path d="M97.1426 77.6024C97.1586 77.6024 97.1747 77.6024 97.1875 77.596L103.301 75.8717C103.385 75.8492 103.433 75.7658 103.407 75.6791C103.385 75.5956 103.295 75.5474 103.214 75.5731L97.2678 77.2428L95.6334 68.8622C95.6173 68.7691 95.5371 68.7177 95.4504 68.7337C95.3669 68.7498 95.3059 68.8333 95.3219 68.92L96.9948 77.474C97.0013 77.5157 97.027 77.5543 97.0655 77.58C97.0912 77.5928 97.1169 77.6024 97.1426 77.6024Z" fill="#F2F2F2"/>
<path d="M100.203 71.9355C100.216 71.9355 100.225 71.9323 100.241 71.9323L105.687 70.542C105.767 70.5227 105.822 70.4328 105.8 70.3525C105.777 70.2658 105.694 70.2177 105.607 70.2402L100.312 71.5888L98.3566 64.515C98.3309 64.4283 98.2506 64.3769 98.1575 64.4026C98.0772 64.4283 98.0259 64.515 98.0515 64.6017L100.049 71.82C100.071 71.8874 100.135 71.9355 100.203 71.9355Z" fill="#F2F2F2"/>
<path d="M102.982 66.8809C102.992 66.8809 103.008 66.8809 103.02 66.8745L107.516 65.8181C107.603 65.8021 107.654 65.7154 107.635 65.6287C107.619 65.5452 107.532 65.4906 107.445 65.5131L103.094 66.5342L101.579 61.2874C101.556 61.204 101.47 61.1558 101.386 61.1815C101.299 61.204 101.251 61.2939 101.274 61.3741L102.834 66.7621C102.85 66.8328 102.911 66.8809 102.982 66.8809Z" fill="#F2F2F2"/>
<path d="M105.367 62.5434C105.38 62.5434 105.383 62.5434 105.396 62.5434L107.669 62.2095C107.756 62.1966 107.82 62.1164 107.804 62.0329C107.791 61.9462 107.717 61.8884 107.628 61.898L105.486 62.2127L104.799 59.7884C104.776 59.7081 104.69 59.6568 104.606 59.6824C104.519 59.7049 104.471 59.7948 104.497 59.8751L105.219 62.431C105.242 62.5017 105.3 62.5434 105.367 62.5434Z" fill="#F2F2F2"/>
<path d="M78.6254 85.7517C78.6383 85.7517 78.6479 85.7517 78.6639 85.7453L82.1093 84.9714C82.1511 84.9586 82.1864 84.9329 82.2088 84.8912C82.2313 84.8526 82.2345 84.8045 82.2185 84.7627L80.7414 80.3958C80.7158 80.3155 80.6226 80.2674 80.5391 80.2931C80.4589 80.3252 80.4139 80.4151 80.4428 80.4954L81.8685 84.6985L78.5933 85.4402C78.5098 85.4563 78.4552 85.543 78.4713 85.6265C78.4938 85.7035 78.558 85.7517 78.6254 85.7517Z" fill="#F2F2F2"/>
<path d="M72.8879 83.379C72.8975 83.379 72.9136 83.379 72.9232 83.3758L78.2213 82.0753C78.3016 82.0593 78.353 81.9758 78.3369 81.8955L77.2291 76.2282C77.2131 76.1447 77.1264 76.0869 77.0397 76.1061C76.9562 76.1222 76.9016 76.2025 76.9177 76.2892L78.003 81.8088L72.8494 83.0707C72.7627 83.09 72.7145 83.1767 72.7306 83.2634C72.753 83.3308 72.8173 83.379 72.8879 83.379Z" fill="#F2F2F2"/>
<path d="M67.5511 79.7479C67.5575 79.7479 67.564 79.7479 67.5672 79.7479L74.307 79.231C74.3487 79.231 74.3937 79.2053 74.4194 79.1732C74.4451 79.1346 74.4579 79.0929 74.4515 79.0511L73.485 72.9021C73.4754 72.8122 73.3951 72.7544 73.3084 72.7705C73.2217 72.7866 73.1639 72.8668 73.1735 72.9503L74.1143 78.9323L67.5415 79.4397C67.4548 79.4461 67.3906 79.5199 67.397 79.6034C67.4034 79.6901 67.4709 79.7479 67.5511 79.7479Z" fill="#F2F2F2"/>
<path d="M63.6667 76.155L69.9602 76.0875C70.0084 76.0811 70.0533 76.0586 70.0854 76.0265C70.1175 75.9912 70.1272 75.943 70.1175 75.8949L69.0065 70.417C68.9841 70.3303 68.9038 70.2757 68.8171 70.2917C68.7336 70.3078 68.679 70.3881 68.6951 70.4748L69.7675 75.7696L63.6603 75.8403C63.5736 75.8467 63.5062 75.9141 63.5062 76.0008C63.5062 76.0907 63.58 76.155 63.6667 76.155Z" fill="#F2F2F2"/>
<path d="M60.513 73.1557C60.5258 73.1557 60.529 73.1557 60.5419 73.1557L64.9826 72.4911C65.0276 72.4814 65.0629 72.459 65.0854 72.4268C65.1111 72.3915 65.1239 72.3498 65.1175 72.3113L64.4496 68.1242C64.4336 68.0375 64.3533 67.9797 64.2698 67.9925C64.1831 68.0086 64.1253 68.0856 64.1414 68.1723L64.7804 72.1989L60.4937 72.8443C60.407 72.8539 60.3492 72.9342 60.3589 73.0273C60.3717 73.1012 60.4391 73.1557 60.513 73.1557Z" fill="#F2F2F2"/>
<path d="M58.7727 70.1596C58.7855 70.1596 58.7952 70.1596 58.8112 70.1532L60.9208 69.6716C60.9626 69.6619 61.0011 69.6363 61.0204 69.5977C61.0428 69.5592 61.0493 69.5175 61.0364 69.4789C60.8823 68.8817 60.3589 66.9326 60.2851 66.7785C60.2465 66.7046 60.1502 66.6725 60.0763 66.7079C59.9961 66.7528 59.964 66.8427 60.0025 66.923C60.0603 67.045 60.4392 68.445 60.6896 69.4019L58.7406 69.845C58.6571 69.8642 58.6025 69.9509 58.6186 70.0344C58.6346 70.1115 58.7053 70.1596 58.7727 70.1596Z" fill="#F2F2F2"/>
<path d="M87.4426 76.2666C87.4587 76.2666 87.4683 76.2666 87.4844 76.2602C87.5325 76.2505 87.5711 76.2152 87.5871 76.1703L89.4399 71.5047C89.472 71.4245 89.4334 71.3281 89.3532 71.296C89.2729 71.2639 89.183 71.3057 89.1445 71.3859L87.372 75.8556L83.0211 72.3589C82.9569 72.3043 82.8542 72.3171 82.8028 72.3845C82.7482 72.4488 82.7578 72.5515 82.8221 72.6029L87.3463 76.2345C87.372 76.257 87.4041 76.2666 87.4426 76.2666Z" fill="#F2F2F2"/>
<path d="M86.7757 70.7153C86.7853 70.7153 86.7982 70.7088 86.8078 70.7088C86.8559 70.6992 86.8945 70.6703 86.9137 70.6286L90.1022 64.4025C90.1408 64.3286 90.1119 64.2323 90.0316 64.1938C89.9513 64.152 89.8614 64.1842 89.8197 64.258L86.7211 70.3139L80.5753 65.3947C80.5111 65.3433 80.4115 65.3529 80.357 65.4172C80.3024 65.4878 80.3152 65.5873 80.3826 65.6419L86.6793 70.6767C86.705 70.6992 86.7371 70.7153 86.7757 70.7153Z" fill="#F2F2F2"/>
<path d="M86.0335 63.9686C86.0432 63.9686 86.0528 63.9686 86.0656 63.9686C86.1074 63.9589 86.1491 63.9332 86.1716 63.8947L89.5046 58.1118C89.5463 58.0379 89.5238 57.9416 89.45 57.8998C89.3761 57.8549 89.2798 57.8838 89.2316 57.9576L85.9918 63.5736L81.1753 59.6177C81.1047 59.5631 81.0084 59.576 80.9506 59.6402C80.896 59.7076 80.9056 59.8039 80.9698 59.8617L85.9372 63.9365C85.9629 63.9589 86.0014 63.9686 86.0335 63.9686Z" fill="#F2F2F2"/>
<path d="M85.1482 57.8229C85.1514 57.8229 85.1642 57.8229 85.1674 57.8229C85.2156 57.8133 85.2606 57.7876 85.2798 57.7426L88.3945 52.4092C88.4362 52.3354 88.4169 52.239 88.3399 52.1941C88.2596 52.1523 88.1633 52.178 88.1215 52.2551L85.1161 57.4119L80.7363 53.1092C80.6785 53.0514 80.5758 53.0514 80.518 53.1092C80.4537 53.1734 80.4602 53.273 80.518 53.334L85.0358 57.7747C85.0679 57.8068 85.1032 57.8229 85.1482 57.8229Z" fill="#F2F2F2"/>
<path d="M84.3294 51.7482C84.3422 51.7482 84.3455 51.7482 84.3519 51.7482C84.4065 51.7417 84.4482 51.7096 84.4707 51.6679L86.4711 47.8854C86.5129 47.8115 86.484 47.7152 86.4069 47.6735C86.3266 47.6349 86.2303 47.6638 86.195 47.7377L84.2973 51.3243L81.8537 48.7427C81.7927 48.6817 81.6964 48.6785 81.6354 48.7363C81.5712 48.7941 81.5648 48.8968 81.6226 48.961L84.217 51.7C84.2491 51.7321 84.2877 51.7482 84.3294 51.7482Z" fill="#F2F2F2"/>
<path d="M96.1393 191.382C96.1393 191.382 93.3568 189.292 90.8332 189.628C83.2142 190.633 75.0215 217.4 75.0215 217.4L75.4632 242.201C75.4632 242.201 83.4935 232.48 84.6867 229.647C85.8825 226.814 89.9649 212.454 90.1731 204.279C90.3813 196.109 96.1393 191.382 96.1393 191.382Z" fill="#DA8D4F"/>
<path d="M161.065 269.823C161.065 269.823 160.197 271.062 160.403 271.463C160.601 271.87 162.87 277.475 163.678 278.232C164.488 278.988 181.622 271.961 181.622 271.961C181.622 271.961 189.579 267.117 189.86 265.596C190.132 264.076 189.332 263.487 188.781 263.616C188.218 263.751 165.452 266.835 165.452 266.835L161.065 269.823Z" fill="#26285D"/>
<path d="M158.934 267.097L168.315 270.128C168.315 270.128 168.808 271.928 165.424 273.444C162.037 274.959 155.832 272.812 155.832 272.812L158.934 267.097Z" fill="#F68C82"/>
<path d="M113.976 266.769L105.758 257.688L110.196 249.505C110.196 249.505 152.317 261.613 162.731 266.497C162.731 266.497 164.468 273.819 158.184 274.609C156.996 274.753 113.976 266.769 113.976 266.769Z" fill="#F3A769"/>
<path d="M18.0889 280.881C18.0889 280.881 15.266 280.881 10.8785 280.881C5.92106 280.881 6.37173 280.881 3.18432 280.881C1.2142 280.549 2.23142 278.697 2.3152 278.628C2.36598 278.585 2.76588 278.177 3.00369 277.857C3.06208 277.603 3.58 277.042 3.97352 276.819C4.22232 276.677 5.09567 276.197 5.47649 275.978C7.28158 274.955 10.6379 273.008 19.2241 273.955C19.2241 273.955 22.6309 278.863 18.0889 280.881Z" fill="#FD9783"/>
<path d="M158.018 276.308C158.018 276.308 158.322 277.795 158.754 277.922C159.185 278.057 164.814 280.266 165.918 280.205C167.023 280.139 173.72 262.877 173.72 262.877C173.72 262.877 175.675 253.768 174.766 252.524C173.852 251.28 172.872 251.45 172.588 251.937C172.298 252.443 158.868 271.072 158.868 271.072L158.018 276.308Z" fill="#26285D"/>
<path d="M55.1888 249.47C55.1888 249.47 90.9606 247.847 110.283 249.708C110.283 249.708 110.857 259.955 109.09 263.479C107.331 267.003 90.9378 266.188 60.2029 275.607C60.2029 275.607 49.1972 268.285 48.598 267.038C48.0014 265.792 42.4389 251.173 55.1888 249.47Z" fill="#F3A769"/>
<path d="M152.943 269.623L162.656 271.324C162.656 271.324 163.392 273.04 160.252 275.013C157.109 276.98 150.668 275.713 150.668 275.713L152.943 269.623Z" fill="#F68C82"/>
<path d="M138.529 266.412L110.425 261.953L105.069 267.704C105.069 267.704 100.591 277.393 106.871 279.98C111.254 281.788 136.814 279.752 169.515 281.332C169.515 281.332 179.171 274.379 171.57 272.994C170.212 272.746 138.529 266.412 138.529 266.412Z" fill="#F7CDA3"/>
<path d="M57.3191 257.446C57.3191 257.446 104.048 260.927 111.305 262.086C111.305 262.086 122.905 278.284 114.532 280.881C109.124 279.98 62.7047 282.684 49.6351 280.431C49.6351 280.431 44.8996 277.287 44.163 273.806C43.8671 272.425 37.2136 258.04 57.3191 257.446Z" fill="#F7CDA3"/>
<path d="M61.0761 199.404C61.0761 199.404 53.6399 198.264 46.2317 204.419C46.2317 204.419 38.6483 249.599 43.2105 265.893C43.2105 265.893 55.6971 271.001 68.5638 259.249C68.5638 259.249 84.3374 227.702 73.7295 198.978C73.7295 198.978 67.0017 193.469 61.0761 199.404Z" fill="#F3A769"/>
<path d="M64.9548 199.309C64.9548 199.309 65.4321 189.342 64.9548 183.929C64.9548 183.929 60.5702 180.207 56.9601 183.851C56.9601 183.851 55.8861 198.075 52.9233 200.33C49.958 202.582 64.9548 199.309 64.9548 199.309Z" fill="#FD9783"/>
<path d="M55.4259 217.545C55.4259 217.545 52.8015 205.13 49.1862 202.464C40.6561 207.451 24.3991 221.843 9.07617 270.516C9.07617 270.516 18.1841 277.123 20.3878 273.077C24.0944 266.262 31.1625 255.219 37.7786 242.39C41.0969 235.959 49.6907 229.089 55.4259 217.545Z" fill="#F3A769"/>
<path d="M100.342 222.632C100.647 222.462 104.965 219.263 108.251 225.909C111.541 232.558 105.004 233.655 103.089 230.725C101.173 227.793 99.5934 223.058 100.342 222.632Z" fill="#FD9783"/>
<path d="M104.197 230.38C104.197 230.38 107.437 226.867 109.163 228.519C110.892 230.17 114.728 239.06 114.487 240.038C114.246 241.013 112.019 244.29 108.691 239.733C105.363 235.174 102.923 231.52 104.197 230.38Z" fill="#FD9783"/>
<path d="M94.2462 216.978C94.2462 216.978 98.156 213.541 101.248 215.247C103.988 216.757 108.616 222.31 107.88 223.627C107.143 224.943 102.023 229.497 99.9509 227.816C97.8793 226.136 91.0397 221.825 94.2462 216.978Z" fill="#FF8B65"/>
<path d="M127.842 253.476C127.842 253.476 128.23 257.244 128.426 257.274C128.619 257.307 131.185 257.955 131.663 257.866C132.135 257.774 134.694 252.123 134.694 252.123C134.694 252.123 134.42 245.85 133.953 245.362C133.491 244.867 131.399 245.852 131.3 246.081C131.203 246.317 127.92 251.158 127.92 251.158L127.842 253.476Z" fill="#004083"/>
<path d="M103.926 245.194C103.926 245.194 97.7265 261.608 98.7293 262.039C99.7347 262.469 128.014 267.191 128.774 257.307C128.774 257.307 131.348 248.927 129.972 248.056C117.506 240.142 96.9902 237.421 96.9902 237.421L103.926 245.194Z" fill="#4FA5FF"/>
<path d="M93.6593 245.728C95.142 245.822 99.1533 237.573 100.671 237.515C112.467 237.063 109.468 247.563 108.392 249.932C113.843 249.701 124.163 253.595 129.969 256.139C131.993 257.023 127.827 268.222 127.827 268.222C92.1386 264.756 86.0479 258.452 86.0479 258.452C84.6008 255.477 93.1261 249.432 93.6593 245.728Z" fill="#C9E4FF"/>
<path d="M100.365 214.797C100.365 214.797 91.6818 211.834 86.2741 218.217C86.2741 218.217 72.986 237.598 86.0482 258.452C86.0482 258.452 92.9461 246.012 108.631 240.586C108.631 240.586 108.301 235.516 105.556 227.89C105.556 227.89 104.967 217.742 100.365 214.797Z" fill="#FBC331"/>
<path d="M85.7138 229.91C86.0794 229.778 92.5483 228.296 94.8306 236.161C97.113 244.029 89.7962 244.397 88.2856 240.835C86.7699 237.281 84.8201 230.228 85.7138 229.91Z" fill="#F68C82"/>
<path d="M89.1879 241.559C89.1879 241.559 91.2062 236.687 93.6257 237.74C96.0452 238.796 103.415 246.55 103.54 247.654C103.662 248.759 102.6 253.001 97.4136 249.546C92.2243 246.09 88.3018 243.232 89.1879 241.559Z" fill="#F68C82"/>
<path d="M86.2747 218.217C86.2747 218.217 87.9529 216.438 90.2124 219.616C92.4694 222.792 98.0192 230.553 96.9631 231.84C95.9069 233.13 87.1988 238.413 85.2719 236.184C83.3449 233.955 81.847 222.861 86.2747 218.217Z" fill="#FBC331"/>
<path d="M109.865 239.223C109.865 239.223 108.793 241.528 110.586 243.504C112.383 245.486 112.386 243.643 110.631 237.789L109.865 239.223Z" fill="#FD9783"/>
<path d="M110.066 240.279C110.066 240.279 110.442 241.815 112.47 243.026C114.504 244.234 114.235 244.001 115.613 244.628C116.565 245.065 117.162 243.788 117.152 243.722C117.144 243.684 117.619 243.841 117.723 243.585C117.789 243.417 118.099 242.638 117.733 241.741C117.67 241.586 117.413 240.279 117.007 239.667C116.337 238.657 114.171 235.671 111.952 236.448C111.952 236.448 108.855 237.715 110.066 240.279Z" fill="#FD9783"/>
<path d="M99.1806 245.969C99.1806 245.969 99.9829 243.283 102.913 242.958C105.85 242.638 104.502 244.161 98.7617 247.718L99.1806 245.969Z" fill="#F68C82"/>
<path d="M100.123 245.246C100.123 245.246 101.555 244.248 104.122 244.735C106.686 245.223 106.292 245.22 107.892 245.71C109.001 246.045 108.557 247.541 108.499 247.586C108.463 247.614 108.973 247.833 108.869 248.12C108.803 248.302 108.491 249.178 107.531 249.65C107.366 249.734 106.193 250.628 105.409 250.834C104.114 251.179 100.133 252.06 98.869 249.79C98.869 249.79 97.2391 246.477 100.123 245.246Z" fill="#F68C82"/>
<path d="M91.5378 209.76L99.5275 212.977C99.5275 212.977 99.6569 216.673 98.6516 218.181C97.6487 219.689 91.1392 217.288 91.1138 217.285C90.5832 217.234 91.6901 213.314 91.5378 209.76Z" fill="#FD9783"/>
<path d="M106.624 196.381C106.624 196.381 110.27 196.269 109.303 200.248C109.303 200.248 108.655 201.197 107.711 202.078C106.767 202.962 107.051 203.67 106.769 205.066C106.487 206.465 105.213 206.13 104.802 204.208C104.395 202.284 102.826 197.694 103.149 197.595C103.469 197.493 106.624 196.381 106.624 196.381Z" fill="#2E3192"/>
<path d="M97.8574 196.155C97.8574 196.155 100.509 193.22 105.708 197.909C105.708 197.909 106.515 204.805 105.784 209.123C104.167 213.731 101.592 215.445 97.8574 215.534C97.8574 215.534 94.1162 217.288 92.9001 211.027C91.8059 205.391 95.3338 197.498 97.8574 196.155Z" fill="#FD9783"/>
<path d="M93.8453 207.986C93.8453 207.986 94.0738 201.698 97.2676 201.769C100.466 201.837 102.256 202.556 105.867 202.033C109.474 201.51 108.306 200.096 109.449 201.243C110.589 202.388 112.14 202.548 111.922 200.228C111.698 197.905 110.383 195.691 107.618 195.353C104.854 195.018 105.29 193.185 103.145 192.743C100.995 192.301 98.801 192.637 97.6839 193.523C96.5669 194.409 94.4292 195.627 92.7485 195.47C91.0729 195.312 90.0396 195.818 89.641 198.047C89.2399 200.278 90.461 201.517 89.2983 203.508C88.1355 205.496 87.8714 205.364 88.27 206.059C88.6712 206.75 88.0568 206.793 87.9476 208.281C87.841 209.771 88.8059 212.168 89.2984 212.379C89.7909 212.585 92.4743 212.026 92.7485 211.478C93.0252 210.932 93.8453 207.986 93.8453 207.986Z" fill="#172755"/>
<path d="M127.275 267.332C127.275 267.332 127.565 268.175 127.826 268.221C128.083 268.261 131.528 269.13 132.165 269.008C132.802 268.889 135.869 259.282 135.869 259.282C135.869 259.282 135.529 252.478 134.694 252.122C131.52 250.769 127.605 259.193 127.476 259.505C127.344 259.817 127.377 264.22 127.377 264.22L127.275 267.332Z" fill="#004083"/>
<path d="M94.0737 193.893C94.0737 193.893 98.4379 197.592 102.129 197.798C105.821 198.006 103.96 196.533 103.96 196.533C103.96 196.533 102.325 192.664 100.949 191.892C97.8997 190.176 95.7468 189.425 93.9315 189.574C92.1163 189.724 89.4912 192.743 91.248 193.499C93.0049 194.256 94.0737 193.893 94.0737 193.893Z" fill="#FD9783"/>
<path d="M95.2039 193.903C95.2039 193.903 96.3515 196.056 97.4381 197.541C97.4381 197.541 98.2683 198.76 97.4279 198.737C96.5901 198.717 89.7886 194.753 90.8067 192.217C91.8222 189.676 95.2039 193.903 95.2039 193.903Z" fill="#FD9783"/>
<path d="M153.535 247.33C153.535 247.33 151.425 244.321 147.561 243.509C143.694 242.694 146.462 244.382 154.167 249.5L153.535 247.33Z" fill="#FD9783"/>
<path d="M153.535 247.329C153.535 247.329 151.582 246.296 148.244 245.105C144.903 243.915 144.677 243.943 142.496 243.392C140.985 243.006 142.186 244.12 142.232 244.204C142.26 244.257 142.036 244.082 142.011 244.445C141.993 244.671 142.235 245.301 142.463 245.613C142.61 245.809 142.94 246.664 143.164 246.966C144.23 248.401 145.383 250.597 151.839 252.691C151.839 252.691 156.34 250.49 153.535 247.329Z" fill="#FD9783"/>
<path d="M167.358 243.407C167.358 243.407 173.769 239.969 176.196 245.989C178.625 252.008 171.534 278.401 164.347 279.427C164.347 279.427 158.645 279.871 160.135 276.084C161.628 272.298 167.455 253.927 167.358 243.407Z" fill="#004083"/>
<path d="M167.412 276.145C167.412 276.145 165.739 278.466 164.348 279.428C162.956 280.39 154.553 265.487 150.234 251.915C150.234 251.915 152.38 247.231 154.418 248.992C155.934 250.303 156.553 257.312 165.589 268.155C168.991 272.248 167.412 276.145 167.412 276.145Z" fill="#004083"/>
<path d="M263.194 214.975C263.194 214.975 262.039 214.66 261.955 214.31C261.877 213.964 260.424 209.412 260.531 208.544C260.643 207.678 274.604 203.309 274.604 203.309C274.604 203.309 281.887 202.243 282.827 203.027C283.764 203.809 283.578 204.571 283.167 204.771C282.763 204.972 267.365 214.579 267.365 214.579L263.194 214.975Z" fill="#26285D"/>
<path d="M264.576 219.735C264.576 219.735 263.651 213.738 263.674 213.581C263.821 212.626 266.297 212.108 267.16 212.71L269.112 218.6L264.576 219.735Z" fill="#F68C82"/>
<path d="M281.236 271.047C281.236 271.047 284.176 270.666 284.133 269.016C284.092 267.373 271.606 226.054 268.336 215.373C268.336 215.373 263.878 214.594 263.175 216.95C262.103 220.58 270.123 265.015 270.123 265.015L281.236 271.047Z" fill="#005BBA"/>
<path d="M136.617 270.849C136.617 270.849 133.014 270.112 129.653 272.181C126.286 274.256 129.455 273.57 138.572 271.983L136.617 270.849Z" fill="#FD9783"/>
<path d="M136.616 270.849C136.616 270.849 134.488 271.435 131.246 272.872C128.004 274.307 127.86 274.482 125.897 275.581C124.539 276.343 126.171 276.323 126.263 276.353C126.318 276.371 126.037 276.399 126.268 276.678C126.415 276.858 127.022 277.145 127.405 277.216C127.646 277.259 128.471 277.65 128.84 277.711C130.604 278.026 132.955 278.823 139.079 275.901C139.079 275.901 140.828 271.207 136.616 270.849Z" fill="#FD9783"/>
<path d="M249.889 243.094C249.889 243.094 249.681 244.41 249.311 244.542C248.935 244.674 244.086 246.839 243.116 246.824C242.143 246.811 235.593 231.934 235.593 231.934C235.593 231.934 233.522 224.025 234.271 222.893C235.017 221.761 235.883 221.873 236.152 222.299C236.429 222.726 248.94 238.535 248.94 238.535L249.889 243.094Z" fill="#26285D"/>
<path d="M252.845 243.768C252.845 243.768 247.897 240.178 247.788 240.145C246.863 239.853 245.325 241.983 245.459 243.024L249.435 247.616L252.845 243.768Z" fill="#F68C82"/>
<path d="M216.658 254.44C216.658 254.44 260.704 256.388 281.337 258.513C281.337 258.513 279.534 269.597 274.789 270.719C270.044 271.839 219.108 269.724 219.108 269.724L216.658 254.44Z" fill="#005BBA"/>
<path d="M285 267.546C285.015 267.47 285.04 267.396 285.058 267.32C272.747 265.736 258.423 263.877 243.543 261.734C243.231 261.755 233.792 250.114 216.749 254.407C214.53 254.966 211.704 264.966 209.47 265.121C209.409 270.762 210.176 276.744 212.936 280.91C212.936 280.91 247.633 281.999 282.635 281.332C283.506 277.247 284.284 271.661 285 267.546Z" fill="#4FA5FF"/>
<path d="M167.459 245.608C167.459 245.608 174.52 241.442 179.463 242.429C186.655 243.869 189.029 248.307 201.195 253.143C207.499 255.649 212.399 254.44 216.745 254.407C216.745 254.407 229.731 272.849 214.796 281.039C214.796 281.039 203.203 280.913 195.14 276.056C189.306 272.547 167.701 269.463 167.193 267.183C166.261 263.014 163.961 251.297 167.459 245.608Z" fill="#005BBA"/>
<path d="M159 244.415C159 244.415 164.083 244.882 168.025 248.439C168.025 248.439 174.121 247.416 174.286 242.409C174.286 242.409 165.113 236.021 165.741 232.437C166.363 228.852 159 244.415 159 244.415Z" fill="#FD9783"/>
<path d="M168.513 224.285C168.513 224.285 160.536 218.963 154.027 223.538C154.027 223.538 152.638 230.877 152.389 236.265C152.141 241.657 152.12 245.278 155.995 246.179C155.995 246.179 165.646 243.311 167.712 237.617C170.117 231 170.831 226.448 168.513 224.285Z" fill="#FD9783"/>
<path d="M289.845 281.332L293.45 273.043C292.43 271.753 259.253 247.855 250.22 241.277C250.22 241.277 246.185 243.328 247.041 245.631C248.361 249.178 281.282 281.332 281.282 281.332H289.845Z" fill="#4FA5FF"/>
<path d="M175.343 247.797C175.343 247.797 181.572 242.696 183.918 248.517C186.265 254.34 179.414 279.876 172.472 280.866C172.472 280.866 166.965 281.296 168.404 277.634C169.846 273.972 175.437 257.977 175.343 247.797Z" fill="#005BBA"/>
<path d="M173.741 279.097C173.741 279.097 174.515 279.471 173.121 280.431C171.73 281.395 148.617 278.965 135.149 274.436C135.149 274.436 134.631 271.539 136.573 271.047C138.515 270.554 168.501 269.584 173.741 270.516C178.981 271.445 173.741 279.097 173.741 279.097Z" fill="#005BBA"/>
<path d="M55.1496 182.499C55.1496 182.499 57.3409 190.626 61.7325 194.062C68.1062 196.623 70.2505 190.242 71.561 183.553C72.8703 176.867 74.5074 175.697 69.975 173.246C65.4445 170.799 59.535 166.789 57.2209 172.198C54.9067 177.607 55.1496 182.499 55.1496 182.499Z" fill="#FD9783"/>
<path d="M71.486 178.58C71.486 178.58 69.4476 179.057 66.2176 178.298C62.9876 177.539 62.6237 175.44 60.4322 177.812C58.2378 180.183 60.7738 183.363 55.8254 187.594C53.3836 183.966 55.1563 179.981 55.4746 178.254C55.7917 176.531 52.085 175.338 56.8067 170.362C61.5254 165.385 70.9609 172.358 71.338 167.27C74.8701 166.344 78.7837 166.334 80.2562 170.399C81.7275 174.466 77.0566 180.249 73.3472 179.919C72.3137 179.509 72.3137 179.509 71.486 178.58Z" fill="#573961"/>
<path d="M63.5924 188.245C63.5082 187.936 63.7865 187.69 64.1009 187.753L68.6353 188.654C68.9434 188.716 69.1107 189.04 68.9367 189.302C68.4912 189.971 67.5186 190.985 65.8939 190.526C64.3355 190.087 63.7859 188.957 63.5924 188.245Z" fill="white"/>
<path d="M65.8469 182.085C65.7895 182.051 65.7461 181.996 65.7219 181.925C65.6977 181.853 65.6936 181.77 65.71 181.683L65.9569 180.38C65.9803 180.26 66.0421 180.143 66.1287 180.054C66.2152 179.966 66.3195 179.914 66.4184 179.909C66.5174 179.904 66.603 179.948 66.6564 180.029C66.7098 180.111 66.7267 180.224 66.7032 180.345L66.4563 181.648C66.4452 181.707 66.4243 181.767 66.395 181.823C66.3656 181.879 66.3284 181.931 66.2854 181.975C66.2424 182.018 66.1946 182.054 66.1447 182.078C66.0948 182.103 66.0439 182.117 65.9948 182.119C65.9406 182.123 65.8899 182.111 65.8469 182.085Z" fill="#080C53"/>
<path d="M69.3083 182.727C69.2498 182.695 69.2051 182.64 69.1794 182.57C69.1538 182.5 69.1482 182.417 69.1633 182.33L69.4177 181.02C69.4278 180.96 69.4477 180.901 69.4761 180.845C69.5046 180.789 69.541 180.737 69.5833 180.693C69.6255 180.649 69.6728 180.613 69.7223 180.587C69.7718 180.562 69.8225 180.547 69.8715 180.545C69.9702 180.541 70.0556 180.585 70.1092 180.666C70.1628 180.748 70.1804 180.86 70.1582 180.98L69.9167 182.284C69.8928 182.404 69.8309 182.521 69.7447 182.609C69.6584 182.697 69.5545 182.749 69.4554 182.755C69.4014 182.763 69.3506 182.753 69.3083 182.727Z" fill="#080C53"/>
<ellipse cx="161.786" cy="225.555" rx="11.0378" ry="7.67847" fill="#172755"/>
<ellipse cx="183.383" cy="240.912" rx="9.59809" ry="7.67847" fill="#172755"/>
<path d="M205.458 250.03C205.458 252.946 202.45 255.309 198.739 255.309C195.029 255.309 182.902 248.147 182.902 245.231C182.902 242.316 195.029 244.751 198.739 244.751C202.45 244.751 205.458 247.115 205.458 250.03Z" fill="#172755"/>
<path d="M187.702 245.711C187.702 249.952 178.603 235.859 173.302 235.859C168.001 235.859 153.628 229.875 159.867 224.116C159.867 219.875 164.642 224.822 169.943 224.822C183.38 221.463 183.862 241.392 187.702 245.711Z" fill="#172755"/>
<path d="M201.137 249.553C201.137 253.794 185.802 248.594 180.501 248.594C175.2 248.594 160.347 238.434 160.347 234.194C160.347 228.613 158.426 226.518 176.662 228.438C170.903 244.755 201.137 245.313 201.137 249.553Z" fill="#172755"/>
<path d="M100.13 206.434C100.069 206.404 100.019 206.355 99.9844 206.291C99.9502 206.228 99.934 206.152 99.9374 206.074L99.989 204.898C99.9944 204.789 100.038 204.683 100.11 204.602C100.182 204.521 100.276 204.472 100.373 204.466C100.469 204.46 100.559 204.498 100.624 204.57C100.688 204.643 100.721 204.745 100.716 204.853L100.664 206.03C100.662 206.084 100.65 206.138 100.629 206.189C100.609 206.24 100.58 206.287 100.544 206.327C100.508 206.367 100.467 206.399 100.421 206.423C100.376 206.446 100.328 206.459 100.28 206.461C100.228 206.466 100.176 206.457 100.13 206.434Z" fill="#080C53"/>
<path d="M103.753 206.856C103.696 206.83 103.649 206.786 103.617 206.729C103.584 206.671 103.568 206.603 103.57 206.531L103.625 205.446C103.626 205.397 103.636 205.348 103.654 205.301C103.672 205.255 103.698 205.212 103.73 205.174C103.762 205.137 103.799 205.107 103.84 205.085C103.881 205.063 103.925 205.051 103.969 205.047C104.057 205.043 104.139 205.077 104.198 205.144C104.257 205.21 104.287 205.302 104.283 205.402L104.24 206.481C104.234 206.58 104.194 206.677 104.129 206.751C104.063 206.825 103.977 206.87 103.889 206.877C103.841 206.884 103.794 206.877 103.753 206.856Z" fill="#080C53"/>
<path d="M99.3495 211.247C99.2049 210.887 99.526 210.532 99.9022 210.618L101.12 210.894C101.164 210.904 101.21 210.908 101.256 210.906L102.036 210.865C102.424 210.845 102.681 211.254 102.468 211.579C102.076 212.178 101.495 212.929 100.985 213.036C100.31 213.177 99.7478 212.237 99.3495 211.247Z" fill="white"/>
</svg>
