<svg width="428" height="270" viewBox="0 0 428 270" fill="none" xmlns="http://www.w3.org/2000/svg">
<path d="M22.577 124.774C31.1227 176.337 -11.4497 188.473 15.3782 220.755C29.3326 247.157 -0.288123 260.068 0.981196 269.705H420.898C402.439 269.705 433.364 237.423 420.898 216.914C406.021 192.439 441.391 177.362 420.898 152.607C406.186 134.836 417.534 91.4515 425.697 46.068C437.694 -20.6353 276.447 1.43997 246.213 15.3569C150.851 59.2522 95.8228 -5.24946 42.253 3.83929C-11.3167 12.928 14.3325 75.0271 22.577 124.774Z" fill="#003A76" fill-opacity="0.88"/>
<path d="M237.813 79.422C247.487 69.7479 247.487 54.0631 237.813 44.389C228.139 34.7149 212.454 34.7149 202.78 44.389C193.106 54.0631 193.106 69.7479 202.78 79.422C212.454 89.0961 228.139 89.0961 237.813 79.422Z" fill="#C9E4FF"/>
<path d="M220.296 87.099C206.404 87.099 195.102 75.7967 195.102 61.9056C195.102 48.0144 206.404 36.7107 220.296 36.7107C234.189 36.7107 245.491 48.013 245.491 61.9056C245.491 75.7981 234.188 87.099 220.296 87.099ZM220.296 37.5563C206.87 37.5563 195.947 48.4781 195.947 61.9056C195.947 75.3331 206.87 86.2535 220.296 86.2535C233.723 86.2535 244.646 75.3317 244.646 61.9056C244.646 48.4795 233.723 37.5563 220.296 37.5563Z" fill="#4FA5FF"/>
<path d="M237.995 52.7873L215.979 63.0012L216.334 63.7683L238.351 53.5544L237.995 52.7873Z" fill="#4FA5FF"/>
<path d="M222.467 64.0555L222.965 63.3721L209.756 53.7474L209.258 54.4307L222.467 64.0555Z" fill="#4FA5FF"/>
<path d="M220.719 40.0986H219.873V42.4887H220.719V40.0986Z" fill="#4FA5FF"/>
<path d="M209.393 43.0198L210.588 45.09L209.393 43.0198Z" fill="#C9E4FF"/>
<path d="M209.76 42.8128L209.027 43.2356L210.222 45.3055L210.955 44.8827L209.76 42.8128Z" fill="#4FA5FF"/>
<path d="M201.41 51.0034L203.48 52.1985L201.41 51.0034Z" fill="#C9E4FF"/>
<path d="M201.618 50.6327L201.195 51.365L203.265 52.56L203.688 51.8277L201.618 50.6327Z" fill="#4FA5FF"/>
<path d="M200.88 61.4829H198.49V62.3285H200.88V61.4829Z" fill="#4FA5FF"/>
<path d="M201.41 72.8076L203.48 71.6125L201.41 72.8076Z" fill="#C9E4FF"/>
<path d="M203.277 71.2653L201.207 72.4604L201.63 73.1927L203.7 71.9976L203.277 71.2653Z" fill="#4FA5FF"/>
<path d="M209.393 80.7897L210.588 78.7195L209.393 80.7897Z" fill="#C9E4FF"/>
<path d="M210.179 78.4763L208.984 80.5464L209.717 80.969L210.911 78.8989L210.179 78.4763Z" fill="#4FA5FF"/>
<path d="M220.719 81.321H219.873V83.7112H220.719V81.321Z" fill="#4FA5FF"/>
<path d="M231.198 80.7897L230.004 78.7195L231.198 80.7897Z" fill="#C9E4FF"/>
<path d="M230.365 78.4976L229.633 78.9204L230.828 80.9903L231.56 80.5675L230.365 78.4976Z" fill="#4FA5FF"/>
<path d="M239.18 72.8076L237.111 71.6125L239.18 72.8076Z" fill="#C9E4FF"/>
<path d="M237.647 68.4399L237.225 69.1755L239.304 70.3706L239.727 69.6349L237.647 68.4399Z" fill="#4FA5FF"/>
<path d="M242.103 61.4829H239.713V62.3285H242.103V61.4829Z" fill="#4FA5FF"/>
<path d="M239.18 51.0034L237.111 52.1985L239.18 51.0034Z" fill="#C9E4FF"/>
<path d="M241.784 50.9051L239.705 52.1001L240.128 52.8357L242.207 51.6407L241.784 50.9051Z" fill="#4FA5FF"/>
<path d="M231.198 43.0198L230.004 45.0844L231.198 43.0198Z" fill="#C9E4FF"/>
<path d="M230.781 42.7734L229.586 44.8435L230.318 45.2661L231.513 43.1961L230.781 42.7734Z" fill="#4FA5FF"/>
<path d="M298.702 213.19L298.807 263.963L405.935 264.318L405.99 213.19H298.702Z" fill="#4282C6"/>
<path d="M298.592 159.53L298.702 209.944H405.99L406.045 159.53H298.592Z" fill="#4282C6"/>
<path d="M405.99 209.944H298.702V213.191H405.99V209.944Z" fill="#C9E4FF"/>
<path d="M298.486 106.95L298.577 156.283H406.044L406.104 106.95H298.486Z" fill="#4282C6"/>
<path d="M298.578 156.283L298.592 159.53H406.045V156.283H298.578Z" fill="#C9E4FF"/>
<path d="M298.386 59.062L298.473 103.716H406.104L406.141 59.4249L298.386 59.062Z" fill="#4282C6"/>
<path d="M298.472 103.715L298.486 106.95H406.104V103.715H298.472Z" fill="#C9E4FF"/>
<path d="M333.725 103.591L336.787 102.37L316.585 65.3174L313.528 66.5349L333.725 103.591Z" fill="#30384B"/>
<path d="M350.833 210.197L348.432 209.217L364.271 179.483L366.668 180.46L350.833 210.197Z" fill="#30384B"/>
<path d="M344.03 103.602L346.805 101.963L326.31 76.7385L323.536 78.3775L344.03 103.602Z" fill="#81BFEB"/>
<path d="M341.042 210.088L338.268 208.45L358.762 183.225L361.536 184.864L341.042 210.088Z" fill="#81BFEB"/>
<path d="M393.064 103.658L401.65 103.634L401.14 67.422L392.883 67.4224L393.064 103.658Z" fill="#FFBA5A"/>
<path d="M349.327 103.864L351.119 102.752L329.98 77.9177L328.189 79.0299L349.327 103.864Z" fill="#C9E8F8"/>
<path d="M335.743 210.351L333.951 209.238L355.09 184.404L356.881 185.516L335.743 210.351Z" fill="#C9E8F8"/>
<path d="M360.087 103.74L361.596 102.358L335.251 81.4617L333.738 82.8509L360.087 103.74Z" fill="#FFBA5A"/>
<path d="M324.985 210.226L323.477 208.845L349.821 187.948L351.334 189.337L324.985 210.226Z" fill="#81BFEB"/>
<path d="M394.888 97.0347L400.793 73.0903L399.038 72.7703L393.128 96.7186L394.888 97.0347Z" fill="#F2F2F2"/>
<path d="M84.7727 54.1912C97.5518 50.0434 103.597 50.1493 106.461 51.0654C106.461 51.0654 104.375 55.9405 88.261 61.1518C72.1521 66.3584 67.9602 63.6423 67.9602 63.6423C69.6251 61.0413 74.045 57.6853 84.7727 54.1912Z" fill="#F36B44"/>
<path d="M77.6035 267.477V58.2915L94.0939 52.3989L217.899 267.477H77.6035Z" fill="#FFDD83"/>
<path d="M131.641 172.424C131.641 172.424 133.233 176.497 134.452 177.379C135.669 178.263 138.282 176.457 138.282 176.457C138.282 176.457 138.518 172.933 138.562 172.787C138.607 172.64 131.641 172.424 131.641 172.424Z" fill="#FD9783"/>
<path d="M139.906 173.998C139.906 173.998 141.172 172.438 140.922 170.742C140.668 169.043 139.551 167.627 138.997 166.257C138.443 164.886 138.269 162.539 137.847 162.521C137.422 162.504 136.911 162.827 136.819 163.912C136.724 164.997 137.323 167.692 137.323 167.692C137.323 167.692 137.181 171.631 137.154 171.999C137.127 172.366 136.717 173.054 137.238 173.909C137.76 174.765 139.958 175.16 139.958 175.16L139.906 173.998Z" fill="#FD9783"/>
<path d="M127.918 187.77C127.918 187.77 142.918 184.47 146.009 177.385C149.096 170.298 146.52 156.266 154.294 152.941C162.069 149.614 212.301 149.401 220.026 154.09C227.751 158.78 226.773 256.14 219.731 267.639C207.81 267.639 173.662 267.99 161.161 267.639C148.722 267.639 111.403 267.639 106.738 267.639C102.803 265.335 101.088 244.675 100.219 227.701C99.1988 207.681 97.6921 198.871 100.921 194.153C104.153 189.432 127.918 187.77 127.918 187.77Z" fill="#C9E4FF"/>
<path d="M184.745 148.955C184.516 146.613 183.496 144.797 181.148 143.242C179.591 142.739 178.851 139.791 177.229 139.727C176.649 139.453 174.744 140.173 174.135 139.952C173.45 139.703 172.854 139.41 172.293 138.941C171.967 138.671 171.682 138.38 171.282 138.219C169.926 137.677 168.542 138.597 167.848 139.727C167.733 139.917 167.632 140.113 167.535 140.313C167.355 140.287 167.165 140.287 166.986 140.309C165.752 140.456 164.805 141.366 164.13 142.344C163.425 143.365 162.847 144.549 162.861 145.806C161.782 146.637 160.893 147.671 161.103 148.853C161.343 150.188 162.55 150.997 161.97 152.448C161.53 153.548 161.019 154.505 161.192 155.741C161.31 156.579 161.7 157.214 162.248 157.682C161.863 158.638 161.922 159.865 162.921 160.266C163.594 160.536 164.334 160.596 165.017 160.451C165.89 161.167 166.887 162.282 168.1 161.755C169.134 161.306 170.264 160.119 170.681 159.077C171.104 158.025 170.993 156.739 170.76 155.559C171.166 154.971 171.562 154.373 172 153.83C172.971 152.621 174.249 151.775 175.284 150.64C175.606 150.292 175.852 149.91 176.048 149.512C176.834 150.232 177.558 151.016 178.28 151.808C179.153 152.766 180.036 153.894 181.148 154.602C180.482 156.754 180.208 158.995 180.346 161.258C180.234 161.326 180.238 161.518 180.362 161.576C180.385 161.795 180.719 161.799 180.719 161.586C181.749 161.541 182.849 161.169 183.496 160.336C184.196 159.438 184.037 157.895 184.089 156.826C184.233 153.834 185.122 152.854 184.829 149.844C184.8 149.553 184.774 149.256 184.745 148.955Z" fill="#172755"/>
<path d="M168.422 149.976C168.443 150.339 168.475 150.707 168.518 151.071C168.818 153.77 169.378 156.021 169.663 156.763C170.516 158.989 172.598 163.087 174.357 162.935C176.495 162.749 182.764 157.313 182.897 156.314C183.027 155.316 182.732 150.123 182.732 150.123C182.732 150.123 183.176 146.071 177.855 143.935C172.534 141.798 174.119 146.871 169.972 144.798C169.556 145.87 168.337 148.53 168.422 149.976Z" fill="#FD9783"/>
<path d="M165.309 171.628L165.852 174.694L166.109 176.126L169.837 197.148C169.837 197.148 181.321 187.422 181.364 187.227C181.369 187.198 181.635 186.833 182.091 186.219C182.405 185.8 182.803 185.263 183.271 184.644C186.87 179.845 194.335 170.021 194.335 170.021C194.335 170.021 192.33 168.988 190.146 167.702C189.917 167.569 189.686 167.428 189.457 167.288C188.314 166.602 187.177 165.87 186.302 165.2C183.555 163.105 182.931 153.091 182.931 153.091L173.602 158.792C173.602 158.792 179.303 165.2 174.12 168.122C173.753 168.605 170.144 169.784 168.904 170.304C168.521 170.465 168.134 170.62 167.759 170.763C166.438 171.266 165.309 171.628 165.309 171.628Z" fill="#FD9783"/>
<path d="M165.575 170.08C165.575 170.08 156.977 171.058 154.198 173.656C151.416 176.251 148.033 180.297 148.033 180.297C148.033 180.297 158.904 177.759 159.185 177.622C159.468 177.483 165.575 170.08 165.575 170.08Z" fill="#C9E4FF"/>
<path d="M170.108 169.412C170.108 169.412 161.863 170.316 158.771 172.005C155.679 173.691 147.52 186.328 145.692 189.216C143.867 192.102 135.857 199.833 135.996 201.239C136.137 202.645 140.916 226.115 145.553 230.613C150.19 235.111 163.184 235.62 167.719 236.181C172.254 236.742 175.575 229.349 176.866 226.818C178.155 224.29 179.218 225.273 183.113 221.337C187.009 217.403 189.821 194.633 189.821 194.633L170.108 169.412Z" fill="#4FA5FF"/>
<path d="M170.108 169.411C170.108 169.411 174.149 177.942 175.731 177.731C177.313 177.52 190.251 167.156 190.251 167.156C190.251 167.156 199.025 170.849 201.131 172.446C203.24 174.041 205.56 178.784 205.771 182.79C205.982 186.796 205.085 206.509 205.085 206.509L189.53 196.781C189.53 196.781 182.442 195.228 179.035 195.228C175.627 195.228 170.108 197.866 170.108 197.866L163.785 176.457L164.997 170.564L170.108 169.411Z" fill="#4FA5FF"/>
<path d="M175.338 187.318C175.338 187.318 174.443 183.568 172.693 181.964C170.591 180.031 167.484 180.051 167.484 180.051L167.705 182.329C167.705 182.329 169.215 182.585 169.623 183.153C170.03 183.72 169.975 184.112 170.067 184.162C170.159 184.214 175.338 187.318 175.338 187.318Z" fill="#FD9783"/>
<path d="M135.104 177.362L144.43 194.069L138.422 175.727L135.104 177.362Z" fill="#FD9783"/>
<path d="M134.697 169.896C134.697 169.896 136.314 168.947 136.699 169.086C137.087 169.228 144.709 175.869 145.061 175.938C145.412 176.008 164.322 171.344 164.756 171.726C165.191 172.109 165.574 173.656 165.574 173.656L145.446 178.819C145.446 178.819 138.281 176.395 138.246 176.15C138.209 175.904 134.697 169.896 134.697 169.896Z" fill="white"/>
<path d="M134.172 169.396C134.872 168.963 143.095 177.063 145.062 177.202C147.029 177.343 165.249 172.667 166.205 172.915C167.159 173.166 170.321 200.96 170.321 200.96C170.321 200.96 151.386 203.555 150.752 203.486C150.122 203.416 141.829 194.982 141.548 194.279C141.267 193.576 133.469 169.825 134.172 169.396Z" fill="#7B95BA"/>
<path d="M175.338 187.318C174.411 184.887 172.134 183.583 169.71 183.416C166.881 183.223 165.99 183.094 159.838 182.723C158.258 182.627 156.651 183.243 158.258 184.609C158.298 184.643 158.347 184.666 158.39 184.698C157.632 184.648 156.837 184.718 156.38 185.123C155.74 185.694 156.433 186.263 156.969 186.563C157.297 186.749 157.657 186.881 158.035 186.98C157.438 187.375 157.267 188.063 158.313 188.555C159.028 188.888 159.947 189.034 160.834 189.156C160.672 189.213 160.528 189.288 160.424 189.397C159.122 190.758 162.823 191.106 163.238 191.178C164.691 191.436 166.136 191.724 167.577 192.045C168.615 192.275 170.03 192.916 171.088 192.842C172.027 192.775 172.618 191.607 173.127 190.927C173.932 189.854 175.4 187.485 175.338 187.318Z" fill="#FD9783"/>
<path d="M165.574 185.605C165.567 185.605 165.557 185.602 165.549 185.602L158.744 184.991C158.583 184.976 158.461 184.832 158.476 184.668C158.491 184.504 158.627 184.383 158.799 184.397L165.601 185.008C165.765 185.023 165.887 185.167 165.872 185.331C165.857 185.488 165.728 185.605 165.574 185.605Z" fill="#F48873"/>
<path d="M166.158 187.703C166.15 187.703 166.143 187.703 166.138 187.703L158.421 187.219C158.257 187.209 158.133 187.067 158.143 186.901C158.153 186.737 158.297 186.615 158.459 186.623L166.175 187.109C166.339 187.119 166.463 187.261 166.453 187.425C166.443 187.584 166.312 187.703 166.158 187.703Z" fill="#F48873"/>
<path d="M164.968 189.846C164.958 189.846 164.95 189.846 164.94 189.846L161.133 189.511C160.969 189.496 160.85 189.352 160.862 189.188C160.877 189.024 161.021 188.903 161.185 188.917L164.992 189.253C165.156 189.268 165.278 189.412 165.263 189.576C165.251 189.73 165.119 189.846 164.968 189.846Z" fill="#F48873"/>
<path d="M137.109 171.949C137.802 171.477 137.494 170.508 136.99 169.644C137.328 169.778 137.663 169.773 137.857 169.401C138.125 168.897 137.894 167.635 137.427 166.592C137 165.643 136.374 164.876 135.743 165.03C135.122 165.179 134.941 165.832 134.953 166.428C134.548 166.09 134.096 165.931 133.639 166.207C133.041 166.569 133.056 167.302 133.282 168.037C132.877 167.816 132.432 167.796 132.042 168.273C131.541 168.879 131.901 169.793 132.353 170.513C132.343 170.513 132.336 170.511 132.328 170.513C131.946 170.516 131.583 170.739 131.451 171.107C131.081 172.143 132.343 173.464 133.038 174.04C133.557 174.47 134.901 175.374 135.341 174.346C135.534 173.896 135.343 173.379 135.015 172.895C135.209 172.915 135.405 172.898 135.587 172.786C135.942 172.572 136.049 172.257 136.016 171.907C136.384 172.123 136.761 172.185 137.109 171.949Z" fill="#FD9783"/>
<path d="M135.802 171.664C135.71 171.664 135.62 171.622 135.561 171.543L133.276 168.426C133.179 168.292 133.209 168.105 133.34 168.008C133.474 167.912 133.661 167.939 133.758 168.073L136.043 171.19C136.139 171.322 136.11 171.508 135.978 171.605C135.926 171.644 135.864 171.664 135.802 171.664Z" fill="#F48873"/>
<path d="M136.77 169.645C136.668 169.645 136.568 169.59 136.514 169.496L134.79 166.52C134.708 166.376 134.755 166.195 134.899 166.113C135.041 166.029 135.222 166.078 135.307 166.22L137.028 169.198C137.11 169.339 137.063 169.523 136.919 169.603C136.874 169.632 136.822 169.645 136.77 169.645Z" fill="#F48873"/>
<path d="M134.787 173.084C134.715 173.084 134.643 173.057 134.586 173.005L132.266 170.884C132.145 170.772 132.137 170.586 132.249 170.464C132.358 170.342 132.547 170.332 132.669 170.444L134.988 172.565C135.108 172.677 135.118 172.866 135.006 172.987C134.949 173.052 134.867 173.084 134.787 173.084Z" fill="#F48873"/>
<path d="M170.109 238.011C170.109 238.011 173.691 234.961 174.11 228.638C174.533 222.312 171.411 203.489 175.827 199.108C180.2 194.766 206.686 196.676 206.686 196.676C206.686 196.676 203.663 220.961 203.03 222.116C202.399 223.268 198.604 230.858 193.229 232.229C187.852 233.6 170.109 238.011 170.109 238.011Z" fill="#C9E4FF"/>
<path d="M174.354 185.918C174.354 185.918 187.817 202.911 193.385 209.629C198.954 216.347 193.475 224.851 187.36 221.267C184.112 219.362 170.531 192.41 170.531 192.41L172.737 186.211L174.354 185.918Z" fill="#FD9783"/>
<path d="M148.855 196.073C148.539 195.969 144.218 193.753 139.37 195.018C134.522 196.284 135.155 197.265 129.57 196.828C123.981 196.389 120.869 201.45 119.317 205.876C117.762 210.304 119.998 229.594 124.846 232.441C129.696 235.287 131.236 233.846 138.563 234.055C145.668 234.259 154.125 237.731 161.151 233.31C165.887 230.33 167.296 224.324 167.298 222.638C167.301 220.951 166.831 211.779 164.968 209.882C163.106 207.985 148.855 196.073 148.855 196.073Z" fill="#005BBA"/>
<path d="M124.56 199.657C124.56 199.657 132.202 215.716 134.311 216.558C136.42 217.402 143.411 211.906 145.835 207.562C149.208 201.519 147.698 196.828 147.698 196.828C147.698 196.828 131.5 179.989 127.566 175.727C121.898 169.588 112.378 168.512 108.794 173.149C105.213 177.786 106.336 185.192 108.548 192.049C110.764 198.907 123.117 229.172 123.117 229.172L127.439 228.795L129.99 227.275L124.56 199.657Z" fill="#FD9783"/>
<path d="M113.319 199.657C113.319 199.657 119.87 214.73 121.979 215.574C124.085 216.419 133.222 212.202 135.013 207.562C136.806 202.925 137.964 196.828 137.964 196.828C137.964 196.828 119.24 179.517 115.308 175.258C109.638 169.118 100.419 169.585 96.8373 174.225C93.2535 178.861 95.0938 185.192 97.3067 192.049C99.5196 198.907 111.873 229.172 111.873 229.172L116.195 228.795L118.748 227.275L113.319 199.657Z" fill="#FD9783"/>
<path d="M127.239 213.587C127.093 213.587 126.966 213.48 126.944 213.328C126.934 213.246 125.844 205.065 125.021 198.573C124.207 192.138 121.219 186.466 121.189 186.408C121.112 186.264 121.167 186.083 121.311 186.006C121.457 185.929 121.639 185.984 121.716 186.128C121.746 186.185 124.783 191.952 125.613 198.496C126.432 204.988 127.525 213.169 127.535 213.251C127.557 213.413 127.443 213.564 127.279 213.584C127.267 213.587 127.252 213.587 127.239 213.587Z" fill="#F48873"/>
<path d="M130.519 211.866C130.409 211.866 130.302 211.806 130.25 211.702L125.517 202.299C125.442 202.153 125.502 201.974 125.648 201.899C125.795 201.825 125.973 201.884 126.048 202.031L130.784 211.434C130.856 211.58 130.797 211.759 130.65 211.834C130.608 211.856 130.563 211.866 130.519 211.866Z" fill="#F48873"/>
<path d="M115.022 210.179C114.908 210.179 114.798 210.112 114.749 210.001C114.394 209.193 106.024 190.154 105.291 183.108C104.544 175.945 109.394 172.051 109.444 172.011C109.575 171.909 109.762 171.934 109.864 172.063C109.965 172.192 109.943 172.379 109.814 172.481C109.767 172.518 105.172 176.221 105.882 183.046C106.608 190 115.208 209.563 115.295 209.762C115.362 209.911 115.293 210.088 115.141 210.155C115.104 210.172 115.062 210.179 115.022 210.179Z" fill="#F48873"/>
<path d="M188.012 204.311L189.532 196.78L199.817 203.213L195.294 218.107C195.294 218.107 187.853 209.407 187.697 209.144C187.538 208.88 188.012 204.311 188.012 204.311Z" fill="#FD9783"/>
<path d="M134.724 175.062C134.498 175.062 134.182 175.02 133.767 174.876C132.841 174.558 131.917 173.212 131.877 173.154C131.786 173.018 131.82 172.834 131.957 172.74C132.094 172.648 132.277 172.683 132.372 172.819C132.605 173.162 133.348 174.103 133.961 174.312C134.642 174.545 134.925 174.441 134.927 174.441C135.076 174.384 135.25 174.448 135.315 174.595C135.379 174.742 135.325 174.908 135.183 174.98C135.141 175 134.994 175.062 134.724 175.062Z" fill="#F48873"/>
<path d="M137.971 169.806C137.927 169.806 137.879 169.796 137.837 169.774C137.691 169.699 137.631 169.52 137.706 169.374C137.708 169.369 137.959 168.855 137.914 168.271C137.879 167.834 137.281 166.816 136.911 166.277C136.819 166.14 136.854 165.956 136.988 165.862C137.124 165.77 137.311 165.805 137.403 165.939C137.509 166.095 138.451 167.486 138.508 168.224C138.567 168.979 138.249 169.617 138.237 169.642C138.185 169.746 138.081 169.806 137.971 169.806Z" fill="#F48873"/>
<path d="M131.995 234.405C132 234.46 131.995 234.512 131.992 234.549C131.945 234.912 130.967 236.579 129.576 238.665C129.486 238.791 129.399 238.923 129.305 239.057C128.652 240.026 127.919 241.071 127.152 242.105C127.055 242.241 126.953 242.375 126.851 242.507C126.029 243.607 125.177 244.683 124.355 245.634C124.251 245.758 124.149 245.875 124.045 245.994C123.573 246.528 123.108 247.022 122.669 247.447C122.547 247.566 122.43 247.675 122.316 247.78C121.641 248.401 121.03 248.843 120.535 249.024C117.918 249.995 116.025 248.81 116.008 246.478C116.008 246.342 116.013 246.2 116.03 246.056C116.062 245.626 116.159 245.162 116.321 244.668C116.43 244.34 116.557 243.987 116.703 243.61C116.76 243.476 116.815 243.332 116.877 243.19C117.265 242.236 117.754 241.183 118.268 240.115C118.335 239.984 118.4 239.854 118.462 239.723C119.015 238.605 119.587 237.493 120.116 236.489C120.17 236.382 120.225 236.283 120.275 236.181C120.801 235.18 121.271 234.309 121.596 233.685C121.665 233.546 121.733 233.424 121.79 233.31C121.819 233.25 121.847 233.196 121.874 233.146C122.239 232.416 122.463 231.631 122.607 230.923C122.637 230.774 122.661 230.633 122.681 230.494C122.86 229.354 122.825 228.489 122.825 228.489C122.825 228.489 124.402 229.068 126.404 228.224C128.409 227.382 129.866 226.656 129.866 226.656C129.866 226.656 130.306 227.98 130.78 229.547C130.823 229.691 130.87 229.836 130.912 229.98C131.366 231.492 131.823 233.141 131.958 234.025C131.977 234.179 131.992 234.304 131.995 234.405Z" fill="#FD9783"/>
<path d="M121.163 233.364C121.2 233.624 120.887 234.64 120.358 236.046C120.301 236.193 120.244 236.349 120.179 236.505C119.804 237.472 119.337 238.584 118.818 239.744C118.754 239.886 118.692 240.03 118.625 240.169C118.237 241.028 117.82 241.902 117.388 242.759C117.321 242.893 117.254 243.027 117.187 243.159C116.494 244.515 115.771 245.807 115.078 246.865C114.999 246.984 114.919 247.101 114.842 247.215C114.142 248.236 113.481 248.998 112.907 249.341C110.146 250.98 107.813 249.649 107.915 246.532C107.915 246.398 107.923 246.259 107.94 246.115C107.945 246.018 107.958 245.921 107.97 245.819C108.064 245.119 108.228 244.297 108.439 243.415C108.469 243.281 108.501 243.142 108.536 243.003C108.762 242.079 109.028 241.098 109.306 240.127C109.346 239.992 109.388 239.853 109.425 239.719C109.636 238.989 109.855 238.269 110.061 237.588C110.113 237.432 110.158 237.285 110.205 237.139C110.543 236.041 110.853 235.062 111.077 234.335C111.129 234.173 111.174 234.024 111.216 233.89C111.263 233.734 111.305 233.595 111.34 233.478C111.618 232.517 111.71 231.484 111.718 230.609C111.723 230.47 111.723 230.336 111.723 230.209C111.71 229.236 111.613 228.543 111.613 228.543C111.613 228.543 113.089 229.012 114.907 227.818C116.722 226.626 118.384 225.411 118.384 225.411C118.384 225.411 118.595 225.908 118.903 226.663C118.962 226.807 119.02 226.963 119.087 227.127C119.581 228.367 120.234 230.07 120.681 231.484C120.728 231.63 120.773 231.779 120.818 231.918C120.984 232.487 121.108 232.989 121.163 233.364Z" fill="#FD9783"/>
<path d="M116.472 244.577C116.445 244.577 116.417 244.57 116.39 244.56C116.291 244.515 116.246 244.396 116.291 244.296C116.298 244.277 117.207 242.252 117.679 241.336C118.146 240.427 119.857 236.769 119.875 236.731C119.922 236.632 120.041 236.59 120.14 236.637C120.24 236.684 120.282 236.801 120.235 236.9C120.217 236.938 118.501 240.601 118.032 241.517C117.565 242.424 116.661 244.438 116.651 244.458C116.619 244.532 116.547 244.577 116.472 244.577Z" fill="#36303A"/>
<path d="M144.149 233.106C144.126 233.106 144.104 233.104 144.082 233.096C143.908 233.032 139.8 231.537 138.071 229.684C136.333 227.819 132.414 220.236 131.462 218.192C130.504 216.133 131.452 215.018 131.492 214.973C131.564 214.892 131.691 214.882 131.773 214.954C131.855 215.026 131.862 215.152 131.793 215.234C131.758 215.274 130.981 216.213 131.822 218.023C132.863 220.266 136.733 227.665 138.362 229.413C140.026 231.196 144.173 232.706 144.216 232.721C144.32 232.759 144.372 232.873 144.335 232.977C144.305 233.057 144.231 233.106 144.149 233.106Z" fill="#554E59"/>
<path d="M147.452 194.828C147.358 194.828 147.273 194.761 147.256 194.664L144.236 178.292C144.216 178.185 144.285 178.081 144.395 178.061C144.499 178.041 144.606 178.113 144.626 178.22L147.646 194.592C147.666 194.701 147.596 194.803 147.487 194.823C147.474 194.825 147.462 194.828 147.452 194.828Z" fill="#36303A"/>
<path d="M205.489 196.677L205.086 206.509L187.537 195.581L190.875 195.475L201.714 184.999L205.489 196.677Z" fill="#4FA5FF"/>
<path d="M171.78 229.37C171.773 229.37 171.766 229.37 171.756 229.37C171.649 229.355 171.569 229.258 171.582 229.149C171.589 229.082 172.352 222.396 170.958 218.169C169.57 213.952 166.061 210.8 166.023 210.768C165.941 210.696 165.934 210.569 166.009 210.487C166.081 210.405 166.205 210.398 166.289 210.47C166.324 210.502 169.913 213.723 171.336 218.045C172.757 222.356 171.984 229.127 171.977 229.194C171.964 229.296 171.88 229.37 171.78 229.37Z" fill="#36303A"/>
<path d="M178.966 267.639C178.885 267.639 178.812 267.532 178.792 267.363C178.765 267.167 178.821 266.961 178.918 266.905C179.061 266.825 182.431 264.827 182.528 256.824C182.627 248.536 182.528 219.586 182.528 219.296C182.526 219.09 182.607 218.922 182.706 218.917C182.706 218.917 182.706 218.917 182.709 218.917C182.806 218.917 182.887 219.086 182.887 219.292C182.889 219.582 182.986 248.541 182.887 256.843C182.785 265.416 179.049 267.607 179.013 267.63C178.997 267.639 178.982 267.639 178.966 267.639Z" fill="#36303A"/>
<path d="M206.685 189.748C206.652 189.748 206.623 189.743 206.593 189.728C206.496 189.678 206.456 189.559 206.506 189.459C206.541 189.392 210.018 182.473 211.123 173.85C212.236 165.197 212.941 155.501 212.951 155.404C212.958 155.295 213.055 155.21 213.162 155.22C213.271 155.228 213.353 155.322 213.346 155.434C213.338 155.531 212.63 165.237 211.518 173.902C210.403 182.592 206.896 189.571 206.861 189.641C206.826 189.71 206.757 189.748 206.685 189.748Z" fill="#36303A"/>
<path d="M152.86 172.682C152.838 172.682 152.815 172.677 152.793 172.669C152.691 172.634 152.637 172.52 152.674 172.416C152.694 172.356 154.78 166.438 155.334 162.494C155.888 158.54 155.922 153.573 155.922 153.523C155.925 153.414 156.012 153.324 156.121 153.324H156.124C156.233 153.324 156.322 153.414 156.32 153.523C156.32 153.575 156.285 158.57 155.726 162.548C155.17 166.532 153.069 172.49 153.046 172.55C153.019 172.632 152.942 172.682 152.86 172.682Z" fill="#36303A"/>
<path d="M259.518 171.438C258.969 169.158 257.938 166.97 257.772 164.628C257.469 160.344 260.091 156.105 259.155 151.912C258.701 149.891 257.456 148.137 256.108 146.563C254.781 145.01 253.294 143.545 251.483 142.599C249.673 141.652 247.492 141.272 245.56 141.941C240.635 143.642 241.251 150.427 242.664 154.279C243.578 156.768 244.777 159.202 245.046 161.837C245.346 164.77 244.467 167.73 244.777 170.664C245.197 174.63 247.73 178.045 250.497 180.916C251.165 181.604 251.886 182.299 252.802 182.587C254.615 183.156 256.532 181.932 257.702 180.434C259.317 178.36 260.089 175.651 259.803 173.038C259.746 172.499 259.644 171.965 259.518 171.438Z" fill="#C5DC99"/>
<path d="M280.623 163.368C279.05 162.124 276.902 161.603 275.034 162.303C272.407 163.287 271.023 166.172 270.39 168.907C269.754 171.641 269.578 174.552 268.205 177.001C266.997 179.154 264.966 180.726 263.804 182.905C262.49 185.366 262.482 188.493 262.092 191.205C262 191.851 261.911 192.529 262.132 193.142C262.683 194.665 264.77 194.94 266.322 194.476C268.552 193.81 270.455 192.126 271.393 189.998C272.183 188.202 272.298 186.176 273.01 184.35C274.828 179.701 280.104 177.205 282.237 172.692C283.389 170.253 283.459 167.223 282.031 164.933C281.658 164.337 281.174 163.806 280.623 163.368Z" fill="#C5DC99"/>
<path d="M249.21 195.583C248.843 193.04 248.107 190.539 247.144 188.155C245.534 184.171 243.302 180.471 241.017 176.832C240.262 175.625 239.42 174.358 238.111 173.8C235.578 172.719 232.898 174.897 232.319 177.284C231.559 180.421 232.88 183.811 234.383 186.516C236.005 189.439 238.084 192.136 239.246 195.27C240.219 197.891 240.545 200.797 242.087 203.126C243.165 204.753 245.214 206.059 247.015 205.309C248.686 204.609 249.267 202.54 249.404 200.729C249.533 199.011 249.456 197.287 249.21 195.583Z" fill="#C5DC99"/>
<path d="M284.453 206.639C284.361 205.693 284.05 204.801 283.241 204.389C282.133 203.827 280.839 204.55 279.773 205.186C277.049 206.813 274.081 208.015 271.431 209.756C267.42 212.388 264.152 217.075 264.916 222.082C265.013 222.703 265.215 223.383 265.763 223.696C266.109 223.893 266.528 223.902 266.926 223.863C271.155 223.45 273.505 218.642 277.387 216.919C278.8 216.29 280.409 216.079 281.673 215.19C283.881 213.638 284.333 210.595 284.47 207.898C284.49 207.493 284.492 207.061 284.453 206.639Z" fill="#C5DC99"/>
<path d="M258.422 237.148C258.231 237.148 258.062 237.006 258.032 236.812C258.022 236.75 256.974 230.509 251.453 221.176C248.979 216.993 247.63 211.358 247.655 205.308C247.68 198.826 239.464 183.072 239.38 182.913C239.281 182.719 239.355 182.481 239.549 182.379C239.742 182.277 239.983 182.352 240.085 182.545C240.428 183.199 248.475 198.634 248.448 205.31C248.425 211.219 249.734 216.71 252.138 220.771C257.744 230.251 258.774 236.428 258.817 236.686C258.849 236.902 258.702 237.108 258.486 237.14C258.464 237.145 258.444 237.148 258.422 237.148Z" fill="#153B72"/>
<path d="M259.828 240.448C259.811 240.448 259.791 240.448 259.774 240.445C259.558 240.416 259.404 240.214 259.433 239.998C259.438 239.976 259.726 237.89 260.511 234.366C261.296 230.834 262.483 225.502 266.191 221.826C269.758 218.294 275.336 212.453 275.391 212.393C275.542 212.234 275.795 212.229 275.952 212.381C276.111 212.532 276.116 212.783 275.964 212.942C275.91 213.001 270.324 218.85 266.75 222.39C263.208 225.901 262.051 231.097 261.286 234.537C260.509 238.024 260.226 240.085 260.221 240.105C260.193 240.304 260.024 240.448 259.828 240.448Z" fill="#153B72"/>
<path d="M261.654 240.447C261.485 240.447 261.328 240.338 261.276 240.169C261.259 240.112 259.57 234.586 259.428 228.419C259.317 223.345 259.982 218.177 260.628 213.177L260.707 212.551C261.117 209.385 261.562 206.551 262.068 203.888C262.483 201.713 263.357 199.641 264.204 197.64C264.594 196.711 264.999 195.752 265.347 194.806C266.154 192.613 266.748 190.293 267.319 188.05C267.547 187.154 267.776 186.26 268.017 185.373C269.566 179.671 274.489 173.648 274.698 173.395C274.837 173.223 275.088 173.198 275.256 173.34C275.425 173.479 275.45 173.727 275.311 173.899C275.261 173.958 270.287 180.046 268.782 185.582C268.543 186.466 268.315 187.355 268.089 188.247C267.51 190.509 266.914 192.849 266.092 195.079C265.739 196.043 265.329 197.011 264.935 197.948C264.105 199.912 263.246 201.944 262.848 204.037C262.344 206.683 261.905 209.501 261.497 212.653L261.415 213.279C260.774 218.249 260.111 223.387 260.226 228.399C260.362 234.454 262.016 239.879 262.034 239.933C262.098 240.142 261.982 240.365 261.773 240.43C261.733 240.442 261.693 240.447 261.654 240.447Z" fill="#153B72"/>
<path d="M258.423 240.418C258.421 240.418 258.418 240.418 258.416 240.418C258.197 240.413 258.021 240.234 258.026 240.013C258.028 239.75 258.43 213.426 257.035 203.832C256.374 199.294 256.143 194.518 255.937 190.303C255.694 185.267 255.482 180.915 254.665 177.816C253.024 171.589 252.44 165.005 253.111 160.204C253.779 155.399 251.499 152.282 251.476 152.252C251.347 152.076 251.382 151.827 251.556 151.696C251.732 151.564 251.981 151.599 252.112 151.773C252.214 151.909 254.613 155.17 253.898 160.314C253.242 165.018 253.816 171.483 255.433 177.612C256.272 180.794 256.486 185.182 256.732 190.264C256.935 194.461 257.164 199.217 257.819 203.717C259.225 213.374 258.823 239.762 258.82 240.025C258.815 240.244 258.639 240.418 258.423 240.418Z" fill="#153B72"/>
<path d="M273.125 235.676V265.455C273.125 266.719 272.102 267.745 270.835 267.745H246.722C245.455 267.745 244.432 266.719 244.432 265.455V235.676C244.432 234.412 245.455 233.386 246.722 233.386H270.835C272.102 233.386 273.125 234.412 273.125 235.676Z" fill="#C9E4FF"/>
<path d="M193.489 210.145C193.4 210.145 193.313 210.105 193.256 210.031L188.306 203.755C188.204 203.623 188.227 203.437 188.356 203.335C188.485 203.233 188.671 203.256 188.773 203.385L193.723 209.663C193.825 209.793 193.802 209.979 193.673 210.081C193.619 210.123 193.554 210.145 193.489 210.145Z" fill="#F48873"/>
<path d="M43.9339 254.401H48.0367V38.1968C47.8286 34.8125 48.106 25.5069 51.8818 21.4636C53.1255 20.1307 54.6418 19.4816 56.5247 19.4816C67.619 19.4816 71.6871 28.2074 71.7218 28.2966L75.4629 26.5871C75.2548 26.1312 70.2353 15.354 56.5247 15.354C53.4823 15.354 50.9106 16.4639 48.879 18.6491C43.1262 24.8281 43.8992 37.7855 43.9388 38.3306L43.9339 254.401Z" fill="#FBC331"/>
<path d="M93.392 49.3357C91.9402 44.6433 86.8365 42.0567 81.9954 43.573C77.1444 45.0793 74.3943 50.1087 75.8412 54.8011C77.2931 59.4985 82.3918 62.0751 87.2329 60.5688C92.0839 59.0575 94.8339 54.0281 93.392 49.3357Z" fill="#FDEEC3"/>
<path d="M82.238 44.2861C79.587 45.1186 77.387 46.8726 77.387 46.8726L75.4595 40.6194C75.3108 40.1387 75.618 39.7175 76.0937 39.3459L76.723 38.8851C76.6883 37.5076 77.9221 36.4868 79.6663 35.9418C81.4006 35.4017 82.8326 35.5107 83.5858 36.6603L84.3736 36.6454C85.0128 36.581 85.6173 36.9229 85.766 37.4085L87.6836 43.6618C87.6836 43.6618 84.8939 43.4636 82.238 44.2861Z" fill="#CACACA"/>
<path d="M77.5062 45.2517C77.5062 45.2517 79.6667 43.4977 81.8916 42.804C84.1165 42.1152 86.9062 42.3184 86.9062 42.3184" stroke="#7F7F7F" stroke-width="0.389264"/>
<path d="M76.8519 43.7505C76.8519 43.7505 79.0174 41.9964 81.2373 41.3077C83.4622 40.614 86.252 40.8171 86.252 40.8171" stroke="#7F7F7F" stroke-width="0.389264"/>
<path d="M76.5794 42.373C76.5794 42.373 78.7448 40.614 80.9697 39.9203C83.1946 39.2316 85.9844 39.4397 85.9844 39.4397" stroke="#7F7F7F" stroke-width="0.389264"/>
<path d="M76.0307 41.1584C76.0307 41.1584 78.1912 39.4044 80.4111 38.7156C82.636 38.0219 85.4258 38.2251 85.4258 38.2251" stroke="#7F7F7F" stroke-width="0.389264"/>
<path d="M69.6675 31.2547C68.7805 28.683 70.2869 25.6406 73.2401 24.2879C76.3221 22.8707 79.7956 23.8369 81.0195 26.4483C79.6519 26.8447 77.8037 27.4591 75.4203 28.46C72.6554 29.6096 70.8419 30.561 69.6675 31.2547Z" fill="#E8502D"/>
<path d="M68.8637 35.2136L67.7389 32.6072C67.7389 32.6072 68.1898 32.1316 69.6664 31.2545C70.8408 30.5608 72.6543 29.6094 75.4192 28.4599C77.8026 27.4589 79.6508 26.8445 81.0184 26.4481C82.8122 25.9229 83.7487 25.804 83.7487 25.804L84.5762 28.4599L68.8637 35.2136Z" fill="#F36B44"/>
<path d="M68.8639 35.2137L84.5764 28.46C93.2279 28.6185 101.453 34.1434 104.897 43.0328C105.928 45.6936 106.418 48.4239 106.463 51.1046C103.599 50.1185 97.5537 50.0045 84.7746 54.469C74.0469 58.2299 69.627 61.8422 67.9621 64.6418C66.6193 62.9025 65.4945 60.9354 64.6571 58.775C61.3967 50.3514 63.3292 41.2539 68.8639 35.2137Z" fill="#FBC331"/>
<path d="M23.0601 267.091C23.6547 261.368 33.5846 256.809 45.7839 256.809C57.9783 256.809 67.9083 261.368 68.5078 267.091C67.9132 267.527 59.1874 267.393 45.7839 267.393C32.3756 267.393 23.6547 267.527 23.0601 267.091Z" fill="#FBC331"/>
<path d="M35.1345 258.057L37.4732 251.883C37.721 251.249 38.3305 250.828 39.0093 250.828H52.6952C53.374 250.828 53.9835 251.249 54.2263 251.883L56.5898 258.107C56.5799 258.107 35.1345 258.057 35.1345 258.057Z" fill="#F36B44"/>
<path d="M183.966 151.533C183.966 153.537 169.453 145.831 165.825 151.015C160.673 151.015 165.307 148.355 165.307 146.351C165.307 144.347 171.039 142.204 176.191 142.204C181.344 142.204 183.966 149.53 183.966 151.533Z" fill="#172755"/>
<path d="M171.576 154.302C171.504 154.289 171.437 154.253 171.383 154.197C171.329 154.141 171.29 154.067 171.27 153.985L170.979 152.747C170.952 152.632 170.966 152.509 171.017 152.404C171.068 152.299 171.152 152.22 171.251 152.186C171.349 152.152 171.454 152.164 171.542 152.221C171.63 152.277 171.695 152.373 171.721 152.488L172.012 153.726C172.026 153.782 172.029 153.842 172.023 153.901C172.017 153.96 172 154.017 171.975 154.069C171.95 154.122 171.916 154.168 171.875 154.205C171.835 154.242 171.789 154.27 171.74 154.287C171.687 154.307 171.631 154.312 171.576 154.302Z" fill="#080C53"/>
<path d="M174.395 153.674C174.328 153.664 174.266 153.632 174.216 153.582C174.165 153.531 174.129 153.465 174.11 153.39L173.848 152.247C173.835 152.195 173.831 152.141 173.836 152.087C173.841 152.033 173.855 151.981 173.877 151.933C173.9 151.885 173.93 151.842 173.966 151.808C174.002 151.773 174.044 151.747 174.088 151.731C174.178 151.7 174.274 151.712 174.355 151.764C174.435 151.815 174.494 151.903 174.519 152.007L174.791 153.141C174.814 153.246 174.801 153.359 174.754 153.455C174.708 153.551 174.632 153.623 174.542 153.656C174.495 153.677 174.444 153.683 174.395 153.674Z" fill="#080C53"/>
<path d="M172.863 159.156C172.707 158.867 172.877 158.517 173.196 158.452L175.496 157.982C175.878 157.904 176.193 158.27 176.033 158.624C175.712 159.335 175.196 160.281 174.652 160.482C173.903 160.759 173.372 160.095 172.863 159.156Z" fill="white"/>
</svg>
