<svg width="444" height="287" viewBox="0 0 444 287" fill="none" xmlns="http://www.w3.org/2000/svg">
<path d="M24.0115 107.743C-8.22228 151.654 -5.08932 201.352 24.0119 235.943C41.4866 251.95 48.6091 276.602 49.986 286.927H424.755C421.977 285.714 418.719 291.084 424.755 268.105C436.711 222.58 450.807 185.89 415.521 183.476C380.236 181.062 438.09 115.308 443.271 66.1639C448.452 17.0203 369.295 -9.20192 256.088 2.951C142.88 15.1039 118.457 -6.78859 60.3476 2.95012C2.23848 12.6888 60.347 58.2441 24.0115 107.743Z" fill="#F5FAFF"/>
<path d="M255.595 129.607H166.688V10.1039H255.595V129.607ZM167.409 129.125H254.874V10.5852H167.409V129.125Z" fill="#4FA5FF"/>
<g style="mix-blend-mode:multiply" opacity="0.5">
<path d="M176.789 98.8331L246.5 55.3894V65.6208L176.789 109.064V98.8331Z" fill="#C9E4FF"/>
</g>
<g style="mix-blend-mode:multiply" opacity="0.5">
<path d="M246.5 17.1761V32.806L176.789 77.9403V38.6287L209.922 17.1761H246.5Z" fill="#C9E4FF"/>
</g>
<g style="mix-blend-mode:multiply" opacity="0.5">
<path d="M179.82 121.342L246.501 77.7947V121.342H179.82Z" fill="#C9E4FF"/>
</g>
<path d="M246.501 121.218H175.779V18.9314H246.501V121.218ZM176.506 120.758H245.774V19.3916H176.506V120.758Z" fill="#4FA5FF"/>
<path d="M101.219 225.639C101.219 246.075 84.6456 262.589 64.2676 262.589H59.1744L56.7091 269.889L51.5511 285.145C51.4268 285.511 51.191 285.829 50.8767 286.055C50.5624 286.28 50.1854 286.401 49.7987 286.401H8.43164V225.639H101.219Z" fill="#C9E4FF"/>
<path d="M49.8031 286.765H8.06836V225.276H101.581V225.639C101.581 246.214 84.8418 262.953 64.2667 262.953H59.4367L51.8981 285.262C51.75 285.7 51.4683 286.081 51.0925 286.35C50.7167 286.62 50.2657 286.765 49.8031 286.765ZM8.79577 286.038H49.8031C50.1137 286.038 50.4166 285.941 50.669 285.76C50.9214 285.579 51.1108 285.323 51.2103 285.029L58.9142 262.225H64.268C84.3207 262.225 100.657 246.009 100.853 226.003H8.80238L8.79577 286.038Z" fill="#4FA5FF"/>
<path d="M105.036 220.273H8.43164V226.112H105.036V220.273Z" fill="#C9E4FF"/>
<path d="M105.4 226.476H8.06836V219.91H105.4V226.476ZM8.79577 225.749H104.672V220.637H8.79577V225.749Z" fill="#4FA5FF"/>
<path d="M104.813 182.128C106.334 180.607 106.334 178.14 104.813 176.619C103.292 175.098 100.826 175.098 99.3049 176.619C97.7839 178.14 97.7839 180.607 99.3049 182.128C100.826 183.649 103.292 183.649 104.813 182.128Z" fill="#C9E4FF"/>
<path d="M102.059 183.632C101.217 183.632 100.394 183.382 99.6934 182.914C98.9931 182.446 98.4473 181.781 98.125 181.003C97.8026 180.225 97.7183 179.368 97.8826 178.542C98.0469 177.716 98.4525 176.957 99.0481 176.362C99.6437 175.766 100.403 175.361 101.229 175.196C102.055 175.032 102.911 175.116 103.689 175.439C104.467 175.761 105.132 176.307 105.6 177.007C106.068 177.708 106.318 178.531 106.318 179.373C106.317 180.502 105.868 181.585 105.07 182.383C104.271 183.182 103.189 183.631 102.059 183.632ZM102.059 175.842C101.361 175.842 100.678 176.049 100.098 176.437C99.5169 176.825 99.0643 177.377 98.797 178.022C98.5297 178.667 98.4598 179.377 98.596 180.062C98.7323 180.747 99.0686 181.376 99.5625 181.87C100.056 182.364 100.686 182.7 101.371 182.837C102.056 182.973 102.766 182.903 103.411 182.636C104.056 182.368 104.608 181.916 104.996 181.335C105.384 180.754 105.591 180.072 105.591 179.373C105.591 178.436 105.219 177.537 104.557 176.874C103.895 176.211 102.997 175.838 102.059 175.837V175.842Z" fill="#4FA5FF"/>
<path d="M104.811 181.415C104.389 180.818 104.162 180.105 104.162 179.374C104.162 178.643 104.389 177.929 104.811 177.333H116.894V181.415H104.811Z" fill="#C9E4FF"/>
<path d="M116.527 177.696V181.052H105.003C104.689 180.548 104.523 179.967 104.523 179.374C104.523 178.781 104.689 178.2 105.003 177.696H116.527ZM117.255 176.969H104.627C104.088 177.655 103.795 178.502 103.795 179.374C103.795 180.246 104.088 181.093 104.627 181.779H117.255V176.969Z" fill="#4FA5FF"/>
<path d="M115.044 168.94C113.351 168.94 111.979 174.362 111.979 181.057C111.979 187.752 113.351 193.174 115.044 193.174H139.28V168.94H115.044Z" fill="#C9E4FF"/>
<path d="M139.281 193.538H115.045C112.817 193.538 111.615 187.108 111.615 181.057C111.615 175.006 112.817 168.574 115.045 168.574H139.281C139.377 168.574 139.47 168.613 139.538 168.681C139.606 168.749 139.644 168.842 139.644 168.938V193.174C139.644 193.271 139.606 193.363 139.538 193.431C139.47 193.5 139.377 193.538 139.281 193.538ZM115.045 169.302C113.916 169.302 112.343 173.773 112.343 181.057C112.343 188.34 113.916 192.81 115.045 192.81H138.917V169.302H115.045Z" fill="#4FA5FF"/>
<path d="M139.28 193.174C140.974 193.174 142.347 187.749 142.347 181.057C142.347 174.365 140.974 168.94 139.28 168.94C137.586 168.94 136.213 174.365 136.213 181.057C136.213 187.749 137.586 193.174 139.28 193.174Z" fill="#C9E4FF"/>
<path d="M139.28 193.538C137.052 193.538 135.85 187.108 135.85 181.057C135.85 175.006 137.052 168.574 139.28 168.574C141.509 168.574 142.71 175.006 142.71 181.057C142.71 187.108 141.508 193.538 139.28 193.538ZM139.28 169.302C138.151 169.302 136.577 173.773 136.577 181.057C136.577 188.34 138.151 192.81 139.28 192.81C140.41 192.81 141.982 188.339 141.982 181.057C141.982 173.775 140.408 169.302 139.28 169.302Z" fill="#4FA5FF"/>
<path d="M140.435 181.057C140.435 181.303 140.435 181.544 140.42 181.778C140.333 183.953 139.857 185.613 139.282 185.613C138.706 185.613 138.223 183.949 138.143 181.778C138.132 181.544 138.127 181.303 138.127 181.057C138.127 179.266 138.391 177.716 138.77 176.969C138.923 176.666 139.096 176.497 139.282 176.497C139.467 176.497 139.639 176.666 139.793 176.969C140.173 177.716 140.435 179.266 140.435 181.057Z" fill="#4FA5FF"/>
<path d="M136.213 181.057H111.979V210.293H136.213V181.057Z" fill="#C9E4FF"/>
<path d="M136.577 210.656H111.615V180.693H136.577V210.656ZM112.343 209.928H135.85V181.421H112.343V209.928Z" fill="#4FA5FF"/>
<path d="M138.494 181.414C138.494 181.292 138.494 181.175 138.494 181.057C138.494 179.532 138.693 178.113 139.007 177.333H150.75V181.414H138.494Z" fill="#C9E4FF"/>
<path d="M150.383 177.696V181.05H138.854C138.854 179.566 139.041 178.384 139.26 177.696H150.383ZM151.111 176.969H138.77C138.389 177.716 138.127 179.266 138.127 181.057C138.127 181.303 138.127 181.544 138.143 181.778H151.104V176.969H151.111Z" fill="#4FA5FF"/>
<path d="M154.944 179.987C155.291 177.864 153.852 175.861 151.73 175.513C149.607 175.166 147.604 176.605 147.256 178.728C146.909 180.851 148.348 182.853 150.471 183.201C152.594 183.548 154.596 182.109 154.944 179.987Z" fill="#C9E4FF"/>
<path d="M151.11 183.632C150.268 183.632 149.445 183.382 148.744 182.914C148.044 182.446 147.498 181.781 147.176 181.003C146.853 180.225 146.769 179.368 146.933 178.542C147.098 177.716 147.503 176.957 148.099 176.362C148.694 175.766 149.453 175.361 150.279 175.196C151.105 175.032 151.962 175.116 152.74 175.439C153.518 175.761 154.183 176.307 154.651 177.007C155.119 177.708 155.369 178.531 155.369 179.373C155.368 180.502 154.919 181.585 154.12 182.383C153.322 183.182 152.239 183.631 151.11 183.632ZM151.11 175.842C150.412 175.842 149.729 176.049 149.148 176.437C148.568 176.825 148.115 177.377 147.848 178.022C147.58 178.667 147.511 179.377 147.647 180.062C147.783 180.747 148.119 181.376 148.613 181.87C149.107 182.364 149.736 182.7 150.421 182.837C151.106 182.973 151.816 182.903 152.462 182.636C153.107 182.368 153.658 181.916 154.046 181.335C154.434 180.754 154.641 180.072 154.641 179.373C154.642 178.436 154.27 177.537 153.608 176.874C152.946 176.211 152.047 175.838 151.11 175.837V175.842Z" fill="#4FA5FF"/>
<path d="M27.1922 158.618H35.1633C35.4674 158.618 35.7591 158.739 35.9741 158.954C36.1891 159.169 36.31 159.461 36.31 159.765V165.599H26.0469V159.765C26.0469 159.461 26.1675 159.17 26.3823 158.955C26.597 158.74 26.8883 158.619 27.1922 158.618Z" fill="#4FA5FF"/>
<path d="M30.2539 160.892V220.275H56.9829L61.0021 162.836C61.0196 162.587 60.9856 162.337 60.9023 162.102C60.8189 161.867 60.6881 161.652 60.5179 161.469C60.3476 161.287 60.1417 161.141 59.9128 161.042C59.6839 160.943 59.4371 160.892 59.1876 160.892H30.2539Z" fill="#C9E4FF"/>
<path d="M57.3219 220.637H29.8906V160.525H59.188C59.4875 160.525 59.7837 160.586 60.0584 160.706C60.333 160.825 60.5802 161 60.7844 161.219C60.9886 161.438 61.1456 161.696 61.2455 161.979C61.3453 162.261 61.386 162.561 61.365 162.859L57.3219 220.637ZM30.618 219.909H56.6434L60.6402 162.808C60.654 162.609 60.6266 162.409 60.5597 162.22C60.4928 162.032 60.3878 161.859 60.2513 161.714C60.1148 161.568 59.9497 161.451 59.7663 161.372C59.5829 161.293 59.3852 161.252 59.1854 161.253H30.618V219.909Z" fill="#4FA5FF"/>
<path d="M8.43164 160.892V220.275H35.1606L39.1799 162.836C39.1973 162.587 39.1633 162.337 39.08 162.102C38.9967 161.867 38.8658 161.652 38.6956 161.469C38.5254 161.287 38.3194 161.141 38.0905 161.042C37.8617 160.943 37.6148 160.892 37.3653 160.892H8.43164Z" fill="#C9E4FF"/>
<path d="M35.4996 220.637H8.06836V160.525H37.3658C37.6652 160.525 37.9615 160.586 38.2361 160.706C38.5108 160.825 38.7579 161 38.9622 161.219C39.1664 161.438 39.3233 161.696 39.4232 161.979C39.5231 162.261 39.5638 162.561 39.5427 162.859L35.4996 220.637ZM8.79577 219.909H34.8211L38.8179 162.808C38.8317 162.609 38.8043 162.409 38.7374 162.22C38.6705 162.032 38.5655 161.859 38.4291 161.714C38.2926 161.568 38.1275 161.451 37.9441 161.372C37.7607 161.293 37.5629 161.252 37.3631 161.253H8.79577V219.909Z" fill="#4FA5FF"/>
<path d="M8.06836 262.225V266.117L56.9635 270.275L59.6827 262.225H8.06836Z" fill="#4FA5FF"/>
<path d="M60.3448 166.322H8.43164V167.05H60.3448V166.322Z" fill="#4FA5FF"/>
<path d="M414.753 128.077H350.509C346.859 128.04 343.37 126.565 340.801 123.97C338.232 121.376 336.791 117.872 336.791 114.221C336.791 110.57 338.232 107.067 340.801 104.472C343.37 101.878 346.859 100.402 350.509 100.366H404.658C405.498 100.378 406.332 100.224 407.111 99.9107C407.891 99.5978 408.6 99.1331 409.198 98.5435C409.797 97.9539 410.272 97.2513 410.596 96.4764C410.92 95.7016 411.087 94.87 411.087 94.03C411.087 93.19 410.92 92.3584 410.596 91.5836C410.272 90.8087 409.797 90.1061 409.198 89.5165C408.6 88.9269 407.891 88.4622 407.111 88.1493C406.332 87.8364 405.498 87.6816 404.658 87.694H350.509C346.859 87.6577 343.37 86.182 340.801 83.5876C338.232 80.9931 336.791 77.4897 336.791 73.8387C336.791 70.1877 338.232 66.6842 340.801 64.0898C343.37 61.4954 346.859 60.0197 350.509 59.9834H414.753C415.75 59.9834 416.706 60.3795 417.411 61.0846C418.116 61.7896 418.512 62.7459 418.512 63.743C418.512 64.7402 418.116 65.6964 417.411 66.4015C416.706 67.1066 415.75 67.5027 414.753 67.5027H350.509C348.845 67.5271 347.257 68.2054 346.089 69.391C344.921 70.5766 344.266 72.1742 344.266 73.8387C344.266 75.5032 344.921 77.1008 346.089 78.2864C347.257 79.472 348.845 80.1503 350.509 80.1747H404.658C406.489 80.1565 408.305 80.5015 410.002 81.1896C411.699 81.8777 413.243 82.8954 414.544 84.1838C415.845 85.4722 416.878 87.0057 417.583 88.6958C418.288 90.3858 418.651 92.1988 418.651 94.03C418.651 95.8612 418.288 97.6742 417.583 99.3642C416.878 101.054 415.845 102.588 414.544 103.876C413.243 105.165 411.699 106.182 410.002 106.87C408.305 107.559 406.489 107.903 404.658 107.885H350.509C348.845 107.91 347.257 108.588 346.089 109.774C344.921 110.959 344.266 112.557 344.266 114.221C344.266 115.886 344.921 117.483 346.089 118.669C347.257 119.855 348.845 120.533 350.509 120.557H414.753C415.246 120.557 415.735 120.655 416.191 120.844C416.648 121.032 417.062 121.309 417.411 121.658C417.76 122.008 418.037 122.422 418.226 122.878C418.415 123.334 418.512 123.823 418.512 124.317C418.512 124.811 418.415 125.3 418.226 125.756C418.037 126.212 417.76 126.626 417.411 126.975C417.062 127.325 416.648 127.601 416.191 127.79C415.735 127.979 415.246 128.077 414.753 128.077Z" fill="#C9E4FF"/>
<path d="M414.754 128.453H350.51C346.76 128.416 343.176 126.901 340.537 124.236C337.898 121.571 336.418 117.972 336.418 114.222C336.418 110.471 337.898 106.872 340.537 104.208C343.176 101.543 346.76 100.027 350.51 99.9904H404.659C405.449 100.002 406.234 99.8571 406.967 99.5629C407.701 99.2688 408.369 98.8317 408.932 98.277C409.495 97.7224 409.942 97.0613 410.247 96.3323C410.553 95.6032 410.71 94.8207 410.71 94.0304C410.71 93.24 410.553 92.4575 410.247 91.7284C409.942 90.9994 409.495 90.3383 408.932 89.7837C408.369 89.229 407.701 88.7919 406.967 88.4978C406.234 88.2036 405.449 88.0583 404.659 88.0703H350.51C346.76 88.0335 343.176 86.518 340.537 83.8531C337.898 81.1882 336.418 77.5894 336.418 73.839C336.418 70.0887 337.898 66.4899 340.537 63.825C343.176 61.1601 346.76 59.6445 350.51 59.6078H414.754C415.851 59.6078 416.902 60.0435 417.678 60.8191C418.454 61.5946 418.889 62.6466 418.889 63.7434C418.889 64.8402 418.454 65.8921 417.678 66.6677C416.902 67.4433 415.851 67.879 414.754 67.879H350.51C348.945 67.9027 347.452 68.5411 346.354 69.6562C345.256 70.7713 344.64 72.2738 344.64 73.839C344.64 75.4043 345.256 76.9067 346.354 78.0219C347.452 79.137 348.945 79.7754 350.51 79.7991H404.659C406.539 79.7807 408.405 80.1351 410.148 80.8421C411.891 81.549 413.476 82.5943 414.812 83.9177C416.149 85.241 417.21 86.816 417.933 88.5518C418.657 90.2876 419.03 92.1497 419.03 94.0304C419.03 95.9111 418.657 97.7731 417.933 99.5089C417.21 101.245 416.149 102.82 414.812 104.143C413.476 105.466 411.891 106.512 410.148 107.219C408.405 107.926 406.539 108.28 404.659 108.262H350.51C348.945 108.285 347.452 108.924 346.354 110.039C345.256 111.154 344.64 112.656 344.64 114.222C344.64 115.787 345.256 117.289 346.354 118.405C347.452 119.52 348.945 120.158 350.51 120.182H414.754C415.851 120.182 416.902 120.617 417.678 121.393C418.454 122.169 418.889 123.22 418.889 124.317C418.889 125.414 418.454 126.466 417.678 127.242C416.902 128.017 415.851 128.453 414.754 128.453ZM350.51 100.746C346.959 100.782 343.565 102.218 341.066 104.742C338.568 107.266 337.166 110.674 337.166 114.226C337.166 117.777 338.568 121.185 341.066 123.709C343.565 126.233 346.959 127.669 350.51 127.705H414.754C415.651 127.705 416.512 127.349 417.146 126.714C417.781 126.079 418.137 125.219 418.137 124.321C418.137 123.424 417.781 122.563 417.146 121.929C416.512 121.294 415.651 120.938 414.754 120.938H350.51C348.747 120.913 347.064 120.194 345.826 118.938C344.588 117.682 343.894 115.989 343.894 114.226C343.894 112.462 344.588 110.769 345.826 109.513C347.064 108.257 348.747 107.539 350.51 107.514H404.659C406.44 107.532 408.208 107.196 409.859 106.527C411.51 105.858 413.012 104.868 414.278 103.614C415.544 102.361 416.549 100.869 417.235 99.2244C417.921 97.5801 418.275 95.8161 418.275 94.0345C418.275 92.2528 417.921 90.4888 417.235 88.8445C416.549 87.2002 415.544 85.7082 414.278 84.4548C413.012 83.2013 411.51 82.2113 409.859 81.5419C408.208 80.8726 406.44 80.5372 404.659 80.5551H350.51C348.747 80.53 347.064 79.8117 345.826 78.5557C344.588 77.2997 343.894 75.6069 343.894 73.8431C343.894 72.0794 344.588 70.3866 345.826 69.1306C347.064 67.8746 348.747 67.1563 350.51 67.1312H414.754C415.651 67.1312 416.512 66.7747 417.146 66.1401C417.781 65.5055 418.137 64.6449 418.137 63.7475C418.137 62.8501 417.781 61.9894 417.146 61.3549C416.512 60.7203 415.651 60.3638 414.754 60.3638H350.51C346.959 60.3996 343.565 61.8355 341.066 64.3595C338.568 66.8834 337.166 70.2915 337.166 73.8431C337.166 77.3948 338.568 80.8029 341.066 83.3268C343.565 85.8508 346.959 87.2867 350.51 87.3225H404.659C405.548 87.3098 406.431 87.474 407.257 87.8056C408.082 88.1372 408.834 88.6296 409.467 89.2541C410.101 89.8787 410.604 90.6229 410.947 91.4435C411.29 92.2642 411.467 93.1449 411.467 94.0345C411.467 94.924 411.29 95.8047 410.947 96.6254C410.604 97.446 410.101 98.1902 409.467 98.8148C408.834 99.4393 408.082 99.9317 407.257 100.263C406.431 100.595 405.548 100.759 404.659 100.746H350.51Z" fill="#4FA5FF"/>
<path d="M220.069 226.238V230.146C220.069 230.514 219.923 230.867 219.663 231.127C219.403 231.387 219.05 231.533 218.682 231.533C218.314 231.533 217.961 231.387 217.701 231.127C217.441 230.867 217.295 230.514 217.295 230.146V173.711H206.293V230.141C206.293 233.426 207.598 236.578 209.922 238.901C212.245 241.224 215.396 242.53 218.682 242.53C221.968 242.53 225.119 241.224 227.443 238.901C229.766 236.578 231.071 233.426 231.071 230.141V226.233C231.071 225.865 231.217 225.512 231.478 225.252C231.738 224.992 232.09 224.846 232.458 224.846C232.641 224.846 232.821 224.882 232.99 224.951C233.158 225.021 233.311 225.123 233.44 225.252C233.569 225.381 233.671 225.534 233.741 225.702C233.811 225.87 233.847 226.051 233.847 226.233L233.903 285.079C233.903 285.386 234.025 285.68 234.242 285.897C234.459 286.114 234.754 286.237 235.061 286.237H243.746C243.898 286.237 244.049 286.207 244.189 286.149C244.33 286.09 244.458 286.005 244.565 285.897C244.673 285.79 244.758 285.662 244.817 285.521C244.875 285.381 244.905 285.23 244.905 285.078L244.847 226.233C244.847 222.948 243.542 219.797 241.218 217.474C238.895 215.15 235.744 213.845 232.458 213.845C230.831 213.845 229.22 214.166 227.716 214.789C226.213 215.412 224.847 216.325 223.697 217.475C222.546 218.626 221.634 219.993 221.011 221.496C220.389 223 220.069 224.611 220.069 226.238Z" fill="#C9E4FF"/>
<path d="M243.746 286.6H235.061C234.66 286.599 234.275 286.439 233.991 286.156C233.707 285.872 233.546 285.487 233.545 285.085L233.489 226.239C233.48 225.973 233.367 225.72 233.175 225.535C232.983 225.349 232.727 225.246 232.46 225.246C232.193 225.246 231.936 225.349 231.744 225.535C231.552 225.72 231.44 225.973 231.43 226.239V230.147C231.43 233.528 230.087 236.77 227.697 239.16C225.306 241.551 222.064 242.894 218.683 242.894C215.302 242.894 212.06 241.551 209.669 239.16C207.279 236.77 205.936 233.528 205.936 230.147V173.359H217.658V230.147C217.658 230.42 217.766 230.681 217.959 230.874C218.152 231.067 218.414 231.176 218.687 231.176C218.96 231.176 219.221 231.067 219.414 230.874C219.607 230.681 219.716 230.42 219.716 230.147V226.239C219.716 222.859 221.059 219.616 223.449 217.226C225.84 214.835 229.082 213.492 232.463 213.492C235.844 213.492 239.086 214.835 241.477 217.226C243.867 219.616 245.21 222.859 245.21 226.239L245.268 285.084C245.267 285.486 245.107 285.872 244.823 286.156C244.538 286.441 244.153 286.601 243.75 286.601L243.746 286.6ZM232.459 224.493C232.922 224.493 233.366 224.677 233.693 225.004C234.021 225.331 234.205 225.775 234.206 226.238L234.262 285.084C234.262 285.296 234.346 285.499 234.496 285.649C234.646 285.799 234.849 285.883 235.061 285.884H243.746C243.959 285.884 244.163 285.799 244.313 285.649C244.463 285.499 244.547 285.295 244.547 285.083L244.49 226.239C244.49 223.049 243.223 219.988 240.966 217.732C238.71 215.476 235.65 214.208 232.459 214.208C229.268 214.208 226.208 215.476 223.952 217.732C221.696 219.988 220.428 223.049 220.428 226.239V230.147C220.428 230.61 220.244 231.054 219.917 231.381C219.59 231.708 219.146 231.892 218.683 231.892C218.22 231.892 217.776 231.708 217.449 231.381C217.121 231.054 216.938 230.61 216.938 230.147V174.075H206.648V230.147C206.648 233.338 207.916 236.398 210.172 238.654C212.428 240.91 215.488 242.178 218.679 242.178C221.87 242.178 224.93 240.91 227.186 238.654C229.442 236.398 230.71 233.338 230.71 230.147V226.239C230.71 226.01 230.755 225.782 230.843 225.57C230.931 225.358 231.06 225.166 231.222 225.003C231.385 224.841 231.578 224.713 231.79 224.625C232.002 224.537 232.23 224.492 232.459 224.493Z" fill="#4FA5FF"/>
<path d="M218.046 214.426H205.376C205.018 214.426 204.727 214.717 204.727 215.076V218.517C204.727 218.876 205.018 219.167 205.376 219.167H218.046C218.405 219.167 218.696 218.876 218.696 218.517V215.076C218.696 214.717 218.405 214.426 218.046 214.426Z" fill="#C9E4FF"/>
<path d="M217.803 219.525H205.622C205.29 219.525 204.971 219.393 204.737 219.158C204.502 218.923 204.369 218.604 204.369 218.272V215.321C204.369 214.989 204.502 214.67 204.737 214.435C204.971 214.2 205.29 214.068 205.622 214.068H217.803C218.135 214.068 218.453 214.2 218.688 214.435C218.923 214.67 219.055 214.989 219.055 215.321V218.272C219.055 218.604 218.923 218.923 218.688 219.158C218.453 219.393 218.135 219.525 217.803 219.525ZM205.622 214.784C205.48 214.784 205.344 214.841 205.243 214.942C205.143 215.042 205.086 215.179 205.086 215.321V218.272C205.086 218.414 205.143 218.551 205.243 218.651C205.344 218.752 205.48 218.808 205.622 218.809H217.803C217.945 218.808 218.081 218.752 218.181 218.651C218.282 218.551 218.338 218.414 218.338 218.272V215.321C218.338 215.179 218.282 215.042 218.181 214.942C218.081 214.841 217.945 214.784 217.803 214.784H205.622Z" fill="#4FA5FF"/>
<path d="M245.741 236.275H233.072C232.713 236.275 232.422 236.566 232.422 236.925V240.366C232.422 240.725 232.713 241.016 233.072 241.016H245.741C246.1 241.016 246.391 240.725 246.391 240.366V236.925C246.391 236.566 246.1 236.275 245.741 236.275Z" fill="#C9E4FF"/>
<path d="M245.495 241.374H233.314C232.982 241.374 232.664 241.241 232.429 241.007C232.194 240.772 232.062 240.453 232.063 240.121V237.17C232.062 236.838 232.194 236.519 232.429 236.284C232.664 236.049 232.982 235.917 233.314 235.917H245.495C245.827 235.917 246.146 236.049 246.381 236.284C246.615 236.519 246.748 236.837 246.748 237.17V240.121C246.748 240.453 246.615 240.772 246.381 241.007C246.146 241.242 245.827 241.374 245.495 241.374ZM233.314 236.633C233.172 236.633 233.036 236.69 232.936 236.791C232.835 236.891 232.779 237.028 232.779 237.17V240.121C232.779 240.263 232.835 240.399 232.936 240.5C233.036 240.601 233.172 240.657 233.314 240.658H245.495C245.637 240.657 245.773 240.601 245.874 240.5C245.975 240.4 246.031 240.263 246.032 240.121V237.17C246.031 237.027 245.975 236.891 245.874 236.791C245.773 236.69 245.637 236.633 245.495 236.633H233.314Z" fill="#4FA5FF"/>
<path d="M256.971 160.712C257.289 160.711 257.604 160.776 257.896 160.903C258.188 161.029 258.451 161.216 258.667 161.449C258.883 161.683 259.048 161.959 259.152 162.26C259.256 162.561 259.297 162.88 259.271 163.197C257.593 182.083 236.936 197.009 211.701 197.009C186.489 197.009 165.846 182.112 164.136 163.248C164.105 162.927 164.141 162.604 164.242 162.298C164.343 161.992 164.507 161.711 164.723 161.472C164.94 161.234 165.203 161.043 165.497 160.912C165.792 160.781 166.11 160.713 166.432 160.712H256.971Z" fill="#C9E4FF"/>
<path d="M211.699 197.365C199.47 197.365 187.821 193.858 178.895 187.491C169.969 181.123 164.618 172.536 163.779 163.278C163.745 162.904 163.789 162.528 163.908 162.173C164.027 161.818 164.218 161.492 164.47 161.214C164.718 160.941 165.021 160.722 165.358 160.574C165.696 160.425 166.062 160.349 166.431 160.351H256.969C257.341 160.351 257.708 160.429 258.048 160.578C258.388 160.728 258.693 160.947 258.944 161.221C259.19 161.49 259.378 161.807 259.495 162.152C259.612 162.497 259.657 162.862 259.625 163.225C258.802 172.495 253.44 181.107 244.527 187.475C235.614 193.843 223.94 197.365 211.699 197.365ZM166.431 161.067C166.161 161.066 165.894 161.121 165.647 161.23C165.4 161.338 165.179 161.498 164.998 161.698C164.813 161.901 164.673 162.141 164.585 162.402C164.498 162.662 164.465 162.939 164.49 163.212C165.311 172.259 170.574 180.675 179.311 186.908C188.115 193.189 199.618 196.648 211.698 196.648C223.779 196.648 235.302 193.184 244.109 186.891C252.85 180.647 258.107 172.22 258.911 163.162C258.935 162.897 258.904 162.631 258.818 162.38C258.732 162.129 258.594 161.899 258.414 161.704C258.23 161.504 258.007 161.343 257.758 161.234C257.509 161.124 257.24 161.067 256.968 161.067H166.431Z" fill="#4FA5FF"/>
<path d="M232.422 132.58H190.982C190.151 132.58 189.479 133.253 189.479 134.083V148.252C189.479 149.082 190.151 149.755 190.982 149.755H232.422C233.252 149.755 233.925 149.082 233.925 148.252V134.083C233.925 133.253 233.252 132.58 232.422 132.58Z" fill="#C9E4FF"/>
<path d="M231.859 150.114H191.546C190.903 150.113 190.287 149.857 189.832 149.402C189.377 148.947 189.122 148.33 189.121 147.687V134.647C189.122 134.004 189.378 133.387 189.832 132.933C190.287 132.478 190.903 132.222 191.546 132.222H231.859C232.502 132.222 233.119 132.478 233.573 132.933C234.028 133.387 234.284 134.004 234.284 134.647V147.687C234.284 148.33 234.028 148.947 233.573 149.402C233.119 149.857 232.502 150.113 231.859 150.114ZM191.546 132.938C191.093 132.939 190.659 133.119 190.339 133.439C190.018 133.76 189.838 134.194 189.837 134.647V147.687C189.838 148.14 190.018 148.575 190.338 148.896C190.659 149.216 191.093 149.397 191.546 149.397H231.859C232.312 149.397 232.747 149.216 233.067 148.896C233.388 148.575 233.568 148.14 233.568 147.687V134.647C233.568 134.194 233.388 133.759 233.067 133.439C232.747 133.119 232.312 132.938 231.859 132.938H191.546Z" fill="#4FA5FF"/>
<path d="M210.879 135.491H212.54C213.127 135.491 213.69 135.724 214.105 136.14C214.52 136.555 214.754 137.118 214.754 137.705V145.9C214.754 146.151 214.654 146.391 214.477 146.568C214.3 146.745 214.06 146.845 213.809 146.845H209.602C209.352 146.845 209.112 146.745 208.935 146.568C208.758 146.391 208.658 146.151 208.658 145.9V137.705C208.658 137.414 208.716 137.126 208.827 136.856C208.939 136.587 209.103 136.343 209.309 136.137C209.515 135.932 209.76 135.769 210.03 135.658C210.299 135.547 210.588 135.49 210.879 135.491Z" fill="#C9E4FF"/>
<path d="M213.448 147.203H209.956C209.516 147.202 209.095 147.027 208.785 146.717C208.474 146.406 208.3 145.985 208.299 145.546V138.535C208.316 137.644 208.682 136.795 209.319 136.171C209.955 135.547 210.81 135.198 211.702 135.198C212.593 135.198 213.448 135.547 214.084 136.171C214.721 136.795 215.087 137.644 215.104 138.535V145.546C215.104 145.985 214.929 146.406 214.619 146.717C214.308 147.028 213.887 147.202 213.448 147.203ZM211.702 135.849C210.99 135.85 210.307 136.133 209.803 136.636C209.3 137.14 209.016 137.822 209.015 138.535V145.546C209.016 145.795 209.115 146.034 209.291 146.21C209.467 146.387 209.706 146.486 209.956 146.486H213.448C213.697 146.486 213.936 146.387 214.112 146.21C214.288 146.034 214.388 145.795 214.388 145.546V138.535C214.387 137.823 214.104 137.14 213.601 136.636C213.097 136.133 212.414 135.85 211.702 135.849Z" fill="#4FA5FF"/>
<path d="M226.215 142.821V139.51C226.215 138.677 226.29 137.833 226.572 137.047C226.633 136.872 226.652 136.685 226.626 136.501C226.601 136.318 226.531 136.143 226.424 135.991C226.317 135.84 226.175 135.716 226.01 135.631C225.845 135.546 225.662 135.502 225.477 135.502C225.291 135.502 225.109 135.546 224.944 135.631C224.779 135.716 224.637 135.84 224.53 135.991C224.423 136.143 224.353 136.318 224.328 136.501C224.302 136.685 224.321 136.872 224.382 137.047C224.665 137.829 224.739 138.678 224.739 139.514V142.825C224.739 143.659 224.664 144.503 224.382 145.288C224.326 145.447 224.306 145.617 224.323 145.785C224.339 145.953 224.392 146.116 224.478 146.261C224.564 146.406 224.68 146.531 224.819 146.627C224.959 146.723 225.117 146.787 225.283 146.815C225.45 146.844 225.62 146.835 225.783 146.791C225.946 146.746 226.097 146.667 226.226 146.558C226.355 146.449 226.459 146.313 226.53 146.16C226.601 146.007 226.638 145.84 226.638 145.671C226.638 145.54 226.616 145.411 226.572 145.288C226.29 144.501 226.215 143.656 226.215 142.821Z" fill="#C9E4FF"/>
<path d="M225.474 147.19C225.367 147.19 225.261 147.179 225.156 147.157C224.945 147.112 224.746 147.022 224.573 146.894C224.399 146.766 224.255 146.602 224.15 146.414C224.045 146.225 223.981 146.017 223.962 145.802C223.944 145.587 223.972 145.37 224.044 145.167C224.273 144.527 224.38 143.782 224.38 142.822V139.512C224.38 138.55 224.273 137.805 224.045 137.167C223.987 137.006 223.958 136.836 223.958 136.664C223.958 136.443 224.006 136.224 224.098 136.023C224.191 135.822 224.327 135.644 224.496 135.501C224.665 135.358 224.864 135.254 225.077 135.196C225.291 135.138 225.514 135.127 225.733 135.164C225.951 135.201 226.158 135.286 226.34 135.412C226.522 135.538 226.675 135.702 226.787 135.893C226.899 136.084 226.968 136.297 226.989 136.517C227.01 136.737 226.982 136.96 226.908 137.168C226.679 137.807 226.572 138.552 226.572 139.513V142.824C226.572 143.784 226.679 144.53 226.908 145.168C226.989 145.397 227.014 145.642 226.981 145.883C226.948 146.124 226.857 146.353 226.716 146.551C226.576 146.749 226.39 146.911 226.174 147.022C225.958 147.134 225.718 147.192 225.475 147.191L225.474 147.19ZM225.474 135.858C225.369 135.858 225.264 135.879 225.167 135.919C225.07 135.96 224.981 136.019 224.907 136.094C224.832 136.168 224.773 136.257 224.733 136.354C224.693 136.452 224.673 136.556 224.673 136.662C224.673 136.75 224.688 136.839 224.717 136.922C224.978 137.642 225.095 138.464 225.095 139.51V142.821C225.095 143.863 224.975 144.685 224.717 145.405C224.681 145.515 224.668 145.632 224.681 145.747C224.693 145.863 224.731 145.974 224.79 146.074C224.85 146.173 224.931 146.258 225.027 146.324C225.123 146.389 225.232 146.433 225.346 146.452C225.461 146.471 225.578 146.465 225.69 146.434C225.802 146.404 225.906 146.349 225.995 146.274C226.083 146.2 226.155 146.106 226.204 146.001C226.254 145.896 226.28 145.782 226.28 145.666C226.28 145.577 226.265 145.489 226.235 145.405C225.974 144.685 225.857 143.863 225.857 142.817V139.506C225.857 138.464 225.977 137.641 226.235 136.922C226.284 136.786 226.294 136.638 226.263 136.496C226.233 136.345 226.159 136.205 226.051 136.095C225.942 135.984 225.804 135.908 225.653 135.875C225.594 135.865 225.535 135.86 225.475 135.861L225.474 135.858Z" fill="#4FA5FF"/>
<path d="M230.212 140.03C230.007 139.988 229.794 140.003 229.596 140.073C228.815 140.354 227.968 140.43 227.135 140.43H223.819C222.985 140.43 222.141 140.354 221.356 140.073C221.18 140.011 220.993 139.991 220.808 140.017C220.624 140.042 220.448 140.111 220.296 140.218C220.145 140.326 220.021 140.468 219.935 140.633C219.849 140.798 219.805 140.982 219.805 141.168C219.805 141.354 219.849 141.537 219.935 141.702C220.021 141.867 220.145 142.009 220.296 142.117C220.448 142.224 220.624 142.293 220.808 142.319C220.993 142.344 221.18 142.325 221.356 142.262C222.137 141.98 222.988 141.905 223.822 141.905H227.129C227.966 141.905 228.811 141.98 229.596 142.262C229.746 142.315 229.905 142.336 230.064 142.324C230.222 142.312 230.377 142.268 230.518 142.194C230.658 142.121 230.782 142.019 230.882 141.895C230.982 141.771 231.055 141.628 231.097 141.475C231.14 141.322 231.15 141.162 231.128 141.005C231.106 140.847 231.051 140.696 230.968 140.561C230.885 140.425 230.776 140.308 230.645 140.217C230.515 140.125 230.368 140.062 230.212 140.03Z" fill="#C9E4FF"/>
<path d="M229.979 142.687C229.808 142.687 229.638 142.657 229.477 142.6C228.836 142.369 228.091 142.264 227.132 142.264H223.825C222.865 142.264 222.119 142.369 221.481 142.6C221.186 142.705 220.865 142.715 220.564 142.63C220.263 142.545 219.995 142.369 219.798 142.126C219.633 141.923 219.523 141.681 219.479 141.423C219.435 141.166 219.458 140.901 219.546 140.655C219.634 140.409 219.784 140.189 219.982 140.018C220.18 139.847 220.418 139.73 220.675 139.678C220.944 139.624 221.222 139.644 221.481 139.736C222.12 139.965 222.864 140.072 223.825 140.072H227.141C228.099 140.072 228.842 139.965 229.486 139.736C229.744 139.644 230.023 139.624 230.292 139.678C230.66 139.754 230.987 139.964 231.21 140.267C231.433 140.57 231.535 140.945 231.498 141.319C231.46 141.693 231.285 142.04 231.007 142.293C230.728 142.545 230.366 142.686 229.99 142.687H229.979ZM223.823 141.547H227.13C228.172 141.547 228.997 141.667 229.718 141.925C229.852 141.971 229.997 141.979 230.136 141.951C230.275 141.922 230.404 141.857 230.51 141.762C230.616 141.668 230.695 141.546 230.739 141.411C230.783 141.276 230.79 141.131 230.76 140.993C230.727 140.841 230.65 140.703 230.54 140.594C230.43 140.485 230.29 140.411 230.138 140.38C229.996 140.352 229.849 140.362 229.712 140.41C228.993 140.671 228.172 140.788 227.13 140.788H223.814C222.772 140.788 221.95 140.668 221.231 140.41C221.066 140.352 220.886 140.35 220.72 140.403C220.553 140.456 220.409 140.563 220.309 140.706C220.208 140.849 220.157 141.021 220.164 141.196C220.171 141.371 220.234 141.539 220.345 141.674C220.45 141.8 220.59 141.892 220.748 141.937C220.906 141.982 221.074 141.978 221.229 141.925C221.955 141.667 222.777 141.547 223.823 141.547Z" fill="#4FA5FF"/>
<path d="M225.477 143.715C226.884 143.715 228.025 142.574 228.025 141.167C228.025 139.76 226.884 138.619 225.477 138.619C224.07 138.619 222.93 139.76 222.93 141.167C222.93 142.574 224.07 143.715 225.477 143.715Z" fill="#4FA5FF"/>
<path d="M226.298 141.987C226.751 141.534 226.751 140.799 226.298 140.346C225.845 139.893 225.11 139.893 224.657 140.346C224.203 140.799 224.203 141.534 224.657 141.987C225.11 142.44 225.845 142.44 226.298 141.987Z" fill="#4FA5FF"/>
<path d="M225.478 142.687C225.178 142.687 224.884 142.598 224.633 142.431C224.383 142.265 224.188 142.027 224.073 141.75C223.958 141.472 223.928 141.166 223.986 140.871C224.045 140.576 224.189 140.305 224.402 140.093C224.614 139.88 224.885 139.735 225.18 139.676C225.475 139.618 225.781 139.648 226.058 139.763C226.336 139.878 226.574 140.072 226.741 140.322C226.908 140.572 226.997 140.866 226.997 141.167C226.997 141.57 226.837 141.956 226.552 142.241C226.267 142.526 225.881 142.686 225.478 142.687ZM225.478 140.365C225.319 140.364 225.164 140.411 225.031 140.5C224.899 140.588 224.796 140.713 224.735 140.86C224.674 141.007 224.658 141.169 224.689 141.325C224.72 141.481 224.796 141.624 224.909 141.737C225.021 141.849 225.165 141.926 225.321 141.957C225.477 141.987 225.638 141.971 225.785 141.91C225.932 141.849 226.058 141.746 226.146 141.614C226.234 141.482 226.281 141.326 226.281 141.167C226.28 140.954 226.196 140.75 226.045 140.6C225.895 140.45 225.691 140.365 225.478 140.365Z" fill="#C9E4FF"/>
<path d="M198.665 142.821V139.51C198.665 138.677 198.74 137.833 199.022 137.047C199.077 136.888 199.098 136.718 199.081 136.55C199.064 136.382 199.011 136.22 198.926 136.074C198.84 135.929 198.723 135.804 198.584 135.708C198.445 135.612 198.287 135.548 198.12 135.52C197.954 135.492 197.783 135.5 197.62 135.544C197.457 135.589 197.306 135.668 197.177 135.777C197.048 135.886 196.945 136.022 196.873 136.175C196.802 136.329 196.766 136.495 196.766 136.664C196.766 136.795 196.788 136.924 196.832 137.047C197.113 137.829 197.189 138.678 197.189 139.514V142.825C197.189 143.659 197.113 144.503 196.832 145.288C196.776 145.447 196.756 145.617 196.773 145.785C196.789 145.953 196.842 146.116 196.928 146.261C197.014 146.406 197.13 146.531 197.269 146.627C197.408 146.723 197.567 146.787 197.733 146.815C197.9 146.844 198.07 146.835 198.233 146.791C198.396 146.746 198.547 146.667 198.676 146.558C198.805 146.449 198.909 146.313 198.98 146.16C199.051 146.007 199.088 145.84 199.088 145.671C199.088 145.54 199.066 145.411 199.022 145.288C198.74 144.501 198.665 143.656 198.665 142.821Z" fill="#C9E4FF"/>
<path d="M197.925 147.19C197.819 147.19 197.712 147.179 197.608 147.157C197.397 147.112 197.198 147.022 197.024 146.894C196.851 146.766 196.706 146.602 196.601 146.414C196.496 146.226 196.432 146.017 196.414 145.802C196.395 145.587 196.423 145.37 196.495 145.167C196.724 144.528 196.831 143.783 196.831 142.823V139.512C196.831 138.551 196.724 137.805 196.495 137.167C196.415 136.938 196.39 136.693 196.424 136.453C196.458 136.213 196.548 135.984 196.689 135.786C196.829 135.588 197.015 135.426 197.23 135.315C197.446 135.203 197.685 135.145 197.928 135.145C198.171 135.145 198.41 135.203 198.625 135.315C198.841 135.426 199.027 135.588 199.167 135.786C199.307 135.984 199.398 136.213 199.432 136.453C199.466 136.693 199.441 136.938 199.361 137.167C199.131 137.805 199.025 138.551 199.025 139.512V142.823C199.025 143.784 199.131 144.529 199.361 145.167C199.442 145.396 199.467 145.641 199.433 145.882C199.4 146.123 199.309 146.352 199.169 146.55C199.028 146.748 198.842 146.91 198.626 147.021C198.411 147.133 198.171 147.19 197.928 147.19H197.925ZM197.925 135.858C197.741 135.857 197.562 135.921 197.42 136.038C197.327 136.113 197.252 136.208 197.201 136.316C197.149 136.424 197.123 136.542 197.123 136.662C197.123 136.751 197.139 136.839 197.169 136.922C197.429 137.643 197.546 138.465 197.546 139.51V142.821C197.546 143.863 197.426 144.685 197.169 145.405C197.132 145.515 197.119 145.632 197.132 145.748C197.144 145.863 197.182 145.974 197.242 146.074C197.301 146.173 197.382 146.259 197.478 146.324C197.574 146.389 197.683 146.433 197.797 146.452C197.912 146.471 198.029 146.465 198.141 146.434C198.253 146.404 198.357 146.349 198.446 146.275C198.535 146.2 198.606 146.107 198.656 146.002C198.705 145.897 198.731 145.782 198.732 145.666C198.731 145.577 198.716 145.489 198.686 145.405C198.425 144.685 198.308 143.863 198.308 142.817V139.507C198.308 138.465 198.428 137.641 198.686 136.922C198.735 136.786 198.745 136.638 198.715 136.497C198.684 136.345 198.61 136.205 198.502 136.095C198.393 135.985 198.255 135.908 198.104 135.875C198.045 135.865 197.986 135.86 197.927 135.861L197.925 135.858Z" fill="#4FA5FF"/>
<path d="M202.664 140.03C202.458 139.988 202.245 140.003 202.047 140.073C201.266 140.354 200.419 140.43 199.586 140.43H196.27C195.436 140.43 194.592 140.354 193.807 140.073C193.631 140.011 193.444 139.991 193.259 140.017C193.075 140.042 192.9 140.111 192.748 140.218C192.596 140.326 192.472 140.468 192.386 140.633C192.301 140.798 192.256 140.982 192.256 141.168C192.256 141.354 192.301 141.537 192.386 141.702C192.472 141.867 192.596 142.009 192.748 142.117C192.9 142.224 193.075 142.293 193.259 142.319C193.444 142.344 193.631 142.325 193.807 142.262C194.588 141.98 195.439 141.905 196.274 141.905H199.581C200.415 141.905 201.262 141.98 202.047 142.262C202.197 142.315 202.357 142.336 202.515 142.324C202.674 142.312 202.828 142.268 202.969 142.194C203.109 142.121 203.233 142.019 203.333 141.895C203.433 141.771 203.506 141.628 203.548 141.475C203.591 141.322 203.601 141.162 203.579 141.005C203.557 140.847 203.502 140.696 203.42 140.561C203.337 140.425 203.227 140.308 203.097 140.217C202.967 140.125 202.819 140.062 202.664 140.03Z" fill="#C9E4FF"/>
<path d="M202.43 142.687C202.258 142.687 202.088 142.657 201.926 142.6C201.286 142.369 200.541 142.264 199.581 142.264H196.274C195.315 142.264 194.568 142.369 193.93 142.6C193.635 142.705 193.315 142.715 193.013 142.63C192.712 142.545 192.444 142.369 192.247 142.126C192.082 141.923 191.972 141.681 191.928 141.423C191.884 141.166 191.907 140.901 191.995 140.655C192.083 140.409 192.234 140.189 192.431 140.018C192.629 139.847 192.868 139.73 193.124 139.678C193.393 139.624 193.671 139.644 193.93 139.736C194.569 139.965 195.313 140.072 196.274 140.072H199.591C200.548 140.072 201.292 139.965 201.935 139.736C202.194 139.644 202.472 139.624 202.741 139.678C203.11 139.754 203.437 139.964 203.659 140.267C203.882 140.57 203.985 140.945 203.947 141.319C203.909 141.693 203.734 142.04 203.456 142.293C203.177 142.545 202.815 142.686 202.439 142.687H202.43ZM196.273 141.547H199.58C200.622 141.547 201.448 141.667 202.168 141.925C202.303 141.971 202.447 141.979 202.586 141.951C202.726 141.922 202.855 141.857 202.961 141.762C203.067 141.668 203.146 141.546 203.189 141.411C203.233 141.276 203.24 141.131 203.21 140.993C203.177 140.841 203.101 140.703 202.99 140.594C202.88 140.485 202.741 140.411 202.589 140.38C202.447 140.352 202.3 140.362 202.163 140.41C201.444 140.671 200.622 140.788 199.58 140.788H196.264C195.222 140.788 194.4 140.668 193.681 140.41C193.516 140.352 193.337 140.35 193.17 140.403C193.004 140.456 192.859 140.563 192.759 140.706C192.659 140.849 192.608 141.021 192.614 141.196C192.621 141.371 192.685 141.539 192.796 141.674C192.9 141.801 193.04 141.893 193.198 141.938C193.356 141.982 193.524 141.978 193.68 141.925C194.405 141.667 195.227 141.547 196.273 141.547Z" fill="#4FA5FF"/>
<path d="M197.929 143.715C199.336 143.715 200.476 142.574 200.476 141.167C200.476 139.76 199.336 138.619 197.929 138.619C196.521 138.619 195.381 139.76 195.381 141.167C195.381 142.574 196.521 143.715 197.929 143.715Z" fill="#4FA5FF"/>
<path d="M199.043 141.422C199.19 140.798 198.804 140.173 198.18 140.026C197.556 139.879 196.931 140.265 196.784 140.889C196.637 141.513 197.023 142.138 197.647 142.285C198.271 142.432 198.896 142.046 199.043 141.422Z" fill="#4FA5FF"/>
<path d="M197.928 142.687C197.627 142.687 197.333 142.598 197.083 142.431C196.833 142.265 196.638 142.027 196.522 141.75C196.407 141.472 196.377 141.166 196.435 140.871C196.494 140.576 196.638 140.305 196.851 140.093C197.063 139.88 197.334 139.735 197.629 139.676C197.924 139.618 198.23 139.648 198.508 139.763C198.785 139.878 199.023 140.072 199.19 140.322C199.357 140.572 199.446 140.866 199.446 141.167C199.446 141.57 199.285 141.956 199.001 142.241C198.716 142.525 198.33 142.686 197.928 142.687ZM197.928 140.365C197.768 140.364 197.613 140.411 197.481 140.5C197.348 140.588 197.245 140.713 197.184 140.86C197.123 141.007 197.107 141.169 197.138 141.325C197.169 141.481 197.246 141.624 197.358 141.737C197.47 141.849 197.614 141.926 197.77 141.957C197.926 141.987 198.087 141.971 198.234 141.91C198.381 141.849 198.507 141.746 198.595 141.614C198.683 141.482 198.73 141.326 198.73 141.167C198.729 140.954 198.644 140.751 198.494 140.6C198.344 140.45 198.14 140.365 197.928 140.365Z" fill="#C9E4FF"/>
<g style="mix-blend-mode:multiply">
<path d="M209.956 146.844L205.156 160.712H218.507L213.448 146.844H209.956Z" fill="#C9E4FF"/>
</g>
<path d="M219.019 161.07H204.654L209.701 146.482H213.7L219.019 161.07ZM205.66 160.354H217.996L213.199 147.199H210.212L205.66 160.354Z" fill="#4FA5FF"/>
<path d="M267.486 81.9463C273.45 73.7915 286.487 71.774 290.954 82.2904C295.42 92.8067 284.536 101.768 284.651 104.227C284.875 109.044 294.056 110.267 294.048 120.603C294.041 126.604 292.749 130.588 286.226 130.626C281.261 130.656 273.241 124.187 272.348 114.963C271.509 106.323 280.313 94.8918 279.688 90.2215C278.625 82.2904 272.692 78.4297 268.484 82.6631C264.276 86.8965 267.486 81.9463 267.486 81.9463Z" fill="#172755"/>
<path d="M253.582 249.078L238.821 247.105C235.913 260.622 236.048 272.988 232.502 276.74C228.974 280.473 211.114 286.53 217.053 286.53H238.659C240.544 286.53 239.933 281.66 239.933 278.834C239.93 278.099 249.08 258.615 253.582 249.078Z" fill="#FD9783"/>
<path d="M240.779 229.085C241.124 231.082 239.852 238.973 237.912 248.239L252.058 253.071C253.32 250.567 254.257 245.328 254.613 243.979C256.622 236.321 254.94 229.345 254.613 225.347C254.286 221.35 269.331 172.384 265.697 163.659C258.337 145.948 247.028 150.583 247.028 150.583C246.894 153.544 243.044 162.47 242.283 171.342C241.017 186.107 239.431 221.337 240.779 229.085Z" fill="#005BBA"/>
<path d="M304.207 239.752L290.954 246C297.412 259.055 301.563 274.402 301.563 276.814C301.563 280.599 286.451 286.531 291.772 286.531H310.84C313.141 286.531 310.774 280.143 309.825 278.408C309.451 277.726 306.377 253.379 304.207 239.752Z" fill="#FD9783"/>
<path d="M301.563 233.371C298.514 226.065 293.38 222.902 290.77 218.88C289.125 216.344 281.203 182.018 278.326 170.732C276.128 162.106 271.684 152.663 266.243 149.08C262.534 146.637 248.83 150.867 248.83 150.867C248.83 150.867 268.822 220.106 278.584 228.412C280.114 229.713 287.309 240.494 291.68 249.205L306.11 244.484C305.525 241.108 302.141 234.753 301.563 233.371Z" fill="#005BBA"/>
<path d="M263.372 194.677C263.307 194.677 263.244 194.657 263.191 194.62C263.138 194.583 263.098 194.53 263.076 194.47C261.888 191.211 257.658 179.148 257.253 177.954C257.226 177.874 257.232 177.788 257.269 177.713C257.306 177.637 257.371 177.58 257.45 177.553C257.53 177.526 257.616 177.532 257.691 177.569C257.766 177.606 257.824 177.671 257.851 177.751C258.254 178.943 262.482 190.995 263.668 194.252C263.682 194.291 263.689 194.332 263.687 194.373C263.685 194.415 263.675 194.455 263.658 194.493C263.64 194.531 263.616 194.564 263.585 194.593C263.555 194.621 263.519 194.642 263.48 194.657C263.445 194.669 263.409 194.676 263.372 194.677Z" fill="#005781"/>
<path d="M246.707 106.697C246.242 106.703 235.098 127.772 230.037 132.673C227.375 135.252 213.606 146.586 203.187 149.681C203.133 149.698 203.081 149.722 203.034 149.754C201.889 149.611 201.298 148.93 199.76 148.751C198.133 148.56 196.039 149.535 194.626 149.726C193.214 149.917 192.857 150.412 194.431 150.94C196.004 151.467 197.2 150.693 198.389 151.576C199.578 152.459 192.651 157.706 191.13 158.568C189.61 159.43 191.025 159.24 193.287 158.915C195.55 158.589 198.282 159.22 200.207 158.418C201.435 157.909 203.028 155.526 204.022 153.865C209.409 152.527 224.624 146.778 237.014 138.284C241.613 135.129 250.246 122.075 251.942 118.171C252.568 116.713 249.874 106.657 246.707 106.697Z" fill="#FD9783"/>
<path d="M273.825 110.073C272.226 107.822 269.437 105.978 267.208 104.559C261.358 100.837 259.53 100.949 253.636 102.085C251.882 102.429 248.233 103.418 247.319 104.186C242.609 106.425 239.43 117.42 239.429 118.196C239.429 118.781 239.227 119.248 241.882 121.122C240.942 124.672 242.884 128.119 245.571 129.198C245.934 130.918 246.681 148.71 247.835 151.226C249.387 154.613 266.466 152.416 267.574 150.045C268.168 148.771 268.784 138.817 269.667 132.467C270.033 129.837 277.739 115.585 273.825 110.073Z" fill="#FBC331"/>
<path d="M253.172 85.4148C250.242 83.863 248.692 78.6949 253.172 76.2828C257.009 74.2183 266.647 73.1941 268.824 80.2398C271.522 88.9715 261.356 96.7856 261.356 96.7856L253.172 85.4148Z" fill="#172755"/>
<path d="M252.431 102.87C256.101 102.563 256.738 99.3088 256.924 91.2607C256.924 91.2607 264.527 87.6352 263.293 89.2696C262.059 90.904 264.01 100.777 264.223 102.307C264.322 103.01 265.696 104.281 267.205 105.789C264.53 108.332 256.846 118.829 249.716 115.702C245.079 113.662 250.668 104.327 252.431 102.87Z" fill="#FD9783"/>
<path d="M253.367 82.8352C255.051 83.9822 261.983 85.7479 263.061 88.4283C263.31 87.9627 263.685 87.4844 264.03 87.3169C264.814 86.9361 265.61 87.7998 265.188 88.9616C264.816 89.9813 263.713 91.3186 262.604 90.8988C260.206 95.1288 256.295 97.8046 253.367 96.9685C249.788 95.9442 250.011 87.1844 253.367 82.8352Z" fill="#FD9783"/>
<path d="M263.526 119.155C263.061 119.161 256.028 137.299 254.671 138.484C252.26 140.588 239.472 146.974 229.307 150.677C228.225 150.509 227.625 149.861 226.133 149.687C224.506 149.497 222.412 150.471 220.999 150.662C219.587 150.853 219.23 151.348 220.804 151.876C222.377 152.404 223.573 151.629 224.763 152.512C225.954 153.395 219.024 158.642 217.503 159.504C215.982 160.366 217.398 160.177 219.66 159.851C221.923 159.525 224.238 159.757 226.165 158.966C227.521 158.405 229.525 155.759 230.598 154.237C238.668 152.869 251.804 150.385 259.323 145.958C265.28 142.451 270.567 127.712 272.26 123.808C272.889 122.346 266.693 119.115 263.526 119.155Z" fill="#FD9783"/>
<path d="M315.822 285.404C316.02 286.17 315.441 286.917 314.65 286.917H286.453C285.645 286.917 285.051 286.181 285.276 285.404C285.312 285.295 285.346 285.178 285.377 285.054C286.42 281.654 289.279 274.793 295.469 274.793C299.288 274.793 301.707 276.504 303.204 278.34C305.044 280.597 307.512 282.761 310.424 282.761H312.666C314.082 282.761 315.329 283.695 315.728 285.054L315.822 285.404Z" fill="#4FA5FF"/>
<path d="M243.332 285.53C243.406 286.273 242.823 286.917 242.077 286.917H212.414C211.746 286.917 211.234 286.317 211.404 285.672C211.429 285.578 211.44 285.48 211.47 285.387C211.489 285.33 211.513 285.27 211.53 285.209C212.416 282.093 215.136 275.804 222.638 275.804C226.81 275.804 229.304 277.093 230.793 278.592C232.835 280.649 235.264 283.165 238.163 283.165H241.033C242.199 283.165 243.177 284.048 243.295 285.209L243.332 285.53Z" fill="#4FA5FF"/>
<path d="M218.327 278.828C218.295 278.822 218.266 278.805 218.245 278.78C218.224 278.755 218.213 278.724 218.213 278.692C218.213 278.66 218.224 278.629 218.245 278.604C218.266 278.579 218.295 278.562 218.327 278.555L221.877 278.397L218.703 277.26C218.67 277.248 218.642 277.225 218.625 277.195C218.608 277.165 218.602 277.13 218.609 277.096C218.617 277.065 218.637 277.037 218.665 277.018C218.692 277 218.725 276.991 218.759 276.993L222.321 277.273L220.443 276.057C220.417 276.038 220.398 276.011 220.389 275.98C220.379 275.95 220.381 275.917 220.393 275.887C220.406 275.857 220.429 275.832 220.459 275.818C220.489 275.803 220.523 275.8 220.556 275.808L225.145 276.817C225.166 276.817 225.187 276.823 225.206 276.832C225.225 276.841 225.242 276.855 225.255 276.871C225.268 276.887 225.277 276.906 225.282 276.926C225.286 276.946 225.286 276.967 225.281 276.988C225.277 277.008 225.267 277.027 225.254 277.043C225.241 277.059 225.225 277.072 225.206 277.082C225.186 277.091 225.166 277.096 225.144 277.096C225.123 277.097 225.102 277.093 225.082 277.084L221.22 276.233L222.897 277.339C222.924 277.357 222.943 277.383 222.953 277.413C222.963 277.442 222.964 277.474 222.954 277.504C222.942 277.531 222.921 277.554 222.896 277.57C222.87 277.586 222.84 277.595 222.81 277.595L219.742 277.352L222.609 278.385C222.639 278.397 222.663 278.419 222.678 278.446C222.694 278.473 222.699 278.504 222.694 278.535C222.689 278.566 222.674 278.594 222.651 278.615C222.627 278.636 222.597 278.649 222.566 278.652L218.315 278.835L218.327 278.828Z" fill="#08294A"/>
<path d="M290.095 278.835C290.057 278.835 290.021 278.822 289.994 278.799C289.966 278.776 289.949 278.745 289.946 278.711C289.944 278.675 289.957 278.64 289.982 278.613C290.007 278.585 290.043 278.568 290.082 278.563L294.576 278.186L291.231 277.354C291.193 277.35 291.159 277.332 291.136 277.304C291.113 277.276 291.103 277.241 291.108 277.207C291.113 277.173 291.133 277.141 291.163 277.12C291.194 277.099 291.232 277.09 291.27 277.095H294.946L292.387 276.057C292.358 276.042 292.336 276.019 292.323 275.991C292.31 275.963 292.308 275.932 292.317 275.903C292.326 275.874 292.345 275.848 292.372 275.83C292.399 275.812 292.432 275.803 292.465 275.804L296.881 276.246C296.92 276.25 296.956 276.268 296.981 276.295C297.006 276.323 297.019 276.358 297.017 276.393C297.015 276.411 297.009 276.428 296.999 276.444C296.989 276.46 296.976 276.473 296.96 276.484C296.944 276.495 296.926 276.503 296.907 276.508C296.888 276.513 296.868 276.514 296.848 276.511L293.374 276.163L295.699 277.107C295.73 277.119 295.755 277.14 295.771 277.167C295.786 277.194 295.791 277.225 295.783 277.254C295.777 277.284 295.76 277.312 295.733 277.331C295.707 277.35 295.674 277.361 295.641 277.36H292.394L295.459 278.121C295.492 278.129 295.522 278.148 295.542 278.174C295.562 278.2 295.572 278.231 295.569 278.263C295.566 278.294 295.551 278.324 295.526 278.347C295.501 278.37 295.468 278.384 295.433 278.386L290.134 278.835H290.095Z" fill="#08294A"/>
<ellipse cx="196.59" cy="153.967" rx="6.36103" ry="2.02062" transform="rotate(-20.3934 196.59 153.967)" fill="#C5DC99"/>
<path d="M253.145 86.4303C253.079 86.3901 253.027 86.3285 252.996 86.2527C252.965 86.1768 252.955 86.0899 252.968 86.0018L253.159 84.6767C253.178 84.5546 253.239 84.4391 253.329 84.3557C253.42 84.2724 253.532 84.2279 253.642 84.2322C253.752 84.2365 253.85 84.2891 253.914 84.3785C253.979 84.4678 254.005 84.5867 253.986 84.7089L253.794 86.0339C253.786 86.0945 253.766 86.1543 253.737 86.2097C253.708 86.265 253.67 86.3148 253.625 86.3562C253.58 86.3976 253.529 86.4297 253.475 86.4507C253.422 86.4717 253.366 86.4811 253.312 86.4784C253.252 86.4779 253.194 86.4614 253.145 86.4303Z" fill="#080C53"/>
<path d="M256.15 86.9016C256.088 86.8663 256.04 86.811 256.01 86.7424C255.98 86.6737 255.969 86.5944 255.98 86.5137L256.164 85.293C256.171 85.2377 256.188 85.1831 256.214 85.1323C256.239 85.0815 256.273 85.0356 256.314 84.9972C256.354 84.9588 256.4 84.9287 256.449 84.9087C256.498 84.8887 256.549 84.8792 256.598 84.8806C256.698 84.8854 256.788 84.9337 256.847 85.0153C256.906 85.0969 256.93 85.2052 256.914 85.3168L256.743 86.5329C256.725 86.6445 256.669 86.7498 256.586 86.826C256.504 86.9023 256.401 86.9435 256.301 86.9408C256.246 86.9435 256.194 86.9299 256.15 86.9016Z" fill="#080C53"/>
<path d="M252.531 91.6468C252.492 91.3211 252.779 91.0576 253.099 91.1138L255.613 91.5539C255.996 91.6211 256.155 92.078 255.877 92.35C255.289 92.9271 254.397 93.6821 253.776 93.6694C252.927 93.652 252.666 92.7793 252.531 91.6468Z" fill="white"/>
<path d="M405.759 258.172H406.227C406.225 256.839 405.757 255.626 404.981 254.735C404.21 253.846 403.117 253.277 401.904 253.277H358.079C356.866 253.277 355.773 253.846 355 254.735C354.226 255.626 353.758 256.84 353.758 258.172C353.758 259.505 354.226 260.718 355 261.608C355.773 262.498 356.866 263.066 358.079 263.064H401.904C403.117 263.066 404.21 262.498 404.981 261.608C405.757 260.718 406.225 259.505 406.227 258.172H405.292C405.292 259.284 404.899 260.284 404.277 260.996C403.653 261.709 402.821 262.132 401.904 262.132H358.079C357.619 262.132 357.185 262.026 356.783 261.832C356.182 261.54 355.658 261.045 355.285 260.41C354.913 259.777 354.692 259.007 354.692 258.172C354.691 257.059 355.086 256.06 355.706 255.347C356.016 254.991 356.382 254.706 356.783 254.511C357.185 254.317 357.619 254.21 358.079 254.21H401.904C402.819 254.21 403.653 254.634 404.277 255.347C404.899 256.06 405.292 257.059 405.292 258.172H405.759Z" fill="#4FA5FF"/>
<path d="M405.759 267.026H406.227C406.225 265.694 405.757 264.48 404.981 263.589C404.21 262.7 403.117 262.131 401.904 262.131H358.079C356.866 262.131 355.773 262.7 355 263.589C354.226 264.48 353.758 265.694 353.758 267.026C353.758 268.359 354.226 269.573 355 270.463C355.773 271.353 356.866 271.922 358.079 271.92H401.904C403.117 271.922 404.21 271.353 404.981 270.463C405.757 269.573 406.225 268.359 406.227 267.026H405.292C405.292 268.138 404.899 269.139 404.277 269.85C403.653 270.565 402.819 270.987 401.904 270.987H358.079C357.619 270.987 357.185 270.88 356.783 270.686C356.182 270.395 355.658 269.899 355.285 269.266C354.913 268.632 354.692 267.862 354.692 267.026C354.691 265.913 355.086 264.914 355.706 264.201C356.016 263.845 356.382 263.561 356.783 263.365C357.185 263.171 357.619 263.066 358.079 263.064H401.904C402.821 263.066 403.653 263.489 404.277 264.201C404.899 264.914 405.292 265.913 405.292 267.026H405.759Z" fill="#4FA5FF"/>
<path d="M405.759 275.881H406.227C406.225 274.55 405.757 273.335 404.981 272.444C404.209 271.557 403.117 270.988 401.904 270.988H358.079C356.866 270.988 355.773 271.557 355 272.444C354.226 273.335 353.758 274.55 353.758 275.881C353.758 277.214 354.226 278.429 355 279.318C355.773 280.208 356.866 280.777 358.079 280.775H401.904C403.117 280.777 404.21 280.208 404.981 279.318C405.757 278.429 406.225 277.214 406.227 275.881H405.292C405.292 276.994 404.899 277.993 404.277 278.707C403.653 279.42 402.821 279.842 401.904 279.842H358.079C357.619 279.842 357.183 279.736 356.783 279.541C356.182 279.25 355.658 278.756 355.285 278.121C354.913 277.488 354.692 276.717 354.692 275.881C354.691 274.768 355.086 273.769 355.706 273.058C356.328 272.344 357.162 271.923 358.079 271.921H401.904C402.821 271.923 403.653 272.344 404.277 273.058C404.899 273.769 405.292 274.768 405.292 275.881H405.759Z" fill="#4FA5FF"/>
<path d="M401.719 229.498H402.186C402.186 228.358 401.784 227.317 401.12 226.552C400.456 225.789 399.515 225.299 398.469 225.299H361.514C360.468 225.299 359.525 225.789 358.863 226.554C358.199 227.317 357.797 228.358 357.797 229.498C357.797 230.64 358.199 231.68 358.863 232.444C359.525 233.209 360.468 233.7 361.514 233.698H398.469C399.515 233.7 400.456 233.209 401.12 232.444C401.784 231.68 402.186 230.64 402.186 229.498H401.251C401.253 230.42 400.925 231.246 400.414 231.832C399.9 232.42 399.217 232.765 398.469 232.765H361.514C361.138 232.765 360.782 232.679 360.453 232.519C359.961 232.279 359.53 231.873 359.222 231.349C358.914 230.826 358.731 230.19 358.731 229.498C358.731 228.578 359.057 227.752 359.569 227.164C359.825 226.871 360.124 226.638 360.453 226.478C360.782 226.319 361.138 226.233 361.514 226.231H398.469C399.217 226.233 399.9 226.576 400.414 227.164C400.925 227.752 401.253 228.578 401.251 229.498H401.719Z" fill="#4FA5FF"/>
<path d="M405.759 237.608H406.227C406.225 236.275 405.757 235.061 404.981 234.17C404.21 233.281 403.117 232.712 401.904 232.714H358.079C356.866 232.712 355.773 233.281 355 234.172C354.226 235.061 353.758 236.275 353.758 237.608C353.758 238.94 354.226 240.154 355 241.045C355.773 241.934 356.866 242.503 358.079 242.501H401.904C403.117 242.503 404.21 241.934 404.981 241.045C405.757 240.154 406.225 238.94 406.227 237.608H405.292C405.292 238.721 404.899 239.72 404.277 240.431C403.653 241.146 402.819 241.568 401.904 241.568H358.079C357.619 241.568 357.185 241.461 356.783 241.267C356.182 240.976 355.658 240.482 355.285 239.847C354.913 239.213 354.692 238.442 354.692 237.608C354.691 236.494 355.086 235.496 355.706 234.782C356.016 234.426 356.382 234.142 356.783 233.948C357.185 233.754 357.619 233.647 358.079 233.647H401.904C402.821 233.647 403.653 234.069 404.277 234.782C404.899 235.496 405.292 236.494 405.292 237.608H405.759Z" fill="#4FA5FF"/>
<path d="M354.944 253.539C354.944 252.538 355.757 251.726 356.758 251.726C357.761 251.726 358.574 252.538 358.574 253.539V263.446C358.574 264.448 357.761 265.258 356.758 265.258C355.757 265.258 354.944 264.448 354.944 263.446V253.539ZM354.944 269.488C354.944 268.488 355.757 267.676 356.758 267.676C357.761 267.676 358.574 268.488 358.574 269.488V279.396C358.574 280.398 357.761 281.208 356.758 281.208C355.757 281.208 354.944 280.398 354.944 279.396V269.488ZM362.688 253.539C362.688 252.538 363.502 251.726 364.503 251.726C365.506 251.726 366.319 252.538 366.319 253.539V263.446C366.319 264.448 365.506 265.258 364.503 265.258C363.502 265.258 362.688 264.448 362.688 263.446V253.539ZM362.688 269.488C362.688 268.488 363.502 267.676 364.503 267.676C365.506 267.676 366.319 268.488 366.319 269.488V279.396C366.319 280.398 365.506 281.208 364.503 281.208C363.502 281.208 362.688 280.398 362.688 279.396V269.488ZM370.431 253.539C370.431 252.538 371.247 251.726 372.248 251.726C373.251 251.726 374.064 252.538 374.064 253.539V263.446C374.064 264.448 373.251 265.258 372.248 265.258C371.247 265.258 370.431 264.448 370.431 263.446V253.539ZM370.431 269.488C370.431 268.488 371.247 267.676 372.248 267.676C373.251 267.676 374.064 268.488 374.064 269.488V279.396C374.064 280.398 373.251 281.208 372.248 281.208C371.247 281.208 370.431 280.398 370.431 279.396V269.488ZM378.178 253.539C378.178 252.538 378.991 251.726 379.993 251.726C380.996 251.726 381.809 252.538 381.809 253.539V263.446C381.809 264.448 380.996 265.258 379.993 265.258C378.991 265.258 378.178 264.448 378.178 263.446V253.539ZM378.178 269.488C378.178 268.488 378.991 267.676 379.993 267.676C380.996 267.676 381.809 268.488 381.809 269.488V279.396C381.809 280.398 380.996 281.208 379.993 281.208C378.991 281.208 378.178 280.398 378.178 279.396V269.488ZM385.923 253.539C385.923 252.538 386.734 251.726 387.737 251.726C388.739 251.726 389.552 252.538 389.552 253.539V263.446C389.552 264.448 388.739 265.258 387.737 265.258C386.734 265.258 385.923 264.448 385.923 263.446V253.539ZM385.923 269.488C385.923 268.488 386.734 267.676 387.737 267.676C388.739 267.676 389.552 268.488 389.552 269.488V279.396C389.552 280.398 388.739 281.208 387.737 281.208C386.734 281.208 385.923 280.398 385.923 279.396V269.488ZM393.666 253.539C393.666 252.538 394.479 251.726 395.482 251.726C396.484 251.726 397.297 252.538 397.297 253.539V263.446C397.297 264.448 396.484 265.258 395.482 265.258C394.479 265.258 393.666 264.448 393.666 263.446V253.539ZM393.666 269.488C393.666 268.488 394.479 267.676 395.482 267.676C396.484 267.676 397.297 268.488 397.297 269.488V279.396C397.297 280.398 396.484 281.208 395.482 281.208C394.479 281.208 393.666 280.398 393.666 279.396V269.488ZM401.411 253.539C401.411 252.538 402.224 251.726 403.227 251.726C404.229 251.726 405.04 252.538 405.04 253.539V263.446C405.04 264.448 404.229 265.258 403.227 265.258C402.224 265.258 401.411 264.448 401.411 263.446V253.539ZM401.411 269.488C401.411 268.488 402.224 267.676 403.227 267.676C404.229 267.676 405.04 268.488 405.04 269.488V279.396C405.04 280.398 404.229 281.208 403.227 281.208C402.224 281.208 401.411 280.398 401.411 279.396V269.488ZM346.432 247.457L350.409 279.033C350.409 279.033 350.657 285.155 357.618 285.477H402.367C409.326 285.155 409.575 279.033 409.575 279.033L413.552 247.457H346.432Z" fill="#C9E4FF"/>
<path d="M354.944 253.538H355.412C355.412 253.165 355.561 252.831 355.806 252.587C356.052 252.342 356.386 252.193 356.758 252.192C357.132 252.193 357.466 252.342 357.712 252.587C357.957 252.831 358.107 253.165 358.107 253.538V263.445C358.107 263.819 357.957 264.153 357.712 264.397C357.466 264.642 357.132 264.791 356.758 264.791C356.386 264.791 356.052 264.642 355.806 264.397C355.561 264.153 355.412 263.819 355.412 263.445V253.538H354.476V263.445C354.476 264.073 354.734 264.646 355.145 265.058C355.556 265.469 356.13 265.725 356.758 265.725C357.387 265.725 357.962 265.469 358.373 265.058C358.784 264.646 359.042 264.073 359.042 263.445V253.538C359.042 252.909 358.784 252.337 358.373 251.926C357.962 251.515 357.387 251.259 356.758 251.259C356.131 251.259 355.556 251.515 355.145 251.926C354.734 252.337 354.476 252.909 354.476 253.538H354.944ZM354.944 269.488H355.412C355.412 269.113 355.561 268.781 355.806 268.535C356.052 268.291 356.386 268.142 356.758 268.142C357.132 268.142 357.466 268.291 357.712 268.535C357.957 268.781 358.107 269.113 358.107 269.488V279.395C358.107 279.769 357.957 280.101 357.712 280.347C357.466 280.59 357.132 280.741 356.758 280.741C356.386 280.741 356.052 280.59 355.806 280.347C355.561 280.101 355.412 279.769 355.412 279.395V269.488H354.476V279.395C354.476 280.023 354.734 280.595 355.145 281.006C355.556 281.418 356.131 281.673 356.758 281.673C357.387 281.673 357.962 281.418 358.373 281.006C358.784 280.595 359.042 280.023 359.042 279.395V269.488C359.042 268.859 358.784 268.286 358.373 267.876C357.962 267.465 357.387 267.209 356.758 267.209C356.13 267.209 355.556 267.465 355.145 267.876C354.734 268.286 354.476 268.859 354.476 269.488H354.944ZM362.688 253.538H363.154C363.156 253.165 363.305 252.831 363.549 252.587C363.795 252.342 364.131 252.193 364.503 252.192C364.877 252.193 365.211 252.342 365.457 252.587C365.702 252.831 365.851 253.165 365.851 253.538V263.445C365.851 263.819 365.702 264.153 365.457 264.397C365.211 264.642 364.877 264.791 364.503 264.791C364.131 264.791 363.795 264.642 363.549 264.397C363.305 264.153 363.156 263.819 363.154 263.445V253.538H362.22V263.445C362.22 264.073 362.477 264.646 362.89 265.058C363.301 265.469 363.875 265.725 364.503 265.725C365.132 265.725 365.705 265.469 366.118 265.058C366.529 264.646 366.787 264.073 366.785 263.445V253.538C366.787 252.909 366.529 252.337 366.118 251.926C365.705 251.515 365.132 251.259 364.503 251.259C363.875 251.259 363.301 251.515 362.89 251.926C362.477 252.337 362.22 252.909 362.22 253.538H362.688ZM362.688 269.488H363.154C363.156 269.115 363.305 268.781 363.549 268.535C363.795 268.291 364.131 268.142 364.503 268.142C364.877 268.142 365.211 268.291 365.457 268.535C365.702 268.781 365.851 269.115 365.851 269.488V279.395C365.851 279.769 365.702 280.101 365.457 280.347C365.211 280.59 364.877 280.741 364.503 280.741C364.131 280.741 363.795 280.59 363.549 280.347C363.305 280.101 363.156 279.767 363.154 279.395V269.488H362.22V279.395C362.22 280.023 362.477 280.595 362.89 281.006C363.301 281.418 363.875 281.673 364.503 281.673C365.132 281.673 365.705 281.418 366.118 281.006C366.529 280.595 366.787 280.023 366.785 279.395V269.488C366.787 268.859 366.529 268.286 366.118 267.876C365.705 267.465 365.132 267.209 364.503 267.209C363.875 267.209 363.301 267.465 362.89 267.874C362.477 268.286 362.22 268.859 362.22 269.488H362.688ZM370.431 253.538H370.899C370.899 253.165 371.05 252.831 371.294 252.587C371.54 252.342 371.874 252.193 372.248 252.192C372.622 252.193 372.956 252.342 373.202 252.587C373.447 252.831 373.596 253.165 373.597 253.538V263.445C373.596 263.819 373.447 264.153 373.202 264.397C372.956 264.642 372.621 264.791 372.248 264.791C371.874 264.791 371.54 264.642 371.294 264.397C371.05 264.153 370.899 263.819 370.899 263.445V253.538H369.964V263.445C369.964 264.073 370.222 264.646 370.633 265.058C371.046 265.469 371.62 265.725 372.248 265.725C372.877 265.725 373.452 265.469 373.863 265.058C374.274 264.646 374.532 264.073 374.532 263.445V253.538C374.532 252.909 374.274 252.337 373.861 251.926C373.452 251.515 372.877 251.259 372.248 251.259C371.62 251.259 371.046 251.515 370.633 251.926C370.222 252.337 369.964 252.909 369.964 253.538H370.431ZM370.431 269.488H370.899C370.899 269.115 371.05 268.781 371.294 268.535C371.54 268.291 371.874 268.142 372.248 268.142C372.621 268.142 372.956 268.291 373.202 268.535C373.447 268.781 373.596 269.113 373.597 269.488V279.395C373.596 279.769 373.447 280.101 373.202 280.347C372.956 280.59 372.622 280.741 372.248 280.741C371.874 280.741 371.54 280.59 371.294 280.347C371.05 280.101 370.899 279.769 370.899 279.395V269.488H369.964V279.395C369.964 280.023 370.222 280.595 370.633 281.006C371.046 281.418 371.62 281.673 372.248 281.673C372.877 281.673 373.45 281.418 373.861 281.006C374.274 280.595 374.532 280.023 374.532 279.395V269.488C374.532 268.859 374.276 268.286 373.863 267.876C373.452 267.465 372.877 267.209 372.248 267.209C371.62 267.209 371.046 267.465 370.633 267.874C370.222 268.286 369.964 268.859 369.964 269.488H370.431ZM378.178 253.538H378.644C378.644 253.165 378.795 252.831 379.039 252.587C379.285 252.342 379.619 252.193 379.993 252.192C380.366 252.193 380.701 252.342 380.945 252.587C381.19 252.831 381.341 253.165 381.341 253.538V263.445C381.341 263.819 381.19 264.153 380.945 264.397C380.701 264.642 380.366 264.791 379.993 264.791C379.619 264.791 379.285 264.642 379.039 264.397C378.795 264.153 378.644 263.819 378.644 263.445V253.538H377.709V263.445C377.709 264.705 378.731 265.725 379.993 265.725C381.253 265.725 382.275 264.705 382.275 263.445V253.538C382.275 252.909 382.019 252.337 381.606 251.926C381.195 251.515 380.622 251.259 379.993 251.259C379.363 251.259 378.79 251.515 378.378 251.926C377.965 252.337 377.709 252.909 377.709 253.538H378.178ZM378.178 269.488H378.644C378.644 269.113 378.795 268.781 379.039 268.535C379.285 268.291 379.619 268.142 379.993 268.142C380.366 268.142 380.701 268.291 380.945 268.535C381.19 268.781 381.341 269.113 381.341 269.488V279.395C381.341 279.769 381.19 280.101 380.945 280.347C380.701 280.59 380.366 280.741 379.993 280.741C379.619 280.741 379.285 280.59 379.039 280.347C378.795 280.101 378.644 279.769 378.644 279.395V269.488H377.709V279.395C377.709 280.023 377.965 280.595 378.378 281.006C378.79 281.418 379.363 281.673 379.993 281.673C380.622 281.673 381.195 281.418 381.606 281.006C382.019 280.595 382.275 280.023 382.275 279.395V269.488C382.275 268.227 381.253 267.209 379.993 267.209C378.731 267.209 377.709 268.227 377.709 269.488H378.178ZM385.923 253.538H386.389C386.391 253.165 386.54 252.831 386.784 252.587C387.029 252.342 387.362 252.193 387.736 252.192C388.111 252.193 388.446 252.342 388.69 252.587C388.935 252.831 389.086 253.165 389.086 253.538V263.445C389.086 263.819 388.935 264.153 388.69 264.397C388.446 264.642 388.111 264.791 387.736 264.791C387.362 264.791 387.029 264.642 386.784 264.397C386.54 264.153 386.391 263.819 386.389 263.445V253.538H385.454V263.445C385.454 264.073 385.71 264.646 386.123 265.058C386.535 265.469 387.108 265.725 387.736 265.725C388.998 265.725 390.02 264.705 390.02 263.445V253.538C390.02 252.909 389.763 252.337 389.351 251.926C388.94 251.515 388.366 251.259 387.736 251.259C387.108 251.259 386.535 251.515 386.123 251.926C385.71 252.337 385.454 252.909 385.454 253.538H385.923ZM385.923 269.488H386.389C386.391 269.113 386.54 268.78 386.784 268.535C387.029 268.291 387.362 268.142 387.736 268.142C388.111 268.142 388.446 268.291 388.69 268.535C388.935 268.781 389.086 269.113 389.086 269.488V279.395C389.086 279.769 388.935 280.101 388.69 280.347C388.446 280.59 388.111 280.741 387.736 280.741C387.362 280.741 387.029 280.59 386.784 280.347C386.54 280.101 386.391 279.769 386.389 279.395V269.488H385.454V279.395C385.456 280.653 386.475 281.673 387.736 281.673C388.366 281.673 388.94 281.418 389.351 281.006C389.763 280.595 390.02 280.023 390.02 279.395V269.488C390.02 268.227 388.998 267.209 387.736 267.209C387.108 267.209 386.535 267.465 386.123 267.876C385.71 268.287 385.454 268.859 385.454 269.488H385.923ZM393.666 253.538H394.134C394.134 253.165 394.283 252.831 394.529 252.587C394.774 252.342 395.107 252.193 395.481 252.192C395.856 252.193 396.189 252.342 396.435 252.587C396.678 252.831 396.829 253.165 396.829 253.538V263.445C396.829 263.819 396.678 264.153 396.435 264.397C396.189 264.642 395.856 264.791 395.481 264.791C395.107 264.791 394.774 264.642 394.529 264.397C394.283 264.153 394.134 263.819 394.134 263.445V253.538H393.199V263.445C393.199 264.073 393.455 264.646 393.867 265.058C394.278 265.469 394.851 265.725 395.481 265.725C396.11 265.725 396.683 265.469 397.096 265.058C397.508 264.646 397.763 264.073 397.763 263.445V253.538C397.763 252.909 397.508 252.337 397.096 251.926C396.683 251.515 396.11 251.259 395.481 251.259C394.853 251.259 394.278 251.515 393.867 251.926C393.455 252.337 393.199 252.909 393.199 253.538H393.666ZM393.666 269.488H394.134C394.134 269.113 394.283 268.781 394.529 268.535C394.774 268.291 395.107 268.142 395.481 268.142C395.856 268.142 396.189 268.291 396.435 268.535C396.678 268.78 396.829 269.113 396.829 269.488V279.395C396.829 280.138 396.226 280.741 395.481 280.741C395.107 280.741 394.774 280.59 394.527 280.347C394.283 280.101 394.134 279.769 394.134 279.395V269.488H393.199V279.395C393.199 280.023 393.455 280.595 393.867 281.006C394.278 281.418 394.853 281.673 395.481 281.673C396.11 281.673 396.683 281.418 397.096 281.006C397.508 280.595 397.763 280.023 397.763 279.395V269.488C397.763 268.859 397.508 268.287 397.096 267.876C396.683 267.465 396.11 267.209 395.481 267.209C394.851 267.209 394.278 267.465 393.867 267.876C393.455 268.286 393.199 268.859 393.199 269.488H393.666ZM401.411 253.538H401.879C401.879 253.165 402.03 252.831 402.274 252.587C402.519 252.342 402.852 252.193 403.226 252.192C403.601 252.193 403.934 252.342 404.179 252.587C404.423 252.831 404.574 253.165 404.574 253.538V263.445C404.574 263.819 404.423 264.153 404.179 264.397C403.934 264.642 403.601 264.791 403.226 264.791C402.852 264.791 402.519 264.642 402.274 264.397C402.03 264.153 401.879 263.819 401.879 263.445V253.538H400.944V263.445C400.944 264.073 401.2 264.646 401.612 265.058C402.025 265.469 402.598 265.725 403.226 265.725C403.855 265.725 404.428 265.469 404.84 265.058C405.253 264.646 405.508 264.073 405.508 263.445V253.538C405.508 252.909 405.253 252.337 404.84 251.926C404.428 251.515 403.855 251.259 403.226 251.259C402.598 251.259 402.025 251.515 401.612 251.926C401.2 252.337 400.944 252.909 400.944 253.538H401.411ZM401.411 269.488H401.879C401.879 269.113 402.03 268.78 402.274 268.535C402.519 268.291 402.852 268.142 403.226 268.142C403.601 268.142 403.934 268.291 404.179 268.535C404.423 268.78 404.574 269.113 404.574 269.488V279.395C404.574 279.769 404.423 280.101 404.179 280.347C403.934 280.59 403.601 280.741 403.226 280.741C402.852 280.741 402.519 280.59 402.274 280.347C402.03 280.101 401.879 279.769 401.879 279.395V269.488H400.944V279.395C400.944 280.653 401.966 281.673 403.226 281.673C403.855 281.673 404.428 281.418 404.84 281.006C405.253 280.595 405.508 280.023 405.508 279.395V269.488C405.508 268.859 405.253 268.287 404.84 267.876C404.428 267.465 403.855 267.209 403.226 267.209C402.598 267.209 402.025 267.465 401.612 267.876C401.2 268.287 400.944 268.859 400.944 269.488H401.411ZM346.432 247.456L345.968 247.514L349.946 279.09L350.409 279.032L349.943 279.051C349.943 279.072 349.961 279.482 350.102 280.098C350.312 281.018 350.796 282.407 351.938 283.615C352.51 284.219 353.245 284.773 354.178 285.188C355.111 285.603 356.242 285.88 357.597 285.941L357.618 285.943H402.366L402.387 285.941C404.195 285.859 405.601 285.394 406.675 284.73C407.481 284.232 408.097 283.625 408.563 283C409.264 282.061 409.63 281.082 409.825 280.337C410.019 279.591 410.042 279.076 410.042 279.051L409.575 279.032L410.039 279.09L414.016 247.514C414.032 247.381 413.99 247.247 413.903 247.147C413.814 247.046 413.686 246.99 413.551 246.99H346.432C346.299 246.99 346.169 247.046 346.082 247.147C345.993 247.247 345.952 247.381 345.968 247.514L346.432 247.456V247.922H413.022L409.112 278.974L409.109 279.012C409.107 279.037 409.086 279.416 408.953 279.966C408.756 280.797 408.306 282.007 407.321 283.023C406.827 283.533 406.198 283.998 405.387 284.352C404.576 284.707 403.578 284.952 402.344 285.01L402.366 285.476V285.01H357.618V285.476L357.641 285.01C355.968 284.93 354.732 284.511 353.801 283.936C353.103 283.505 352.576 282.985 352.17 282.443C351.562 281.63 351.237 280.763 351.064 280.102C350.978 279.772 350.931 279.493 350.905 279.301C350.892 279.204 350.885 279.129 350.881 279.079C350.879 279.055 350.877 279.037 350.876 279.025V279.012L350.696 279.021L350.876 279.012L350.696 279.021L350.876 279.012L350.873 278.974L346.895 247.398L346.432 247.456V247.922V247.456Z" fill="#4FA5FF"/>
<path d="M343.207 245.452C343.207 247.84 344.24 249.777 345.513 249.777H414.47C415.741 249.777 416.776 247.84 416.776 245.452C416.776 243.063 415.741 241.128 414.47 241.128H345.513C344.24 241.128 343.207 243.063 343.207 245.452Z" fill="white"/>
<path d="M343.207 245.453H342.74C342.742 246.715 343.009 247.86 343.471 248.729C343.702 249.163 343.984 249.533 344.326 249.803C344.663 250.074 345.074 250.245 345.513 250.244H414.47C414.908 250.245 415.318 250.074 415.657 249.803C416.167 249.395 416.549 248.775 416.821 248.028C417.09 247.28 417.242 246.399 417.242 245.453C417.241 244.19 416.973 243.045 416.512 242.175C416.279 241.741 415.997 241.373 415.657 241.103C415.318 240.832 414.908 240.661 414.47 240.662H345.513C345.074 240.661 344.663 240.832 344.326 241.103C343.816 241.511 343.433 242.129 343.161 242.876C342.892 243.624 342.74 244.505 342.74 245.453H343.675C343.673 244.326 343.923 243.31 344.295 242.614C344.481 242.266 344.695 242 344.906 241.833C345.119 241.666 345.315 241.595 345.513 241.595H414.47C414.666 241.595 414.861 241.666 415.075 241.833C415.393 242.083 415.715 242.559 415.94 243.194C416.169 243.825 416.308 244.607 416.308 245.453C416.308 246.579 416.06 247.594 415.686 248.29C415.501 248.64 415.286 248.904 415.075 249.071C414.861 249.24 414.666 249.309 414.47 249.311H345.513C345.315 249.309 345.121 249.24 344.906 249.071C344.588 248.823 344.268 248.346 344.041 247.712C343.812 247.081 343.675 246.297 343.675 245.453H343.207Z" fill="#4FA5FF"/>
</svg>
