<svg width="422" height="273" viewBox="0 0 422 273" fill="none" xmlns="http://www.w3.org/2000/svg">
<path d="M30.3129 224.556L394.963 224.556L421.357 272.546L0.960938 272.546L30.3129 224.556Z" fill="#C5DC99"/>
<path d="M18.6936 91.5393C27.053 134.971 -1.63493 162.25 24.6084 189.441C38.2587 211.679 23.3667 218.359 24.6084 226.475H396.939C394.435 225.521 394.11 221.226 412.849 211.679C436.272 199.745 407.23 150.629 375.41 148.731C343.589 146.833 384.754 91.4764 389.426 52.8456C394.098 14.2148 335.993 -6.30699 233.903 3.24618C131.813 12.7993 90.6611 -4.40922 38.2587 3.24618C-14.1437 10.9016 10.6287 49.6378 18.6936 91.5393Z" fill="#F5FAFF"/>
<path d="M120.52 108.572L122.647 126.047C123.118 129.887 125.588 132.7 128.479 132.7H165.935C168.655 132.7 171.032 130.202 171.674 126.647L174.958 108.243L120.52 108.572Z" fill="#C9E4FF"/>
<path d="M174.986 108.572L177.106 126.047C177.578 129.887 180.048 132.7 182.946 132.7H220.395C223.114 132.7 225.492 130.202 226.134 126.647L229.418 108.243L174.986 108.572Z" fill="#C9E4FF"/>
<path d="M229.447 108.572L231.575 126.047C232.039 129.887 234.508 132.7 237.407 132.7H274.856C277.582 132.7 279.952 130.202 280.602 126.647L283.879 108.243L229.447 108.572Z" fill="#C9E4FF"/>
<path d="M283.908 108.572L286.035 126.047C286.499 129.887 288.969 132.7 291.868 132.7H329.316C332.043 132.7 334.413 130.201 335.063 126.646L336.034 108.886L283.908 108.572Z" fill="#C9E4FF"/>
<path d="M337.526 111.134H121.278C106.658 91.3678 72.8359 28.9698 74.2065 28.7128L307.273 28.3916L316.032 55.6608L337.526 111.134Z" fill="#98C3F5"/>
<path d="M307.736 28.5122C313.276 47.2366 319.993 63.7837 326.032 79.5385C330.315 90.696 333.77 101.946 338.382 111.134V130.029C338.382 130.972 337.197 131.386 336.612 130.658C334.077 127.502 332.336 129.444 320.321 111.134C301.975 83.1577 307.736 28.5122 307.736 28.5122Z" fill="#C9E4FF"/>
<path d="M74.1831 28.7122C88.8385 60.6785 107.442 89.6539 121.276 111.134L119.599 130.029C119.599 130.972 115.908 132.464 115.315 131.728C115.315 131.728 108.819 133.649 96.4768 115.545C70.7923 77.8682 74.1831 28.7122 74.1831 28.7122Z" fill="#C9E4FF"/>
<path d="M308.371 111.984H126.645C125.481 111.984 124.539 111.041 124.539 109.878C124.539 108.714 125.481 107.772 126.645 107.772H308.371C309.534 107.772 310.477 108.714 310.477 109.878C310.477 111.041 309.534 111.984 308.371 111.984Z" fill="#F3A769"/>
<path d="M299.804 87.2627L286.869 49.1786H105.336L118.299 79.703L114.138 81.4734L99.8392 47.8009C99.5393 47.1013 99.6179 46.3018 100.032 45.6736C100.453 45.0383 101.16 44.6599 101.924 44.6599H288.482C289.453 44.6599 290.317 45.2738 290.631 46.1947L304.087 85.8065L299.804 87.2627Z" fill="#F3A769"/>
<path d="M173.281 245.796L115.545 86.9563L64.7828 243.819L59.9785 242.262L113.004 78.4257C113.339 77.3978 114.281 76.6982 115.359 76.6768C116.43 76.6554 117.408 77.3264 117.779 78.34L178.021 244.068L173.281 245.796Z" fill="#F3A769"/>
<path d="M62.1058 240.492L115.117 76.698C114.139 76.8122 113.311 77.4761 113.004 78.4255L59.9785 242.262L64.7828 243.818L65.5037 241.584L62.1058 240.492Z" fill="#F7CDA3"/>
<path d="M175.408 244.018L117.672 85.1851L116.365 89.2183L173.281 245.795L178.021 244.068L177.7 243.182L175.408 244.018Z" fill="#F7CDA3"/>
<path d="M180.349 247.474H55.6384C54.1393 247.474 52.9258 246.26 52.9258 244.761V241.32C52.9258 239.821 54.1393 238.608 55.6384 238.608H180.349C181.848 238.608 183.061 239.821 183.061 241.32V244.761C183.061 246.26 181.848 247.474 180.349 247.474Z" fill="#F3A769"/>
<path d="M57.7372 244.761V241.32C57.7372 239.821 58.9507 238.608 60.4498 238.608H55.6384C54.1393 238.608 52.9258 239.821 52.9258 241.32V244.761C52.9258 246.26 54.1393 247.474 55.6384 247.474H60.4498C58.9507 247.474 57.7372 246.26 57.7372 244.761Z" fill="#F7CDA3"/>
<path d="M103.687 188.601C103.516 188.601 103.344 188.58 103.173 188.537C102.124 188.251 101.503 187.173 101.788 186.124C105.557 172.175 114.373 161.096 127.266 154.093C136.81 148.911 148.667 146.041 159.011 146.419C160.096 146.462 160.945 147.369 160.902 148.461C160.867 149.546 159.946 150.403 158.868 150.353C144.027 149.81 113.795 156.799 105.586 187.152C105.35 188.03 104.551 188.601 103.687 188.601Z" fill="#F3A769"/>
<path d="M101.926 188.18C101.84 188.18 101.761 188.166 101.676 188.138C101.233 188.009 100.983 187.538 101.119 187.095L143.707 46.673C143.829 46.2947 144.2 46.0448 144.593 46.0805C144.992 46.1234 145.307 46.4375 145.349 46.8301L159.641 187.252C159.691 187.716 159.348 188.123 158.891 188.173C158.427 188.216 158.013 187.881 157.97 187.424L144.107 51.1703L102.725 187.581C102.618 187.945 102.283 188.18 101.926 188.18Z" fill="#F3A769"/>
<path d="M145.348 46.8301C145.306 46.4375 144.992 46.1234 144.592 46.0805C144.199 46.0448 143.828 46.2947 143.707 46.673L125.932 105.288H127.688L144.106 51.1703L149.61 105.288H151.302L145.348 46.8301Z" fill="#CCBE9D"/>
<path d="M286.535 201.365H156.028L96.4785 191.957L139.11 175.98L162.924 129.623H307.993C310.206 129.623 312.948 133.578 312.177 135.648L291.917 197.632C291.075 199.88 288.934 201.365 286.535 201.365Z" fill="#F3A769"/>
<path d="M282.658 191.957H133.027L154.207 135.177C155.457 131.836 158.648 129.623 162.217 129.623H305.916L282.658 191.957Z" fill="#F3A769"/>
<path d="M283.914 179.786H139.537L159.782 129.952C160.974 127.018 164.022 125.076 167.427 125.076H296.656C300.568 125.076 303.274 128.659 301.91 132.022L283.914 179.786Z" fill="#98C3F5"/>
<path d="M296.656 125.076H290.981C294.893 125.076 297.599 128.659 296.235 132.022L278.246 179.786H283.914L301.91 132.022C303.274 128.659 300.568 125.076 296.656 125.076Z" fill="#4FA5FF"/>
<path d="M206.377 125.076H204C200.587 125.076 197.539 127.018 196.347 129.952L176.109 179.786H178.487L198.731 129.952C199.924 127.018 202.972 125.076 206.377 125.076Z" fill="#4FA5FF"/>
<path d="M255.56 125.076H253.175C249.77 125.076 246.722 127.018 245.53 129.952L225.285 179.786H227.669L247.914 129.952C249.099 127.018 252.155 125.076 255.56 125.076Z" fill="#4FA5FF"/>
<path d="M280.802 196.897L96.3491 191.957C95.2497 191.957 94.3574 191.064 94.3574 189.965V184.711C94.3574 183.605 95.2497 182.712 96.3491 182.712L226.071 183.012L284.25 187.695L280.802 196.897Z" fill="#F3A769"/>
<path d="M224.964 191.957H96.3491C95.2497 191.957 94.3574 191.064 94.3574 189.965V184.711C94.3574 183.604 95.2497 182.712 96.3491 182.712H224.964C226.185 182.712 227.177 183.704 227.177 184.918V189.751C227.177 190.971 226.185 191.957 224.964 191.957Z" fill="#F7CDA3"/>
<path d="M279.459 182.713H102.28C100.574 182.713 99.1895 181.328 99.1895 179.622V176.145C99.1895 174.432 100.574 173.047 102.28 173.047H279.459C281.165 173.047 282.55 174.432 282.55 176.145V179.622C282.55 181.328 281.165 182.713 279.459 182.713Z" fill="#B9D9FF"/>
<path d="M137.532 179.593V176.174C137.532 174.447 138.931 173.047 140.658 173.047H138.988C137.26 173.047 135.861 174.447 135.861 176.174V179.593C135.861 181.314 137.26 182.713 138.988 182.713H140.658C138.931 182.713 137.532 181.314 137.532 179.593Z" fill="#4FA5FF"/>
<path d="M183.389 179.593V176.174C183.389 174.447 184.781 173.047 186.509 173.047H184.838C183.118 173.047 181.719 174.447 181.719 176.174V179.593C181.719 181.314 183.118 182.713 184.838 182.713H186.509C184.781 182.713 183.389 181.314 183.389 179.593Z" fill="#4FA5FF"/>
<path d="M280.46 189.152L225.065 182.713C224.066 182.713 223.252 181.899 223.252 180.907V174.861C223.252 173.861 224.066 173.047 225.065 173.047H284.315C285.314 173.047 286.121 173.861 286.121 174.861L282.273 187.339C282.273 188.338 281.46 189.152 280.46 189.152Z" fill="#4FA5FF"/>
<path d="M238.242 188.601C238.078 188.601 237.899 188.579 237.728 188.537C236.678 188.251 236.057 187.173 236.343 186.124C244.981 154.186 278.881 155.435 295.164 156.035L295.393 156.042C296.478 156.085 297.327 156.999 297.292 158.084C297.249 159.169 296.335 160.032 295.25 159.975L295.022 159.968C278.574 159.369 247.964 158.234 240.141 187.152C239.905 188.03 239.113 188.601 238.242 188.601Z" fill="#F3A769"/>
<path d="M233.373 187.481C233.373 188.737 232.36 189.751 231.103 189.751C229.847 189.751 228.826 188.737 228.826 187.481C228.826 186.224 229.847 185.211 231.103 185.211C232.36 185.211 233.373 186.224 233.373 187.481Z" fill="#7E90AB"/>
<path d="M287.177 192.806C287.177 194.063 286.163 195.076 284.907 195.076C283.65 195.076 282.637 194.063 282.637 192.806C282.637 191.55 283.65 190.529 284.907 190.529C286.163 190.529 287.177 191.55 287.177 192.806Z" fill="#7E90AB"/>
<path d="M285.913 194.319C285.485 194.319 285.121 193.991 285.078 193.556L273.256 51.2417L231.903 187.581C231.767 188.023 231.296 188.273 230.853 188.137C230.411 188.009 230.161 187.538 230.297 187.095L272.885 46.673C272.999 46.2947 273.371 46.0448 273.77 46.0805C274.17 46.1234 274.491 46.4375 274.527 46.8372L286.755 193.399C286.798 193.855 286.456 194.27 285.999 194.312C285.97 194.312 285.942 194.319 285.913 194.319Z" fill="#F3A769"/>
<path d="M274.526 46.8372C274.491 46.4375 274.169 46.1234 273.77 46.0805C273.37 46.0448 272.999 46.2947 272.884 46.673L255.109 105.288H256.865L273.256 51.2417L277.71 105.545H279.395L274.526 46.8372Z" fill="#CCBE9D"/>
<path d="M235.329 187.481C235.329 188.737 234.308 189.751 233.058 189.751C231.802 189.751 230.781 188.737 230.781 187.481C230.781 186.224 231.802 185.211 233.058 185.211C234.308 185.211 235.329 186.224 235.329 187.481Z" fill="#90A3C2"/>
<path d="M289.975 192.806C289.975 194.063 288.954 195.076 287.698 195.076C286.449 195.076 285.428 194.063 285.428 192.806C285.428 191.55 286.449 190.529 287.698 190.529C288.954 190.529 289.975 191.55 289.975 192.806Z" fill="#90A3C2"/>
<path d="M356.992 245.796L299.256 86.9563L248.487 243.819L243.689 242.262L296.715 78.4257C297.05 77.3978 297.992 76.6982 299.07 76.6768C300.141 76.6554 301.119 77.3264 301.49 78.34L361.732 244.068L356.992 245.796Z" fill="#F3A769"/>
<path d="M245.817 240.492L298.828 76.698C297.85 76.8122 297.021 77.4761 296.715 78.4255L243.689 242.262L248.487 243.818L249.215 241.584L245.817 240.492Z" fill="#F7CDA3"/>
<path d="M359.119 244.018L301.383 85.1851L300.076 89.2183L356.992 245.795L361.732 244.068L361.411 243.182L359.119 244.018Z" fill="#F7CDA3"/>
<path d="M364.058 247.473H239.347C237.848 247.473 236.635 246.26 236.635 244.761V241.32C236.635 239.821 237.848 238.607 239.347 238.607H364.058C365.557 238.607 366.77 239.821 366.77 241.32V244.761C366.77 246.26 365.557 247.473 364.058 247.473Z" fill="#F3A769"/>
<path d="M241.446 244.761V241.32C241.446 239.821 242.66 238.607 244.159 238.607H239.347C237.848 238.607 236.635 239.821 236.635 241.32V244.761C236.635 246.26 237.848 247.473 239.347 247.473H244.159C242.66 247.473 241.446 246.26 241.446 244.761Z" fill="#F7CDA3"/>
<path d="M67.2026 28.7133C66.6173 28.7204 66.1747 29.2273 66.2532 29.8055L68.459 46.1956C68.973 50.0361 71.7142 52.8558 74.9194 52.8558H116.38C119.4 52.8558 122.027 50.3573 122.74 46.8024L126.374 28.6348L67.2026 28.7133Z" fill="#C9E4FF"/>
<path d="M126.145 28.8622L128.522 46.4302C129.043 50.2707 131.777 53.0904 134.982 53.0904H176.45C179.462 53.0904 182.089 50.5848 182.803 47.0298L186.408 28.7837L126.145 28.8622Z" fill="#C9E4FF"/>
<path d="M186.41 28.7836L188.823 46.43C189.344 50.2706 192.078 53.0903 195.283 53.0903H236.744C239.764 53.0903 242.391 50.5847 243.104 47.0297L246.738 28.6194L186.41 28.7836Z" fill="#C9E4FF"/>
<path d="M246.736 28.6194L249.121 46.43C249.642 50.2706 252.376 53.0903 255.581 53.0903H297.042C300.061 53.0903 302.688 50.5847 303.402 47.0297L307.036 28.6194H246.736Z" fill="#C9E4FF"/>
<path d="M379.9 239.719C379.9 239.719 381.209 239.384 381.209 196.441C381.209 153.496 379.9 115.996 379.9 115.996C379.9 115.996 378.588 154.959 378.588 197.909C378.588 240.859 379.9 239.719 379.9 239.719Z" fill="#6E671E"/>
<path d="M379.655 209.981C379.655 209.981 379.831 210.07 380.741 209.046C381.654 208.024 383.28 205.898 386.334 201.566C389.386 197.233 393.413 191.591 396.837 187.121C398.537 184.883 400.061 182.926 401.147 181.51L402.894 179.257L400.933 181.407C400.311 182.074 399.588 182.875 398.78 183.783C397.971 184.689 397.069 185.693 396.126 186.773C392.125 191.308 388.369 196.04 384.859 200.968C381.794 205.332 380.543 207.623 379.998 208.761C379.456 209.898 379.655 209.981 379.655 209.981Z" fill="#6E671E"/>
<path d="M415.406 164.603C418.857 167.51 420.695 171.03 413.766 179.131C411.883 181.304 409.862 183.343 407.707 185.246C405.556 187.176 403.298 188.969 400.934 190.629C396.512 193.694 392.55 195.577 390.736 194.221C389.839 193.54 389.567 192.099 389.817 190.169C390.067 188.24 390.83 185.862 391.956 183.312C393.174 180.614 394.584 178.02 396.186 175.53C397.734 173.078 399.443 170.745 401.313 168.527C408.222 160.438 411.945 161.685 415.406 164.603Z" fill="#C5DC99"/>
<path d="M380.441 195.194C380.441 195.194 380.617 195.115 380.398 194.022C380.342 193.748 380.264 193.398 380.148 192.996L379.952 192.311C379.869 192.064 379.762 191.803 379.64 191.515C379.412 190.941 379.14 190.268 378.803 189.511C378.466 188.753 377.982 187.919 377.465 186.959C377.181 186.493 376.88 186.022 376.579 185.518C376.275 185.014 375.954 184.512 375.602 184.021C374.894 183.031 374.176 181.993 373.369 181.016C371.834 179.095 370.198 177.259 368.467 175.51C367.648 174.711 366.885 173.951 366.183 173.293L364.309 171.575L362.566 170.067L364.17 171.78L365.904 173.701L367.996 176.141L369.11 177.516L369.685 178.225L370.243 178.964L371.381 180.456C371.749 180.967 372.108 181.487 372.469 182L373.014 182.765C373.195 183.017 373.353 183.287 373.525 183.541L374.52 185.072C374.832 185.572 375.127 186.085 375.423 186.571C375.72 187.057 376.012 187.521 376.26 187.99C376.755 188.925 377.221 189.719 377.596 190.431C377.971 191.142 378.272 191.758 378.553 192.273C378.834 192.786 379.042 193.23 379.234 193.583C379.428 193.935 379.588 194.205 379.724 194.435C380.273 195.305 380.441 195.194 380.441 195.194Z" fill="#6E671E"/>
<path d="M350.876 159.794C352.33 158.067 353.874 156.695 355.889 156.454C357.089 156.34 358.233 156.543 359.322 157.059C360.049 157.38 360.741 157.766 361.394 158.212C362.224 158.772 363.007 159.386 363.75 160.055C367.092 163.002 370.617 167.598 372.56 171.973C373.013 173.001 373.399 174.054 373.718 175.134C373.975 176.051 374.138 176.988 374.211 177.938C374.305 179.64 373.899 180.936 373 181.603C372.101 182.271 370.764 182.277 369.212 181.887C368.355 181.675 367.523 181.389 366.715 181.032C365.778 180.651 364.864 180.218 363.971 179.741C360.21 177.775 355.973 175.027 352.872 172.287C352.172 171.671 351.507 171.015 350.88 170.324C350.376 169.757 349.919 169.157 349.51 168.519C348.863 167.537 348.5 166.462 348.417 165.291C348.328 163.279 349.423 161.521 350.876 159.794Z" fill="#C5DC99"/>
<path d="M380.367 170.232C380.367 170.232 380.497 170.277 380.889 169.719C381.09 169.44 381.335 169.007 381.701 168.358C381.882 168.048 382.085 167.655 382.326 167.205C382.567 166.756 382.826 166.252 383.118 165.665C384.305 163.334 385.929 160.311 387.348 157.922L388.361 156.269L389.197 154.953L389.974 153.775C389.974 153.775 389.619 154.183 389.037 154.877L388.042 156.124C387.676 156.603 387.267 157.134 386.846 157.708C385.059 160.131 383.468 162.676 382.076 165.344C380.874 167.713 380.514 168.967 380.367 169.59C380.222 170.214 380.367 170.232 380.367 170.232Z" fill="#6E671E"/>
<path d="M396.177 146.518C397.291 147.595 398.174 148.7 398.361 149.987C398.411 150.317 398.411 150.647 398.361 150.977C398.317 151.352 398.223 151.711 398.08 152.059C397.906 152.474 397.699 152.869 397.458 153.248C397.157 153.71 396.829 154.154 396.476 154.578C394.676 156.653 392.641 158.464 390.373 160.017C388.153 161.514 386.002 162.478 384.646 161.701C383.287 160.925 383.064 158.484 383.742 155.629C384.492 152.586 385.85 149.842 387.82 147.399C388.222 146.908 388.661 146.451 389.137 146.029C389.516 145.686 389.924 145.389 390.368 145.135C390.725 144.927 391.104 144.766 391.504 144.655C391.849 144.563 392.202 144.523 392.559 144.539C393.926 144.592 395.06 145.44 396.177 146.518Z" fill="#C5DC99"/>
<path d="M379.66 147.983C379.66 147.983 379.747 147.937 379.629 147.459C379.511 146.982 379.205 146.056 378.293 144.374C377.238 142.502 376.044 140.722 374.71 139.037L373.827 137.942C373.548 137.632 373.302 137.32 373.093 137.088L372.412 136.331L373.023 137.192C373.204 137.456 373.42 137.777 373.666 138.127L374.44 139.316C375.54 141.032 376.776 143.205 377.668 144.862C378.563 146.52 379.02 147.323 379.306 147.684C379.589 148.046 379.66 147.983 379.66 147.983Z" fill="#6E671E"/>
<path d="M367.787 131.269C368.576 130.461 369.38 129.816 370.357 129.741C370.926 129.705 371.457 129.83 371.952 130.115C372.677 130.521 373.306 131.039 373.844 131.675C375.321 133.39 376.36 135.34 376.965 137.522C377.509 139.57 377.38 141.344 376.418 141.933C375.457 142.522 373.87 141.881 372.235 140.859C370.564 139.802 369.056 138.548 367.715 137.098C367.22 136.567 366.819 135.976 366.511 135.32C366.299 134.845 366.218 134.345 366.272 133.828C366.381 132.893 366.999 132.063 367.787 131.269Z" fill="#C5DC99"/>
<path d="M379.9 132.418C379.9 132.418 380.176 132.391 380.176 128.855C380.176 125.322 379.9 119.615 379.9 119.615C379.9 119.615 379.623 125.44 379.623 128.965C379.623 132.492 379.9 132.418 379.9 132.418Z" fill="#6E671E"/>
<path d="M379.9 113.212C381.5 113.212 382.8 113.7 382.8 117.237C382.8 120.77 381.5 126.017 379.9 126.017C378.298 126.017 377 120.773 377 117.241C377 113.709 378.298 113.212 379.9 113.212Z" fill="#C5DC99"/>
<path d="M37.8403 248.571C37.8403 248.571 38.5758 248.383 38.5758 224.264C38.5758 200.144 37.8403 179.083 37.8403 179.083C37.8403 179.083 37.1035 200.966 37.1035 225.089C37.1035 249.211 37.8403 248.571 37.8403 248.571Z" fill="#6E671E"/>
<path d="M37.7035 231.869C37.7035 231.869 37.8025 231.919 38.3137 231.344C38.8262 230.77 39.7396 229.576 41.455 227.142C43.169 224.709 45.4307 221.54 47.354 219.029C48.3088 217.773 49.1646 216.674 49.7748 215.878L50.7559 214.613L49.6545 215.82C49.3049 216.195 48.8989 216.645 48.4454 217.155C47.9905 217.664 47.4843 218.227 46.9543 218.834C44.7077 221.381 42.5977 224.039 40.6267 226.807C38.9051 229.257 38.2022 230.544 37.8965 231.183C37.592 231.822 37.7035 231.869 37.7035 231.869Z" fill="#6E671E"/>
<path d="M57.7827 206.383C59.721 208.016 60.7535 209.993 56.8617 214.542C55.8042 215.763 54.669 216.908 53.4586 217.977C52.2507 219.061 50.9827 220.068 49.6546 221C47.1711 222.722 44.9458 223.779 43.9272 223.018C43.4235 222.635 43.2706 221.826 43.4109 220.742C43.5513 219.658 43.9798 218.323 44.6126 216.891C45.2967 215.376 46.0886 213.918 46.9882 212.52C47.8578 211.143 48.8176 209.832 49.8676 208.587C53.7481 204.044 55.8393 204.744 57.7827 206.383Z" fill="#C5DC99"/>
<path d="M38.1444 223.564C38.1444 223.564 38.2434 223.52 38.1206 222.906C38.0892 222.752 38.0454 222.555 37.9802 222.329L37.87 221.945C37.8236 221.806 37.7635 221.659 37.6946 221.497C37.5668 221.175 37.4139 220.797 37.2247 220.372C37.0355 219.946 36.7636 219.478 36.4729 218.939C36.3138 218.677 36.1446 218.413 35.9755 218.129C35.8051 217.846 35.6246 217.564 35.4267 217.289C35.0295 216.732 34.626 216.15 34.1724 215.601C33.3104 214.522 32.3919 213.491 31.4196 212.508C30.9598 212.06 30.5312 211.633 30.1366 211.263L29.084 210.298L28.1055 209.451L29.0064 210.413L29.9799 211.492L31.1552 212.863L31.7805 213.635L32.1037 214.033L32.417 214.448L33.056 215.286C33.2628 215.573 33.4645 215.865 33.6675 216.153L33.9732 216.583C34.0747 216.725 34.1636 216.876 34.2601 217.019L34.819 217.879C34.9944 218.159 35.1598 218.448 35.3264 218.721C35.4931 218.994 35.6572 219.255 35.7963 219.518C36.0744 220.043 36.3363 220.489 36.5468 220.888C36.7573 221.288 36.9265 221.634 37.0844 221.923C37.2422 222.212 37.3588 222.461 37.4665 222.659C37.5755 222.857 37.6657 223.008 37.7422 223.138C38.0504 223.626 38.1444 223.564 38.1444 223.564Z" fill="#6E671E"/>
<path d="M21.5399 203.681C22.3568 202.711 23.2239 201.941 24.3554 201.806C25.0295 201.742 25.6722 201.856 26.2837 202.145C26.6922 202.326 27.0806 202.542 27.4477 202.793C27.9138 203.107 28.3536 203.452 28.7709 203.828C30.6478 205.483 32.6276 208.064 33.7189 210.521C33.9733 211.099 34.19 211.69 34.3692 212.297C34.5133 212.812 34.6048 213.338 34.6461 213.872C34.6987 214.828 34.4707 215.556 33.9657 215.93C33.4608 216.305 32.7102 216.309 31.8382 216.09C31.357 215.971 30.8897 215.81 30.4361 215.61C29.9098 215.395 29.3961 215.152 28.8949 214.884C26.7824 213.78 24.403 212.237 22.6613 210.698C22.2679 210.352 21.8945 209.984 21.5424 209.595C21.2592 209.277 21.0024 208.94 20.7731 208.582C20.4097 208.03 20.2055 207.426 20.1591 206.769C20.109 205.638 20.7242 204.651 21.5399 203.681Z" fill="#C5DC99"/>
<path d="M38.1026 209.545C38.1026 209.545 38.1753 209.57 38.3958 209.256C38.5086 209.1 38.6464 208.857 38.8519 208.492C38.9534 208.318 39.0674 208.097 39.2027 207.844C39.338 207.592 39.4834 207.309 39.6475 206.98C40.3141 205.67 41.2263 203.973 42.0232 202.631L42.592 201.702L43.0619 200.963L43.498 200.301C43.498 200.301 43.2987 200.531 42.9717 200.92L42.4129 201.621C42.2074 201.89 41.9781 202.188 41.7413 202.51C40.7376 203.871 39.8443 205.301 39.0624 206.799C38.387 208.13 38.1853 208.834 38.1026 209.184C38.0212 209.535 38.1026 209.545 38.1026 209.545Z" fill="#6E671E"/>
<path d="M46.9836 196.226C47.6088 196.831 48.105 197.451 48.2102 198.174C48.2378 198.359 48.2378 198.545 48.2102 198.73C48.1852 198.941 48.1326 199.142 48.0524 199.338C47.9546 199.571 47.8381 199.793 47.7028 200.006C47.5336 200.265 47.3494 200.515 47.1515 200.753C46.1403 201.918 44.9976 202.935 43.7233 203.807C42.4766 204.648 41.2687 205.189 40.5069 204.753C39.7438 204.317 39.6185 202.947 39.9994 201.343C40.4204 199.634 41.1835 198.092 42.2899 196.72C42.5154 196.445 42.7623 196.188 43.0292 195.951C43.2422 195.758 43.4715 195.592 43.7208 195.449C43.9213 195.332 44.1343 195.242 44.3586 195.179C44.5528 195.128 44.7508 195.105 44.9512 195.114C45.7193 195.144 46.3558 195.62 46.9836 196.226Z" fill="#C5DC99"/>
<path d="M37.7077 197.048C37.7077 197.048 37.7565 197.022 37.6901 196.754C37.6237 196.486 37.4521 195.966 36.9396 195.021C36.3469 193.97 35.6766 192.97 34.9273 192.024L34.4311 191.409C34.2745 191.235 34.1367 191.059 34.0189 190.929L33.6367 190.504L33.98 190.988C34.0815 191.136 34.2031 191.316 34.3409 191.513L34.7757 192.181C35.3934 193.144 36.0876 194.365 36.5887 195.296C37.0912 196.227 37.3481 196.678 37.5084 196.881C37.6676 197.084 37.7077 197.048 37.7077 197.048Z" fill="#6E671E"/>
<path d="M31.0375 187.661C31.4811 187.207 31.9322 186.845 32.481 186.803C32.8005 186.783 33.0987 186.853 33.3769 187.013C33.7841 187.241 34.1374 187.532 34.4394 187.889C35.2689 188.853 35.8528 189.948 36.1923 191.173C36.498 192.323 36.4254 193.319 35.8853 193.65C35.3453 193.981 34.4544 193.621 33.536 193.048C32.5975 192.454 31.7505 191.749 30.9974 190.935C30.7193 190.637 30.4937 190.305 30.3208 189.936C30.2018 189.669 30.1567 189.389 30.1868 189.098C30.2482 188.573 30.5952 188.107 31.0375 187.661Z" fill="#C5DC99"/>
<path d="M37.8409 188.306C37.8409 188.306 37.9963 188.291 37.9963 186.305C37.9963 184.32 37.8409 181.115 37.8409 181.115C37.8409 181.115 37.6855 184.387 37.6855 186.366C37.6855 188.347 37.8409 188.306 37.8409 188.306Z" fill="#6E671E"/>
<path d="M37.8418 177.519C38.7402 177.519 39.4706 177.794 39.4706 179.78C39.4706 181.764 38.7402 184.711 37.8418 184.711C36.9421 184.711 36.2129 181.766 36.2129 179.782C36.2129 177.799 36.9421 177.519 37.8418 177.519Z" fill="#C5DC99"/>
<path d="M181.57 132.072C181.57 132.072 178.291 132.689 176.445 131.372C174.592 130.06 172.75 130.077 172.205 131.269C171.654 132.46 172.378 134.921 172.708 136.781C173.034 138.635 170.267 143.23 170.566 145.623C170.866 148.01 170.707 152.129 170.958 155.255C171.208 158.38 168.986 163.261 168.063 164.423C167.139 165.584 169.211 165.929 171.122 166.096C173.038 166.259 182.1 170.008 188.117 170.54C194.138 171.072 205.501 170.69 208.896 171.344C212.285 172.003 215.609 172.457 216.403 171.599C217.197 170.74 214.938 168.886 214.68 167.213C214.429 165.534 215.746 153.044 215.204 149.212C214.662 145.38 212.456 141.699 213.108 139.756C213.76 137.819 215.742 136.063 215.105 134.332C214.472 132.602 212.555 133.886 210.837 133.75C209.113 133.613 192.978 129.958 181.57 132.072Z" fill="#F7CDA3"/>
<path d="M177.204 152.333C176.39 148.742 175.473 144.676 172.436 143.124C172.38 143.093 172.313 143.093 172.257 143.114C172.257 143.237 172.252 143.37 172.236 143.503C175.094 144.968 175.991 148.932 176.784 152.43C177.251 154.499 177.696 156.461 178.505 157.593C180.487 160.374 180.8 162.443 179.806 166.121C178.874 169.578 178.485 171.98 178.47 172.082C178.608 172.108 178.751 172.134 178.895 172.159V172.154C178.9 172.134 179.279 169.726 180.221 166.233C181.245 162.453 180.902 160.21 178.859 157.347C178.096 156.277 177.665 154.361 177.204 152.333Z" fill="#F2C5A7"/>
<path d="M185.334 141.556C186.809 142.908 187.51 144.824 187.305 146.949C187.049 149.653 185.339 152.23 182.727 153.843C182.624 153.905 182.593 154.038 182.655 154.135C182.696 154.202 182.768 154.237 182.839 154.237C182.88 154.237 182.916 154.227 182.952 154.207C185.677 152.527 187.464 149.828 187.736 146.99C187.951 144.726 187.203 142.683 185.626 141.238C183.853 139.615 183.285 138.201 183.121 137.3C182.947 136.342 183.177 135.748 183.188 135.733C183.203 135.692 183.208 135.64 183.193 135.599C183.044 135.635 182.891 135.676 182.737 135.712C182.563 136.311 182.153 138.647 185.334 141.556Z" fill="#F2C5A7"/>
<path d="M183.986 139.738C183.986 139.738 181.446 138.617 179.822 140.722C178.194 142.827 178.45 143.892 180.575 143.313C182.701 142.735 184.832 141.295 183.986 139.738Z" fill="#F2C5A7"/>
<path d="M183.586 153.52C183.586 153.52 182.869 159.907 179.058 159.979C175.243 160.051 181.22 153.684 183.586 153.52Z" fill="#F2C5A7"/>
<path d="M186.783 149.67C186.783 149.67 182.757 146.817 180.575 148.794C179.822 149.434 181.103 150.674 182.701 150.74C184.293 150.802 186.204 150.74 186.204 150.74L186.783 149.67Z" fill="#F2C5A7"/>
<path d="M185.093 164.175C182.419 165.686 181.072 167.817 180.412 169.338C179.735 170.88 179.623 172.099 179.607 172.288C179.746 172.314 179.889 172.339 180.033 172.365C180.033 172.36 180.033 172.35 180.038 172.339C180.038 172.329 180.12 171.074 180.811 169.492C181.446 168.037 182.742 165.999 185.303 164.549C185.405 164.488 185.446 164.36 185.385 164.257C185.328 164.15 185.195 164.114 185.093 164.175Z" fill="#F2C5A7"/>
<path d="M184.596 164.728C184.596 164.728 185.477 163.565 186.05 162.863C186.629 162.162 186.721 160.343 187.746 160.308C188.765 160.277 188.775 165.04 184.596 164.728Z" fill="#F2C5A7"/>
<path d="M124.538 144.753C124.538 144.753 119.847 146.935 119.176 147.985C118.505 149.04 120.133 150.376 120.994 152.866C121.854 155.355 123.007 161.767 123.678 165.501C124.349 169.23 126.264 173.537 127.606 177.081C128.948 180.62 128.467 183.775 132.492 182.823C136.518 181.865 157.789 174.018 161.046 173.347C164.303 172.677 167.848 172.103 168.037 171.335C168.232 170.571 165.932 164.349 165.261 160.046C164.59 155.739 160.375 145.209 159.796 142.914C159.223 140.614 160.088 136.691 158.936 135.928C157.789 135.16 150.024 137.746 145.425 139.083C140.825 140.425 132.682 140.855 124.538 144.753Z" fill="#F7CDA3"/>
<path d="M143.535 150.375C143.535 150.375 142.454 150.57 141.307 150.857C140.154 151.144 140.349 152.675 141.307 153.725C142.264 154.78 143.652 154.299 143.535 155.641C143.417 156.983 145.138 163.682 146.382 165.69C147.632 167.697 147.151 169.039 148.206 170.571C148.206 170.571 147.919 172.865 148.59 174.494C149.261 176.123 149.645 177.172 150.121 178.32C150.603 179.472 152.037 178.607 153.281 177.941C154.531 177.27 157.978 176.215 160.467 175.928C162.961 175.641 171.392 174.11 173.502 173.152C175.607 172.199 178.865 172.005 178.675 170.955C178.48 169.9 176.181 168.563 175.894 167.41C175.607 166.263 175.131 158.801 173.502 155.164C171.873 151.528 171.177 150.237 170.598 147.174C170.024 144.112 169.287 143.584 167.274 143.963C165.261 144.347 162.004 146.452 157.118 146.934C152.231 147.41 146.469 149.3 143.535 150.375Z" fill="#EFDDDA"/>
<path d="M148.207 157.27C148.109 155.165 146.097 153.92 143.536 153.347C142.148 153.034 141.221 152.112 140.657 151.329C140.319 151.938 140.606 152.957 141.308 153.726C142.265 154.781 143.653 154.299 143.536 155.641C143.418 156.983 145.139 163.682 146.383 165.69C147.633 167.698 147.152 169.04 148.207 170.571C148.207 170.571 147.92 172.866 148.591 174.494C149.262 176.123 149.646 177.173 150.122 178.32C150.455 179.119 151.249 178.945 152.125 178.541C152.074 176.354 152.432 176.026 152.611 174.208C152.806 172.297 152.135 169.613 150.312 166.361C148.494 163.104 148.304 159.375 148.207 157.27Z" fill="#EBD5CE"/>
<path d="M162.48 145.699C163.797 148.332 169.2 159.564 172.519 173.51C172.919 173.388 173.252 173.265 173.502 173.152C173.682 173.07 173.876 172.993 174.076 172.921C170.752 158.97 165.349 147.733 164.037 145.115C163.551 145.31 163.034 145.505 162.48 145.699Z" fill="#EBD5CE"/>
<path d="M155.223 147.176C156.785 149.26 162.004 157.178 166.337 174.951C167.095 174.802 167.858 174.649 168.601 174.49C164.493 157.737 159.084 149.578 157.046 146.94C156.452 147.001 155.842 147.078 155.223 147.176Z" fill="#EBD5CE"/>
<path d="M158.035 176.369C158.531 176.256 159.023 176.154 159.499 176.072C155.207 158.392 150.588 150.632 149.174 148.548C148.631 148.701 148.109 148.855 147.602 149.014C148.862 150.755 153.62 158.202 158.035 176.369Z" fill="#EBD5CE"/>
<path d="M157.692 149.228C157.692 149.228 155.966 158.007 152.965 165.28C152.965 165.28 164.463 171.815 167.275 173.475C167.275 173.475 170.978 162.688 171.68 160.076C171.68 160.076 165.867 152.481 157.692 149.228Z" fill="#EBD5CE"/>
<path d="M158.741 151.149C158.741 151.149 157.246 158.351 154.68 164.563C154.68 164.563 164.426 170.289 166.823 171.708C166.823 171.708 169.717 162.494 170.316 160.261C170.316 160.261 165.727 153.931 158.741 151.149Z" fill="#EFDDDA"/>
<path d="M162.081 158.321C162.081 158.321 161.672 160.308 160.965 162.018C160.965 162.018 163.649 163.596 164.309 163.985C164.309 163.985 165.108 161.45 165.272 160.83C165.272 160.83 164.007 159.089 162.081 158.321Z" fill="#EBD5CE"/>
<path d="M157.45 104.147C157.45 104.147 164.498 109.638 167.125 114.053C169.758 118.468 172.145 120.496 174.296 120.496C176.447 120.496 183.976 119.543 186.004 131.953C188.037 144.363 189.231 158.085 192.934 160.589C196.637 163.099 196.396 166.679 202.609 166.915C208.821 167.155 212.557 168.986 213.274 170.896C213.991 172.801 207.614 172.518 204.751 172.4C201.882 172.277 189.589 169.82 186.004 170.896C182.419 171.972 165.814 171.811 158.644 166.915C151.478 162.023 157.45 104.147 157.45 104.147Z" fill="#FBC331"/>
<path d="M160.334 111.328C160.334 111.328 163.397 113.479 165.113 116.419C166.823 119.364 169.732 126.248 170.567 134.678C171.402 143.114 163.914 139.375 162.644 135.277C161.369 131.18 160.334 111.328 160.334 111.328Z" fill="#FD9783"/>
<path d="M168.145 166.935C168.145 166.935 177.523 164.727 179.208 153.572C180.893 142.412 182.266 122.309 177.733 121.679C173.2 121.049 169.83 123.046 168.145 129.991C166.46 136.942 165.932 150.622 163.402 147.677L154.552 151.677C154.552 151.677 150.229 170.622 168.145 166.935Z" fill="#005BBA"/>
<path d="M190.379 156.098C190.379 156.098 192.382 162.203 193.222 164.621C194.067 167.043 197.227 172.938 199.865 174.726C202.497 176.513 201.867 178.198 199.865 178.198C197.862 178.198 194.912 177.358 193.647 175.883C192.382 174.408 190.697 172.201 188.587 171.883C186.482 171.571 184.479 169.568 185.006 168.093C185.534 166.623 186.584 165.988 186.056 164.411C185.534 162.833 184.269 159.78 183.424 157.255L190.379 156.098Z" fill="#FD9783"/>
<path d="M186.081 161.814C186.081 161.814 185.149 161.67 185.005 162.172C184.857 162.674 185.292 162.961 185.292 162.961C185.292 162.961 184.642 163.535 185.292 163.821C185.938 164.108 185.743 164.743 185.743 164.743C185.743 164.743 185.149 165.404 185.292 165.906C185.436 166.408 184.427 167.483 184.355 168.344C184.283 169.204 184.934 170.859 186.798 171.504C188.667 172.149 190.322 173.153 191.039 173.87C191.756 174.587 193.482 177.389 197.579 178.321C201.677 179.253 202.25 177.532 202.179 176.744C202.107 175.955 198.798 172.866 197.938 171.791C197.077 170.715 194.312 166.239 193.968 165.281C193.625 164.323 193.984 163.606 193.267 163.104C193.267 163.104 193.84 162.459 193.123 161.885C193.123 161.885 193.323 159.622 191.643 159.929C189.963 160.236 190.393 160.81 189.313 161.527C188.237 162.244 186.87 161.67 186.081 161.814Z" fill="#005BBA"/>
<path d="M177.734 121.679C177.734 121.679 181.529 121.572 185.006 131.36C185.764 133.495 186.502 135.857 187.199 138.269C189.713 146.914 190.4 154.305 191.014 158.07C191.014 158.07 188.248 159.662 184.346 159.975C184.346 159.975 174.87 142.264 174.993 132.205C175.101 123.575 177.734 121.679 177.734 121.679Z" fill="#005BBA"/>
<path d="M183.115 131.559C183.336 131.452 183.551 131.703 183.438 131.908C183.284 132.2 183.725 132.456 183.878 132.164C184.032 131.872 184.001 131.503 183.766 131.257C183.53 131.011 183.156 130.981 182.859 131.124C182.736 131.185 182.706 131.36 182.767 131.472C182.844 131.595 182.992 131.621 183.115 131.559Z" fill="#EFE8E6"/>
<path d="M181.215 126.703C180.938 126.964 180.831 127.42 181.077 127.738C181.307 128.025 181.732 128.071 182.014 127.83C182.26 127.615 181.901 127.261 181.656 127.471C181.599 127.518 181.497 127.456 181.466 127.41C181.394 127.287 181.487 127.144 181.574 127.062C181.809 126.836 181.451 126.478 181.215 126.703Z" fill="#EFE8E6"/>
<path d="M178.435 123.907C178.046 124.005 177.872 124.491 178.072 124.829C178.287 125.198 178.799 125.244 179.137 125.024C179.408 124.845 179.157 124.404 178.881 124.583C178.789 124.645 178.615 124.701 178.522 124.599C178.461 124.527 178.507 124.414 178.568 124.399C178.886 124.317 178.753 123.831 178.435 123.907Z" fill="#EFE8E6"/>
<path d="M175.996 123.666C175.996 123.666 176.037 123.687 176.047 123.697C176.094 123.764 176.037 123.881 176.001 123.943C175.909 124.112 175.755 124.255 175.592 124.358C175.315 124.532 175.571 124.967 175.848 124.793C176.227 124.558 176.667 124.097 176.554 123.61C176.457 123.211 175.94 123.006 175.638 123.308C175.407 123.538 175.766 123.897 175.996 123.666Z" fill="#EFE8E6"/>
<path d="M177.369 127.574C177.317 127.287 176.964 127.159 176.713 127.293C176.452 127.436 176.37 127.774 176.401 128.051C176.431 128.332 176.595 128.599 176.872 128.686C177.143 128.773 177.405 128.68 177.568 128.455C177.65 128.348 177.584 128.173 177.476 128.112C177.348 128.035 177.21 128.091 177.133 128.199C177.133 128.199 177.061 128.22 177.026 128.204C176.969 128.184 176.938 128.132 176.918 128.076C176.892 127.999 176.892 127.912 176.913 127.835C176.918 127.82 176.954 127.748 176.949 127.743C176.933 127.697 176.897 127.784 176.882 127.707C176.938 128.03 177.43 127.892 177.369 127.574Z" fill="#EFE8E6"/>
<path d="M182.665 128.859C182.388 129.069 182.234 129.417 182.357 129.76C182.475 130.083 182.818 130.298 183.161 130.262C183.484 130.226 183.489 129.719 183.161 129.755C182.916 129.781 182.665 129.489 182.921 129.294C183.028 129.212 183.085 129.079 183.008 128.951C182.946 128.843 182.772 128.777 182.665 128.859Z" fill="#EFE8E6"/>
<path d="M184.407 213.921C184.407 213.921 184.089 221.896 184.166 223.556C184.248 225.21 186.379 227.658 188.514 229.789C190.712 231.986 194.522 231.289 194.123 232.708C193.728 234.132 191.121 234.921 189.303 234.762C187.485 234.603 185.037 232.232 183.06 231.289C179.582 229.63 177.528 230.577 177.293 227.105C177.37 225.922 178.24 225.051 178.163 223.95C178.081 222.844 177.057 215.422 176.816 213.292L184.407 213.921Z" fill="#FD9783"/>
<path d="M177.811 221.01C177.811 221.01 177.17 221.318 177.457 221.748C177.749 222.178 177.749 222.322 177.606 222.608C177.457 222.895 177.672 223.254 177.821 223.325C177.964 223.397 177.314 223.756 177.385 224.401C177.457 225.046 177.821 225.046 177.385 225.763C176.955 226.485 176.166 228.78 178.251 229.999C180.336 231.218 181.698 231.438 182.922 232.227C184.141 233.016 186.538 234.506 189.606 235.525C194.129 237.036 195.998 233.733 195.137 232.657C194.502 231.863 191.255 230.501 190.18 229.784C189.099 229.067 185.329 225.871 185.114 225.297C184.894 224.724 185.76 224.58 185.114 223.791C185.114 223.791 185.903 223.29 185.114 222.501C185.114 222.501 185.647 220.042 184.192 220.375C182.743 220.703 181.734 221.64 180.3 221.712C178.861 221.784 178.773 220.877 177.811 221.01Z" fill="#005BBA"/>
<path d="M144.538 151.989C144.538 151.989 136.005 169.249 151.494 174.622C166.987 179.985 173.625 179.145 175.627 180.62C177.625 182.095 187.955 183.037 188.483 177.567C189.005 172.092 184.053 169.147 181.318 168.302C178.578 167.462 167.494 162.509 165.087 160.619C160.662 157.147 159.924 151.257 159.714 150.094L144.538 151.989Z" fill="#005BBA"/>
<path d="M188.269 175.252C188.269 175.252 189.114 178.515 188.904 187.463C188.74 194.3 184.32 217.338 184.32 217.338C184.32 217.338 180.473 218.178 177.313 217.23C177.313 217.23 173.38 199.253 174.783 184.62C174.783 183.775 173.626 183.304 174.517 181.854C174.517 181.854 172.991 180.512 174.256 179.145L188.269 175.252Z" fill="#005BBA"/>
<path d="M154.261 159.103C153.652 159.047 153.616 160.056 153.867 160.404C154.041 160.65 154.364 160.691 154.625 160.558C154.912 160.409 155.03 160.107 155.112 159.815C155.204 159.503 154.712 159.364 154.62 159.682C154.594 159.769 154.435 160.286 154.266 160.092C154.215 160.035 154.231 159.876 154.231 159.805C154.236 159.759 154.236 159.718 154.246 159.672C154.266 159.615 154.282 159.61 154.261 159.61C154.589 159.636 154.584 159.134 154.261 159.103Z" fill="#EFE8E6"/>
<path d="M161.86 164.876C161.844 164.819 162.07 164.85 162.1 164.86C162.203 164.906 162.29 164.988 162.336 165.086C162.444 165.29 162.362 165.541 162.177 165.669C161.911 165.859 162.167 166.294 162.433 166.11C162.956 165.741 163.058 164.998 162.556 164.558C162.336 164.363 162.024 164.266 161.737 164.374C161.465 164.476 161.296 164.722 161.368 165.009C161.45 165.326 161.942 165.193 161.86 164.876Z" fill="#EFE8E6"/>
<path d="M165.717 166.96C165.517 167.314 165.63 167.79 165.989 167.995C166.347 168.2 166.829 168.036 167.013 167.683C167.167 167.391 166.726 167.135 166.573 167.427C166.419 167.724 165.989 167.514 166.158 167.217C166.316 166.93 165.876 166.674 165.717 166.96Z" fill="#EFE8E6"/>
<path d="M170.568 165.173C170.373 165.532 170.45 165.972 170.747 166.259C171.07 166.566 171.562 166.597 171.971 166.459C172.279 166.356 172.146 165.865 171.833 165.967C171.618 166.044 171.352 166.075 171.152 165.936C170.993 165.824 170.911 165.604 171.009 165.429C171.167 165.143 170.727 164.887 170.568 165.173Z" fill="#EFE8E6"/>
<path d="M158.476 158.217C158.143 158.494 158.22 159.047 158.553 159.288C158.947 159.564 159.465 159.354 159.711 158.991C159.895 158.724 159.46 158.468 159.275 158.735C159.193 158.858 158.978 158.975 158.845 158.873C158.743 158.796 158.748 158.653 158.835 158.576C158.942 158.489 158.927 158.31 158.835 158.217C158.732 158.115 158.584 158.13 158.476 158.217Z" fill="#EFE8E6"/>
<path d="M145.564 155.268C145.579 155.232 145.656 155.237 145.681 155.248C145.748 155.284 145.763 155.386 145.763 155.453C145.758 155.657 145.569 155.816 145.425 155.939C145.174 156.149 145.533 156.502 145.784 156.298C146.158 155.985 146.455 155.458 146.137 155.002C145.861 154.597 145.236 154.679 145.072 155.135C144.964 155.442 145.456 155.575 145.564 155.268Z" fill="#EFE8E6"/>
<path d="M145.291 158.719C145.327 158.581 145.486 158.745 145.511 158.806C145.588 159.001 145.501 159.226 145.45 159.411C145.353 159.728 145.844 159.861 145.936 159.549C146.064 159.124 146.141 158.586 145.726 158.284C145.399 158.048 144.907 158.187 144.799 158.586C144.712 158.904 145.204 159.037 145.291 158.719Z" fill="#EFE8E6"/>
<path d="M151.15 154.125C150.843 154.402 150.94 154.873 151.222 155.129C151.627 155.498 152.211 155.262 152.615 155.011C152.892 154.842 152.636 154.407 152.359 154.576C152.165 154.694 151.847 154.904 151.611 154.786C151.509 154.735 151.407 154.576 151.509 154.484C151.75 154.269 151.391 153.91 151.15 154.125Z" fill="#EFE8E6"/>
<path d="M156.212 153.997C156.37 153.936 156.606 153.915 156.714 154.074C156.77 154.156 156.77 154.34 156.662 154.381C156.355 154.489 156.488 154.981 156.795 154.868C157.19 154.725 157.364 154.274 157.19 153.895C157.005 153.48 156.478 153.357 156.078 153.506C155.776 153.618 155.904 154.11 156.212 153.997Z" fill="#EFE8E6"/>
<path d="M149.876 160.655C149.425 160.583 149.025 160.962 149.077 161.423C149.128 161.9 149.62 162.161 150.055 162.156C150.383 162.156 150.383 161.649 150.055 161.654C149.891 161.654 149.681 161.603 149.604 161.439C149.563 161.357 149.604 161.121 149.743 161.142C150.06 161.193 150.198 160.701 149.876 160.655Z" fill="#EFE8E6"/>
<path d="M146.219 165.163C146.229 165.24 146.183 165.194 146.224 165.214C146.224 165.214 146.326 165.204 146.347 165.209C146.439 165.229 146.526 165.311 146.577 165.388C146.705 165.583 146.649 165.844 146.464 165.982C146.208 166.177 146.459 166.617 146.72 166.418C147.217 166.049 147.315 165.337 146.823 164.912C146.623 164.738 146.352 164.646 146.085 164.722C145.824 164.804 145.676 165.03 145.727 165.296C145.788 165.619 146.275 165.48 146.219 165.163Z" fill="#EFE8E6"/>
<path d="M149.149 168.317C149.343 169.224 150.506 169.388 150.993 168.63C151.167 168.353 150.731 168.097 150.552 168.373C150.286 168.788 149.738 168.64 149.64 168.184C149.574 167.866 149.082 168 149.149 168.317Z" fill="#EFE8E6"/>
<path d="M154.566 164.165C154.423 164.554 154.694 164.948 155.063 165.081C155.519 165.24 155.959 164.958 156.308 164.692C156.564 164.497 156.313 164.057 156.052 164.252C155.878 164.39 155.683 164.549 155.463 164.6C155.273 164.646 154.961 164.549 155.053 164.303C155.166 163.996 154.674 163.862 154.566 164.165Z" fill="#EFE8E6"/>
<path d="M157.66 169.496C157.788 169.255 158.157 169.142 158.382 169.332C158.597 169.521 158.551 169.916 158.321 170.069C158.054 170.249 158.305 170.689 158.577 170.51C159.074 170.172 159.197 169.404 158.741 168.973C158.29 168.553 157.506 168.712 157.22 169.24C157.061 169.527 157.501 169.783 157.66 169.496Z" fill="#EFE8E6"/>
<path d="M154.167 170.878C153.732 170.735 153.26 171.119 153.276 171.57C153.291 172.026 153.747 172.343 154.177 172.313C154.5 172.287 154.505 171.78 154.177 171.805C154.034 171.816 153.834 171.764 153.788 171.595C153.757 171.457 153.895 171.324 154.029 171.37C154.341 171.473 154.474 170.981 154.167 170.878Z" fill="#EFE8E6"/>
<path d="M160.084 174.93C160.079 175.294 160.381 175.555 160.729 175.591C161.144 175.632 161.467 175.325 161.728 175.043C161.943 174.797 161.585 174.439 161.37 174.685C161.242 174.823 161.093 175.007 160.909 175.069C160.791 175.105 160.586 175.084 160.591 174.93C160.591 174.603 160.084 174.603 160.084 174.93Z" fill="#EFE8E6"/>
<path d="M163.089 171.273C163.074 171.242 163.11 171.186 163.135 171.166C163.202 171.114 163.294 171.16 163.35 171.207C163.53 171.365 163.473 171.632 163.412 171.831C163.315 172.144 163.806 172.277 163.904 171.965C164.062 171.463 163.95 170.787 163.345 170.653C162.838 170.546 162.423 171.068 162.649 171.529C162.792 171.821 163.233 171.565 163.089 171.273Z" fill="#EFE8E6"/>
<path d="M165.887 163.042C165.59 163.288 165.534 163.764 165.769 164.071C166.005 164.384 166.471 164.455 166.794 164.24C167.065 164.056 166.814 163.621 166.543 163.8C166.246 164 165.974 163.626 166.246 163.4C166.496 163.19 166.138 162.832 165.887 163.042Z" fill="#EFE8E6"/>
<path d="M161.554 160.743C161.104 160.707 160.791 161.23 160.94 161.629C161.114 162.095 161.693 162.182 162.092 161.982C162.384 161.839 162.128 161.404 161.836 161.547C161.718 161.603 161.483 161.609 161.421 161.47C161.375 161.368 161.447 161.24 161.554 161.25C161.877 161.271 161.877 160.763 161.554 160.743Z" fill="#EFE8E6"/>
<path d="M175.275 167.756C175.454 167.356 176.048 168.278 175.756 168.304C175.434 168.334 175.434 168.841 175.756 168.811C176.023 168.785 176.238 168.631 176.32 168.37C176.407 168.083 176.284 167.802 176.105 167.581C175.941 167.372 175.705 167.182 175.428 167.167C175.188 167.156 174.937 167.274 174.839 167.5C174.706 167.797 175.142 168.053 175.275 167.756Z" fill="#EFE8E6"/>
<path d="M171.131 168.538C170.977 168.389 170.757 168.374 170.573 168.486C170.358 168.625 170.312 168.896 170.394 169.127C170.568 169.603 171.095 169.931 171.561 170.043C171.879 170.12 172.017 169.634 171.7 169.557C171.505 169.511 171.331 169.434 171.172 169.311C171.1 169.255 171.034 169.188 170.977 169.121C170.947 169.08 170.921 169.039 170.895 168.998C170.88 168.978 170.87 168.963 170.86 168.942C170.844 168.906 170.819 168.891 170.773 168.896C171.008 169.127 171.367 168.768 171.131 168.538Z" fill="#EFE8E6"/>
<path d="M167.838 171.949C167.792 171.811 168.109 171.923 168.155 171.944C168.273 171.995 168.391 172.067 168.488 172.154C168.652 172.313 168.734 172.553 168.535 172.712C168.273 172.917 168.637 173.27 168.893 173.071C169.431 172.645 169.083 171.918 168.611 171.616C168.35 171.447 167.992 171.293 167.679 171.416C167.418 171.519 167.259 171.805 167.346 172.082C167.449 172.389 167.94 172.256 167.838 171.949Z" fill="#EFE8E6"/>
<path d="M166.491 174.469C166.035 174.459 165.62 174.823 165.615 175.289C165.615 175.755 166.04 176.124 166.491 176.113C166.814 176.108 166.814 175.601 166.491 175.606C166.03 175.616 166.03 174.966 166.491 174.976C166.819 174.981 166.819 174.474 166.491 174.469Z" fill="#EFE8E6"/>
<path d="M170.89 176.543C170.65 176.6 170.389 176.707 170.286 176.953C170.179 177.22 170.327 177.47 170.522 177.645C170.942 178.019 171.526 178.075 172.033 177.86C172.33 177.732 172.074 177.296 171.777 177.419C171.561 177.511 171.31 177.506 171.095 177.414C171.013 177.378 170.87 177.317 170.824 177.235C170.742 177.086 170.906 177.061 171.024 177.03C171.341 176.948 171.208 176.461 170.89 176.543Z" fill="#EFE8E6"/>
<path d="M172.754 173.292C172.861 173.087 173.092 173.128 173.271 173.215C173.363 173.261 173.445 173.322 173.522 173.379C173.578 173.42 173.747 173.599 173.804 173.589C173.481 173.63 173.476 174.137 173.804 174.096C174.06 174.065 174.26 173.891 174.265 173.614C174.27 173.322 174.029 173.133 173.819 172.974C173.374 172.641 172.636 172.416 172.313 173.041C172.165 173.327 172.605 173.584 172.754 173.292Z" fill="#EFE8E6"/>
<path d="M175.796 170.31C175.484 170.577 175.561 171.084 175.858 171.324C176.232 171.637 176.749 171.463 177.082 171.181C177.328 170.971 176.969 170.612 176.723 170.822C176.595 170.93 176.36 171.058 176.201 170.95C176.099 170.889 176.063 170.751 176.155 170.669C176.406 170.459 176.047 170.105 175.796 170.31Z" fill="#EFE8E6"/>
<path d="M180.361 172.947C180.11 172.773 179.767 172.891 179.603 173.131C179.403 173.413 179.511 173.772 179.665 174.048C179.818 174.335 180.254 174.079 180.1 173.792C180.049 173.7 179.957 173.531 180.013 173.423C180.023 173.403 180.049 173.393 180.064 173.377C180.074 173.367 180.131 173.362 180.09 173.367C180.064 173.367 180.069 173.357 180.105 173.388C180.377 173.572 180.627 173.131 180.361 172.947Z" fill="#EFE8E6"/>
<path d="M177.036 175.38C176.652 175.232 176.191 175.477 176.089 175.877C175.976 176.317 176.345 176.722 176.775 176.758C177.098 176.784 177.098 176.276 176.775 176.251C176.652 176.241 176.54 176.087 176.591 175.969C176.642 175.846 176.791 175.826 176.903 175.867C177.205 175.985 177.339 175.493 177.036 175.38Z" fill="#EFE8E6"/>
<path d="M175.147 178.372C175.009 178.94 175.49 179.565 176.094 179.509C176.233 179.499 176.351 179.401 176.351 179.253C176.351 179.13 176.233 178.992 176.094 179.002C175.833 179.028 175.567 178.782 175.633 178.505C175.71 178.188 175.224 178.054 175.147 178.372Z" fill="#EFE8E6"/>
<path d="M181.027 178.136C180.945 177.874 181.299 177.885 181.447 177.962C181.642 178.064 181.77 178.264 181.893 178.443C182.072 178.709 182.513 178.458 182.328 178.187C182.057 177.787 181.708 177.362 181.176 177.398C180.74 177.424 180.407 177.844 180.536 178.269C180.628 178.581 181.119 178.448 181.027 178.136Z" fill="#EFE8E6"/>
<path d="M177.088 183.258C177.088 183.237 177.088 183.222 177.088 183.206C177.067 183.263 177.042 183.324 177.016 183.386C177.042 183.355 177.226 183.504 177.241 183.524C177.308 183.585 177.354 183.662 177.38 183.749C177.441 183.975 177.334 184.174 177.165 184.313C176.914 184.523 177.272 184.881 177.523 184.671C177.948 184.313 178.03 183.678 177.672 183.242C177.426 182.94 176.617 182.617 176.581 183.258C176.56 183.58 177.067 183.58 177.088 183.258Z" fill="#EFE8E6"/>
<path d="M176.217 186.393C175.982 186.301 175.71 186.403 175.572 186.618C175.428 186.849 175.454 187.156 175.546 187.402C175.741 187.929 176.222 188.262 176.775 188.319C177.103 188.349 177.098 187.842 176.775 187.812C176.54 187.786 176.32 187.663 176.171 187.484C176.099 187.397 176.043 187.299 176.012 187.192C175.987 187.115 175.93 186.823 176.084 186.885C176.386 187.007 176.519 186.516 176.217 186.393Z" fill="#EFE8E6"/>
<path d="M181.384 183.032C181.348 183.002 181.368 183.017 181.373 183.038C181.368 183.022 181.368 183.007 181.384 182.992C181.368 183.007 181.373 182.992 181.409 182.986C181.425 182.986 181.445 182.997 181.455 183.002C181.629 183.058 181.614 183.309 181.604 183.447C181.594 183.586 181.727 183.703 181.855 183.703C182.003 183.703 182.101 183.586 182.111 183.447C182.147 183.007 181.916 182.469 181.399 182.484C181.179 182.49 180.989 182.618 180.907 182.822C180.83 183.017 180.861 183.253 181.025 183.391C181.133 183.478 181.281 183.493 181.384 183.391C181.476 183.299 181.491 183.12 181.384 183.032Z" fill="#EFE8E6"/>
<path d="M176.908 193.224C177.113 193.209 177.348 193.347 177.348 193.578C177.348 193.813 177.113 193.947 176.908 193.936C176.58 193.911 176.58 194.418 176.908 194.443C177.395 194.474 177.855 194.075 177.855 193.578C177.861 193.081 177.389 192.681 176.908 192.717C176.58 192.738 176.58 193.245 176.908 193.224Z" fill="#EFE8E6"/>
<path d="M176.197 191.115C176.745 191.566 177.513 191.243 177.579 190.541C177.61 190.219 177.103 190.219 177.072 190.541C177.047 190.792 176.75 190.915 176.555 190.756C176.304 190.552 175.946 190.905 176.197 191.115Z" fill="#EFE8E6"/>
<path d="M171.684 121.867C171.684 121.867 173.671 122.584 174.311 125.053C174.946 127.517 176.38 131.02 179.965 131.256C183.551 131.496 185.779 134.277 186.813 137.064C186.813 137.064 187.566 124.193 180.124 120.915C174.711 118.528 171.684 121.867 171.684 121.867Z" fill="#FBC331"/>
<path d="M157.425 104.947C157.425 104.947 157.856 111.272 161.789 112.804C162.568 113.106 163.09 113.848 163.095 114.683L163.126 124.64L152.846 125.859L146.152 113.049C146.152 113.049 151.392 111.441 150.429 100.67L157.425 104.947Z" fill="#FD9783"/>
<path d="M153.611 85.1634C153.611 85.1634 162.655 81.6157 163.638 92.1818C164.622 102.743 162.797 106.367 158.075 104.851C153.352 103.335 148.597 100.203 148.051 95.842C146.884 91.4987 144.53 84.9125 153.611 85.1634Z" fill="#FD9783"/>
<path d="M159.628 91.6864C159.628 91.6864 156.355 94.2987 154.113 96.1988C151.867 98.1033 150.808 95.081 150.735 96.3686C150.658 97.6562 149.491 99.1628 149.997 100.705C149.997 100.705 146.33 99.2254 144.724 95.2465C142.694 90.2259 145.488 83.6942 153.416 83.7791C155.192 83.8059 166.162 81.6421 163.812 94.5848C163.812 94.5848 163.719 93.865 163.533 92.9977C163.058 90.8518 164.153 92.3079 159.628 91.6864Z" fill="#212851"/>
<path d="M150.785 100.411C150.785 100.411 151.476 102.055 150.995 103.382C150.995 103.382 147.809 103.556 144.859 102.603C143.727 102.234 143 101.138 143.092 99.9551C143.389 96.078 144.308 88.2098 147.596 85.6643L150.785 100.411Z" fill="#212851"/>
<path d="M151.381 96.2546C151.094 95.7424 150.577 95.3941 149.993 95.3532C149.47 95.3122 148.922 95.4966 148.835 96.3878C148.661 98.1701 150.577 102.006 152.262 100.316C153.05 99.5274 151.98 97.325 151.381 96.2546Z" fill="#FD9783"/>
<path d="M158.645 109.571C158.645 109.571 158.89 110.754 159.172 112.537C159.577 115.108 156.36 116.614 154.65 114.652C152.995 112.747 151.131 110.908 149.333 109.761C149.333 109.761 145.364 112.439 143.827 113.034C142.286 113.623 143.515 122.729 144.319 128.624C144.918 133.044 145.876 139.134 145.548 144.783C145.405 147.247 144.893 150.279 144.539 151.99C144.539 151.99 154.516 156.476 163.418 147.718C163.418 147.718 162.455 140.225 163.336 136.609C164.217 132.993 166.097 128.947 165.697 124.358C165.441 121.413 164.437 117.607 163.751 115.267C163.367 113.945 162.537 112.798 161.41 112.009C160.345 111.272 159.09 110.299 158.645 109.571Z" fill="#C9E4FF"/>
<path d="M165.103 119.22C164.627 119.107 164.181 118.846 163.889 118.452C163.725 118.232 163.587 117.965 163.71 117.694C163.761 117.571 164.058 117.315 164.191 117.33C164.442 117.576 164.893 117.602 165.031 117.182C165.036 117.166 165.041 117.151 165.047 117.135C165.123 116.895 165.072 116.669 164.883 116.505C164.488 116.167 163.812 116.285 163.397 116.526C162.906 116.808 162.609 117.34 162.604 117.909C162.598 119.159 163.863 120.009 164.949 120.275C165.615 120.439 165.759 119.384 165.103 119.22Z" fill="#FEBB7F"/>
<path d="M173.015 121.223C173.015 121.239 173.015 121.254 173.01 121.264C173 121.295 172.99 121.321 172.98 121.346C172.698 121.761 171.12 122.068 169.22 122.068C167.315 122.068 165.737 121.761 165.461 121.351C165.446 121.321 165.435 121.295 165.425 121.269C165.42 121.254 165.42 121.239 165.42 121.223C165.42 120.757 167.12 120.378 169.22 120.378C171.315 120.378 173.015 120.757 173.015 121.223Z" fill="#FFF4F0"/>
<path d="M173.963 115.665C173.963 116.587 173.897 117.484 173.769 118.329C173.692 118.82 173.6 119.292 173.487 119.747C173.446 119.911 173.4 120.075 173.354 120.234C173.251 120.593 173.139 120.936 173.016 121.264C173 121.294 172.99 121.32 172.98 121.345C172.908 121.448 172.77 121.54 172.57 121.622C171.93 121.888 170.67 122.068 169.221 122.068C167.945 122.068 166.813 121.929 166.127 121.714C165.784 121.612 165.553 121.484 165.461 121.351C165.446 121.32 165.436 121.294 165.425 121.269C165.338 121.038 165.261 120.808 165.185 120.567C165.103 120.306 165.021 120.029 164.949 119.747C164.836 119.292 164.744 118.82 164.667 118.329C164.539 117.484 164.473 116.587 164.473 115.665C164.473 115.45 164.478 115.235 164.483 115.02C164.488 114.964 164.488 114.907 164.493 114.856C164.698 114.318 166.716 113.898 169.174 113.898C171.638 113.898 173.728 114.318 173.948 114.856C173.948 114.907 173.953 114.964 173.953 115.02C173.963 115.235 173.963 115.45 173.963 115.665Z" fill="#FEC893"/>
<path d="M173.621 115.005C173.621 115.02 173.621 115.041 173.61 115.056C173.559 115.189 173.298 115.312 172.899 115.415C172.094 115.625 170.712 115.758 169.18 115.758C167.644 115.758 166.297 115.625 165.518 115.415C165.124 115.312 164.878 115.189 164.827 115.056C164.822 115.041 164.816 115.02 164.816 115.005C164.816 114.984 164.822 114.964 164.832 114.938C165.026 114.554 166.901 114.252 169.18 114.252C171.459 114.252 173.4 114.554 173.605 114.938C173.616 114.964 173.621 114.984 173.621 115.005Z" fill="#FEBB7F"/>
<path d="M172.893 115.415C172.094 115.625 170.711 115.758 169.18 115.758C167.643 115.758 166.296 115.625 165.518 115.415C166.296 115.21 167.643 115.072 169.18 115.072C170.711 115.072 172.094 115.21 172.893 115.415Z" fill="#7F4E38"/>
<path d="M144.666 112.782C144.666 112.782 148.835 113.269 149.117 127.815C149.179 131.533 149.404 137.976 150.797 139.753C152.195 141.536 149.02 147.948 144.477 143.036C139.98 138.176 139.166 127.83 139.345 123.062C139.519 118.298 141.547 112.782 144.666 112.782Z" fill="#FFAF9F"/>
<path d="M161.866 123.774C161.574 124.204 161.251 124.583 160.903 124.891C157.722 127.656 151.381 132.148 149.169 134.12C146.193 136.778 144.728 138.617 144.728 138.617C143.243 143.524 148.477 144.753 148.477 144.753C156.626 143.063 162.89 130.033 165.164 126.535L161.866 123.774Z" fill="#FD9783"/>
<path d="M161.865 123.774C161.865 123.774 163.279 121.751 163.678 121.192C164.073 120.634 164.313 117.853 164.672 117.054C165.03 116.26 165.548 117.412 165.471 118.647C165.389 119.881 165.348 121.115 165.507 121.274C165.671 121.433 170.05 121.115 171.008 120.316C171.96 119.523 172.795 118.447 173.154 117.494C173.512 116.537 174.07 116.26 174.111 116.537C174.152 116.818 174.111 117.571 174.111 117.571C174.111 117.571 174.67 117.013 174.746 117.653C174.828 118.288 174.746 118.964 174.588 119.441C174.588 119.441 175.187 119.523 174.946 120.24C174.711 120.952 174.152 123.379 172.36 124.573C170.567 125.766 167.013 125.269 165.164 126.534C165.164 126.534 162.208 125.602 161.865 123.774Z" fill="#FD9783"/>
<path d="M150.536 103.875C150.536 103.875 147.709 104.603 146.034 106.277C144.359 107.947 140.38 111.051 138.387 115.343C136.395 119.64 134.008 128.552 134.725 135.077C135.442 141.597 137.353 144.941 137.353 144.941C137.353 144.941 135.837 146.611 137.43 149.474C139.028 152.337 137.752 156.716 135.76 159.979C133.768 163.236 123.714 170.033 122.141 174.617C118.848 184.19 121.102 190.351 125.486 191.56C128.246 192.323 133.501 183.032 139.678 180.819C147.627 177.721 150.603 179.964 153.148 182.428C155.699 184.896 157.717 197.081 154.465 210.351C152.068 220.134 152.723 227.361 155.033 229.112C155.673 229.512 157.666 230.147 161.963 223.146C166.265 216.144 168.816 213.04 173.118 204.928C177.415 196.81 186.814 176.287 181.159 169.362C175.505 162.443 159.018 166.263 156.467 145.817C153.922 125.371 155.909 118.764 153.922 112.797C151.929 106.83 150.547 108.423 150.536 103.875Z" fill="#FBC331"/>
<path d="M170.865 181.624C169.103 190.019 166.578 198.27 163.259 206.183C160.893 211.607 158.526 217.794 152.964 220.662C152.964 220.78 152.959 220.892 152.959 221.01C157.922 218.962 160.754 213.968 162.706 209.24C166.624 199.904 169.548 190.136 171.239 180.154L171.167 180.139L170.865 181.624Z" fill="#C97E5D"/>
<path d="M158.536 179.985C158.434 176.508 157.061 173.061 154.736 170.485L154.68 170.531C157.471 173.916 158.613 178.531 157.783 182.828C157.394 184.995 156.734 187.1 156.293 189.256C156.247 189.456 155.919 191.059 155.878 191.258C155.94 191.806 155.991 192.375 156.032 192.959C157.153 188.718 158.516 184.406 158.536 179.985Z" fill="#C97E5D"/>
<path d="M148.339 177.127C142.92 175.749 138.3 179.565 135.191 183.585C136.277 182.766 137.245 181.834 138.259 180.937C140.989 178.438 144.656 177.234 148.329 177.199L148.339 177.127Z" fill="#C97E5D"/>
<path d="M146.705 157.408C147.611 158.335 148.697 159.103 149.886 159.616L149.921 159.554C147.688 157.977 145.926 155.79 144.928 153.249C144.303 151.749 143.898 150.135 143.058 148.722C141.778 146.637 139.473 145.331 137.184 144.619C137.235 144.716 137.271 144.788 137.301 144.844C145.384 148.056 142.065 152.619 146.705 157.408Z" fill="#C97E5D"/>
<path d="M141.226 156.563C142.978 158.755 143.531 161.582 144.806 164.046L144.873 164.025C143.736 157.587 142.317 156.932 138.153 152.445C138.153 152.604 138.148 152.768 138.143 152.932C139.105 154.197 140.258 155.308 141.226 156.563Z" fill="#C97E5D"/>
<path d="M151.766 120.245C154.977 128.128 151.043 133.716 156.135 142.976C156.058 141.572 155.376 140.318 155.074 138.96C154.557 137.019 154.183 135.027 153.948 133.04C153.548 127.16 154.019 122.171 150.173 117.152L150.111 117.193C150.757 118.156 151.315 119.18 151.766 120.245Z" fill="#C97E5D"/>
<path d="M146.771 112.173C147.166 112.598 147.627 112.957 148.159 113.182L148.2 113.126C146.736 111.19 145.465 108.875 145.942 106.37C145.839 106.468 145.727 106.575 145.609 106.683C145.214 108.532 145.496 110.719 146.771 112.173Z" fill="#C97E5D"/>
<path d="M154.911 156.02C155.93 158.361 156.985 160.819 158.968 162.52C160.258 163.641 161.825 164.384 163.429 164.963C165.856 165.854 168.33 166.627 170.819 167.329L170.809 167.391C166.507 166.95 162.015 165.706 158.691 162.827C156.734 161.029 155.751 158.484 154.85 156.046L154.911 156.02Z" fill="#C97E5D"/>
<path d="M134.291 165.04C136.16 162.771 137.364 159.862 137.266 156.897C136.928 157.773 137.036 158.761 136.729 159.657C136.6 160.113 136.442 160.615 136.262 161.045C134.731 164.887 131.351 167.596 127.858 169.609C127.043 170.085 126.091 170.597 125.276 171.069C124.057 171.699 123.125 172.446 122.557 173.686C124.226 172.216 126.311 171.335 128.18 170.152C130.439 168.738 132.595 167.11 134.291 165.04Z" fill="#C97E5D"/>
<path d="M138.52 131.821C139.206 135.221 141.255 138.12 143.872 140.333C145.731 142.167 148.302 143.324 150.935 142.904C151.688 142.832 152.425 142.51 153.111 142.31C152.819 142.607 152.353 142.796 151.959 142.991C149.46 144.077 146.438 143.467 144.481 141.598C141.603 139.129 138.776 135.559 138.52 131.821Z" fill="#C97E5D"/>
<path d="M230.518 129.213C230.553 129.141 230.605 129.018 230.661 128.854C230.81 128.854 230.963 128.849 231.122 128.849C230.958 128.972 230.784 129.09 230.594 129.213C230.569 129.213 230.548 129.213 230.518 129.213Z" fill="#A3A3AD"/>
<path d="M300.627 254.292V258.206C300.627 258.423 300.502 258.622 300.307 258.716C299.135 259.284 294.944 261.129 291.323 260.404C291.323 260.404 288.236 259.786 289.2 256.822C289.287 256.557 289.647 256.513 289.791 256.751C290.191 257.415 290.953 258.335 291.973 258.004C292.004 257.994 292.033 257.985 292.064 257.977C292.483 257.862 295.962 256.83 295.71 254.292C295.71 254.292 298.429 256.139 300.627 254.292Z" fill="#005BBA"/>
<path d="M306.574 254.75V258.664C306.574 258.881 306.699 259.079 306.894 259.174C308.066 259.741 312.257 261.587 315.88 260.861C315.88 260.861 319.073 260.222 317.949 257.124C317.874 256.918 317.591 256.895 317.481 257.086C317.106 257.75 316.313 258.814 315.228 258.462C315.199 258.452 315.168 258.442 315.137 258.435C314.718 258.319 311.239 257.288 311.493 254.75C311.493 254.75 308.772 256.597 306.574 254.75Z" fill="#005BBA"/>
<path d="M318.588 248.044C318.588 257.154 312.544 258.422 305.087 258.422C297.632 258.422 291.588 257.154 291.588 248.044C291.588 238.932 297.632 231.547 305.087 231.547C312.544 231.547 318.588 238.932 318.588 248.044Z" fill="#4FA5FF"/>
<path d="M308.62 226.449C308.62 226.449 308.766 226.453 309.03 226.474C319.173 227.285 323.41 238.388 315.95 244.538C311.664 248.073 306.38 252.974 305.776 256.101C305.776 256.101 293.32 246.835 292.683 240.893C291.821 232.869 295.181 225.226 308.62 226.449Z" fill="white"/>
<path d="M300.738 229.584C300.738 231.015 302.534 232.174 304.747 232.174C306.96 232.174 308.753 231.015 308.753 229.584C308.753 228.154 306.96 226.994 304.747 226.994C302.534 226.994 300.738 228.154 300.738 229.584Z" fill="#FD9783"/>
<path d="M319.506 246.106C319.621 246.645 319.362 247.193 318.873 247.447C316.954 248.438 312.244 250.455 310.839 247.193C309.059 243.064 314.276 243.753 314.276 243.753C314.276 243.753 312.704 243.716 313.085 242.317C313.369 241.276 316.341 241.801 317.84 242.138C318.361 242.254 318.765 242.662 318.877 243.183L319.506 246.106Z" fill="#005BBA"/>
<path d="M291.575 234.422C291.348 234.422 291.127 234.473 290.915 234.579C290.313 234.88 289.616 235.757 289.418 237.042C289.091 239.165 290.201 239.969 291.735 241.08C291.858 241.17 291.983 241.261 292.11 241.353C292.493 240.785 294.15 238.178 293.707 236.257C293.549 235.565 293.126 235.03 292.454 234.666L292.445 234.66C292.147 234.5 291.856 234.422 291.575 234.422ZM292.172 241.734L292.062 241.653C291.898 241.532 291.735 241.414 291.577 241.299C290.088 240.219 288.8 239.288 289.152 237C289.306 236.005 289.872 234.797 290.794 234.339C291.346 234.064 291.964 234.094 292.582 234.427L292.591 234.433C293.33 234.835 293.794 235.428 293.971 236.198C294.19 237.158 293.967 238.364 293.307 239.785C292.818 240.833 292.276 241.591 292.252 241.624L292.172 241.734Z" fill="black"/>
<path d="M295.942 252.571L289.501 253.031L288.811 243.346L295.251 242.886L295.942 252.571Z" fill="#FFE900"/>
<path d="M294.438 248.586C294.438 249.695 293.541 250.591 292.435 250.591C291.328 250.591 290.432 249.695 290.432 248.586C290.432 247.48 291.328 246.581 292.435 246.581C293.541 246.581 294.438 247.48 294.438 248.586Z" fill="#FCE355"/>
<path d="M292.138 247.976L289.654 252.358L289.058 243.991L292.138 247.976ZM294.896 243.111L292.352 247.599L289.198 243.519L294.896 243.111ZM295.696 251.927L292.616 247.941L295.102 243.558L295.696 251.927ZM289.858 252.804L292.402 248.317L295.558 252.398L289.858 252.804ZM296.737 252.5L296.141 252.544L295.439 242.686L296.035 242.644L295.973 241.795L293.483 241.972L293.368 240.354L290.32 240.571L290.435 242.19L287.943 242.369L288.003 243.217L288.6 243.175L289.302 253.031L288.705 253.073L288.765 253.922L296.797 253.349L296.737 252.5Z" fill="black"/>
<path d="M295.919 234.04C294.878 233.53 293.829 233.017 292.705 232.726C291.583 232.437 290.369 232.382 289.282 232.782C288.799 232.959 288.299 233.298 288.237 233.807C288.185 234.229 288.451 235.534 288.703 235.876C290.2 237.902 291.986 237.519 293.283 235.551C293.506 235.212 293.785 234.8 294.187 234.843C294.343 234.858 294.481 234.945 294.614 235.024C295.226 235.387 295.977 235.734 296.717 235.888C297.25 235.997 297.643 235.393 297.314 234.96C297 234.548 296.408 234.279 295.919 234.04Z" fill="#005BBA"/>
<path d="M318.035 208.249C318.058 207.891 318.093 207.534 318.141 207.183C318.149 207.129 318.156 207.076 318.164 207.022C318.231 206.573 318.324 206.131 318.441 205.709C318.512 205.451 318.593 205.201 318.685 204.961C318.705 204.961 319.297 203.727 319.382 203.604C319.571 203.333 319.782 203.098 320.013 202.879C320.129 202.769 320.069 202.565 319.915 202.544C319.698 202.513 319.469 202.475 319.392 202.48C319.02 202.503 318.651 202.588 318.299 202.715C317.544 202.983 316.857 203.437 316.238 203.962C316.12 204.06 316.007 204.162 315.893 204.266C315.578 204.559 315.274 204.874 314.989 205.199L314.912 205.288L314.206 206.148C314.106 206.275 314.006 206.402 313.907 206.529C313.696 206.802 313.484 207.079 313.274 207.353L313.207 207.439C312.941 207.784 312.674 208.124 312.403 208.455C312.256 208.632 312.108 208.805 311.958 208.975C311.471 209.525 310.957 210.033 310.394 210.46C310.232 210.584 310.066 210.699 309.899 210.809C309.691 210.943 309.48 211.068 309.266 211.184C308.069 211.827 306.776 212.188 305.483 212.556C305.208 212.635 304.934 212.714 304.661 212.795L300.568 214.727L300.087 215.125C299.036 216.056 298.132 217.242 297.403 218.581L297.122 219.122C296.754 219.864 296.439 220.648 296.181 221.454C296.015 221.968 295.698 223.528 295.461 225.274L295.453 225.343C295.442 225.428 295.43 225.514 295.421 225.599L295.407 225.695C295.199 227.375 295.082 229.159 295.257 230.31C295.257 230.311 295.257 230.311 295.257 230.311C294.859 230.467 294.447 230.564 294.018 230.579C293.581 230.594 293.221 230.987 293.233 231.456C293.244 231.92 293.598 232.288 294.027 232.288C294.037 232.288 294.045 232.288 294.052 232.288C296.281 232.215 297.949 230.7 299.564 229.236C300.899 228.023 302.16 226.88 303.657 226.573C305.098 226.278 306.793 226.825 308.304 228.074C308.677 228.383 309.031 228.722 309.406 229.082C309.93 229.582 310.471 230.1 311.084 230.544C312.226 231.37 313.576 231.887 314.997 232.038C316.403 232.188 317.814 231.968 319.076 231.408C319.476 231.229 319.696 230.743 319.542 230.306C319.382 229.85 318.903 229.632 318.489 229.819C318.037 230.021 317.564 230.167 317.079 230.26C317.077 230.26 317.077 230.258 317.077 230.258C316.986 229.786 316.788 229.295 316.59 228.809L316.571 228.762C316.513 228.62 316.453 228.478 316.399 228.335L316.394 228.32C316.326 228.149 316.263 227.979 316.211 227.812C315.93 226.934 315.924 226.049 316.072 225.158C316.093 225.031 316.118 224.902 316.145 224.775C316.284 224.125 316.497 223.471 316.736 222.812L316.746 222.784C316.784 222.678 316.825 222.572 316.863 222.466C317.236 221.469 317.654 220.467 317.952 219.453C318.008 219.26 318.06 219.068 318.106 218.875C318.124 218.812 318.137 218.746 318.152 218.683C318.362 217.746 318.433 216.793 318.428 215.831V215.821C318.428 215.596 318.422 215.369 318.414 215.142V215.129C318.374 214.068 318.262 213.002 318.164 211.936L318.16 211.9C318.143 211.711 318.125 211.523 318.11 211.336L318.104 211.261C318.075 210.901 318.048 210.541 318.029 210.181C318.025 210.083 318.02 209.987 318.016 209.889L318.012 209.723C318.004 209.46 318.002 209.19 318.008 208.921C318.012 208.698 318.022 208.473 318.035 208.249Z" fill="#005BBA"/>
<path d="M158.172 96.3698C158.102 96.3576 158.037 96.3224 157.984 96.2681C157.932 96.2138 157.894 96.1428 157.876 96.0631L157.594 94.8656C157.568 94.7549 157.582 94.6356 157.631 94.5338C157.68 94.432 157.762 94.3562 157.857 94.3229C157.952 94.2897 158.053 94.3017 158.139 94.3565C158.224 94.4112 158.286 94.5041 158.311 94.6148L158.593 95.8123C158.607 95.8671 158.61 95.9247 158.604 95.9818C158.598 96.0389 158.582 96.0944 158.557 96.1449C158.533 96.1954 158.5 96.24 158.461 96.2761C158.422 96.3121 158.378 96.339 158.33 96.3549C158.279 96.3747 158.224 96.3798 158.172 96.3698Z" fill="#080C53"/>
<path d="M161.902 95.7626C161.837 95.753 161.777 95.7221 161.729 95.6735C161.68 95.6249 161.644 95.5606 161.626 95.4881L161.373 94.3822C161.36 94.3326 161.356 94.2802 161.361 94.2281C161.366 94.176 161.38 94.1253 161.401 94.0788C161.423 94.0324 161.452 93.9912 161.487 93.9577C161.522 93.9241 161.562 93.8989 161.605 93.8835C161.692 93.8538 161.785 93.8652 161.863 93.915C161.941 93.9649 161.998 94.0494 162.022 94.1502L162.285 95.2477C162.307 95.3491 162.295 95.458 162.25 95.5511C162.205 95.6441 162.131 95.7138 162.044 95.7453C161.998 95.7659 161.949 95.7719 161.902 95.7626Z" fill="#080C53"/>
<path d="M159.613 101.496C159.417 101.233 159.537 100.862 159.843 100.752L161.935 100.006C162.301 99.8748 162.665 100.194 162.555 100.567C162.343 101.288 161.981 102.242 161.494 102.505C160.82 102.87 160.223 102.317 159.613 101.496Z" fill="white"/>
</svg>
