<svg width="436" height="284" viewBox="0 0 436 284" fill="none" xmlns="http://www.w3.org/2000/svg">
<g clip-path="url(#clip0_147_1247)">
<path d="M20.0922 129.047C-10.577 182.559 -1.13756 177.21 26.5511 219.363C43.1776 238.87 31.9702 271.417 33.2803 284H390.391C387.749 282.521 408.655 253.836 408.655 253.836C408.655 253.836 425.087 214.74 395.197 159.65C375.491 123.33 414.423 108.556 409.388 78.3782C399.564 19.4881 348.616 -13.4643 240.903 1.34552C133.191 16.1554 109.953 -10.5234 54.6645 1.34445C-0.623958 13.2123 54.664 68.727 20.0922 129.047Z" fill="#F5FAFF"/>
<path d="M406.52 9.83081H210.235V176.528H406.52V9.83081Z" fill="#DFEFFF"/>
<path d="M406.52 177.576H209.238V9.83081H406.52V177.576ZM209.734 176.941H406.021V10.4661H209.737L209.734 176.941Z" fill="#08294A"/>
<path d="M274.864 15.5715H214.409V174.012H274.864V15.5715Z" fill="#DFEFFF"/>
<path d="M275.11 174.329H214.164V15.2545H275.11V174.329ZM214.653 173.695H274.621V15.8886H214.653V173.695Z" fill="#08294A"/>
<g style="mix-blend-mode:multiply" opacity="0.5">
<path d="M258.803 23.9111L220.843 73.114V41.3761L234.317 23.9111H258.803Z" fill="#DFEFFF"/>
</g>
<g style="mix-blend-mode:multiply" opacity="0.5">
<path d="M220.843 86.4333L268.432 24.749V47.4535L220.843 109.137V86.4333Z" fill="#DFEFFF"/>
</g>
<g style="mix-blend-mode:multiply" opacity="0.5">
<path d="M259.828 165.674L268.432 154.522V165.674H259.828Z" fill="#DFEFFF"/>
</g>
<g style="mix-blend-mode:multiply" opacity="0.5">
<path d="M220.843 134.963L268.432 73.2788V127.003L238.597 165.674H220.843V134.963Z" fill="#DFEFFF"/>
</g>
<path d="M268.676 165.991H220.602V23.5942H268.68L268.676 165.991ZM221.088 165.357H268.185V24.2283H221.088V165.357Z" fill="#08294A"/>
<path d="M258.003 83.2034V80.9197C258.003 80.824 258.032 80.7321 258.083 80.6638C258.135 80.5956 258.206 80.5567 258.28 80.5554L272.77 80.2338C272.808 80.233 272.845 80.2419 272.88 80.26C272.914 80.278 272.946 80.3048 272.973 80.3388C272.999 80.3728 273.02 80.4133 273.035 80.4581C273.049 80.5028 273.057 80.5508 273.057 80.5992V83.5274C273.057 83.5759 273.049 83.6239 273.035 83.6686C273.02 83.7133 272.999 83.7538 272.973 83.7878C272.946 83.8219 272.914 83.8486 272.88 83.8667C272.845 83.8847 272.808 83.8936 272.77 83.8928L258.28 83.5712C258.205 83.5694 258.135 83.5297 258.083 83.4609C258.031 83.3921 258.002 83.2996 258.003 83.2034Z" fill="#DFEFFF"/>
<path d="M272.774 84.2074H272.765L258.275 83.8858C258.137 83.8819 258.006 83.8083 257.909 83.6808C257.813 83.5533 257.758 83.382 257.758 83.2033V80.9196C257.758 80.7411 257.813 80.5699 257.909 80.4426C258.006 80.3152 258.137 80.2419 258.275 80.2383L272.765 79.9167C272.835 79.9155 272.904 79.9322 272.969 79.966C273.034 79.9997 273.093 80.0498 273.142 80.1133C273.192 80.1768 273.231 80.2524 273.258 80.3358C273.285 80.4192 273.299 80.5087 273.299 80.5991V83.5273C273.299 83.7083 273.244 83.8819 273.145 84.0099C273.046 84.1378 272.912 84.2097 272.773 84.2097L272.774 84.2074ZM272.774 80.5507L258.283 80.8758C258.274 80.8764 258.265 80.8817 258.258 80.8907C258.251 80.8997 258.247 80.9117 258.247 80.9242V83.208C258.247 83.2143 258.248 83.2205 258.249 83.2264C258.251 83.2323 258.254 83.2376 258.257 83.2421C258.261 83.2466 258.265 83.2502 258.269 83.2527C258.274 83.2551 258.279 83.2564 258.283 83.2564L272.773 83.578C272.778 83.5784 272.783 83.5773 272.788 83.5749C272.793 83.5726 272.797 83.5689 272.8 83.5642C272.804 83.5597 272.807 83.5543 272.809 83.5484C272.811 83.5425 272.812 83.5361 272.812 83.5296V80.5991C272.812 80.5927 272.811 80.5862 272.809 80.5803C272.807 80.5743 272.804 80.5689 272.8 80.5646C272.797 80.56 272.793 80.5564 272.788 80.554C272.784 80.5517 272.779 80.5505 272.774 80.5507V80.5507Z" fill="#08294A"/>
<path d="M337.923 15.5715H277.468V174.012H337.923V15.5715Z" fill="#DFEFFF"/>
<path d="M338.168 174.329H277.223V15.2545H338.168V174.329ZM277.712 173.695H337.679V15.8886H277.712V173.695Z" fill="#08294A"/>
<path d="M283.901 134.468L331.489 72.7876V87.3141L283.901 148.995V134.468Z" fill="#EFBA1C"/>
<g style="mix-blend-mode:multiply" opacity="0.5">
<path d="M331.489 23.9111V45.2703L283.901 106.95V53.227L306.52 23.9111H331.489Z" fill="#DFEFFF"/>
</g>
<g style="mix-blend-mode:multiply" opacity="0.5">
<path d="M285.972 165.674L331.49 106.676V165.674H285.972Z" fill="#DFEFFF"/>
</g>
<g style="mix-blend-mode:multiply" opacity="0.5">
<path d="M286.594 23.9111L283.901 27.4018V23.9111H286.594Z" fill="#DFEFFF"/>
</g>
<path d="M331.734 165.991H283.66V23.5942H331.737L331.734 165.991ZM284.146 165.357H331.242V24.2283H284.146V165.357Z" fill="#08294A"/>
<path d="M281.594 99.7461H279.835C279.762 99.7459 279.691 99.7082 279.639 99.6412C279.586 99.5742 279.556 99.4831 279.554 99.3876L279.302 80.605C279.301 80.5565 279.308 80.5084 279.322 80.4633C279.336 80.4183 279.357 80.3774 279.383 80.3428C279.409 80.3083 279.44 80.2808 279.475 80.2621C279.509 80.2434 279.546 80.2338 279.584 80.2338H281.841C281.878 80.2338 281.915 80.2434 281.95 80.2621C281.984 80.2808 282.016 80.3083 282.042 80.3428C282.068 80.3774 282.089 80.4183 282.103 80.4633C282.117 80.5084 282.124 80.5565 282.123 80.605L281.875 99.3876C281.874 99.4832 281.844 99.5744 281.791 99.6415C281.738 99.7086 281.668 99.7462 281.594 99.7461Z" fill="#DFEFFF"/>
<path d="M281.594 100.063H279.835C279.698 100.062 279.565 99.9917 279.467 99.8663C279.369 99.741 279.312 99.5709 279.31 99.3923L279.062 80.6108C279.061 80.5204 279.074 80.4306 279.1 80.3467C279.126 80.2629 279.164 80.1866 279.213 80.1222C279.262 80.0578 279.321 80.0068 279.385 79.9719C279.449 79.937 279.518 79.9191 279.588 79.9191H281.845C281.915 79.9191 281.984 79.937 282.048 79.9719C282.113 80.0068 282.171 80.0578 282.22 80.1222C282.269 80.1866 282.308 80.2629 282.334 80.3467C282.36 80.4306 282.373 80.5204 282.372 80.6108L282.124 99.3923C282.121 99.5719 282.064 99.7428 281.965 99.8683C281.865 99.9939 281.732 100.064 281.594 100.063V100.063ZM279.584 80.5508C279.574 80.5509 279.564 80.5558 279.557 80.5646C279.55 80.5741 279.546 80.5864 279.546 80.5992L279.794 99.3819C279.795 99.3943 279.799 99.4062 279.805 99.415C279.812 99.4238 279.821 99.4288 279.831 99.4291H281.594C281.603 99.4289 281.613 99.4238 281.62 99.4151C281.626 99.4063 281.631 99.3944 281.631 99.3819L281.881 80.5992C281.881 80.5928 281.88 80.5865 281.878 80.5805C281.876 80.5746 281.874 80.5692 281.87 80.5646C281.863 80.5558 281.854 80.5509 281.844 80.5508H279.584Z" fill="#08294A"/>
<path d="M400.982 15.5715H340.527V174.012H400.982V15.5715Z" fill="#DFEFFF"/>
<path d="M401.227 174.329H340.282V15.2545H401.227V174.329ZM340.771 173.695H400.737V15.8886H340.771V173.695Z" fill="#08294A"/>
<g style="mix-blend-mode:multiply" opacity="0.5">
<path d="M394.55 105.109V136.846L372.309 165.674H347.822L394.55 105.109Z" fill="#DFEFFF"/>
</g>
<g style="mix-blend-mode:multiply" opacity="0.5">
<path d="M394.549 24.9393V84.0552L346.959 145.739V86.6236L394.549 24.9393Z" fill="#DFEFFF"/>
</g>
<path d="M380.405 23.9111L346.959 67.2624V52.7359L369.198 23.9111H380.405Z" fill="#EFBA1C"/>
<path d="M394.793 165.991H346.718V23.5942H394.796L394.793 165.991ZM347.204 165.357H394.3V24.2283H347.204V165.357Z" fill="#08294A"/>
<path d="M344.643 99.7461H342.88C342.806 99.7462 342.735 99.7086 342.683 99.6415C342.63 99.5744 342.6 99.4832 342.599 99.3876L342.351 80.605C342.35 80.5565 342.357 80.5084 342.371 80.4633C342.385 80.4183 342.405 80.3774 342.432 80.3428C342.458 80.3083 342.489 80.2808 342.524 80.2621C342.558 80.2434 342.595 80.2338 342.633 80.2338H344.89C344.927 80.2338 344.964 80.2434 344.999 80.2621C345.033 80.2808 345.065 80.3083 345.091 80.3428C345.117 80.3774 345.138 80.4183 345.152 80.4633C345.166 80.5084 345.172 80.5565 345.172 80.605L344.924 99.3876C344.922 99.4831 344.892 99.5742 344.839 99.6412C344.787 99.7082 344.716 99.7459 344.643 99.7461V99.7461Z" fill="#DFEFFF"/>
<path d="M344.642 100.063H342.88C342.742 100.062 342.61 99.9917 342.512 99.8663C342.413 99.741 342.357 99.5709 342.354 99.3922L342.106 80.6108C342.105 80.5204 342.118 80.4306 342.144 80.3467C342.17 80.2629 342.209 80.1866 342.258 80.1222C342.307 80.0578 342.365 80.0068 342.429 79.9719C342.494 79.937 342.563 79.9191 342.633 79.9191H344.89C344.96 79.9191 345.029 79.937 345.093 79.9719C345.157 80.0068 345.216 80.0578 345.265 80.1222C345.314 80.1866 345.352 80.2629 345.378 80.3467C345.404 80.4306 345.417 80.5204 345.416 80.6108L345.168 99.3922C345.165 99.571 345.109 99.7413 345.01 99.8667C344.912 99.9921 344.78 100.063 344.642 100.063ZM342.633 80.5508C342.623 80.5509 342.613 80.5558 342.606 80.5646C342.602 80.5692 342.6 80.5746 342.598 80.5805C342.596 80.5865 342.595 80.5928 342.595 80.5992L342.843 99.3819C342.844 99.3943 342.847 99.4062 342.854 99.415C342.861 99.4238 342.87 99.4288 342.88 99.4291H344.642C344.651 99.4291 344.661 99.4242 344.668 99.4154C344.675 99.4065 344.679 99.3945 344.679 99.3819L344.927 80.5992C344.927 80.5928 344.926 80.5865 344.925 80.5805C344.923 80.5746 344.92 80.5692 344.917 80.5646C344.913 80.5601 344.909 80.5565 344.904 80.5542C344.9 80.5518 344.895 80.5506 344.89 80.5508H342.633Z" fill="#08294A"/>
<path d="M418.232 178.342H194.538V183.551H418.232V178.342Z" fill="#DFEFFF"/>
<path d="M418.476 183.866H194.292V178.025H418.476V183.866ZM194.782 183.232H417.987V178.659H194.782V183.232Z" fill="#08294A"/>
<path d="M412.857 222.952C412.892 222.878 412.794 222.817 412.752 222.886C411.627 224.643 410.79 226.544 410.082 228.522C409.735 229.484 409.42 230.455 409.128 231.429C408.151 229.681 406.824 228.182 404.893 227.612C403.161 227.101 401.41 227.363 399.787 228.026C399.791 227.948 399.74 227.87 399.651 227.907C398.693 228.288 397.798 228.931 396.958 229.537C396.144 230.119 395.358 230.745 394.599 231.405C392.918 232.879 391.544 234.648 389.928 236.192C389.072 237.011 388.134 237.74 387.305 238.592C386.527 239.387 385.846 240.271 385.18 241.164C383.756 243.064 382.378 245.005 380.984 246.93C379.33 249.211 377.699 251.513 376.096 253.831C376.045 253.905 376.162 253.995 376.213 253.925C379.128 250.12 381.942 246.23 384.775 242.36C386.149 240.48 387.624 238.83 389.36 237.314C391.014 235.873 392.373 234.128 393.957 232.609C394.836 231.765 395.759 230.979 396.724 230.246C397.428 229.713 398.184 229.251 398.911 228.747C400.643 227.985 402.566 227.641 404.403 228.174C406.614 228.817 407.84 230.635 408.77 232.715C408.595 233.379 408.427 234.042 408.283 234.718C407.345 239.124 406.808 243.654 406.602 248.163C406.489 250.641 406.481 253.126 406.89 255.575C406.738 256.177 408.05 256.485 407.855 255.539C407.396 253.323 407.326 251.058 407.373 248.798C407.416 246.57 407.556 244.35 407.766 242.135C408.038 239.268 408.494 236.401 409.124 233.583C409.856 235.57 410.093 237.638 410.101 239.788C410.109 242.356 410.008 244.928 409.953 247.495C409.922 248.945 409.887 250.391 409.856 251.841C409.84 252.565 409.821 253.29 409.805 254.015C409.79 254.736 409.673 255.518 409.903 256.214C410.066 256.706 410.658 256.677 410.833 256.214C411.074 255.559 410.992 254.814 411.004 254.122C411.012 253.397 411.024 252.672 411.031 251.951C411.051 250.575 411.07 249.195 411.09 247.819C411.132 245.042 411.238 242.257 411.191 239.477C411.144 236.888 410.627 234.419 409.486 232.113C409.482 232.105 409.478 232.097 409.474 232.085C409.685 231.237 409.903 230.393 410.152 229.554C410.833 227.273 411.814 225.077 412.857 222.952Z" fill="#C9E4FF"/>
<path d="M397.561 250.473C397.561 250.473 408.237 252.689 423.552 251.358C423.552 251.358 424.393 270.524 419.898 282.265H399.811C399.811 282.265 394.751 270.856 397.561 250.473Z" fill="#C9E4FF"/>
<path d="M410.257 234.988C407.615 229.058 398.122 229.336 398.122 229.336C398.383 226.117 395.491 220.155 389.112 218.426C385.702 217.505 382.281 220.118 379.681 223.886C385.406 223.718 391.891 224.442 392.79 227.408C393.763 230.606 390.622 227.706 386.356 226.572C383.114 225.716 380.413 225.663 378.066 226.564C377.704 227.252 377.373 227.952 377.069 228.661C382.09 229.406 386.975 230.946 387.446 233.612C388.026 236.913 385.258 233.62 381.16 231.937C379.42 231.22 377.821 230.778 376.318 230.631C375.836 232.06 375.485 233.477 375.314 234.791C375.217 235.508 375.135 236.299 375.065 237.138C378.665 237.437 381.67 238.33 382.308 240.255C383.363 243.42 380.148 240.611 375.855 239.599C375.532 239.526 375.217 239.46 374.902 239.399C374.804 241.07 374.742 242.847 374.699 244.608C376.003 244.866 376.996 245.378 377.463 246.246C378.564 248.286 377.12 247.847 374.653 247.331C374.594 252.586 374.707 257.05 374.707 257.05C375.384 256.562 377.751 255.891 380.876 255.129C381.199 251.144 380.374 247.95 382.542 249.936C383.488 250.8 383.678 252.475 383.41 254.527C385.079 254.142 386.87 253.741 388.68 253.339C388.68 252.598 388.645 251.828 388.567 251.017C388.139 246.414 385.877 242.716 388.738 244.198C390.587 245.157 391.011 248.769 390.758 252.872C391.964 252.602 393.159 252.332 394.319 252.066C394.973 249.961 395.051 247.52 394.634 244.628C393.973 240.054 391.532 236.487 394.463 237.81C397.133 239.018 397.242 245.64 396.577 251.537C397.935 251.214 399.204 250.898 400.325 250.599C401.025 250.411 401.699 250.182 402.345 249.916C402.796 247.438 402.384 244.727 401.204 241.59C399.589 237.285 396.448 234.382 399.589 234.984C402.59 235.557 404.112 242.618 404.657 248.744C409.891 245.529 412.382 239.747 410.257 234.988ZM408.537 241.954C407.875 243.068 407.058 238.313 408.533 238.113C409.249 238.019 409.195 240.836 408.537 241.954Z" fill="#C9E4FF"/>
<path d="M417.232 252.664C418.419 247.758 420.517 242.225 423.027 242.164C425.651 242.098 422.747 244.031 420.906 247.312C419.567 249.703 418.902 251.853 418.968 253.93C419.462 254.229 419.98 254.507 420.529 254.757C421.401 255.15 422.397 255.576 423.46 256.022C423.639 251.141 424.53 245.772 426.846 245.149C429.391 244.465 426.97 247.037 425.88 250.666C425.188 252.963 424.954 254.958 425.23 256.755C426.141 257.128 427.079 257.509 428.029 257.89C428.325 254.519 429.107 251.64 430.726 251.112C433.233 250.289 430.944 252.992 430.033 256.678C429.874 257.325 429.749 257.947 429.66 258.549C431.084 259.118 432.493 259.688 433.801 260.224C433.832 258.521 434.194 257.185 435.066 256.608C437.066 255.289 436.011 257.771 435.79 261.056C438.238 262.096 440.075 262.96 440.569 263.447C440.569 263.447 441.204 259.831 441.795 255.556C439.728 255.642 438.499 255.801 439.639 254.294C440.125 253.651 440.993 253.369 442.087 253.332C442.266 251.894 442.43 250.445 442.554 249.073C442.293 249.081 442.029 249.089 441.756 249.109C438.144 249.351 435.19 251.202 436.432 248.77C437.183 247.291 439.736 246.968 442.698 247.213C442.745 246.521 442.772 245.87 442.784 245.272C442.799 244.179 442.69 242.983 442.468 241.754C441.231 241.672 439.876 241.816 438.374 242.164C434.84 242.983 432.189 245.284 433.061 242.68C433.77 240.575 437.926 239.981 442.099 240.055C441.939 239.436 441.756 238.822 441.546 238.216C439.744 237.167 437.545 236.844 434.805 237.106C431.201 237.45 428.293 239.387 429.473 236.918C430.566 234.628 435.922 234.915 440.557 235.816C438.903 232.409 436.44 229.82 433.556 230.115C428.161 230.66 425.086 235.12 424.903 237.769C424.903 237.769 417.224 236.267 414.352 240.73C412.048 244.314 413.367 249.347 417.232 252.664ZM415.376 243.503C416.547 243.863 415.306 247.619 414.905 246.624C414.504 245.628 414.804 243.327 415.376 243.503Z" fill="#C9E4FF"/>
<path d="M427.857 226.392C423.105 227.211 417.446 227.408 416.387 225.016C415.278 222.514 418.127 224.537 421.723 224.996C424.343 225.328 426.479 225.11 428.262 224.218C428.328 223.62 428.363 223.01 428.359 222.383C428.355 221.38 428.328 220.253 428.289 219.049C423.965 220.835 418.929 222.121 417.457 220.139C415.846 217.96 419.053 219.262 422.653 218.861C424.93 218.607 426.763 218.034 428.219 217.047C428.18 216.023 428.133 214.966 428.087 213.902C425.031 214.966 422.21 215.364 421.1 214.016C419.38 211.928 422.65 213.05 426.226 212.452C426.853 212.345 427.448 212.218 428.005 212.063C427.935 210.461 427.865 208.881 427.81 207.402C426.312 208.053 425.004 208.242 424.152 207.632C422.198 206.231 424.786 206.256 427.736 205.154C427.663 202.381 427.678 200.26 427.908 199.592C427.908 199.592 424.502 200.428 420.54 201.57C421.443 203.528 422.073 204.646 420.303 204.151C419.548 203.942 418.952 203.217 418.485 202.177C417.162 202.578 415.831 203.004 414.585 203.434C414.698 203.684 414.811 203.933 414.935 204.187C416.597 207.57 419.392 209.675 416.772 209.454C415.185 209.319 413.881 206.993 412.904 204.04C412.285 204.273 411.705 204.507 411.183 204.736C410.222 205.158 409.222 205.744 408.241 206.448C408.669 207.673 409.335 208.917 410.238 210.228C412.367 213.304 415.437 214.938 412.818 215.138C410.701 215.302 408.517 211.534 406.91 207.484C406.435 207.885 405.972 208.311 405.528 208.754C405.338 210.908 405.937 213.156 407.26 215.691C409.008 219.029 411.857 221.056 409.234 220.909C406.801 220.769 404.906 215.495 403.835 210.666C401.527 213.627 400.258 217.034 401.667 219.696C404.306 224.676 409.424 225.856 411.806 224.967C411.806 224.967 413.569 232.969 418.61 233.948C422.657 234.735 426.514 231.446 427.857 226.392ZM420.618 231.855C420.462 230.578 424.234 230.271 423.525 231.057C422.817 231.843 420.696 232.474 420.618 231.855Z" fill="#C9E4FF"/>
<path d="M425.686 201.747C424.463 202.656 423.658 203.946 422.879 205.265C421.926 206.886 420.976 208.512 420.058 210.158C419.139 211.805 418.236 213.459 417.345 215.122C416.454 216.789 415.671 218.509 414.807 220.188C414.803 220.2 414.807 220.213 414.807 220.221C414.788 220.229 414.768 220.241 414.76 220.262C413.787 222.146 412.624 223.87 411.557 225.688C410.44 227.596 409.635 229.665 408.771 231.708C408.623 232.06 409.105 232.277 409.241 231.913C410.032 229.804 410.9 227.695 412.024 225.754C413.036 224.009 414.371 222.358 414.939 220.376C414.971 220.372 414.998 220.356 415.017 220.315C415.846 218.701 416.777 217.141 417.629 215.54C418.497 213.906 419.38 212.28 420.276 210.658C421.155 209.073 422.031 207.484 422.926 205.903C423.739 204.47 424.518 202.93 425.787 201.878C425.857 201.82 425.763 201.689 425.686 201.747Z" fill="#C9E4FF"/>
<path d="M433.649 249.777C431.625 247.926 430.072 245.71 428.858 243.204C428.262 241.975 427.663 240.775 426.834 239.702C426.452 239.203 426.024 238.748 425.565 238.326C425.164 237.954 424.775 237.528 424.218 237.515C424.261 237.397 424.214 237.237 424.051 237.229C423.841 237.221 423.627 237.212 423.413 237.2C423.307 237.192 423.206 237.184 423.101 237.188C422.988 237.192 422.864 237.2 422.782 237.278C422.704 237.319 422.591 237.319 422.591 237.438C422.591 237.556 422.704 237.556 422.782 237.593C422.864 237.675 422.988 237.683 423.101 237.687C423.206 237.692 423.307 237.683 423.413 237.675C423.627 237.663 423.841 237.655 424.051 237.647C424.078 237.642 424.09 237.626 424.113 237.618C424.113 237.618 424.109 237.618 424.113 237.618C424.312 238.179 424.798 238.445 425.207 238.83C425.682 239.276 426.125 239.76 426.538 240.272C427.421 241.365 428.029 242.635 428.698 243.88C429.928 246.173 431.594 248.233 433.505 249.928C433.606 250.014 433.746 249.867 433.649 249.777Z" fill="#C9E4FF"/>
<path d="M346.999 104.866C350.325 104.866 352.611 116.239 354.782 115.426C355.83 115.037 352.633 103.577 355.096 103.577C356.434 103.577 356.962 105.954 358.428 109.833C359.203 109.313 359.868 107.123 360.233 107.053C360.948 106.916 362.15 110.625 362.811 110.788C363.587 110.982 363.539 107.843 364.335 107.843C366.769 107.843 366.622 120.989 371.195 139.579C371.805 142.061 372.055 143.345 372.933 146.003C374.781 151.599 389.655 154.564 399.698 151.745C405.32 150.167 403.827 153.932 399.698 155.245C396.209 156.354 384.182 157.88 375.272 153.48C379.471 166.215 383.65 176.139 381 176.139C377.432 176.139 369.875 155.764 368.041 155.326C366.207 154.889 371.122 176.139 368.041 176.139C364.114 176.139 354.325 133.163 352.924 128.312C351.137 122.116 343.669 104.866 346.999 104.866Z" fill="#BC7551"/>
<path d="M368.043 176.577C368.197 176.577 368.349 176.542 368.489 176.473C368.628 176.405 368.752 176.305 368.851 176.181C369.96 174.857 369.475 170.041 368.666 163.382C368.307 160.416 367.866 156.777 368.084 155.846C368.804 156.508 370.585 160.153 372.035 163.119C375.887 170.999 378.785 176.577 380.996 176.577C381.181 176.585 381.366 176.544 381.532 176.457C381.698 176.37 381.841 176.241 381.947 176.081C382.918 174.623 381.462 170.224 378.344 161.212C377.612 159.099 376.793 156.736 375.978 154.29C384.94 158.252 396.5 156.72 399.814 155.664C402.284 154.878 404.085 153.153 403.745 151.895C403.581 151.291 402.821 150.413 399.588 151.322C394.884 152.643 388.803 152.746 383.322 151.601C377.871 150.461 374.134 148.315 373.322 145.859C372.622 143.743 372.328 142.516 371.92 140.819C371.82 140.403 371.714 139.959 371.594 139.469C369.481 130.88 368.371 123.407 367.56 117.95C366.517 110.93 365.994 107.406 364.331 107.406C363.614 107.406 363.384 108.349 363.164 109.261C363.086 109.579 362.964 110.08 362.852 110.296C362.633 110.041 362.267 109.316 362.013 108.814C361.331 107.466 360.837 106.49 360.156 106.622C359.793 106.692 359.587 107.108 359.213 107.867C359.024 108.272 358.811 108.664 358.575 109.041C358.385 108.525 358.205 108.038 358.051 107.592C357.058 104.815 356.458 103.139 355.095 103.139C354.934 103.137 354.775 103.173 354.63 103.243C354.484 103.314 354.355 103.417 354.251 103.547C353.409 104.567 353.708 107.338 354.222 111.136C354.418 112.577 354.684 114.523 354.556 115.03H354.55C353.877 115.03 352.77 112.606 351.952 110.813C350.519 107.674 349.037 104.428 346.998 104.428C346.812 104.422 346.628 104.466 346.463 104.555C346.298 104.644 346.157 104.776 346.053 104.938C344.912 106.68 347.042 112.948 350.177 121.614C351.139 124.273 352.047 126.784 352.525 128.436C352.779 129.311 353.309 131.45 354.044 134.416C355.627 140.79 358.275 151.456 360.866 160.281C365.109 174.725 366.929 176.577 368.043 176.577ZM367.988 154.882C367.834 154.882 367.686 154.943 367.573 155.053C366.958 155.641 367.159 157.834 367.844 163.493C368.405 168.126 369.173 174.473 368.227 175.602C368.206 175.633 368.178 175.658 368.146 175.675C368.114 175.692 368.078 175.7 368.043 175.7C367.901 175.7 367.108 175.486 365.407 171.278C364.347 168.653 363.088 164.868 361.664 160.02C359.077 151.214 356.432 140.558 354.853 134.192C354.114 131.221 353.582 129.075 353.324 128.179C352.838 126.498 351.925 123.973 350.958 121.3C349.785 118.059 348.457 114.384 347.577 111.362C346.314 107.021 346.511 105.783 346.746 105.432C346.774 105.387 346.813 105.351 346.859 105.328C346.905 105.305 346.956 105.296 347.006 105.301C348.522 105.301 350.013 108.566 351.211 111.19C352.526 114.071 353.565 116.342 354.929 115.836C355.641 115.569 355.491 114.245 355.053 111.01C354.725 108.58 354.228 104.916 354.887 104.117C354.912 104.083 354.945 104.055 354.983 104.037C355.02 104.019 355.062 104.01 355.103 104.012C355.894 104.012 356.446 105.558 357.284 107.901C357.508 108.527 357.762 109.236 358.049 109.995C358.072 110.055 358.107 110.109 358.151 110.153C358.196 110.198 358.249 110.231 358.308 110.25C358.366 110.27 358.428 110.276 358.488 110.268C358.549 110.26 358.607 110.237 358.659 110.202C359.184 109.85 359.598 109.01 359.963 108.269C360.078 108.036 360.225 107.737 360.332 107.563C360.594 107.847 361.022 108.693 361.291 109.226C361.894 110.418 362.258 111.099 362.725 111.213C363.511 111.408 363.761 110.382 363.98 109.477C364.073 109.109 364.234 108.435 364.377 108.283C364.599 108.316 365.011 108.69 365.485 110.644C365.903 112.369 366.277 114.891 366.752 118.085C367.565 123.56 368.678 131.058 370.801 139.689C370.921 140.175 371.028 140.619 371.127 141.033C371.54 142.752 371.839 143.995 372.55 146.147C373.474 148.94 377.345 151.241 383.174 152.459C388.776 153.63 395 153.521 399.817 152.167C402.219 151.487 402.902 151.914 402.958 152.134C403.096 152.645 401.891 154.092 399.586 154.825C396.239 155.894 384.304 157.449 375.456 153.084C375.382 153.047 375.299 153.035 375.218 153.047C375.137 153.06 375.062 153.097 375.001 153.155C374.94 153.213 374.897 153.288 374.877 153.371C374.856 153.454 374.86 153.542 374.886 153.623C375.81 156.412 376.744 159.121 377.571 161.511C378.881 165.295 380.012 168.563 380.706 171.054C381.579 174.188 381.498 175.244 381.276 175.578C381.246 175.623 381.205 175.658 381.157 175.68C381.11 175.701 381.057 175.709 381.006 175.702C380.467 175.702 379.398 174.977 377.352 171.527C375.843 168.981 374.216 165.653 372.78 162.717C370.085 157.204 368.987 155.101 368.14 154.899C368.089 154.887 368.037 154.881 367.984 154.882H367.988Z" fill="#BC7551"/>
<path d="M358.137 120.249C358.23 120.248 358.32 120.214 358.392 120.153C358.465 120.092 358.516 120.007 358.538 119.911C358.559 119.816 358.549 119.716 358.51 119.627C358.471 119.538 358.404 119.466 358.321 119.422C356.21 118.295 355.069 116.073 354.705 114.367C354.465 113.251 354.526 112.228 354.858 111.742C354.94 111.679 355.201 111.52 355.432 111.38C357.047 110.401 358.788 109.255 359.01 108.043C359.03 107.929 359.007 107.811 358.945 107.715C358.883 107.619 358.788 107.553 358.679 107.531C358.571 107.51 358.459 107.534 358.368 107.599C358.277 107.664 358.214 107.765 358.193 107.879C358.025 108.799 355.917 110.077 355.017 110.622C354.475 110.952 354.314 111.052 354.219 111.181C353.711 111.872 353.589 113.135 353.893 114.558C354.419 117.017 355.934 119.127 357.945 120.196C358.004 120.23 358.07 120.248 358.137 120.249V120.249Z" fill="#8F563C"/>
<path d="M377.532 155.828C377.63 155.828 377.725 155.791 377.8 155.725C377.875 155.658 377.925 155.566 377.941 155.465C377.958 155.363 377.94 155.259 377.89 155.17C377.841 155.081 377.763 155.013 377.671 154.978C375.434 154.147 372.003 151.644 371.111 150.196C371.082 150.146 371.044 150.103 370.999 150.07C370.954 150.036 370.903 150.012 370.849 149.999C370.795 149.986 370.74 149.985 370.685 149.995C370.631 150.005 370.579 150.027 370.532 150.058C370.486 150.09 370.446 150.131 370.415 150.179C370.383 150.227 370.362 150.281 370.35 150.338C370.339 150.395 370.339 150.453 370.35 150.511C370.361 150.568 370.382 150.622 370.413 150.67C371.393 152.269 374.981 154.907 377.391 155.803C377.436 155.82 377.484 155.828 377.532 155.828V155.828Z" fill="#8F563C"/>
<path d="M360.74 222.233C360.699 231.785 360.699 241.339 360.657 250.89C360.615 259.907 360.571 268.921 360.529 277.935C360.529 279.281 360.443 280.628 360.488 281.971C360.488 282.645 360.188 282.958 359.636 283.092C359.339 283.183 359.039 283.226 358.742 283.226C357.041 283.364 356.53 282.87 356.53 281.121C356.488 278.519 356.488 275.961 356.488 273.36C356.488 272.463 356.361 271.657 356.105 270.849C355.295 268.159 354.487 265.467 353.721 262.778C353.552 262.15 353.255 262.015 352.7 262.015C321.049 262.015 289.395 262.015 257.741 262.015C257.103 262.015 256.848 262.237 256.678 262.865C255.912 265.557 255.105 268.203 254.297 270.849C253.997 271.745 253.87 272.688 253.914 273.631C253.914 276.23 253.914 278.832 253.87 281.477C253.87 282.914 253.7 283.004 252.34 283.226C251.913 283.317 251.488 283.273 251.064 283.183C250.084 283.004 249.915 282.78 249.915 281.749C249.745 271.97 249.873 262.15 249.745 252.371C249.618 242.37 249.659 232.369 249.618 222.368C249.618 221.649 249.829 221.471 250.467 221.561C251.488 221.696 252.51 221.74 253.487 221.337C253.786 221.246 253.914 221.381 253.956 221.696C253.956 222.008 253.956 222.277 253.956 222.592C253.956 234.252 253.956 245.958 253.956 257.618C253.956 257.843 253.956 258.068 253.956 258.246C253.956 258.471 253.828 258.83 254.253 258.874C254.594 258.92 254.68 258.652 254.722 258.38C255.105 256.946 255.529 255.51 255.912 254.032C258.807 243.672 261.613 233.265 264.636 222.951C265.146 221.202 265.146 221.202 266.889 221.202C267.358 221.202 267.825 221.202 268.252 221.202C268.804 221.202 268.974 221.381 268.804 221.964C268.124 224.341 267.486 226.718 266.762 229.051C263.911 238.647 261.061 248.245 258.21 257.843C257.913 258.874 257.913 258.874 258.935 258.874C274.377 258.874 289.82 258.874 305.265 258.874C320.622 258.874 335.939 258.874 351.296 258.874C352.658 258.874 352.617 259.055 352.189 257.618C348.745 246.002 345.212 234.433 341.895 222.817C341.384 221.021 341.298 221.202 343.044 221.202C343.51 221.202 343.979 221.246 344.404 221.202C345.128 221.068 345.384 221.424 345.595 222.099C347.682 229.005 349.552 236.001 351.509 242.954C352.914 248.02 354.318 253.089 355.722 258.111C355.764 258.292 355.806 258.471 355.892 258.652C355.978 258.874 356.147 258.92 356.316 258.874C356.488 258.83 356.53 258.652 356.53 258.517C356.53 258.292 356.53 258.068 356.53 257.887C356.53 246.136 356.53 234.386 356.53 222.636C356.53 222.324 356.53 222.052 356.53 221.74C356.53 221.471 356.699 221.29 356.999 221.381C358.018 221.74 359.039 221.74 360.105 221.605C360.488 221.471 360.74 221.561 360.74 222.233Z" fill="#C9E4FF"/>
<path d="M365.122 221.471C365.122 222.277 364.911 222.546 364.187 222.458C363.593 222.411 362.955 222.458 362.358 222.458C361.889 222.458 361.378 222.324 361.209 223.086C361.081 223.579 360.487 223.579 360.06 223.533C359.083 223.398 358.145 223.579 357.168 223.579C356.616 223.579 356.061 223.489 355.977 222.771C355.933 222.502 355.805 222.502 355.594 222.502C355.381 222.502 355.167 222.502 354.998 222.502C321.77 222.502 288.543 222.502 255.318 222.502C254.849 222.502 254.297 222.324 254.211 223.174C254.169 223.489 253.828 223.623 253.531 223.623C252.254 223.623 250.978 223.579 249.745 223.533C249.446 223.533 249.107 223.445 249.063 223.13C248.979 222.458 248.552 222.546 248.127 222.546C247.447 222.546 246.723 222.502 246.043 222.546C245.235 222.502 245.107 222.143 245.107 221.471C245.149 216.852 245.107 212.232 245.107 207.566C245.107 205.326 245.149 203.084 245.107 200.885C245.107 200.123 245.318 199.942 246.001 199.942C265.698 199.942 285.396 199.942 305.137 199.942C324.834 199.942 344.49 199.942 364.187 199.942C364.953 199.942 365.167 200.076 365.167 200.929C365.122 207.791 365.122 214.609 365.122 221.471ZM252.893 282.33C252.041 282.733 251.233 282.689 250.381 282.33C250.17 282.242 250 281.883 249.701 282.105C249.404 282.377 249.49 282.733 249.617 283.092C249.829 283.767 250.425 284.079 251.829 284.079C252.168 284.079 252.765 283.991 253.359 283.81C253.87 283.632 254.169 282.823 253.914 282.33C253.573 281.658 253.234 282.196 252.893 282.33ZM360.018 282.242C359.125 282.823 358.189 282.78 357.254 282.286C356.999 282.152 356.785 281.883 356.488 282.105C356.188 282.33 356.274 282.689 356.316 283.004C356.36 283.498 356.657 283.81 357.082 283.901C357.593 283.991 358.145 284.079 358.656 284.126C359.083 284.079 359.466 284.079 359.849 283.901C360.36 283.676 360.657 283.273 360.657 282.645C360.657 282.105 360.571 281.883 360.018 282.242Z" fill="#4FA5FF"/>
<path d="M304.37 219.766C304.37 220.529 304.115 220.663 303.477 220.663C294.201 220.663 284.884 220.663 275.609 220.663C266.336 220.663 257.102 220.663 247.829 220.663C247.147 220.663 246.936 220.485 246.936 219.723C246.977 213.891 246.977 208.107 246.936 202.276C246.936 201.513 247.147 201.379 247.785 201.379C266.377 201.379 284.926 201.379 303.518 201.379C304.198 201.379 304.37 201.557 304.37 202.276C304.37 208.151 304.37 213.935 304.37 219.766ZM363.037 202.41C363.037 201.604 362.826 201.423 362.102 201.423C343.723 201.423 325.302 201.423 306.924 201.423C306.158 201.423 305.902 201.604 305.902 202.456C305.944 208.194 305.944 213.982 305.902 219.723C305.902 220.441 306.072 220.663 306.796 220.663C316.027 220.619 325.258 220.663 334.492 220.663C343.681 220.663 352.871 220.663 362.06 220.663C362.782 220.663 363.037 220.529 363.037 219.676C362.996 213.935 362.996 208.151 363.037 202.41Z" fill="#C9E4FF"/>
<path d="M276.845 210.573C276.845 212.276 275.482 213.622 273.908 213.622C272.293 213.622 271.016 212.276 271.058 210.617C271.058 208.912 272.421 207.478 273.953 207.478C275.526 207.522 276.845 208.912 276.845 210.573ZM334.279 207.522C332.747 207.478 331.387 208.912 331.343 210.617C331.301 212.276 332.534 213.622 334.194 213.666C335.812 213.712 337.13 212.366 337.172 210.661C337.216 208.958 335.895 207.522 334.279 207.522Z" fill="#4FA5FF"/>
<path d="M42.2412 246.219C40.2231 245.93 38.171 246.043 36.1313 246.043C34.9785 246.043 33.8227 246.043 32.6668 246.043L31.7953 207.83C33.22 207.82 34.6324 207.814 35.986 207.807L42.2412 246.219ZM29.6968 246.047C27.552 246.047 25.4072 246.047 23.2623 246.047C21.5904 246.05 19.8535 245.943 18.1661 246.066L24.3904 207.85C26.0376 207.85 27.8178 207.843 29.6257 207.837C29.7339 211.849 30.1975 229.224 30.7259 246.047C30.3829 246.047 30.0399 246.047 29.6968 246.047ZM45.7799 207.736C45.7799 207.736 46.262 204.692 45.7799 203.928C45.6655 203.746 43.873 203.664 41.2214 203.648C42.232 202.055 43.8236 189.636 44.281 184.007C45.8355 183.967 46.8152 183.88 46.9234 183.73C47.5662 182.829 48.8488 175.854 47.5662 175.405C47.2324 175.288 44.7384 175.204 41.2245 175.139C44.0214 172.706 46.2898 170.153 44.998 169.106C42.2165 166.856 37.7229 172.93 37.7229 172.93C37.7229 172.93 56.3402 143.234 48.4223 139.634C40.7887 136.164 35.9428 156.105 35.5997 157.546C35.8531 156.45 38.4121 145.045 35.1516 145.26C31.7273 145.484 31.3008 160.333 31.3008 160.333C31.3008 160.333 30.2315 119.836 21.0279 123.436C11.8274 127.036 24.6654 167.308 24.6654 167.308C24.6654 167.308 17.1771 149.533 13.11 155.159C9.87727 159.63 17.7396 170.648 21.0959 174.973C16.2468 174.956 12.6835 174.956 12.6835 174.956C12.6835 174.956 13.11 182.381 13.7528 182.829C13.8393 182.891 14.5038 182.969 15.5793 183.054C15.5855 183.106 15.5947 183.155 15.6009 183.207C15.6535 183.594 15.7122 184.016 15.774 184.465C16.6702 191.031 18.4689 203.645 19.1025 203.977C19.1581 204.006 19.2972 204.038 19.5073 204.068C17.2544 204.136 15.7585 204.185 15.5978 204.185C15.5978 204.185 15.842 207.482 16.083 207.736C16.151 207.811 18.6729 207.843 22.2208 207.846C20.895 216.139 10.5757 280.858 11.2526 281.096C11.9788 281.35 12.461 281.096 12.461 281.096L17.9281 247.52C19.6897 247.673 21.5131 247.552 23.2623 247.552C25.4072 247.556 27.552 247.556 29.6968 247.556C30.0553 247.556 30.4138 247.556 30.7723 247.556C31.3193 264.778 31.922 280.976 32.2588 281.096C32.9851 281.35 33.4672 281.096 33.4672 281.096L32.7008 247.556C33.8474 247.559 34.9878 247.559 36.1313 247.559C38.2328 247.559 40.3498 247.682 42.4267 247.357L47.9216 281.096C47.9216 281.096 48.4068 281.35 49.13 281.096C49.8099 280.855 39.4412 215.856 38.1525 207.791C42.5163 207.765 45.7799 207.736 45.7799 207.736Z" fill="#C9E4FF"/>
<path d="M82.3806 70.5543C82.5135 70.2844 88.132 70.369 93.0954 70.4958C95.8367 70.5641 98.3771 70.6487 99.6752 70.6909L99.8235 76.7818C98.8005 76.785 96.7762 76.7915 94.4584 76.7915C89.3528 76.7915 82.838 76.759 82.5598 76.6094C82.1024 76.3623 82.1457 71.0356 82.3806 70.5543ZM107.797 61.5953C110.05 68.9772 112.257 76.3785 114.386 83.7994C114.571 84.4465 113.623 84.7165 113.431 84.0758C111.203 76.6875 109.049 69.2698 106.941 61.8424C106.777 61.2636 107.624 61.0262 107.797 61.5953ZM117.198 84.0986L111.469 64.6456C111.32 64.0342 113.62 63.7773 113.783 64.3855L119.621 83.8059C119.841 84.4856 117.433 84.749 117.198 84.0986ZM122.879 84.0758C121.355 77.8321 120.252 71.4519 118.979 65.1464C118.852 64.5058 120.873 63.966 121.009 64.6131C122.319 70.9088 123.902 77.4647 124.962 83.8157C125.064 84.427 123.03 84.7002 122.879 84.0758ZM125.611 68.2715C125.493 67.6211 127.385 67.3382 127.505 67.9951C128.473 73.2209 129.477 78.4403 130.389 83.6758C130.506 84.3425 128.602 84.6319 128.473 83.9588C127.471 78.7427 126.56 73.5006 125.611 68.2715ZM131.208 74.216C130.478 71.1397 129.653 68.0081 129.233 64.8667C129.091 63.8099 130.417 63.6505 130.679 64.6131C131.517 67.6699 134.818 80.0695 135.507 83.1718C135.649 83.8027 133.856 84.0368 133.652 83.4352C132.633 80.4434 131.94 77.2956 131.208 74.216ZM136.156 64.0245C136.038 63.3221 138.001 63.0164 138.124 63.7253C139.293 70.4145 140.683 77.0419 142.012 83.6954C142.139 84.3327 140.291 84.6059 140.133 83.9653C138.517 77.3996 137.284 70.7007 136.156 64.0245ZM145.27 83.4645C143.888 76.9866 142.476 70.5153 141.172 64.0212C141.029 63.3123 143.233 63.0066 143.391 63.7221C144.806 70.1901 146.12 76.6842 147.461 83.1685C147.603 83.8612 145.418 84.1571 145.27 83.4645ZM58.9204 89.861H156.63V85.4286H152.424C151.568 81.0028 147.829 61.94 146.806 61.6701C145.647 61.3644 130.868 61.0587 130.577 61.3644C130.287 61.6701 130.287 63.4977 130.287 63.4977L112.903 63.192L111.741 61.0587C111.741 61.0587 92.6164 60.4506 91.748 61.3644C91.5965 61.5238 91.6491 61.7839 91.8376 63.1042C83.5364 62.9188 65.7536 62.766 65.6299 63.0261C65.4631 63.3839 65.4631 64.3464 65.4631 64.3464C65.4631 64.3464 68.603 64.3399 69.0233 64.3302C71.6997 64.2619 81.5554 64.0407 81.7038 64.3464C81.8706 64.7009 81.8706 68.6097 81.5338 68.7853C81.2371 68.9414 71.2794 68.8243 68.8781 68.7918C68.5474 68.7886 65.4631 68.7853 65.4631 68.7853L65.3796 70.1999L68.773 70.1869C67.2803 70.8633 68.1147 76.5314 68.2414 77.3476C65.8834 77.3736 64.3999 77.4289 64.3566 77.5232C64.1249 78.0077 64.1249 79.1004 64.1249 79.1004C64.1249 79.1004 64.4586 79.0906 65.0335 79.0776C68.6803 78.9866 82.1302 78.6809 82.328 79.1004C82.5598 79.5849 82.5598 84.3035 82.0963 84.5474C81.6914 84.7587 68.1085 84.5961 64.8326 84.5539C64.3845 84.5506 64.1249 84.5474 64.1249 84.5474L64.1681 85.4286H58.9204V89.861Z" fill="#C9E4FF"/>
<path d="M62.7489 97.9672C62.7489 97.1412 66.5688 97.1412 66.5688 97.9672V121.27C66.5688 122.096 62.7489 122.1 62.7489 121.27V97.9672ZM70.3423 98.6631C70.3516 97.8371 71.5724 97.8338 71.5662 98.6631C71.5291 102.809 72.4439 106.858 73.266 110.887C73.6121 112.588 73.949 114.289 74.156 116.015C74.3724 117.827 74.5331 119.674 75.1296 121.397C75.3984 122.178 74.2178 122.513 73.949 121.739C73.4019 120.149 73.2196 118.454 73.0218 116.786C72.7838 114.763 72.4037 112.78 71.9958 110.789C71.1799 106.796 70.3083 102.77 70.3423 98.6631ZM78.9494 120.848C77.5556 114.279 75.1234 108.012 73.8563 101.411C73.7017 100.604 75.8218 100.257 75.9794 101.07C77.2466 107.671 79.6757 113.941 81.0726 120.506C81.2426 121.313 79.1194 121.654 78.9494 120.848ZM80.2011 112.211C79.243 108.581 78.3993 104.91 77.3455 101.313C77.1137 100.52 78.2942 100.182 78.526 100.969C79.481 104.237 80.2506 107.577 81.1159 110.871C81.666 112.952 82.2161 115.037 82.7971 117.108C83.0011 117.843 83.2113 118.581 83.44 119.313C83.5111 119.544 83.6409 119.81 83.681 120.051C83.6841 120.08 83.6903 120.106 83.6996 120.126C83.7398 120.152 83.7645 120.178 83.7707 120.197C84.1261 120.549 83.7923 121.391 83.1495 121.296C82.417 121.189 82.1049 119.157 81.9503 118.623C81.3322 116.497 80.7667 114.354 80.2011 112.211ZM87.3433 121.342C85.3715 114.841 84.4135 108.077 83.1 101.411C82.9393 100.604 84.1199 100.257 84.2775 101.07C85.5941 107.736 86.5521 114.497 88.5239 121.001C88.7619 121.791 87.5813 122.129 87.3433 121.342ZM91.9173 103.252C92.9588 108.955 93.7314 114.715 94.844 120.405C95.0016 121.212 90.5173 121.56 90.3597 120.747C89.2502 115.056 88.4744 109.3 87.436 103.593C87.2908 102.783 91.7689 102.439 91.9173 103.252ZM107.796 99.7882C110.049 107.17 112.256 114.571 114.385 121.992C114.571 122.639 113.622 122.909 113.43 122.272C111.202 114.88 109.048 107.463 106.94 100.035C106.777 99.4566 107.623 99.2192 107.796 99.7882ZM117.198 122.292L111.468 102.839C111.32 102.227 113.619 101.97 113.783 102.578L119.621 121.999C119.84 122.679 117.433 122.942 117.198 122.292ZM122.878 122.269C121.355 116.025 120.251 109.645 118.978 103.339C118.851 102.695 120.872 102.159 121.008 102.806C122.319 109.102 123.901 115.658 124.961 122.005C125.063 122.62 123.03 122.893 122.878 122.269ZM125.61 106.464C125.493 105.811 127.384 105.531 127.505 106.188C128.472 111.414 129.476 116.633 130.388 121.869C130.506 122.535 128.602 122.825 128.472 122.152C127.471 116.932 126.559 111.694 125.61 106.464ZM131.207 112.409C130.478 109.329 129.653 106.201 129.232 103.06C129.09 102.006 130.416 101.843 130.679 102.806C131.516 105.863 134.817 118.262 135.506 121.365C135.648 121.992 133.856 122.226 133.652 121.628C132.632 118.636 131.94 115.489 131.207 112.409ZM136.155 102.217C136.038 101.515 138 101.209 138.124 101.922C139.292 108.607 140.683 115.235 142.012 121.888C142.138 122.526 140.29 122.799 140.133 122.158C138.516 115.589 137.283 108.894 136.155 102.217ZM145.269 121.657C143.888 115.18 142.475 108.708 141.171 102.214C141.029 101.505 143.232 101.2 143.39 101.915C144.805 108.383 146.119 114.877 147.46 121.361C147.602 122.054 145.417 122.35 145.269 121.657ZM58.8023 117.547C58.8579 119.573 58.929 121.599 59.0156 123.622H58.9197V128.054H156.63V123.622H152.424C151.567 119.196 147.828 100.13 146.805 99.863C145.646 99.5574 130.867 99.2517 130.577 99.5574C130.286 99.863 130.286 101.691 130.286 101.691L112.902 101.385L111.74 99.2517C111.74 99.2517 92.6157 98.6436 91.7473 99.5574C91.5959 99.7167 91.6484 99.9769 91.8369 101.297C90.1711 101.261 88.1221 101.226 85.9093 101.193C85.8815 100.793 85.7795 100.409 85.5879 99.9996C85.523 99.8565 85.3499 99.7622 85.2047 99.7687C81.2488 99.8663 77.296 99.9086 73.3401 99.798C73.2752 98.9753 73.1362 98.1851 72.8982 97.3818C72.8333 97.1542 72.6602 97.0469 72.447 97.0176C67.9379 96.4453 63.4134 96.0225 58.8796 95.7559C58.6354 95.7396 58.3974 95.9933 58.4098 96.2502L58.5211 98.7541C58.1564 104.972 58.3356 111.294 58.8023 117.547Z" fill="#C9E4FF"/>
<path d="M67.7035 139.387C67.7035 138.558 69.1622 138.558 69.1622 139.387V162.69C69.1622 163.516 67.7035 163.516 67.7035 162.69V139.387ZM63.6951 139.387C63.6951 138.558 65.1538 138.558 65.1538 139.387V162.69C65.1538 163.516 63.6951 163.516 63.6951 162.69V139.387ZM71.2885 140.08C71.2947 139.254 72.5185 139.251 72.5123 140.08C72.4752 144.226 73.39 148.275 74.209 152.304C74.5552 154.008 74.8951 155.705 75.0991 157.435C75.3154 159.243 75.4761 161.09 76.0726 162.814C76.3415 163.594 75.1609 163.929 74.8951 163.159C74.345 161.569 74.1627 159.871 73.9649 158.203C73.7269 156.18 73.3468 154.196 72.9388 152.206C72.1229 148.213 71.2514 144.187 71.2885 140.08ZM79.8925 162.264C78.4987 155.699 76.0664 149.429 74.7993 142.828C74.6448 142.021 76.7649 141.677 76.9225 142.486C78.1896 149.088 80.6219 155.357 82.0157 161.923C82.1888 162.729 80.0656 163.074 79.8925 162.264ZM81.1442 153.627C80.1861 150.001 79.3424 146.327 78.2885 142.73C78.0567 141.937 82.5411 142.093 82.7729 142.883C83.7278 146.151 84.4974 149.491 85.3627 152.785C85.9097 154.866 86.463 156.948 87.044 159.022C87.2479 159.757 87.4581 160.495 87.6837 161.224C87.7579 161.458 88.0082 162.092 88.0175 162.112C88.3729 162.463 84.7354 162.808 84.0925 162.713C83.3632 162.606 83.051 160.577 82.8965 160.04C82.2753 157.913 81.7097 155.77 81.1442 153.627ZM92.8634 144.668C93.9018 150.375 94.6776 156.131 95.7871 161.822C95.9447 162.632 91.4634 162.977 91.3058 162.167C90.1963 156.473 89.4206 150.717 88.3822 145.01C88.2338 144.203 92.7151 143.855 92.8634 144.668ZM103.55 141.205C105.803 148.587 108.01 155.988 110.139 163.412C110.325 164.056 109.376 164.326 109.184 163.689C106.956 156.3 104.802 148.883 102.697 141.452C102.531 140.877 103.377 140.636 103.55 141.205ZM114.367 163.712L108.637 144.259C108.489 143.647 110.788 143.39 110.952 143.998L116.79 163.419C117.007 164.099 114.602 164.362 114.367 163.712ZM123.821 163.689C122.298 157.442 121.194 151.062 119.924 144.756C119.794 144.115 121.819 143.579 121.951 144.223C123.265 150.522 124.844 157.074 125.904 163.425C126.006 164.037 123.973 164.31 123.821 163.689ZM132.153 153.826C131.424 150.749 130.596 147.621 130.175 144.476C130.036 143.423 131.359 143.26 131.625 144.223C132.462 147.28 135.763 159.679 136.452 162.781C136.591 163.412 134.799 163.646 134.595 163.048C133.578 160.056 132.883 156.905 132.153 153.826ZM138.044 143.634C137.923 142.932 138.946 142.629 139.07 143.338C140.235 150.024 141.629 156.652 142.955 163.305C143.081 163.942 142.179 164.216 142.021 163.578C140.405 157.009 139.172 150.314 138.044 143.634ZM146.212 163.074C144.831 156.6 143.421 150.125 142.114 143.634C141.972 142.922 146.537 143.114 146.691 143.829C148.11 150.297 149.423 156.791 150.764 163.276C150.907 163.968 146.36 163.77 146.212 163.074ZM59.7454 158.964C59.801 160.993 59.8721 163.019 59.9617 165.042H59.8628V169.471H157.573V165.042H153.37C152.514 160.616 148.774 141.55 147.748 141.28C146.589 140.974 131.81 140.672 131.52 140.974C131.229 141.28 131.229 143.107 131.229 143.107L113.845 142.802L112.686 140.672C112.686 140.672 93.5619 140.06 92.6904 140.974C92.5389 141.137 92.5915 141.394 92.78 142.717C91.1142 142.678 89.0652 142.642 86.8554 142.61C86.8245 142.21 86.7226 141.826 86.534 141.416C86.466 141.273 86.2961 141.182 86.1508 141.185C82.1918 141.283 78.2391 141.325 74.2832 141.218C74.2183 140.392 74.0792 139.602 73.8413 138.799C73.7763 138.571 73.6064 138.464 73.39 138.434C68.881 137.862 64.3564 137.443 59.8226 137.173C59.5785 137.16 59.3436 137.41 59.3529 137.667L59.4641 140.171C59.0994 146.392 59.2818 152.71 59.7454 158.964Z" fill="#C9E4FF"/>
<path d="M154.305 58.7255V58.2255H153.805H60.3815H59.8815V58.7255V253.125V253.625H60.3815H153.805H154.305V253.125V58.7255ZM44.1309 55.2582H157.079V283.876H44.1309V55.2582Z" fill="white" stroke="#C9E4FF"/>
<path d="M204.256 283.465C201.212 265.239 195.766 255.569 195.53 255.158L192.299 257.578C192.35 257.668 197.405 266.7 200.323 283.465H204.256Z" fill="#493333"/>
<path d="M224.183 283.465C220.603 264.403 213.39 252.518 213.08 252.013L209.238 254.438C209.308 254.55 216.105 265.776 219.576 283.465H224.183Z" fill="#493333"/>
<path d="M75.7241 283.465C78.7676 264.564 84.215 254.536 84.4513 254.11L87.6806 256.619C87.627 256.713 82.5735 266.079 79.6592 283.465H75.7241Z" fill="#493333"/>
<path d="M54.8008 284.513C58.3815 266.087 65.5947 254.598 65.9044 254.11L69.7464 256.454C69.6735 256.562 62.8795 267.414 59.4081 284.513H54.8008Z" fill="#493333"/>
<path d="M233.328 251.453C230.661 262.197 221.553 262.431 217.996 262.431C214.479 262.431 141.209 261.973 139.589 261.963C138.356 261.97 94.4955 262.239 72.219 262.366C65.3024 262.405 60.4626 262.431 59.6313 262.431C56.9549 262.431 51.1292 262.298 47.2754 257.648C46.0113 256.123 44.9606 254.106 44.2992 251.453C44.1879 250.998 25.858 161.053 38.523 154.747C53.5306 147.274 138.511 149.84 139.178 152.643C139.231 152.868 139.969 152.868 140.007 152.643C140.374 150.438 184.454 148.728 214.377 150.725C219.034 151.033 223.349 151.433 227.104 151.938C232.456 152.656 236.669 153.576 239.104 154.747C254.217 161.989 233.439 250.998 233.328 251.453Z" fill="#F7CDA3"/>
<path d="M209.413 244.078C199.684 243.971 189.949 244.062 180.22 244.062C170.488 244.062 160.756 244.062 151.027 244.062C131.665 244.065 112.299 244.065 92.9372 244.065C85.4304 244.065 77.9235 244.052 70.4166 244.062C70.2899 244.062 70.1879 244.172 70.191 244.306V244.309C70.1941 244.436 70.2961 244.54 70.4166 244.54C86.4626 244.582 102.512 244.527 118.555 244.527C137.92 244.527 157.282 244.527 176.644 244.527C187.566 244.527 198.494 244.631 209.413 244.511C209.679 244.507 209.679 244.081 209.413 244.078Z" fill="#BC7551"/>
<path d="M66.1893 219.674C66.2048 218.897 65.0582 218.897 65.0366 219.674C64.8171 227.801 64.8604 254.893 65.018 260.076C65.0458 260.935 66.3068 260.938 66.2882 260.076C66.177 254.893 66.0193 227.804 66.1893 219.674Z" fill="#BC7551"/>
<path d="M50.9929 166.779C48.369 166.783 48.5174 169.96 48.3165 171.924C48.1125 173.94 47.4388 175.856 47.1297 177.849C46.8176 179.875 46.9566 181.924 47.3924 183.917C47.6922 185.283 48.1341 186.593 48.6595 187.865C48.335 187.826 48.0105 187.79 47.686 187.767C46.3478 184.33 45.6463 180.698 46.4096 176.906C46.7619 175.137 47.3028 173.413 47.4604 171.605C47.5902 170.096 47.5469 168.5 48.4154 167.205C49.052 166.249 49.9884 165.833 51.0825 165.862C52.7359 165.905 54.3894 166.158 56.0428 166.246C59.9987 166.454 80.4116 166.08 84.2871 165.157C84.7723 165.04 84.8928 165.833 84.4138 165.957C80.6805 166.919 60.3942 167.355 56.5651 167.189C54.7139 167.111 52.841 166.776 50.9929 166.779Z" fill="#BC7551"/>
<path d="M51.5984 167.974C55.0443 168.855 57.866 171.199 60.4589 173.638C61.7415 174.845 63.1384 176.051 64.0717 177.593C64.4859 178.276 64.7918 179.03 64.9062 179.837C65.0607 180.919 64.8011 182.002 64.8166 183.088C64.8598 186.21 67.1252 188.63 68.8528 190.929C69.7305 192.093 70.5711 193.316 71.112 194.698C71.7795 196.405 71.7455 198.194 71.6003 199.998C71.5045 201.221 71.4025 202.444 71.5199 203.67C71.6373 204.867 71.9124 206.034 72.2122 207.188C72.7808 209.38 73.4917 211.598 73.3619 213.897C73.3464 214.122 73.0219 214.161 73.0157 213.92C72.9261 209.914 70.9543 206.242 71.0254 202.226C71.0594 200.184 71.5199 198.103 71.0718 196.077C70.7535 194.62 70.0055 193.322 69.1711 192.126C67.5764 189.839 65.4192 187.742 64.6466 184.939C64.4611 184.279 64.3684 183.593 64.3777 182.9C64.3932 181.84 64.6311 180.773 64.4395 179.716C64.0996 177.827 62.6779 176.393 61.3892 175.144C58.5026 172.347 55.4275 169.411 51.518 168.39C51.2677 168.325 51.345 167.909 51.5984 167.974Z" fill="#BC7551"/>
<path d="M226.847 168.463C229.468 168.567 229.211 171.738 229.341 173.708C229.471 175.731 230.077 177.669 230.315 179.676C230.556 181.711 230.349 183.754 229.842 185.728C229.493 187.084 229.007 188.375 228.436 189.627C228.76 189.597 229.085 189.578 229.412 189.565C230.871 186.183 231.699 182.58 231.072 178.762C230.781 176.98 230.299 175.237 230.207 173.426C230.129 171.91 230.228 170.317 229.409 168.987C228.803 168.008 227.886 167.556 226.788 167.54C225.135 167.52 223.472 167.709 221.819 167.731C217.86 167.787 213.895 167.494 210.056 166.421C209.574 166.284 209.429 167.071 209.902 167.214C213.598 168.32 217.43 168.674 221.266 168.658C223.114 168.648 225.002 168.388 226.847 168.463Z" fill="#BC7551"/>
<path d="M193.849 170.391C191.235 170.336 188.521 171.39 186.586 173.253C184.414 175.347 185.653 178.29 186.565 180.765C187.702 183.857 189.192 186.885 189.566 190.218C189.961 193.734 189.241 197.265 189.578 200.787C189.634 201.356 190.484 201.369 190.437 200.787C190.181 197.698 190.666 194.625 190.542 191.532C190.431 188.713 189.587 186.111 188.571 183.526C188.079 182.277 187.563 181.038 187.118 179.77C186.645 178.42 185.823 176.508 186.311 175.094C186.766 173.776 188.342 172.837 189.476 172.264C190.864 171.565 192.322 171.259 193.849 171.168C194.322 171.139 194.331 170.401 193.849 170.391Z" fill="#BC7551"/>
<path d="M139.528 163.578C139.469 160.586 139.469 157.594 139.559 154.603C139.568 154.333 139.178 154.336 139.166 154.603C138.736 165.119 139.716 175.623 139.883 186.133C139.933 189.125 139.911 192.12 139.79 195.109C139.778 195.404 140.214 195.401 140.226 195.109C140.69 184.592 139.741 174.085 139.528 163.578Z" fill="#BC7551"/>
<path d="M238.682 189.62C233.462 188.101 227.711 188.349 222.837 190.963C218.467 193.301 215.098 197.418 213.785 202.407C213.031 205.268 212.886 208.273 212.876 211.229C212.864 214.536 212.938 217.85 212.975 221.157C213.056 227.869 213.111 234.584 213.235 241.296C213.337 246.89 213.522 252.48 213.949 258.053C213.977 258.395 214.252 258.658 214.579 258.649H214.592C214.938 258.639 215.21 258.323 215.185 257.959C214.471 247.338 214.474 236.672 214.357 226.032C214.289 219.947 213.906 213.756 214.313 207.681C214.687 202.114 216.696 197.083 221.076 193.734C226.073 189.909 232.476 189.327 238.333 190.953C239.155 191.181 239.501 189.857 238.682 189.62Z" fill="#BC7551"/>
<path d="M107.877 228.357C105.983 228.406 104.091 228.604 102.2 228.754C101.733 228.793 101.727 229.632 102.2 229.596C104.091 229.466 105.992 229.381 107.877 229.154C108.31 229.099 108.332 228.344 107.877 228.357Z" fill="#BC7551"/>
<path d="M93.4532 235.379C88.0633 232.452 82.2593 230.387 76.3317 229.067C75.8403 228.959 75.627 229.75 76.1215 229.863C82.0059 231.21 87.6306 233.356 93.0483 236.107C93.5119 236.344 93.9198 235.629 93.4532 235.379Z" fill="#BC7551"/>
<path d="M109.623 159.183C109.623 159.183 98.738 174.6 96.7354 175.068C94.7358 175.537 89.1821 161.052 89.1821 161.052C89.1821 161.052 92.1429 160.135 92.9742 159.44C93.0824 159.352 93.0308 159.359 93.1608 159.229C93.6385 158.751 94.1788 158.597 94.1572 158.18C94.1046 157.182 93.659 155.035 93.659 155.035L101.402 146.572C101.402 146.572 103.402 155.914 104.292 156.614C105.182 157.316 109.623 159.183 109.623 159.183Z" fill="#E88B72"/>
<path d="M78.582 143.045C78.3205 142.74 78.1409 142.413 78.0707 142.061C77.977 141.574 78.1097 141.068 77.938 140.593C77.6453 139.772 76.486 139.081 76.7632 138.256C76.9232 137.776 77.5438 137.454 78.1605 137.255C78.9567 137.002 80.0925 136.794 80.6897 136.308C81.0409 136.024 81.0019 135.592 81.1502 135.222C81.3766 134.659 82.0753 134.235 82.852 134.082C83.6326 133.931 84.4718 134.022 85.2211 134.244C85.7364 134.395 86.3765 134.596 86.7902 134.323C86.9424 134.224 87.0205 134.076 87.1102 133.94C87.4342 133.414 87.9572 132.936 88.6676 132.677C89.3779 132.421 90.2874 132.421 90.9275 132.76C91.7003 133.172 92.6643 133.431 93.5699 133.652C93.7065 133.687 93.8548 133.718 93.9992 133.695C94.1553 133.667 94.2724 133.576 94.4051 133.51C95.0218 133.2 95.8961 133.47 96.4074 133.871C96.9187 134.269 97.2466 134.787 97.8164 135.142C98.3199 135.458 98.9795 135.62 99.4791 135.941C100.268 136.445 100.529 137.244 100.724 137.994C101.056 139.291 101.302 140.602 101.462 141.913C101.552 142.649 101.872 143.932 101.286 144.589C100.728 145.214 99.565 145.459 98.6673 145.686C98.0545 145.84 97.43 145.968 96.7899 146.042C95.5253 146.184 94.2373 146.113 92.9649 146.042C90.6308 145.911 88.2968 145.78 85.9862 145.513C84.8035 145.376 83.6209 145.208 82.4656 144.978C81.0761 144.699 79.4173 144.014 78.582 143.045Z" fill="#08294A"/>
<path d="M86.6952 142.467C86.643 142.803 86.7968 143.261 86.8578 143.581C86.9478 144.028 87.0407 144.475 87.1366 144.92C87.3979 146.093 87.6941 147.264 88.0425 148.419C88.4345 149.715 88.8874 151.007 89.503 152.23C89.9589 153.135 90.5367 154.154 91.4571 154.726C94.5872 156.675 99.3723 154.948 100.85 152.197C102.102 149.861 102.102 145.771 102.102 145.771C102.102 145.771 103.98 144.993 103.562 143.047C103.365 142.128 102.97 140.933 101.994 140.494C101.66 140.342 101.216 140.307 100.891 140.513C100.444 140.8 100.31 141.759 100.159 142.236C100.092 142.445 100.052 143.375 99.6772 143.264C99.5494 143.223 99.4652 143.112 99.4014 143.001C98.9281 142.215 98.8903 141.236 98.3415 140.496C98.2544 140.377 98.1499 140.263 98.0163 140.19C97.7666 140.054 97.4676 140.06 97.1714 140.065C96.9652 140.068 96.7591 140.073 96.5704 140.027C95.7341 139.832 94.9008 139.64 94.2736 140.223C93.7626 140.7 93.176 141.461 92.4182 141.597C92.0495 141.659 91.6952 141.51 91.341 141.361C90.9838 141.209 90.6238 141.057 90.2463 141.128C90.0315 141.168 89.8456 141.29 89.6453 141.372C89.2678 141.526 88.7713 141.551 88.3938 141.374C88.1238 141.25 87.9292 140.957 87.5866 141.03C87.4356 141.063 87.366 141.22 87.3108 141.356C87.1801 141.673 87.0059 141.976 86.7939 142.253C86.7591 142.296 86.7243 142.342 86.7097 142.394C86.7039 142.418 86.6981 142.442 86.6952 142.467Z" fill="#E88B72"/>
<path d="M89.9617 160.467C89.9617 160.467 94.8478 173.316 97.2924 172.617C99.737 171.914 103.736 163.505 105.071 161.638C106.403 159.768 107.958 158.133 108.18 158.133C108.403 158.133 110.094 158.144 113.203 159.545C116.315 160.947 116.545 160.72 117.654 162.356C118.767 163.988 131.069 179.859 134.845 184.528C138.622 189.201 133.288 204.15 133.288 204.15L85.8482 205.903C85.8482 205.903 86.7383 194.222 86.5158 191.653C86.2932 189.084 82.6279 183.127 82.6279 183.127C82.6279 183.127 80.1833 186.164 78.1837 185.93C76.1841 185.696 74.6296 186.164 73.7395 187.097C72.8495 188.034 70.6305 190.369 67.9633 190.837C65.2962 191.302 50.6317 188.499 50.6317 188.499C50.6317 188.499 49.5191 186.398 49.9672 184.294C50.4092 182.194 52.1862 182.194 53.5213 179.859C54.8533 177.521 58.8525 177.755 63.7417 174.483C68.6309 171.215 81.8131 163.17 84.9222 161.768C88.0343 160.367 89.5167 160.237 89.9617 160.467Z" fill="#4FA5FF"/>
<path d="M52.9647 189.314C52.9647 189.314 51.4102 186.979 53.8548 184.41C56.2963 181.841 61.371 180.648 61.9458 181.012C62.5175 181.373 62.2981 189.548 62.2981 189.548L56.5188 190.251L52.9647 189.314Z" fill="#1A1A1A"/>
<path d="M65.2774 196.56C64.6346 194.482 62.8328 190.911 57.854 188.85C50.5202 185.812 41.6318 190.017 41.6318 190.017L43.9466 196.56H65.2774Z" fill="#F7CDA3"/>
<path d="M55.6975 188.001C50.0295 186.915 44.2131 187.737 39.0148 190.209C38.3318 190.534 38.885 191.562 39.568 191.249C44.5716 188.98 50.0666 188.375 55.4812 189.246C56.1827 189.36 56.4021 188.137 55.6975 188.001Z" fill="#BC7551"/>
<path d="M61.7232 190.543C61.2071 189.968 60.3912 190.833 60.898 191.412C63.4941 194.368 64.9497 198.137 65.2062 202.143C65.2557 202.956 66.4517 202.972 66.4239 202.143C66.2755 197.792 64.5572 193.698 61.7232 190.543Z" fill="#BC7551"/>
<path d="M97.9717 193.695C97.9717 193.695 100.537 191.675 101.646 191.61C102.756 191.545 105.411 192.446 106.906 192.768C108.399 193.09 107.756 197.805 107.756 197.805L99.7951 198.735L97.9717 193.695Z" fill="#E88B72"/>
<path d="M60.2988 200.527L60.9633 198.661H78.74C78.74 198.661 80.072 194.921 84.2937 193.988C87.8014 193.214 91.6275 193.289 95.8491 190.017L97.6262 193.523L76.7404 203.799L60.2988 200.527Z" fill="white"/>
<path d="M103.959 203.682L100.028 205.061L97.9541 205.786L84.6277 210.456L70.0065 207.354L62.6294 205.786C62.6294 205.786 61.832 204.778 60.9636 203.617L60.945 203.591C59.7675 202.02 58.4726 200.18 58.8527 200.18C59.5203 200.18 76.6294 199.946 77.297 199.946C77.9615 199.946 79.961 199.477 79.961 199.477C79.961 199.477 97.5152 191.536 97.9602 191.536C98.3126 191.536 101.873 199.159 103.335 202.329C103.718 203.159 103.959 203.682 103.959 203.682Z" fill="#005BBA"/>
<path d="M86.0826 214.052C84.2499 209.59 82.2875 205.164 80.257 200.804C80.0499 200.365 79.4627 200.748 79.642 201.181C81.4808 205.636 83.4093 210.081 85.4491 214.439C85.6592 214.891 86.265 214.497 86.0826 214.052Z" fill="#4FA5FF"/>
<path d="M83.1346 214.605C82.2445 212.371 81.1721 210.205 80.1739 208.02C79.1478 205.779 78.1187 203.536 77.0895 201.298C76.9813 201.067 76.6599 201.269 76.7619 201.497C77.7602 203.711 78.7615 205.923 79.7659 208.137C80.7672 210.342 81.7068 212.599 82.8132 214.748C82.9059 214.927 83.2149 214.8 83.1346 214.605Z" fill="#4FA5FF"/>
<path d="M79.1853 199.128C79.1853 199.128 67.6298 188.615 67.1848 188.849C66.7429 189.083 71.4065 199.359 71.4065 199.359L79.1853 199.128Z" fill="white"/>
<path d="M99.2454 194.253C98.1668 194.712 97.1438 195.304 96.2043 196.016C95.8705 196.27 95.512 196.614 95.546 197.047C95.5676 197.336 95.7716 197.613 95.6974 197.892C95.6604 198.035 95.5553 198.146 95.4564 198.253C95.2555 198.471 95.0577 198.702 94.9526 198.982C94.8445 199.265 94.8445 199.606 95.0144 199.85C95.4626 200.484 96.5875 200.003 97.0696 200.608C97.3509 200.959 97.2767 201.551 97.6136 201.843C97.9041 202.094 98.3398 201.993 98.686 202.143C99.2237 202.373 99.3875 203.118 99.882 203.44C100.132 203.606 100.441 203.642 100.738 203.642C101.761 203.655 109.064 202.965 111.567 202.494C111.567 202.494 111.777 193.827 109.274 192.803C109.274 192.803 102.818 192.712 101.94 192.995C101.066 193.281 99.2454 194.253 99.2454 194.253Z" fill="#E88B72"/>
<path d="M103.473 195.199C100.966 195.508 98.5372 196.221 96.2471 197.329C95.8206 197.538 96.0307 198.269 96.4851 198.074C98.7566 197.099 101.087 196.429 103.516 196.064C104.038 195.99 104.004 195.131 103.473 195.199Z" fill="#DB7963"/>
<path d="M104.1 198.489C101.884 198.72 99.6129 199.194 97.4774 199.855C97.1003 199.968 97.2085 200.651 97.6072 200.577C99.82 200.17 102.042 199.744 104.243 199.273C104.666 199.181 104.524 198.447 104.1 198.489Z" fill="#DB7963"/>
<path d="M103.876 192.946C103.041 192.897 102.17 192.654 101.341 192.826C100.519 192.992 99.6849 193.376 98.9184 193.717C98.4734 193.915 98.6835 194.598 99.1564 194.468C100.071 194.211 101.02 193.684 101.975 193.691C102.689 193.694 103.319 193.964 104.018 193.727C104.454 193.577 104.284 192.969 103.876 192.946Z" fill="#DB7963"/>
<path d="M60.6291 181.026C60.6291 181.026 57.075 182.427 55.9624 184.06C54.8529 185.696 54.6365 188.642 55.1897 189.269C55.7429 189.9 56.6299 192.703 57.2975 193.172C57.965 193.637 60.4096 193.406 60.4096 193.172C60.4096 193.172 61.7416 193.637 62.4061 193.406C63.0737 193.172 63.5187 192.703 63.5187 192.703C63.5187 192.703 64.6313 192.938 65.5183 193.172C66.4083 193.406 68.1854 193.637 68.4079 192.938C68.4079 192.938 69.7399 192.238 69.7399 191.536C69.7399 190.837 67.7404 189.9 67.7404 189.201C67.7404 188.499 68.1854 185.465 67.9629 184.996C67.7404 184.528 64.6313 183.361 63.7412 181.959C62.8511 180.558 61.5191 180.792 60.6291 181.026Z" fill="#E88B72"/>
<path d="M67.5242 188.933C67.1935 188.283 66.7052 187.743 66.3065 187.138C65.9047 186.527 65.5462 185.893 65.2156 185.239C64.9652 184.745 64.2544 185.184 64.5016 185.678C65.1476 186.972 65.9356 188.523 67.0822 189.398C67.3604 189.613 67.6663 189.21 67.5242 188.933Z" fill="#DB7963"/>
<path d="M67.3196 191.503C66.8375 191.045 66.2997 190.671 65.7373 190.326C65.0666 189.913 63.9262 189.607 63.5553 188.827C63.2587 188.202 63.2216 187.367 62.9898 186.703C62.7518 186.037 62.4397 185.416 62.0564 184.827C61.7783 184.394 61.1107 184.791 61.3827 185.24C61.9205 186.128 62.279 187.081 62.5169 188.098C62.6498 188.655 62.7085 189.266 63.067 189.724C63.4626 190.228 64.124 190.443 64.6587 190.742C65.4158 191.168 66.1081 191.692 66.8406 192.157C67.2207 192.394 67.6596 191.825 67.3196 191.503Z" fill="#DB7963"/>
<path d="M63.0178 191.79C61.8341 190.97 60.9811 189.38 60.4001 188.047C60.227 187.65 59.5688 187.933 59.7202 188.346C60.2641 189.829 61.2253 191.744 62.6067 192.531C63.0703 192.795 63.4566 192.092 63.0178 191.79Z" fill="#DB7963"/>
<path d="M60.3045 192.541C59.9645 192.125 59.5442 191.79 59.2043 191.367C58.8489 190.928 58.5676 190.437 58.3358 189.916C58.1195 189.438 57.4581 189.855 57.6621 190.329C58.1071 191.36 58.8705 192.629 59.8965 193.1C60.2427 193.259 60.5672 192.859 60.3045 192.541Z" fill="#DB7963"/>
<path d="M150.063 225.524C150.063 225.524 145.514 225.196 137.834 223.625C132.589 222.555 125.889 220.91 118.178 218.399C115.183 217.421 111.886 216.985 108.777 216.861C104.441 216.682 100.473 217.108 98.1887 217.502C98.0249 217.531 97.8704 217.557 97.7251 217.583C96.7609 217.759 96.2077 217.889 96.2077 217.889C96.2077 217.889 64.5205 213.144 61.1858 213.844C57.8543 214.546 55.0759 216.295 53.6326 215.245C53.6326 215.245 51.633 213.609 50.0754 211.275C48.5209 208.94 46.7438 208.003 43.8542 206.371C40.9676 204.735 38.7425 202.166 40.3001 201.698C41.8546 201.229 45.6312 204.032 52.7425 205.434C59.8538 206.836 72.0738 205.668 79.627 204.969C82.937 204.66 89.3838 203.028 95.1569 202.016C100.822 201.021 106.477 199.951 109.772 199.327C110.783 199.138 111.571 198.989 112.068 198.894C113.858 198.563 121.083 199.854 128.192 201.301C129.604 201.587 131.01 201.883 132.37 202.172C136.249 202.995 139.735 203.779 141.821 204.254C143.091 204.543 143.845 204.719 143.845 204.719L149.408 223.32L150.063 225.524Z" fill="#FD9783"/>
<path d="M95.3891 211.665C94.9533 208.533 94.1528 205.405 93.8469 202.241C92.5056 202.472 91.1736 202.699 89.8817 202.911C88.627 203.119 87.4124 203.314 86.2658 203.486C83.9047 203.847 81.834 204.124 80.2949 204.267C72.7417 204.966 59.1867 205.434 52.0754 204.033C44.9671 202.631 40.523 199.594 38.9653 200.062C37.4108 200.527 39.8554 204.735 42.7451 206.368C45.6316 208.003 47.4118 209.873 48.9663 212.208C50.5208 214.543 53.1879 216.881 53.1879 216.881C54.6312 217.931 58.1884 215.831 61.52 215.128C63.7761 214.653 78.9011 216.091 88.4199 217.063C89.9528 217.223 91.3652 217.206 92.5056 217.489C94.7369 218.049 96.208 217.889 96.208 217.889C96.208 217.889 96.2266 217.886 96.2544 217.879C95.9453 215.811 95.6796 213.736 95.3891 211.665Z" fill="white"/>
<path d="M92.5044 217.49C91.3393 217.367 89.9516 217.224 88.4187 217.064C87.3989 212.603 86.7097 208.037 86.2646 203.488C87.4112 203.315 88.6258 203.12 89.8806 202.912C90.2607 206.157 90.7645 209.383 91.4011 212.586C91.7287 214.232 92.1027 215.864 92.5044 217.49Z" fill="#ECB255"/>
<path d="M107.127 201.194C105.656 201.854 103.424 203.103 101.759 202.723C100.977 202.544 101.11 202.063 100.491 201.858C99.8734 201.65 98.3219 202.635 98.016 201.711C97.8738 201.276 97.2403 201.448 97.3577 201.9C97.5277 202.573 98.0562 202.941 98.7237 202.947C99.2429 202.95 99.8425 202.521 100.312 202.898C100.566 203.103 100.597 203.344 100.949 203.49C101.814 203.858 103.094 203.578 103.968 203.36C105.211 203.051 106.391 202.511 107.55 201.955C108.048 201.718 107.615 200.973 107.127 201.194Z" fill="#DB7963"/>
<path d="M168.729 188.85L161.618 173.432L169.393 169.93L176.06 185.113L168.729 188.85Z" fill="#E88B72"/>
<path d="M188.78 204.039C187.115 205.447 185.093 206.244 183.118 207.008C180.899 207.873 178.677 208.735 176.455 209.597C176.248 209.678 176.032 209.759 175.822 209.759C175.63 209.759 175.448 209.691 175.281 209.606C174.165 209.06 173.458 207.834 173.356 206.507C173.284 205.584 173.479 204.598 173.213 203.733C172.985 202.985 172.401 202.4 171.68 202.186C171.282 202.065 170.852 202.059 170.45 201.948C169.378 201.665 168.621 200.709 168.201 199.649C167.783 198.589 167.654 197.408 167.453 196.264C167.425 196.108 167.397 195.952 167.363 195.799C167.329 195.62 167.292 195.448 167.252 195.272C166.918 193.731 166.442 192.241 165.833 190.82C165.363 189.718 170.84 183.936 171.922 183.477C173.495 182.807 176.953 181.578 177.16 182.03C177.639 183.097 178.149 184.15 178.684 185.188C178.748 185.318 178.816 185.445 178.881 185.571C179.258 186.284 179.648 186.989 180.047 187.685C182.541 192.007 185.844 196.205 190.628 197.402C190.854 197.457 191.089 197.509 191.25 197.678C191.41 197.847 191.463 198.104 191.491 198.352C191.71 200.452 190.443 202.628 188.78 204.039Z" fill="#E4F1FF"/>
<path d="M217.505 159.81C217.355 159.618 217.118 159.52 216.909 159.387C216.193 158.922 218.049 159.2 217.707 158.487C217.322 157.678 217.446 157.096 217.462 156.198C217.482 155.151 216.847 154.185 215.935 153.688C215.469 153.434 214.938 153.317 214.407 153.363C214.043 153.395 213.688 153.529 213.32 153.529C212.619 153.535 212.219 151.947 211.988 151.355C211.502 150.116 211.701 149.493 210.245 148.868C209.6 148.592 209.073 148.787 208.415 148.803C207.646 148.823 207.46 147.672 206.861 147.285C205.819 146.608 204.643 147.06 204.018 148.049C203.676 148.592 203.48 146.307 203.07 146.808C202.269 147.796 201.373 145.373 200.494 144.794C199.455 144.104 197.996 143.639 196.888 144.475C196.292 144.927 196.022 145.669 195.999 146.394C195.97 147.22 196.497 148.094 196.315 148.904C196.123 149.746 195.087 149.899 194.436 150.25C193.84 150.569 193.436 151.076 193.328 151.752C193.087 153.261 194.244 154.347 195.478 154.978C195.491 155.037 195.527 155.095 195.599 155.134C197.214 155.989 198.787 156.887 199.93 158.35C200.93 159.625 201.562 161.147 201.767 162.753C201.969 164.317 201.881 165.946 202.598 167.396C203.011 168.229 203.607 168.951 204.34 169.52C205.057 170.079 205.689 170.762 206.454 171.285C206.972 170.902 207.548 170.577 208.141 170.271C209.962 168.72 211.978 167.448 214.147 166.408C214.385 166.294 214.619 166.236 214.844 166.213C214.987 166.096 215.13 165.979 215.267 165.855C216.778 164.551 215.177 165.909 216.089 164.127C216.193 163.929 216.269 163.703 216.35 163.502C216.663 162.754 217.815 162.993 218.049 162.206C218.365 161.14 218.212 160.736 217.505 159.81Z" fill="#08294A"/>
<path d="M99.1798 217.814C99.2094 217.826 99.1531 217.801 99.1798 217.814Z" fill="#B0C0D1"/>
<path d="M98.856 217.778C98.1946 217.967 97.6414 218.533 97.2088 219.115C95.1783 221.847 92.471 223.993 89.9955 226.272C88.6789 227.489 87.3593 228.698 86.0396 229.915C85.369 230.533 84.6983 231.15 84.0277 231.768C82.3032 231.056 80.5416 230.441 78.7398 229.947C78.678 229.931 78.6224 229.928 78.5698 229.928C76.9535 229.15 75.3835 228.959 73.4952 228.832C71.5265 228.698 69.5702 228.419 67.6386 227.999C66.8227 227.82 66.0346 227.531 65.2126 227.586C64.7397 227.622 63.8218 227.469 63.4077 227.625C63.3459 227.648 63.2717 227.72 63.1883 227.837C60.8333 231.027 49.9176 267.952 48.6319 268.853L48.6072 268.869C47.6244 269.523 44.7008 269.208 39.5488 266.417C37.5493 265.335 35.2098 263.881 32.521 261.962C35.3303 251.068 38.4919 240.243 42.08 229.609C43.4336 225.593 44.8985 221.625 46.2862 217.619C47.1268 215.193 47.9798 212.744 49.3211 210.579C50.6593 208.413 52.5507 206.527 54.8871 205.73C57.0505 204.995 59.6558 205.015 61.8717 205.444C63.6179 205.779 65.3331 206.228 67.0545 206.673C68.6987 207.096 70.2656 207.701 71.8696 208.322C75.7358 209.811 79.602 211.301 83.5085 212.67C83.6599 212.725 83.8175 212.78 83.969 212.836L90.0727 216.647C92.026 217.726 96.2445 218.149 98.856 217.778Z" fill="#005BBA"/>
<path d="M48.6076 268.87C47.6249 269.524 44.7012 269.208 39.5493 266.418L40.2478 264.145C40.2478 264.145 47.6341 267.569 48.5211 268.737C48.5551 268.786 48.586 268.828 48.6076 268.87Z" fill="#1A1A1A"/>
<path d="M42.5931 265.277C41.0633 264.451 34.5237 260.562 32.5829 261.657C31.5414 265.41 29.857 271.003 28.6332 272.59C27.3846 274.216 21.3024 277.728 19.7479 278.197C18.1903 278.665 17.9678 281.702 17.9678 281.702C17.9678 281.702 41.7432 283.104 42.6333 281.468C43.5202 279.832 41.2981 276.33 40.8562 273.992C40.4452 271.836 42.3057 266.301 42.5931 265.277Z" fill="#E88B72"/>
<path d="M37.1882 282.751C37.1882 282.751 31.5974 269.935 28.1917 271.89C23.3025 274.693 14.1916 279.132 15.5236 281.935C16.1602 283.272 37.1882 282.751 37.1882 282.751Z" fill="#08294A"/>
<path d="M43.8416 281.268C34.4403 281.824 24.9462 282.374 15.5664 281.236C14.8896 281.154 14.7227 283.262 15.4026 283.353C24.8627 284.637 34.3475 284.153 43.8416 283.6C44.7441 283.544 44.7502 281.213 43.8416 281.268Z" fill="#493333"/>
<path d="M159.284 212.793C159.284 212.793 158.783 214.66 158.001 216.988C157.402 218.767 156.642 220.813 155.82 222.5C154.775 224.634 153.631 226.191 152.587 225.899C152.485 225.866 152.386 225.824 152.284 225.759C151.462 225.219 150.485 224.38 149.407 223.32C146.752 220.721 143.482 216.806 140.389 212.862C137.27 208.891 134.331 204.888 132.369 202.173C130.879 200.101 129.955 198.778 129.955 198.778L129.933 198.817C129.714 199.226 129.467 199.63 129.192 200.02C128.889 200.459 128.552 200.885 128.19 201.301C128.039 201.473 127.884 201.646 127.727 201.815C125.103 204.618 121.382 206.966 118.4 209.057C115.933 210.787 111.937 214.029 108.776 216.861C106.813 218.617 105.169 220.217 104.403 221.203C103.29 222.627 99.0003 225.96 95.3998 228.643C93.7588 229.024 92.1239 229.476 90.5693 230.103C91.7561 227.339 94.5499 222.621 97.7239 217.583C102.057 210.715 107.101 203.255 109.771 199.327C110.373 198.443 110.852 197.74 111.18 197.259C112.528 195.275 114.972 191.981 117.788 188.758C121.917 184.017 126.852 179.412 130.289 179.272C136.065 179.038 145.602 188.196 145.602 188.196L159.284 212.793Z" fill="#FD9783"/>
<path d="M117.121 189.533C116.119 190.707 115.174 191.875 114.321 192.971C113.4 194.158 112.587 195.257 111.926 196.193C111.648 196.577 111.4 196.938 111.181 197.26C107.846 202.164 95.4037 219.451 90.9595 223.656C86.7688 227.62 82.1855 229.714 79.812 230.332C82.1515 231.158 84.4663 232.049 86.6946 233.151C91.25 230.504 96.5997 229.568 101.844 229.174C101.835 228.059 101.835 226.947 102.178 225.893C102.524 224.28 103.235 222.7 104.403 221.204C106.403 218.632 114.401 211.858 118.4 209.055C119.025 208.619 119.677 208.173 120.347 207.712C121.435 206.964 122.569 206.18 123.667 205.357C124.878 204.447 126.049 203.484 127.088 202.463C123.914 198.027 120.709 193.614 117.121 189.533Z" fill="white"/>
<path d="M123.666 205.356C122.569 206.179 121.435 206.962 120.347 207.71C119.704 206.709 119.049 205.717 118.375 204.735C116.351 201.782 114.194 198.937 111.925 196.192C112.587 195.255 113.399 194.156 114.32 192.969C116.873 195.961 119.287 199.073 121.571 202.299C122.282 203.307 122.983 204.325 123.666 205.356Z" fill="#ECB255"/>
<path d="M212.322 181.839C212.597 182.538 213.005 183.211 213.116 183.979C213.264 184.984 213.039 186.021 212.875 187.01C212.618 188.557 212.35 190.102 212.081 191.647C211.447 195.292 210.792 198.931 210.1 202.563C209.386 206.293 208.641 210.017 207.81 213.721C207.154 216.648 206.471 219.587 205.544 222.436C205.192 223.525 204.827 224.894 204.058 225.756C200.726 229.493 152.73 230.429 149.176 226.927C145.622 223.421 144.785 217.119 145.177 212.908C145.31 211.477 145.273 210.703 142.065 197.025C140.955 192.291 142.065 185.114 142.065 185.114C144.735 187.253 147.671 189.25 150.487 191.175C151.466 191.842 152.468 192.502 153.577 192.886C155.215 193.445 157.029 193.374 158.593 194.134C160.052 194.843 161.121 196.196 162.224 197.429C165.071 200.606 168.473 203.233 172.21 205.139C173.366 205.731 174.58 206.261 175.863 206.394C177.893 206.606 180.326 205.711 182.202 204.866C184.838 203.679 186.664 200.742 186.643 197.728C186.636 196.869 186.497 195.975 186.8 195.175C187.026 194.567 187.486 194.089 187.975 193.689C188.713 193.081 189.542 192.619 190.354 192.128C192.861 190.619 196.131 188.837 197.71 186.167C197.781 186.05 197.849 185.93 197.914 185.806C197.951 185.735 198.034 185.631 198.016 185.543C198.006 185.504 197.982 185.465 197.96 185.429L197.932 185.38C197.756 185.071 197.614 184.678 197.651 184.317C197.697 183.923 197.929 183.572 198.158 183.273C198.492 182.824 198.912 182.867 198.634 182.382C198.893 181.894 198.396 181.374 198.09 180.915C197.704 180.346 197.589 179.582 197.79 178.915C197.994 178.249 198.507 177.693 199.135 177.462C199.561 177.303 200.025 177.29 200.476 177.238C201.709 177.094 202.757 176.99 203.934 176.477C204.997 176.015 206.039 175.507 207.062 174.955C207.915 174.493 208.91 173.634 209.856 173.465C210.489 173.351 211.246 173.673 211.41 174.33C211.599 175.085 210.968 175.963 211.373 176.616C211.518 176.851 211.766 176.987 211.991 177.137C212.359 177.381 212.696 177.696 212.894 178.099C213.567 179.481 211.883 179.878 212.099 181.081C212.146 181.341 212.226 181.592 212.322 181.839Z" fill="#E4F1FF"/>
<path d="M199.795 192.55C199.795 191.974 198.924 191.932 198.914 192.511C198.887 194.351 198.794 196.221 198.16 197.964C197.573 199.584 196.485 200.907 195.425 202.227C193.426 204.715 191.852 207.411 191.101 210.562C190.962 211.147 191.828 211.443 191.985 210.852C192.931 207.31 194.829 204.627 197.017 201.792C199.183 198.985 199.795 196.075 199.795 192.55Z" fill="#998C57"/>
<path d="M209.784 177.647C208.294 178.84 206.65 179.767 204.867 180.375C204.626 180.456 204.728 180.856 204.972 180.775C206.808 180.164 208.514 179.237 210.037 177.991C210.223 177.842 209.973 177.497 209.784 177.647Z" fill="#998C57"/>
<path d="M208.545 181.701C206.397 183.373 203.439 183.298 201.226 184.914C200.309 185.587 199.347 186.592 198.111 186.309C197.969 186.277 197.833 186.228 197.709 186.166C197.781 186.049 197.849 185.929 197.913 185.805C197.951 185.734 198.034 185.63 198.015 185.542C198.006 185.503 197.981 185.464 197.96 185.428L197.932 185.379C198.692 185.893 200.225 184.534 200.785 184.121C201.477 183.61 202.246 183.246 203.034 182.937C204.771 182.257 206.542 181.737 208.267 181.009C208.681 180.833 208.842 181.47 208.545 181.701Z" fill="#998C57"/>
<path d="M201.282 227.04C201.282 227.04 199.947 222.835 200.614 220.266C201.282 217.697 206.613 207.418 206.168 204.849C205.726 202.28 205.961 194.849 208.279 188.615C211.28 180.557 213.835 177.402 213.835 177.402L219.278 181.025L211.057 208.823L210.389 226.575L201.282 227.04Z" fill="#F7CDA3"/>
<path d="M133.244 203.376C133.033 203.086 132.829 202.807 132.635 202.537C132.709 202.569 132.777 202.628 132.833 202.716C132.969 202.933 133.105 203.155 133.244 203.376Z" fill="#DB7963"/>
<path d="M216.947 171.91C213.671 175.091 211.869 179.562 210.107 183.776C209.9 184.274 210.642 184.589 210.849 184.095C212.623 179.903 214.518 175.864 217.401 172.375C217.636 172.092 217.216 171.65 216.947 171.91Z" fill="#BC7551"/>
<path d="M206.811 205.695C206.759 205.279 206.069 205.373 206.11 205.796C206.382 208.778 206.348 211.751 205.998 214.723C205.943 215.201 206.737 215.318 206.799 214.837C207.194 211.79 207.204 208.742 206.811 205.695Z" fill="#BC7551"/>
<path d="M124.513 227.859C124.513 227.859 148.286 225.287 151.503 225.635C151.503 225.635 161.396 224.822 169.616 226.692C171.733 227.17 173.853 227.586 175.575 227.902C177.973 228.344 180.433 228.243 182.791 227.612C188.091 226.194 198.197 223.733 202.836 224.237C209.28 224.939 211.725 226.341 211.725 226.341L211.28 233.349L129.177 234.623L124.513 227.859Z" fill="#F7CDA3"/>
<path d="M124.624 268.155C124.624 268.155 119.714 268.22 115.087 267.745C111.076 267.332 109.277 266.509 109.07 264.883C109.061 264.821 109.054 264.753 109.051 264.675C108.792 260.269 111.505 229.122 111.069 227.743C111.054 227.691 111.026 227.639 110.992 227.587C110.797 227.294 110.3 227.024 109.688 226.67C108.841 226.179 108.022 225.893 107.231 225.746C105.262 225.382 103.498 225.889 102.07 226.224C102.292 225.057 102.818 223.792 103.099 223.155C103.525 222.397 103.958 221.714 103.958 221.714C103.958 221.714 107.308 216.41 111.595 212.16C111.944 211.815 112.476 211.337 113.112 210.804C114.97 209.236 117.723 207.191 119.401 206.602C120.733 206.134 122.504 205.305 123.66 205.425C128.123 205.887 132.224 208.924 132.4 216.53C132.623 226.107 124.624 268.155 124.624 268.155Z" fill="#005BBA"/>
<path d="M116.289 264.063C114.29 263.832 109.765 263.92 109.051 264.675C109.054 264.753 109.061 264.821 109.07 264.883C109.261 266.392 110.513 267.335 115.625 267.803C115.77 266.58 116.116 265.283 116.289 264.063Z" fill="#1A1A1A"/>
<path d="M115.177 266.866C115.146 268.95 115.096 271.191 114.401 273.168C113.752 275.006 112.599 276.446 111.555 278.036C110.98 278.914 109.54 281.73 110.875 282.524C111.11 282.563 111.292 282.517 111.292 282.517L125.512 282.283C125.512 282.283 123.846 275.861 123.846 273.526C123.846 271.188 125.085 265.92 125.085 265.92C125.085 265.92 124.55 264.307 115.171 263.978C115.186 264.941 115.192 265.903 115.177 266.866Z" fill="#E88B72"/>
<path d="M108.625 282.401C108.625 282.401 110.179 276.329 117.29 273.292C124.402 270.255 128.401 281.233 127.956 282.401C127.511 283.568 108.625 282.869 108.625 282.869V282.401Z" fill="#08294A"/>
<path d="M128.358 281.048C125.023 281.201 121.685 281.377 118.347 281.497C114.936 281.621 111.57 281.484 108.161 281.321C107.521 281.292 107.358 283.334 108.007 283.451C111.323 284.04 114.784 283.933 118.131 283.819C121.54 283.708 124.949 283.533 128.358 283.38C129.211 283.341 129.214 281.009 128.358 281.048Z" fill="#493333"/>
<path d="M161.618 154.966C161.618 154.966 162.286 152.865 161.618 152.631C160.954 152.397 158.732 155.678 158.509 156.147C158.287 156.612 158.077 163.876 158.077 163.876L162.731 160.351L161.618 154.966Z" fill="#C9E4FF"/>
<path d="M178.839 183.36C178.839 183.36 178.394 175.419 178.174 174.483C177.952 173.549 173.949 171.68 173.949 171.68L173.504 178.222L178.839 183.36Z" fill="#E88B72"/>
<path d="M174.617 183.36L175.949 182.427C175.949 182.427 177.396 158.717 176.839 157.898C176.11 156.825 163.618 155.904 163.618 155.904V153.566C163.396 153.332 161.841 153.098 161.841 153.098L159.285 156.265L164.619 178.222L174.617 183.36Z" fill="#F2F2F2"/>
<path d="M158.508 156.149C158.508 156.149 175.284 157.434 175.729 158.601C176.171 159.769 175.506 182.893 174.839 183.826C174.171 184.763 158.839 182.194 158.397 181.261C157.952 180.324 157.841 156.383 158.508 156.149Z" fill="#C9E4FF"/>
<path d="M184.145 197.216C184.145 197.216 179.172 185.347 178.727 183.009C178.282 180.674 177.395 176.001 176.95 175.536C175.977 174.511 174.295 173.897 173.118 173.175C171.236 172.017 169.527 170.69 167.818 169.269C167.688 169.159 167.54 169.045 167.376 169.064C167.234 169.081 167.116 169.195 167.036 169.321C166.779 169.747 166.857 170.323 167.085 170.762C167.32 171.207 167.679 171.555 168.006 171.923C168.185 172.128 168.365 172.355 168.396 172.629C168.464 173.201 167.889 173.666 167.879 174.238C167.867 174.924 168.652 175.432 168.596 176.115C168.566 176.485 168.287 176.833 168.386 177.188C168.464 177.471 168.748 177.624 168.921 177.854C169.283 178.336 169.113 179.038 169.221 179.643C169.304 180.108 169.551 180.514 169.78 180.921C170.741 182.657 171.332 184.586 171.919 186.495C173.857 192.833 175.797 199.167 177.738 205.505C179.837 202.761 182.263 200.13 184.145 197.216Z" fill="#E88B72"/>
<path d="M171.529 174.7C170.697 173.998 169.813 173.39 169.022 172.626C168.661 172.278 168.138 172.821 168.481 173.195C169.223 174.004 170.101 174.84 171.087 175.305C171.43 175.468 171.881 174.999 171.529 174.7Z" fill="#DB7963"/>
<path d="M170.587 177.064C170.413 176.814 170.185 176.654 169.956 176.459C169.73 176.267 169.511 176.066 169.298 175.861C168.97 175.539 168.488 176.04 168.806 176.378C169.202 176.807 169.672 177.373 170.222 177.565C170.475 177.656 170.753 177.308 170.587 177.064Z" fill="#DB7963"/>
<path d="M170.311 178.959C170.284 178.806 170.219 178.68 170.107 178.582C170.018 178.501 169.922 178.426 169.832 178.348C169.681 178.218 169.449 178.179 169.304 178.348C169.177 178.491 169.143 178.761 169.304 178.901C169.406 178.992 169.511 179.083 169.616 179.167C169.684 179.226 169.746 179.275 169.832 179.297C169.9 179.317 169.978 179.323 170.049 179.323C170.234 179.323 170.345 179.141 170.311 178.959Z" fill="#DB7963"/>
<path d="M185.524 231.275C186.225 231.347 186.961 231.288 187.656 231.207C189.189 231.028 190.654 230.534 192.088 229.945C194.239 229.064 196.316 228.283 198.615 227.945C199.113 227.873 199.598 227.847 200.08 227.851C200.47 226.039 200.278 223.874 199.261 222.482C198.164 220.986 197.534 219.448 196.838 217.698C196.838 217.698 190.395 211.159 183.951 195.975C183.951 195.975 172.062 207.77 174.617 210.69C176.543 212.892 177.284 213.493 177.284 215.129C177.284 216.765 177.73 220.97 178.617 223.539C179.355 225.675 181.274 226.849 182.829 228.254C183.824 229.155 184.535 230.377 185.524 231.275Z" fill="#E4F1FF"/>
<path d="M196.05 216.007C192.116 211.675 188.886 206.811 186.491 201.37C186.278 200.886 185.607 201.308 185.811 201.79C188.138 207.285 191.396 212.381 195.46 216.631C195.84 217.031 196.421 216.417 196.05 216.007Z" fill="#998C57"/>
<path d="M182.476 227.56C181.061 226.474 179.748 225.203 178.91 223.557C177.952 221.668 178.153 219.795 178.134 217.736C178.119 216.211 177.785 214.722 177.087 213.379C176.74 212.705 176.302 212.094 175.804 211.538C175.563 211.262 175.248 210.992 175.075 210.663C174.627 209.818 175.053 208.956 175.374 208.172C175.56 207.724 174.97 207.324 174.732 207.776C173.869 209.431 173.866 210.683 175.087 212.065C176.734 213.935 177.309 216.13 177.235 218.637C177.173 220.689 177.303 222.526 178.314 224.334C179.225 225.964 180.567 227.29 182.044 228.344C182.51 228.672 182.918 227.898 182.476 227.56Z" fill="#998C57"/>
<path d="M185.344 202.054C182.078 205.027 179.395 208.679 177.451 212.734C177.337 212.978 177.68 213.189 177.797 212.948C179.766 208.929 182.424 205.358 185.641 202.363C185.845 202.175 185.548 201.869 185.344 202.054Z" fill="#998C57"/>
<path d="M180.842 228.727C178.101 227.465 175.196 226.782 172.253 226.259C170.73 225.986 169.197 225.745 167.667 225.495C166.987 225.384 166.304 225.277 165.618 225.199C164.836 225.108 163.977 225.192 163.223 224.952C162.537 224.737 162.243 225.862 162.929 226.08C164.246 226.496 165.797 226.366 167.16 226.587C168.634 226.828 170.109 227.062 171.58 227.319C174.54 227.833 177.52 228.464 180.283 229.735C180.928 230.034 181.497 229.029 180.842 228.727Z" fill="#BC7551"/>
<path d="M203.612 213.879C200.837 218.373 198.46 223.94 199.743 229.387C199.916 230.115 200.985 229.806 200.815 229.075C199.607 223.946 201.968 218.685 204.57 214.467C204.963 213.836 204.002 213.251 203.612 213.879Z" fill="#BC7551"/>
<path d="M199.984 157.987C201.654 159.128 208.735 162.484 209.842 165.219C210.075 164.735 210.432 164.235 210.768 164.053C211.531 163.647 212.322 164.518 211.932 165.722C211.591 166.78 210.543 168.184 209.444 167.773C207.185 172.18 202.161 173.646 199.274 172.858C194.215 171.479 198.17 165.235 199.984 157.987Z" fill="#FD9783"/>
<path d="M89.7814 146.827C89.7125 146.822 89.6466 146.792 89.5914 146.741C89.5362 146.691 89.4938 146.62 89.4693 146.539L89.0999 145.317C89.0664 145.204 89.07 145.078 89.1099 144.966C89.1498 144.854 89.2227 144.765 89.3126 144.719C89.4024 144.674 89.5019 144.675 89.5891 144.723C89.6763 144.77 89.7441 144.861 89.7776 144.974L90.1469 146.196C90.164 146.251 90.172 146.311 90.1705 146.372C90.169 146.432 90.158 146.492 90.1382 146.548C90.1184 146.603 90.0902 146.654 90.0552 146.696C90.0201 146.738 89.9791 146.771 89.9343 146.793C89.8858 146.82 89.8334 146.831 89.7814 146.827V146.827Z" fill="#080C53"/>
<path d="M93.4151 145.828C93.3519 145.825 93.2911 145.799 93.2398 145.754C93.1885 145.709 93.1488 145.645 93.1253 145.571L92.7912 144.442C92.775 144.392 92.7669 144.337 92.7676 144.282C92.7682 144.227 92.7775 144.172 92.7948 144.121C92.8121 144.07 92.8372 144.024 92.8686 143.985C92.9 143.946 92.937 143.915 92.9775 143.894C93.0598 143.853 93.1507 143.854 93.2304 143.898C93.3101 143.941 93.3724 144.023 93.4038 144.126L93.7464 145.245C93.7763 145.349 93.7727 145.464 93.7364 145.567C93.7001 145.669 93.6339 145.751 93.5521 145.793C93.5094 145.82 93.462 145.832 93.4151 145.828V145.828Z" fill="#080C53"/>
<path d="M91.6607 151.603C91.5066 151.326 91.6766 150.984 91.9856 150.912L94.258 150.383C94.6124 150.3 94.9207 150.613 94.8127 150.964C94.5864 151.699 94.1805 152.734 93.6403 152.956C92.9143 153.254 92.2025 152.577 91.6607 151.603Z" fill="white"/>
<path d="M199.306 161.993C199.255 161.941 199.22 161.872 199.206 161.794C199.192 161.716 199.199 161.633 199.227 161.553L199.647 160.35C199.686 160.239 199.762 160.144 199.859 160.085C199.956 160.026 200.065 160.008 200.163 160.036C200.26 160.063 200.338 160.134 200.379 160.231C200.42 160.329 200.421 160.446 200.382 160.557L199.962 161.76C199.943 161.815 199.915 161.867 199.878 161.912C199.842 161.958 199.799 161.997 199.751 162.026C199.703 162.055 199.651 162.074 199.599 162.083C199.546 162.091 199.495 162.088 199.447 162.074C199.393 162.06 199.345 162.033 199.306 161.993Z" fill="#080C53"/>
<path d="M201.724 163.634C201.676 163.587 201.643 163.525 201.629 163.454C201.615 163.383 201.62 163.307 201.645 163.233L202.038 162.127C202.055 162.076 202.08 162.029 202.112 161.986C202.145 161.944 202.184 161.908 202.228 161.881C202.271 161.854 202.318 161.835 202.365 161.827C202.413 161.819 202.46 161.82 202.504 161.832C202.593 161.858 202.664 161.923 202.702 162.012C202.74 162.101 202.741 162.208 202.706 162.309L202.325 163.414C202.288 163.515 202.218 163.602 202.13 163.656C202.042 163.71 201.942 163.727 201.853 163.703C201.803 163.693 201.759 163.67 201.724 163.634V163.634Z" fill="#080C53"/>
<path d="M197.863 166.949C197.901 166.616 198.244 166.452 198.526 166.61L200.609 167.773C200.924 167.949 200.964 168.403 200.669 168.601C200.071 169.003 199.176 169.498 198.634 169.298C197.906 169.03 197.735 168.046 197.863 166.949Z" fill="white"/>
<path d="M202.263 168.14H208.241V174.431L205.252 176.003L202.263 177.052V168.14Z" fill="#FD9783"/>
</g>
<defs>
<clipPath id="clip0_147_1247">
<rect width="436" height="284" fill="white"/>
</clipPath>
</defs>
</svg>
